<svg width="90" height="97" viewBox="0 0 90 97" fill="none" xmlns="http://www.w3.org/2000/svg">
<ellipse cx="45.5" cy="27" rx="27.5" ry="27" fill="#FF1744" fill-opacity="0.2"/>
<path d="M27.915 68V61H29.535V66.68H33.045V68H27.915ZM35.4401 63.82H38.8101V65.08H35.4401V63.82ZM35.5601 66.7H39.3701V68H33.9501V61H39.2401V62.3H35.5601V66.7ZM39.7391 68L42.8591 61H44.4591L47.5891 68H45.8891L43.3291 61.82H43.9691L41.3991 68H39.7391ZM41.2991 66.5L41.7291 65.27H45.3291L45.7691 66.5H41.2991ZM48.3154 68V61H51.3454C51.972 61 52.512 61.1033 52.9654 61.31C53.4187 61.51 53.7687 61.8 54.0154 62.18C54.262 62.56 54.3854 63.0133 54.3854 63.54C54.3854 64.06 54.262 64.51 54.0154 64.89C53.7687 65.2633 53.4187 65.55 52.9654 65.75C52.512 65.95 51.972 66.05 51.3454 66.05H49.2154L49.9354 65.34V68H48.3154ZM52.7654 68L51.0154 65.46H52.7454L54.5154 68H52.7654ZM49.9354 65.52L49.2154 64.76H51.2554C51.7554 64.76 52.1287 64.6533 52.3754 64.44C52.622 64.22 52.7454 63.92 52.7454 63.54C52.7454 63.1533 52.622 62.8533 52.3754 62.64C52.1287 62.4267 51.7554 62.32 51.2554 62.32H49.2154L49.9354 61.55V65.52ZM55.6689 68V61H57.0089L61.1389 66.04H60.4889V61H62.0889V68H60.7589L56.6189 62.96H57.2689V68H55.6689Z" fill="white"/>
<path d="M6.47566 72.98C6.82366 72.98 7.12366 73.052 7.37566 73.196C7.62766 73.336 7.83766 73.544 8.00566 73.82L7.60366 74.132C7.45566 73.876 7.28766 73.696 7.09966 73.592C6.91566 73.484 6.69166 73.43 6.42766 73.43C6.21566 73.43 6.03966 73.46 5.89966 73.52C5.76366 73.58 5.66366 73.66 5.59966 73.76C5.53566 73.856 5.50366 73.966 5.50366 74.09C5.50366 74.23 5.54766 74.354 5.63566 74.462C5.72366 74.566 5.89966 74.648 6.16366 74.708L7.02166 74.9C7.40166 74.984 7.66566 75.112 7.81366 75.284C7.96566 75.452 8.04166 75.662 8.04166 75.914C8.04166 76.138 7.97766 76.338 7.84966 76.514C7.72566 76.686 7.54966 76.82 7.32166 76.916C7.09366 77.012 6.82566 77.06 6.51766 77.06C6.22966 77.06 5.97566 77.022 5.75566 76.946C5.53966 76.866 5.35366 76.76 5.19766 76.628C5.04166 76.496 4.91366 76.348 4.81366 76.184L5.23366 75.842C5.30966 75.994 5.40766 76.128 5.52766 76.244C5.64766 76.36 5.79166 76.45 5.95966 76.514C6.13166 76.578 6.32766 76.61 6.54766 76.61C6.75166 76.61 6.92766 76.586 7.07566 76.538C7.22766 76.486 7.34366 76.412 7.42366 76.316C7.50366 76.216 7.54366 76.096 7.54366 75.956C7.54366 75.828 7.50166 75.714 7.41766 75.614C7.33366 75.51 7.17566 75.432 6.94366 75.38L6.01366 75.17C5.76966 75.114 5.57166 75.038 5.41966 74.942C5.27166 74.842 5.16366 74.726 5.09566 74.594C5.03166 74.458 4.99966 74.312 4.99966 74.156C4.99966 73.944 5.05766 73.75 5.17366 73.574C5.29366 73.394 5.46366 73.25 5.68366 73.142C5.90766 73.034 6.17166 72.98 6.47566 72.98ZM9.66541 73.148V76.172C9.66541 76.32 9.70741 76.43 9.79141 76.502C9.87541 76.574 9.98341 76.61 10.1154 76.61C10.2314 76.61 10.3314 76.59 10.4154 76.55C10.4994 76.51 10.5754 76.456 10.6434 76.388L10.8114 76.79C10.7194 76.874 10.6094 76.94 10.4814 76.988C10.3574 77.036 10.2134 77.06 10.0494 77.06C9.89741 77.06 9.75541 77.034 9.62341 76.982C9.49141 76.926 9.38541 76.84 9.30541 76.724C9.22941 76.604 9.18941 76.448 9.18541 76.256V73.28L9.66541 73.148ZM10.7574 74V74.414H8.58541V74H10.7574ZM13.2231 75.062C13.2231 74.838 13.1631 74.666 13.0431 74.546C12.9231 74.422 12.7531 74.36 12.5331 74.36C12.3251 74.36 12.1491 74.406 12.0051 74.498C11.8611 74.586 11.7551 74.73 11.6871 74.93L11.2971 74.69C11.3771 74.466 11.5251 74.286 11.7411 74.15C11.9571 74.01 12.2251 73.94 12.5451 73.94C12.7611 73.94 12.9571 73.978 13.1331 74.054C13.3091 74.126 13.4471 74.238 13.5471 74.39C13.6511 74.538 13.7031 74.73 13.7031 74.966V76.418C13.7031 76.562 13.7791 76.634 13.9311 76.634C14.0071 76.634 14.0811 76.624 14.1531 76.604L14.1291 76.982C14.0491 77.022 13.9451 77.042 13.8171 77.042C13.7011 77.042 13.5971 77.02 13.5051 76.976C13.4131 76.932 13.3411 76.866 13.2891 76.778C13.2371 76.686 13.2111 76.572 13.2111 76.436V76.376L13.3311 76.394C13.2831 76.55 13.2011 76.678 13.0851 76.778C12.9691 76.874 12.8391 76.946 12.6951 76.994C12.5511 77.038 12.4091 77.06 12.2691 77.06C12.0931 77.06 11.9291 77.03 11.7771 76.97C11.6251 76.91 11.5031 76.82 11.4111 76.7C11.3231 76.576 11.2791 76.424 11.2791 76.244C11.2791 76.02 11.3531 75.836 11.5011 75.692C11.6531 75.544 11.8631 75.444 12.1311 75.392L13.3191 75.158V75.554L12.3531 75.752C12.1571 75.792 12.0111 75.848 11.9151 75.92C11.8191 75.992 11.7711 76.092 11.7711 76.22C11.7711 76.344 11.8191 76.446 11.9151 76.526C12.0151 76.602 12.1551 76.64 12.3351 76.64C12.4511 76.64 12.5611 76.626 12.6651 76.598C12.7731 76.566 12.8691 76.52 12.9531 76.46C13.0371 76.396 13.1031 76.318 13.1511 76.226C13.1991 76.13 13.2231 76.018 13.2231 75.89V75.062ZM17.1597 74L15.7497 77.504C15.6737 77.7 15.5897 77.854 15.4977 77.966C15.4097 78.082 15.3097 78.164 15.1977 78.212C15.0897 78.264 14.9637 78.29 14.8197 78.29C14.6837 78.29 14.5577 78.27 14.4417 78.23C14.3297 78.194 14.2297 78.144 14.1417 78.08L14.2737 77.66C14.3537 77.732 14.4377 77.784 14.5257 77.816C14.6177 77.852 14.7077 77.87 14.7957 77.87C14.8997 77.87 14.9977 77.838 15.0897 77.774C15.1817 77.71 15.2657 77.58 15.3417 77.384L15.4977 76.994L15.1977 76.28L14.2437 74H14.7897L15.5397 75.956L15.7257 76.49L15.9417 75.896L16.6437 74H17.1597ZM19.9201 73.424C19.8121 73.424 19.7241 73.392 19.6561 73.328C19.5921 73.26 19.5601 73.172 19.5601 73.064C19.5601 72.956 19.5921 72.87 19.6561 72.806C19.7241 72.738 19.8121 72.704 19.9201 72.704C20.0281 72.704 20.1141 72.738 20.1781 72.806C20.2461 72.87 20.2801 72.956 20.2801 73.064C20.2801 73.172 20.2461 73.26 20.1781 73.328C20.1141 73.392 20.0281 73.424 19.9201 73.424ZM20.1601 74V77H19.6801V74H20.1601ZM21.2738 77V74H21.6938L21.7358 74.672L21.6578 74.606C21.7218 74.446 21.8078 74.318 21.9158 74.222C22.0238 74.122 22.1478 74.05 22.2878 74.006C22.4318 73.962 22.5798 73.94 22.7318 73.94C22.9478 73.94 23.1438 73.982 23.3198 74.066C23.4958 74.146 23.6358 74.27 23.7398 74.438C23.8478 74.606 23.9018 74.82 23.9018 75.08V77H23.4218V75.248C23.4218 74.916 23.3498 74.686 23.2058 74.558C23.0658 74.426 22.8918 74.36 22.6838 74.36C22.5398 74.36 22.3958 74.394 22.2518 74.462C22.1078 74.53 21.9878 74.64 21.8918 74.792C21.7998 74.944 21.7538 75.148 21.7538 75.404V77H21.2738ZM26.1656 72.59C26.2696 72.59 26.3676 72.602 26.4596 72.626C26.5516 72.65 26.6236 72.684 26.6756 72.728L26.5496 73.118C26.5016 73.086 26.4496 73.064 26.3936 73.052C26.3376 73.036 26.2756 73.028 26.2076 73.028C26.0356 73.028 25.9016 73.07 25.8056 73.154C25.7096 73.234 25.6616 73.364 25.6616 73.544V74V74.156V77H25.1816V73.496C25.1816 73.364 25.2016 73.242 25.2416 73.13C25.2816 73.018 25.3416 72.922 25.4216 72.842C25.5056 72.762 25.6096 72.7 25.7336 72.656C25.8576 72.612 26.0016 72.59 26.1656 72.59ZM26.6636 74V74.414H24.5816V74H26.6636ZM28.4631 73.94C28.7471 73.94 28.9971 74.002 29.2131 74.126C29.4331 74.25 29.6051 74.43 29.7291 74.666C29.8531 74.898 29.9151 75.176 29.9151 75.5C29.9151 75.824 29.8531 76.104 29.7291 76.34C29.6051 76.572 29.4331 76.75 29.2131 76.874C28.9971 76.998 28.7471 77.06 28.4631 77.06C28.1831 77.06 27.9331 76.998 27.7131 76.874C27.4931 76.75 27.3211 76.572 27.1971 76.34C27.0731 76.104 27.0111 75.824 27.0111 75.5C27.0111 75.176 27.0731 74.898 27.1971 74.666C27.3211 74.43 27.4931 74.25 27.7131 74.126C27.9331 74.002 28.1831 73.94 28.4631 73.94ZM28.4631 74.354C28.2591 74.354 28.0851 74.4 27.9411 74.492C27.7971 74.584 27.6851 74.716 27.6051 74.888C27.5291 75.056 27.4911 75.26 27.4911 75.5C27.4911 75.736 27.5291 75.94 27.6051 76.112C27.6851 76.284 27.7971 76.416 27.9411 76.508C28.0851 76.6 28.2591 76.646 28.4631 76.646C28.6671 76.646 28.8411 76.6 28.9851 76.508C29.1291 76.416 29.2391 76.284 29.3151 76.112C29.3951 75.94 29.4351 75.736 29.4351 75.5C29.4351 75.26 29.3951 75.056 29.3151 74.888C29.2391 74.716 29.1291 74.584 28.9851 74.492C28.8411 74.4 28.6671 74.354 28.4631 74.354ZM30.8187 77V74H31.2087L31.2747 74.492C31.3587 74.308 31.4807 74.17 31.6407 74.078C31.8047 73.986 32.0027 73.94 32.2347 73.94C32.2867 73.94 32.3427 73.944 32.4027 73.952C32.4667 73.96 32.5207 73.976 32.5647 74L32.4807 74.438C32.4367 74.422 32.3887 74.41 32.3367 74.402C32.2847 74.394 32.2107 74.39 32.1147 74.39C31.9907 74.39 31.8647 74.426 31.7367 74.498C31.6127 74.57 31.5087 74.68 31.4247 74.828C31.3407 74.972 31.2987 75.156 31.2987 75.38V77H30.8187ZM33.268 77V74H33.688L33.718 74.468C33.826 74.284 33.966 74.15 34.138 74.066C34.314 73.982 34.494 73.94 34.678 73.94C34.89 73.94 35.09 73.988 35.278 74.084C35.466 74.18 35.61 74.328 35.71 74.528C35.774 74.392 35.864 74.282 35.98 74.198C36.096 74.11 36.222 74.046 36.358 74.006C36.498 73.962 36.63 73.94 36.754 73.94C36.946 73.94 37.128 73.98 37.3 74.06C37.476 74.14 37.62 74.264 37.732 74.432C37.844 74.6 37.9 74.816 37.9 75.08V77H37.42V75.128C37.42 74.856 37.352 74.66 37.216 74.54C37.08 74.42 36.912 74.36 36.712 74.36C36.556 74.36 36.41 74.398 36.274 74.474C36.138 74.55 36.028 74.662 35.944 74.81C35.864 74.958 35.824 75.14 35.824 75.356V77H35.344V75.128C35.344 74.856 35.276 74.66 35.14 74.54C35.004 74.42 34.836 74.36 34.636 74.36C34.504 74.36 34.368 74.396 34.228 74.468C34.092 74.536 33.978 74.646 33.886 74.798C33.794 74.95 33.748 75.15 33.748 75.398V77H33.268ZM40.2407 77.06C39.9567 77.06 39.7027 76.998 39.4787 76.874C39.2587 76.75 39.0867 76.572 38.9627 76.34C38.8387 76.104 38.7767 75.824 38.7767 75.5C38.7767 75.176 38.8387 74.898 38.9627 74.666C39.0867 74.43 39.2567 74.25 39.4727 74.126C39.6887 74.002 39.9347 73.94 40.2107 73.94C40.4907 73.94 40.7287 74 40.9247 74.12C41.1247 74.24 41.2767 74.404 41.3807 74.612C41.4847 74.816 41.5367 75.046 41.5367 75.302C41.5367 75.37 41.5347 75.432 41.5307 75.488C41.5267 75.544 41.5207 75.594 41.5127 75.638H39.0887V75.212H41.3027L41.0567 75.26C41.0567 74.972 40.9767 74.75 40.8167 74.594C40.6607 74.438 40.4547 74.36 40.1987 74.36C40.0027 74.36 39.8327 74.406 39.6887 74.498C39.5487 74.586 39.4387 74.716 39.3587 74.888C39.2827 75.056 39.2447 75.26 39.2447 75.5C39.2447 75.736 39.2847 75.94 39.3647 76.112C39.4447 76.284 39.5567 76.416 39.7007 76.508C39.8487 76.596 40.0247 76.64 40.2287 76.64C40.4487 76.64 40.6267 76.598 40.7627 76.514C40.9027 76.43 41.0147 76.316 41.0987 76.172L41.4767 76.394C41.4007 76.53 41.3027 76.648 41.1827 76.748C41.0667 76.848 40.9287 76.926 40.7687 76.982C40.6127 77.034 40.4367 77.06 40.2407 77.06ZM43.6196 77.06C43.3716 77.06 43.1436 76.998 42.9356 76.874C42.7276 76.75 42.5616 76.572 42.4376 76.34C42.3136 76.104 42.2516 75.824 42.2516 75.5C42.2516 75.168 42.3176 74.886 42.4496 74.654C42.5816 74.422 42.7556 74.246 42.9716 74.126C43.1876 74.002 43.4196 73.94 43.6676 73.94C43.9156 73.94 44.1296 74.004 44.3096 74.132C44.4936 74.26 44.6156 74.43 44.6756 74.642L44.6156 74.684V72.62H45.0956V77H44.6756L44.6336 76.274L44.6996 76.238C44.6716 76.414 44.6036 76.564 44.4956 76.688C44.3916 76.808 44.2616 76.9 44.1056 76.964C43.9536 77.028 43.7916 77.06 43.6196 77.06ZM43.6676 76.64C43.8596 76.64 44.0256 76.592 44.1656 76.496C44.3096 76.4 44.4196 76.264 44.4956 76.088C44.5756 75.908 44.6156 75.698 44.6156 75.458C44.6156 75.23 44.5756 75.034 44.4956 74.87C44.4196 74.706 44.3116 74.58 44.1716 74.492C44.0356 74.404 43.8756 74.36 43.6916 74.36C43.3876 74.36 43.1516 74.464 42.9836 74.672C42.8156 74.88 42.7316 75.156 42.7316 75.5C42.7316 75.844 42.8136 76.12 42.9776 76.328C43.1416 76.536 43.3716 76.64 43.6676 76.64ZM50.0082 75.062C50.0082 74.838 49.9482 74.666 49.8282 74.546C49.7082 74.422 49.5382 74.36 49.3182 74.36C49.1102 74.36 48.9342 74.406 48.7902 74.498C48.6462 74.586 48.5402 74.73 48.4722 74.93L48.0822 74.69C48.1622 74.466 48.3102 74.286 48.5262 74.15C48.7422 74.01 49.0102 73.94 49.3302 73.94C49.5462 73.94 49.7422 73.978 49.9182 74.054C50.0942 74.126 50.2322 74.238 50.3322 74.39C50.4362 74.538 50.4882 74.73 50.4882 74.966V76.418C50.4882 76.562 50.5642 76.634 50.7162 76.634C50.7922 76.634 50.8662 76.624 50.9382 76.604L50.9142 76.982C50.8342 77.022 50.7302 77.042 50.6022 77.042C50.4862 77.042 50.3822 77.02 50.2902 76.976C50.1982 76.932 50.1262 76.866 50.0742 76.778C50.0222 76.686 49.9962 76.572 49.9962 76.436V76.376L50.1162 76.394C50.0682 76.55 49.9862 76.678 49.8702 76.778C49.7542 76.874 49.6242 76.946 49.4802 76.994C49.3362 77.038 49.1942 77.06 49.0542 77.06C48.8782 77.06 48.7142 77.03 48.5622 76.97C48.4102 76.91 48.2882 76.82 48.1962 76.7C48.1082 76.576 48.0642 76.424 48.0642 76.244C48.0642 76.02 48.1382 75.836 48.2862 75.692C48.4382 75.544 48.6482 75.444 48.9162 75.392L50.1042 75.158V75.554L49.1382 75.752C48.9422 75.792 48.7962 75.848 48.7002 75.92C48.6042 75.992 48.5562 76.092 48.5562 76.22C48.5562 76.344 48.6042 76.446 48.7002 76.526C48.8002 76.602 48.9402 76.64 49.1202 76.64C49.2362 76.64 49.3462 76.626 49.4502 76.598C49.5582 76.566 49.6542 76.52 49.7382 76.46C49.8222 76.396 49.8882 76.318 49.9362 76.226C49.9842 76.13 50.0082 76.018 50.0082 75.89V75.062ZM51.6547 77V74H52.0747L52.1167 74.672L52.0387 74.606C52.1027 74.446 52.1887 74.318 52.2967 74.222C52.4047 74.122 52.5287 74.05 52.6687 74.006C52.8127 73.962 52.9607 73.94 53.1127 73.94C53.3287 73.94 53.5247 73.982 53.7007 74.066C53.8767 74.146 54.0167 74.27 54.1207 74.438C54.2287 74.606 54.2827 74.82 54.2827 75.08V77H53.8027V75.248C53.8027 74.916 53.7307 74.686 53.5867 74.558C53.4467 74.426 53.2727 74.36 53.0647 74.36C52.9207 74.36 52.7767 74.394 52.6327 74.462C52.4887 74.53 52.3687 74.64 52.2727 74.792C52.1807 74.944 52.1347 75.148 52.1347 75.404V77H51.6547ZM56.5395 77.06C56.2915 77.06 56.0635 76.998 55.8555 76.874C55.6475 76.75 55.4815 76.572 55.3575 76.34C55.2335 76.104 55.1715 75.824 55.1715 75.5C55.1715 75.168 55.2375 74.886 55.3695 74.654C55.5015 74.422 55.6755 74.246 55.8915 74.126C56.1075 74.002 56.3395 73.94 56.5875 73.94C56.8355 73.94 57.0495 74.004 57.2295 74.132C57.4135 74.26 57.5355 74.43 57.5955 74.642L57.5355 74.684V72.62H58.0155V77H57.5955L57.5535 76.274L57.6195 76.238C57.5915 76.414 57.5235 76.564 57.4155 76.688C57.3115 76.808 57.1815 76.9 57.0255 76.964C56.8735 77.028 56.7115 77.06 56.5395 77.06ZM56.5875 76.64C56.7795 76.64 56.9455 76.592 57.0855 76.496C57.2295 76.4 57.3395 76.264 57.4155 76.088C57.4955 75.908 57.5355 75.698 57.5355 75.458C57.5355 75.23 57.4955 75.034 57.4155 74.87C57.3395 74.706 57.2315 74.58 57.0915 74.492C56.9555 74.404 56.7955 74.36 56.6115 74.36C56.3075 74.36 56.0715 74.464 55.9035 74.672C55.7355 74.88 55.6515 75.156 55.6515 75.5C55.6515 75.844 55.7335 76.12 55.8975 76.328C56.0615 76.536 56.2915 76.64 56.5875 76.64ZM62.4302 77.06C62.1462 77.06 61.8922 76.998 61.6682 76.874C61.4482 76.75 61.2762 76.572 61.1522 76.34C61.0282 76.104 60.9662 75.824 60.9662 75.5C60.9662 75.176 61.0282 74.898 61.1522 74.666C61.2762 74.43 61.4462 74.25 61.6622 74.126C61.8782 74.002 62.1242 73.94 62.4002 73.94C62.6802 73.94 62.9182 74 63.1142 74.12C63.3142 74.24 63.4662 74.404 63.5702 74.612C63.6742 74.816 63.7262 75.046 63.7262 75.302C63.7262 75.37 63.7242 75.432 63.7202 75.488C63.7162 75.544 63.7102 75.594 63.7022 75.638H61.2782V75.212H63.4922L63.2462 75.26C63.2462 74.972 63.1662 74.75 63.0062 74.594C62.8502 74.438 62.6442 74.36 62.3882 74.36C62.1922 74.36 62.0222 74.406 61.8782 74.498C61.7382 74.586 61.6282 74.716 61.5482 74.888C61.4722 75.056 61.4342 75.26 61.4342 75.5C61.4342 75.736 61.4742 75.94 61.5542 76.112C61.6342 76.284 61.7462 76.416 61.8902 76.508C62.0382 76.596 62.2142 76.64 62.4182 76.64C62.6382 76.64 62.8162 76.598 62.9522 76.514C63.0922 76.43 63.2042 76.316 63.2882 76.172L63.6662 76.394C63.5902 76.53 63.4922 76.648 63.3722 76.748C63.2562 76.848 63.1182 76.926 62.9582 76.982C62.8022 77.034 62.6262 77.06 62.4302 77.06ZM64.6391 77V74H65.0591L65.1011 74.672L65.0231 74.606C65.0871 74.446 65.1731 74.318 65.2811 74.222C65.3891 74.122 65.5131 74.05 65.6531 74.006C65.7971 73.962 65.9451 73.94 66.0971 73.94C66.3131 73.94 66.5091 73.982 66.6851 74.066C66.8611 74.146 67.0011 74.27 67.1051 74.438C67.2131 74.606 67.2671 74.82 67.2671 75.08V77H66.7871V75.248C66.7871 74.916 66.7151 74.686 66.5711 74.558C66.4311 74.426 66.2571 74.36 66.0491 74.36C65.9051 74.36 65.7611 74.394 65.6171 74.462C65.4731 74.53 65.3531 74.64 65.2571 74.792C65.1651 74.944 65.1191 75.148 65.1191 75.404V77H64.6391ZM68.3539 77V72.62H68.8339V74.45C68.9379 74.27 69.0759 74.14 69.2479 74.06C69.4199 73.98 69.6079 73.94 69.8119 73.94C70.0279 73.94 70.2239 73.982 70.3999 74.066C70.5759 74.146 70.7159 74.27 70.8199 74.438C70.9279 74.606 70.9819 74.82 70.9819 75.08V77H70.5019V75.248C70.5019 74.916 70.4299 74.686 70.2859 74.558C70.1459 74.426 69.9719 74.36 69.7639 74.36C69.6199 74.36 69.4759 74.394 69.3319 74.462C69.1879 74.53 69.0679 74.642 68.9719 74.798C68.8799 74.95 68.8339 75.154 68.8339 75.41V77H68.3539ZM73.8207 75.062C73.8207 74.838 73.7607 74.666 73.6407 74.546C73.5207 74.422 73.3507 74.36 73.1307 74.36C72.9227 74.36 72.7467 74.406 72.6027 74.498C72.4587 74.586 72.3527 74.73 72.2847 74.93L71.8947 74.69C71.9747 74.466 72.1227 74.286 72.3387 74.15C72.5547 74.01 72.8227 73.94 73.1427 73.94C73.3587 73.94 73.5547 73.978 73.7307 74.054C73.9067 74.126 74.0447 74.238 74.1447 74.39C74.2487 74.538 74.3007 74.73 74.3007 74.966V76.418C74.3007 76.562 74.3767 76.634 74.5287 76.634C74.6047 76.634 74.6787 76.624 74.7507 76.604L74.7267 76.982C74.6467 77.022 74.5427 77.042 74.4147 77.042C74.2987 77.042 74.1947 77.02 74.1027 76.976C74.0107 76.932 73.9387 76.866 73.8867 76.778C73.8347 76.686 73.8087 76.572 73.8087 76.436V76.376L73.9287 76.394C73.8807 76.55 73.7987 76.678 73.6827 76.778C73.5667 76.874 73.4367 76.946 73.2927 76.994C73.1487 77.038 73.0067 77.06 72.8667 77.06C72.6907 77.06 72.5267 77.03 72.3747 76.97C72.2227 76.91 72.1007 76.82 72.0087 76.7C71.9207 76.576 71.8767 76.424 71.8767 76.244C71.8767 76.02 71.9507 75.836 72.0987 75.692C72.2507 75.544 72.4607 75.444 72.7287 75.392L73.9167 75.158V75.554L72.9507 75.752C72.7547 75.792 72.6087 75.848 72.5127 75.92C72.4167 75.992 72.3687 76.092 72.3687 76.22C72.3687 76.344 72.4167 76.446 72.5127 76.526C72.6127 76.602 72.7527 76.64 72.9327 76.64C73.0487 76.64 73.1587 76.626 73.2627 76.598C73.3707 76.566 73.4667 76.52 73.5507 76.46C73.6347 76.396 73.7007 76.318 73.7487 76.226C73.7967 76.13 73.8207 76.018 73.8207 75.89V75.062ZM75.4672 77V74H75.8872L75.9292 74.672L75.8512 74.606C75.9152 74.446 76.0012 74.318 76.1092 74.222C76.2172 74.122 76.3412 74.05 76.4812 74.006C76.6252 73.962 76.7732 73.94 76.9252 73.94C77.1412 73.94 77.3372 73.982 77.5132 74.066C77.6892 74.146 77.8292 74.27 77.9332 74.438C78.0412 74.606 78.0952 74.82 78.0952 75.08V77H77.6152V75.248C77.6152 74.916 77.5432 74.686 77.3992 74.558C77.2592 74.426 77.0852 74.36 76.8772 74.36C76.7332 74.36 76.5892 74.394 76.4452 74.462C76.3012 74.53 76.1812 74.64 76.0852 74.792C75.9932 74.944 75.9472 75.148 75.9472 75.404V77H75.4672ZM80.424 73.94C80.632 73.94 80.814 73.972 80.97 74.036C81.13 74.1 81.268 74.192 81.384 74.312C81.5 74.432 81.594 74.574 81.666 74.738L81.21 74.954C81.146 74.762 81.048 74.616 80.916 74.516C80.788 74.412 80.62 74.36 80.412 74.36C80.212 74.36 80.04 74.406 79.896 74.498C79.752 74.586 79.642 74.716 79.566 74.888C79.49 75.056 79.452 75.26 79.452 75.5C79.452 75.736 79.49 75.94 79.566 76.112C79.642 76.284 79.752 76.416 79.896 76.508C80.04 76.596 80.212 76.64 80.412 76.64C80.568 76.64 80.702 76.616 80.814 76.568C80.93 76.52 81.024 76.45 81.096 76.358C81.172 76.266 81.224 76.154 81.252 76.022L81.696 76.178C81.628 76.362 81.534 76.52 81.414 76.652C81.298 76.784 81.156 76.886 80.988 76.958C80.824 77.026 80.636 77.06 80.424 77.06C80.144 77.06 79.894 76.998 79.674 76.874C79.454 76.75 79.282 76.572 79.158 76.34C79.034 76.104 78.972 75.824 78.972 75.5C78.972 75.176 79.034 74.898 79.158 74.666C79.282 74.43 79.454 74.25 79.674 74.126C79.894 74.002 80.144 73.94 80.424 73.94ZM83.7934 77.06C83.5094 77.06 83.2554 76.998 83.0314 76.874C82.8114 76.75 82.6394 76.572 82.5154 76.34C82.3914 76.104 82.3294 75.824 82.3294 75.5C82.3294 75.176 82.3914 74.898 82.5154 74.666C82.6394 74.43 82.8094 74.25 83.0254 74.126C83.2414 74.002 83.4874 73.94 83.7634 73.94C84.0434 73.94 84.2814 74 84.4774 74.12C84.6774 74.24 84.8294 74.404 84.9334 74.612C85.0374 74.816 85.0894 75.046 85.0894 75.302C85.0894 75.37 85.0874 75.432 85.0834 75.488C85.0794 75.544 85.0734 75.594 85.0654 75.638H82.6414V75.212H84.8554L84.6094 75.26C84.6094 74.972 84.5294 74.75 84.3694 74.594C84.2134 74.438 84.0074 74.36 83.7514 74.36C83.5554 74.36 83.3854 74.406 83.2414 74.498C83.1014 74.586 82.9914 74.716 82.9114 74.888C82.8354 75.056 82.7974 75.26 82.7974 75.5C82.7974 75.736 82.8374 75.94 82.9174 76.112C82.9974 76.284 83.1094 76.416 83.2534 76.508C83.4014 76.596 83.5774 76.64 83.7814 76.64C84.0014 76.64 84.1794 76.598 84.3154 76.514C84.4554 76.43 84.5674 76.316 84.6514 76.172L85.0294 76.394C84.9534 76.53 84.8554 76.648 84.7354 76.748C84.6194 76.848 84.4814 76.926 84.3214 76.982C84.1654 77.034 83.9894 77.06 83.7934 77.06ZM11.6285 80L10.2185 83.504C10.1425 83.7 10.0585 83.854 9.96649 83.966C9.87849 84.082 9.77849 84.164 9.66649 84.212C9.55849 84.264 9.43249 84.29 9.28849 84.29C9.15249 84.29 9.02649 84.27 8.91049 84.23C8.79849 84.194 8.69849 84.144 8.61049 84.08L8.74249 83.66C8.82249 83.732 8.90649 83.784 8.99449 83.816C9.08649 83.852 9.17649 83.87 9.26449 83.87C9.36849 83.87 9.46649 83.838 9.55849 83.774C9.65049 83.71 9.73449 83.58 9.81049 83.384L9.96649 82.994L9.66649 82.28L8.71249 80H9.25849L10.0085 81.956L10.1945 82.49L10.4105 81.896L11.1125 80H11.6285ZM13.4982 79.94C13.7822 79.94 14.0322 80.002 14.2482 80.126C14.4682 80.25 14.6402 80.43 14.7642 80.666C14.8882 80.898 14.9502 81.176 14.9502 81.5C14.9502 81.824 14.8882 82.104 14.7642 82.34C14.6402 82.572 14.4682 82.75 14.2482 82.874C14.0322 82.998 13.7822 83.06 13.4982 83.06C13.2182 83.06 12.9682 82.998 12.7482 82.874C12.5282 82.75 12.3562 82.572 12.2322 82.34C12.1082 82.104 12.0462 81.824 12.0462 81.5C12.0462 81.176 12.1082 80.898 12.2322 80.666C12.3562 80.43 12.5282 80.25 12.7482 80.126C12.9682 80.002 13.2182 79.94 13.4982 79.94ZM13.4982 80.354C13.2942 80.354 13.1202 80.4 12.9762 80.492C12.8322 80.584 12.7202 80.716 12.6402 80.888C12.5642 81.056 12.5262 81.26 12.5262 81.5C12.5262 81.736 12.5642 81.94 12.6402 82.112C12.7202 82.284 12.8322 82.416 12.9762 82.508C13.1202 82.6 13.2942 82.646 13.4982 82.646C13.7022 82.646 13.8762 82.6 14.0202 82.508C14.1642 82.416 14.2742 82.284 14.3502 82.112C14.4302 81.94 14.4702 81.736 14.4702 81.5C14.4702 81.26 14.4302 81.056 14.3502 80.888C14.2742 80.716 14.1642 80.584 14.0202 80.492C13.8762 80.4 13.7022 80.354 13.4982 80.354ZM16.9399 83.06C16.7479 83.06 16.5659 83.024 16.3939 82.952C16.2259 82.88 16.0879 82.764 15.9799 82.604C15.8759 82.44 15.8239 82.228 15.8239 81.968V80H16.3039V81.842C16.3039 82.146 16.3699 82.356 16.5019 82.472C16.6339 82.584 16.8199 82.64 17.0599 82.64C17.1719 82.64 17.2819 82.622 17.3899 82.586C17.4979 82.546 17.5939 82.486 17.6779 82.406C17.7659 82.322 17.8339 82.216 17.8819 82.088C17.9339 81.96 17.9599 81.808 17.9599 81.632V80H18.4399V83H18.0199L17.9899 82.544C17.8859 82.724 17.7439 82.856 17.5639 82.94C17.3879 83.02 17.1799 83.06 16.9399 83.06ZM19.557 83V80H19.947L20.013 80.492C20.097 80.308 20.219 80.17 20.379 80.078C20.543 79.986 20.741 79.94 20.973 79.94C21.025 79.94 21.081 79.944 21.141 79.952C21.205 79.96 21.259 79.976 21.303 80L21.219 80.438C21.175 80.422 21.127 80.41 21.075 80.402C21.023 80.394 20.949 80.39 20.853 80.39C20.729 80.39 20.603 80.426 20.475 80.498C20.351 80.57 20.247 80.68 20.163 80.828C20.079 80.972 20.037 81.156 20.037 81.38V83H19.557ZM25.0172 78.59C25.1212 78.59 25.2192 78.602 25.3112 78.626C25.4032 78.65 25.4752 78.684 25.5272 78.728L25.4012 79.118C25.3532 79.086 25.3012 79.064 25.2452 79.052C25.1892 79.036 25.1272 79.028 25.0592 79.028C24.8872 79.028 24.7532 79.07 24.6572 79.154C24.5612 79.234 24.5132 79.364 24.5132 79.544V80V80.156V83H24.0332V79.496C24.0332 79.364 24.0532 79.242 24.0932 79.13C24.1332 79.018 24.1932 78.922 24.2732 78.842C24.3572 78.762 24.4612 78.7 24.5852 78.656C24.7092 78.612 24.8532 78.59 25.0172 78.59ZM25.5152 80V80.414H23.4332V80H25.5152ZM26.3972 79.424C26.2892 79.424 26.2012 79.392 26.1332 79.328C26.0692 79.26 26.0372 79.172 26.0372 79.064C26.0372 78.956 26.0692 78.87 26.1332 78.806C26.2012 78.738 26.2892 78.704 26.3972 78.704C26.5052 78.704 26.5912 78.738 26.6552 78.806C26.7232 78.87 26.7572 78.956 26.7572 79.064C26.7572 79.172 26.7232 79.26 26.6552 79.328C26.5912 79.392 26.5052 79.424 26.3972 79.424ZM26.6372 80V83H26.1572V80H26.6372ZM27.7543 83V80H28.1743L28.2163 80.672L28.1383 80.606C28.2023 80.446 28.2883 80.318 28.3963 80.222C28.5043 80.122 28.6283 80.05 28.7683 80.006C28.9123 79.962 29.0603 79.94 29.2123 79.94C29.4283 79.94 29.6243 79.982 29.8003 80.066C29.9763 80.146 30.1163 80.27 30.2203 80.438C30.3283 80.606 30.3823 80.82 30.3823 81.08V83H29.9023V81.248C29.9023 80.916 29.8303 80.686 29.6863 80.558C29.5463 80.426 29.3723 80.36 29.1643 80.36C29.0203 80.36 28.8763 80.394 28.7323 80.462C28.5883 80.53 28.4683 80.64 28.3723 80.792C28.2803 80.944 28.2343 81.148 28.2343 81.404V83H27.7543ZM33.2211 81.062C33.2211 80.838 33.1611 80.666 33.0411 80.546C32.9211 80.422 32.7511 80.36 32.5311 80.36C32.3231 80.36 32.1471 80.406 32.0031 80.498C31.8591 80.586 31.7531 80.73 31.6851 80.93L31.2951 80.69C31.3751 80.466 31.5231 80.286 31.7391 80.15C31.9551 80.01 32.2231 79.94 32.5431 79.94C32.7591 79.94 32.9551 79.978 33.1311 80.054C33.3071 80.126 33.4451 80.238 33.5451 80.39C33.6491 80.538 33.7011 80.73 33.7011 80.966V82.418C33.7011 82.562 33.7771 82.634 33.9291 82.634C34.0051 82.634 34.0791 82.624 34.1511 82.604L34.1271 82.982C34.0471 83.022 33.9431 83.042 33.8151 83.042C33.6991 83.042 33.5951 83.02 33.5031 82.976C33.4111 82.932 33.3391 82.866 33.2871 82.778C33.2351 82.686 33.2091 82.572 33.2091 82.436V82.376L33.3291 82.394C33.2811 82.55 33.1991 82.678 33.0831 82.778C32.9671 82.874 32.8371 82.946 32.6931 82.994C32.5491 83.038 32.4071 83.06 32.2671 83.06C32.0911 83.06 31.9271 83.03 31.7751 82.97C31.6231 82.91 31.5011 82.82 31.4091 82.7C31.3211 82.576 31.2771 82.424 31.2771 82.244C31.2771 82.02 31.3511 81.836 31.4991 81.692C31.6511 81.544 31.8611 81.444 32.1291 81.392L33.3171 81.158V81.554L32.3511 81.752C32.1551 81.792 32.0091 81.848 31.9131 81.92C31.8171 81.992 31.7691 82.092 31.7691 82.22C31.7691 82.344 31.8171 82.446 31.9131 82.526C32.0131 82.602 32.1531 82.64 32.3331 82.64C32.4491 82.64 32.5591 82.626 32.6631 82.598C32.7711 82.566 32.8671 82.52 32.9511 82.46C33.0351 82.396 33.1011 82.318 33.1491 82.226C33.1971 82.13 33.2211 82.018 33.2211 81.89V81.062ZM34.8676 83V80H35.2876L35.3296 80.672L35.2516 80.606C35.3156 80.446 35.4016 80.318 35.5096 80.222C35.6176 80.122 35.7416 80.05 35.8816 80.006C36.0256 79.962 36.1736 79.94 36.3256 79.94C36.5416 79.94 36.7376 79.982 36.9136 80.066C37.0896 80.146 37.2296 80.27 37.3336 80.438C37.4416 80.606 37.4956 80.82 37.4956 81.08V83H37.0156V81.248C37.0156 80.916 36.9436 80.686 36.7996 80.558C36.6596 80.426 36.4856 80.36 36.2776 80.36C36.1336 80.36 35.9896 80.394 35.8456 80.462C35.7016 80.53 35.5816 80.64 35.4856 80.792C35.3936 80.944 35.3476 81.148 35.3476 81.404V83H34.8676ZM39.8244 79.94C40.0324 79.94 40.2144 79.972 40.3704 80.036C40.5304 80.1 40.6684 80.192 40.7844 80.312C40.9004 80.432 40.9944 80.574 41.0664 80.738L40.6104 80.954C40.5464 80.762 40.4484 80.616 40.3164 80.516C40.1884 80.412 40.0204 80.36 39.8124 80.36C39.6124 80.36 39.4404 80.406 39.2964 80.498C39.1524 80.586 39.0424 80.716 38.9664 80.888C38.8904 81.056 38.8524 81.26 38.8524 81.5C38.8524 81.736 38.8904 81.94 38.9664 82.112C39.0424 82.284 39.1524 82.416 39.2964 82.508C39.4404 82.596 39.6124 82.64 39.8124 82.64C39.9684 82.64 40.1024 82.616 40.2144 82.568C40.3304 82.52 40.4244 82.45 40.4964 82.358C40.5724 82.266 40.6244 82.154 40.6524 82.022L41.0964 82.178C41.0284 82.362 40.9344 82.52 40.8144 82.652C40.6984 82.784 40.5564 82.886 40.3884 82.958C40.2244 83.026 40.0364 83.06 39.8244 83.06C39.5444 83.06 39.2944 82.998 39.0744 82.874C38.8544 82.75 38.6824 82.572 38.5584 82.34C38.4344 82.104 38.3724 81.824 38.3724 81.5C38.3724 81.176 38.4344 80.898 38.5584 80.666C38.6824 80.43 38.8544 80.25 39.0744 80.126C39.2944 80.002 39.5444 79.94 39.8244 79.94ZM42.1798 79.424C42.0718 79.424 41.9838 79.392 41.9158 79.328C41.8518 79.26 41.8198 79.172 41.8198 79.064C41.8198 78.956 41.8518 78.87 41.9158 78.806C41.9838 78.738 42.0718 78.704 42.1798 78.704C42.2878 78.704 42.3738 78.738 42.4378 78.806C42.5058 78.87 42.5398 78.956 42.5398 79.064C42.5398 79.172 42.5058 79.26 42.4378 79.328C42.3738 79.392 42.2878 79.424 42.1798 79.424ZM42.4198 80V83H41.9398V80H42.4198ZM45.2856 81.062C45.2856 80.838 45.2256 80.666 45.1056 80.546C44.9856 80.422 44.8156 80.36 44.5956 80.36C44.3876 80.36 44.2116 80.406 44.0676 80.498C43.9236 80.586 43.8176 80.73 43.7496 80.93L43.3596 80.69C43.4396 80.466 43.5876 80.286 43.8036 80.15C44.0196 80.01 44.2876 79.94 44.6076 79.94C44.8236 79.94 45.0196 79.978 45.1956 80.054C45.3716 80.126 45.5096 80.238 45.6096 80.39C45.7136 80.538 45.7656 80.73 45.7656 80.966V82.418C45.7656 82.562 45.8416 82.634 45.9936 82.634C46.0696 82.634 46.1436 82.624 46.2156 82.604L46.1916 82.982C46.1116 83.022 46.0076 83.042 45.8796 83.042C45.7636 83.042 45.6596 83.02 45.5676 82.976C45.4756 82.932 45.4036 82.866 45.3516 82.778C45.2996 82.686 45.2736 82.572 45.2736 82.436V82.376L45.3936 82.394C45.3456 82.55 45.2636 82.678 45.1476 82.778C45.0316 82.874 44.9016 82.946 44.7576 82.994C44.6136 83.038 44.4716 83.06 44.3316 83.06C44.1556 83.06 43.9916 83.03 43.8396 82.97C43.6876 82.91 43.5656 82.82 43.4736 82.7C43.3856 82.576 43.3416 82.424 43.3416 82.244C43.3416 82.02 43.4156 81.836 43.5636 81.692C43.7156 81.544 43.9256 81.444 44.1936 81.392L45.3816 81.158V81.554L44.4156 81.752C44.2196 81.792 44.0736 81.848 43.9776 81.92C43.8816 81.992 43.8336 82.092 43.8336 82.22C43.8336 82.344 43.8816 82.446 43.9776 82.526C44.0776 82.602 44.2176 82.64 44.3976 82.64C44.5136 82.64 44.6236 82.626 44.7276 82.598C44.8356 82.566 44.9316 82.52 45.0156 82.46C45.0996 82.396 45.1656 82.318 45.2136 82.226C45.2616 82.13 45.2856 82.018 45.2856 81.89V81.062ZM47.388 78.62V82.238C47.388 82.39 47.416 82.496 47.472 82.556C47.528 82.612 47.618 82.64 47.742 82.64C47.822 82.64 47.888 82.634 47.94 82.622C47.992 82.61 48.062 82.588 48.15 82.556L48.072 82.976C48.008 83.004 47.938 83.024 47.862 83.036C47.786 83.052 47.708 83.06 47.628 83.06C47.384 83.06 47.202 82.994 47.082 82.862C46.966 82.73 46.908 82.528 46.908 82.256V78.62H47.388ZM53.234 80L51.938 81.296L51.824 81.41L50.84 82.394V81.794L52.628 80H53.234ZM51.08 78.62V83H50.6V78.62H51.08ZM51.98 81.05L53.306 83H52.724L51.578 81.32L51.98 81.05ZM54.0043 83V80H54.4243L54.4663 80.672L54.3883 80.606C54.4523 80.446 54.5383 80.318 54.6463 80.222C54.7543 80.122 54.8783 80.05 55.0183 80.006C55.1623 79.962 55.3103 79.94 55.4623 79.94C55.6783 79.94 55.8743 79.982 56.0503 80.066C56.2263 80.146 56.3663 80.27 56.4703 80.438C56.5783 80.606 56.6323 80.82 56.6323 81.08V83H56.1523V81.248C56.1523 80.916 56.0803 80.686 55.9363 80.558C55.7963 80.426 55.6223 80.36 55.4143 80.36C55.2703 80.36 55.1263 80.394 54.9823 80.462C54.8383 80.53 54.7183 80.64 54.6223 80.792C54.5303 80.944 54.4843 81.148 54.4843 81.404V83H54.0043ZM58.9611 79.94C59.2451 79.94 59.4951 80.002 59.7111 80.126C59.9311 80.25 60.1031 80.43 60.2271 80.666C60.3511 80.898 60.4131 81.176 60.4131 81.5C60.4131 81.824 60.3511 82.104 60.2271 82.34C60.1031 82.572 59.9311 82.75 59.7111 82.874C59.4951 82.998 59.2451 83.06 58.9611 83.06C58.6811 83.06 58.4311 82.998 58.2111 82.874C57.9911 82.75 57.8191 82.572 57.6951 82.34C57.5711 82.104 57.5091 81.824 57.5091 81.5C57.5091 81.176 57.5711 80.898 57.6951 80.666C57.8191 80.43 57.9911 80.25 58.2111 80.126C58.4311 80.002 58.6811 79.94 58.9611 79.94ZM58.9611 80.354C58.7571 80.354 58.5831 80.4 58.4391 80.492C58.2951 80.584 58.1831 80.716 58.1031 80.888C58.0271 81.056 57.9891 81.26 57.9891 81.5C57.9891 81.736 58.0271 81.94 58.1031 82.112C58.1831 82.284 58.2951 82.416 58.4391 82.508C58.5831 82.6 58.7571 82.646 58.9611 82.646C59.1651 82.646 59.3391 82.6 59.4831 82.508C59.6271 82.416 59.7371 82.284 59.8131 82.112C59.8931 81.94 59.9331 81.736 59.9331 81.5C59.9331 81.26 59.8931 81.056 59.8131 80.888C59.7371 80.716 59.6271 80.584 59.4831 80.492C59.3391 80.4 59.1651 80.354 58.9611 80.354ZM64.985 80H65.519L64.475 83H63.995L63.149 80.612L62.351 83H61.871L60.827 80H61.361L62.117 82.442L62.933 80H63.413L64.229 82.442L64.985 80ZM66.6947 78.62V82.238C66.6947 82.39 66.7227 82.496 66.7787 82.556C66.8347 82.612 66.9247 82.64 67.0487 82.64C67.1287 82.64 67.1947 82.634 67.2467 82.622C67.2987 82.61 67.3687 82.588 67.4567 82.556L67.3787 82.976C67.3147 83.004 67.2447 83.024 67.1687 83.036C67.0927 83.052 67.0147 83.06 66.9347 83.06C66.6907 83.06 66.5087 82.994 66.3887 82.862C66.2727 82.73 66.2147 82.528 66.2147 82.256V78.62H66.6947ZM69.3266 83.06C69.0426 83.06 68.7886 82.998 68.5646 82.874C68.3446 82.75 68.1726 82.572 68.0486 82.34C67.9246 82.104 67.8626 81.824 67.8626 81.5C67.8626 81.176 67.9246 80.898 68.0486 80.666C68.1726 80.43 68.3426 80.25 68.5586 80.126C68.7746 80.002 69.0206 79.94 69.2966 79.94C69.5766 79.94 69.8146 80 70.0106 80.12C70.2106 80.24 70.3626 80.404 70.4666 80.612C70.5706 80.816 70.6226 81.046 70.6226 81.302C70.6226 81.37 70.6206 81.432 70.6166 81.488C70.6126 81.544 70.6066 81.594 70.5986 81.638H68.1746V81.212H70.3886L70.1426 81.26C70.1426 80.972 70.0626 80.75 69.9026 80.594C69.7466 80.438 69.5406 80.36 69.2846 80.36C69.0886 80.36 68.9186 80.406 68.7746 80.498C68.6346 80.586 68.5246 80.716 68.4446 80.888C68.3686 81.056 68.3306 81.26 68.3306 81.5C68.3306 81.736 68.3706 81.94 68.4506 82.112C68.5306 82.284 68.6426 82.416 68.7866 82.508C68.9346 82.596 69.1106 82.64 69.3146 82.64C69.5346 82.64 69.7126 82.598 69.8486 82.514C69.9886 82.43 70.1006 82.316 70.1846 82.172L70.5626 82.394C70.4866 82.53 70.3886 82.648 70.2686 82.748C70.1526 82.848 70.0146 82.926 69.8546 82.982C69.6986 83.034 69.5226 83.06 69.3266 83.06ZM72.7055 83.06C72.4575 83.06 72.2295 82.998 72.0215 82.874C71.8135 82.75 71.6475 82.572 71.5235 82.34C71.3995 82.104 71.3375 81.824 71.3375 81.5C71.3375 81.168 71.4035 80.886 71.5355 80.654C71.6675 80.422 71.8415 80.246 72.0575 80.126C72.2735 80.002 72.5055 79.94 72.7535 79.94C73.0015 79.94 73.2155 80.004 73.3955 80.132C73.5795 80.26 73.7015 80.43 73.7615 80.642L73.7015 80.684V78.62H74.1815V83H73.7615L73.7195 82.274L73.7855 82.238C73.7575 82.414 73.6895 82.564 73.5815 82.688C73.4775 82.808 73.3475 82.9 73.1915 82.964C73.0395 83.028 72.8775 83.06 72.7055 83.06ZM72.7535 82.64C72.9455 82.64 73.1115 82.592 73.2515 82.496C73.3955 82.4 73.5055 82.264 73.5815 82.088C73.6615 81.908 73.7015 81.698 73.7015 81.458C73.7015 81.23 73.6615 81.034 73.5815 80.87C73.5055 80.706 73.3975 80.58 73.2575 80.492C73.1215 80.404 72.9615 80.36 72.7775 80.36C72.4735 80.36 72.2375 80.464 72.0695 80.672C71.9015 80.88 71.8175 81.156 71.8175 81.5C71.8175 81.844 71.8995 82.12 72.0635 82.328C72.2275 82.536 72.4575 82.64 72.7535 82.64ZM77.8233 79.448L77.9313 79.874C77.9273 79.874 77.9213 79.874 77.9133 79.874C77.9053 79.874 77.8973 79.874 77.8893 79.874C77.6933 79.874 77.5413 79.914 77.4333 79.994C77.3293 80.07 77.2773 80.194 77.2773 80.366L76.9833 80.216C76.9833 80.06 77.0193 79.924 77.0913 79.808C77.1633 79.692 77.2613 79.604 77.3853 79.544C77.5093 79.48 77.6453 79.448 77.7933 79.448C77.7973 79.448 77.8013 79.448 77.8053 79.448C77.8133 79.448 77.8193 79.448 77.8233 79.448ZM76.9113 82.616C77.1953 82.616 77.4173 82.682 77.5773 82.814C77.7373 82.942 77.8173 83.114 77.8173 83.33C77.8173 83.526 77.7513 83.696 77.6193 83.84C77.4913 83.984 77.3173 84.094 77.0973 84.17C76.8813 84.25 76.6373 84.29 76.3653 84.29C75.8933 84.29 75.5393 84.21 75.3033 84.05C75.0713 83.89 74.9553 83.698 74.9553 83.474C74.9553 83.314 75.0073 83.17 75.1113 83.042C75.2193 82.918 75.3993 82.848 75.6513 82.832L75.6093 82.922C75.4733 82.886 75.3573 82.826 75.2613 82.742C75.1693 82.654 75.1233 82.528 75.1233 82.364C75.1233 82.2 75.1833 82.06 75.3033 81.944C75.4273 81.824 75.6093 81.75 75.8493 81.722L76.1673 81.884H76.1073C75.9113 81.904 75.7713 81.954 75.6873 82.034C75.6073 82.11 75.5673 82.194 75.5673 82.286C75.5673 82.398 75.6073 82.482 75.6873 82.538C75.7713 82.59 75.8873 82.616 76.0353 82.616H76.9113ZM76.3593 83.888C76.5913 83.888 76.7813 83.864 76.9293 83.816C77.0813 83.768 77.1933 83.706 77.2653 83.63C77.3373 83.554 77.3733 83.472 77.3733 83.384C77.3733 83.276 77.3293 83.19 77.2413 83.126C77.1573 83.062 77.0033 83.03 76.7793 83.03H75.8553C75.7273 83.03 75.6193 83.062 75.5313 83.126C75.4433 83.194 75.3993 83.286 75.3993 83.402C75.3993 83.55 75.4833 83.668 75.6513 83.756C75.8233 83.844 76.0593 83.888 76.3593 83.888ZM76.3173 79.94C76.5573 79.94 76.7693 79.984 76.9533 80.072C77.1413 80.156 77.2873 80.274 77.3913 80.426C77.4953 80.578 77.5473 80.754 77.5473 80.954C77.5473 81.15 77.4953 81.326 77.3913 81.482C77.2873 81.634 77.1413 81.754 76.9533 81.842C76.7693 81.926 76.5573 81.968 76.3173 81.968C75.9213 81.968 75.6173 81.874 75.4053 81.686C75.1933 81.494 75.0873 81.25 75.0873 80.954C75.0873 80.754 75.1393 80.578 75.2433 80.426C75.3513 80.274 75.4973 80.156 75.6813 80.072C75.8653 79.984 76.0773 79.94 76.3173 79.94ZM76.3173 80.33C76.1093 80.33 75.9353 80.388 75.7953 80.504C75.6553 80.616 75.5853 80.766 75.5853 80.954C75.5853 81.138 75.6553 81.288 75.7953 81.404C75.9353 81.52 76.1093 81.578 76.3173 81.578C76.5253 81.578 76.6993 81.52 76.8393 81.404C76.9793 81.288 77.0493 81.138 77.0493 80.954C77.0493 80.766 76.9793 80.616 76.8393 80.504C76.6993 80.388 76.5253 80.33 76.3173 80.33ZM79.7446 83.06C79.4606 83.06 79.2066 82.998 78.9826 82.874C78.7626 82.75 78.5906 82.572 78.4666 82.34C78.3426 82.104 78.2806 81.824 78.2806 81.5C78.2806 81.176 78.3426 80.898 78.4666 80.666C78.5906 80.43 78.7606 80.25 78.9766 80.126C79.1926 80.002 79.4386 79.94 79.7146 79.94C79.9946 79.94 80.2326 80 80.4286 80.12C80.6286 80.24 80.7806 80.404 80.8846 80.612C80.9886 80.816 81.0406 81.046 81.0406 81.302C81.0406 81.37 81.0386 81.432 81.0346 81.488C81.0306 81.544 81.0246 81.594 81.0166 81.638H78.5926V81.212H80.8066L80.5606 81.26C80.5606 80.972 80.4806 80.75 80.3206 80.594C80.1646 80.438 79.9586 80.36 79.7026 80.36C79.5066 80.36 79.3366 80.406 79.1926 80.498C79.0526 80.586 78.9426 80.716 78.8626 80.888C78.7866 81.056 78.7486 81.26 78.7486 81.5C78.7486 81.736 78.7886 81.94 78.8686 82.112C78.9486 82.284 79.0606 82.416 79.2046 82.508C79.3526 82.596 79.5286 82.64 79.7326 82.64C79.9526 82.64 80.1306 82.598 80.2666 82.514C80.4066 82.43 80.5186 82.316 80.6026 82.172L80.9806 82.394C80.9046 82.53 80.8066 82.648 80.6866 82.748C80.5706 82.848 80.4326 82.926 80.2726 82.982C80.1166 83.034 79.9406 83.06 79.7446 83.06ZM8.9535 85.148V88.172C8.9535 88.32 8.9955 88.43 9.0795 88.502C9.1635 88.574 9.2715 88.61 9.4035 88.61C9.5195 88.61 9.6195 88.59 9.7035 88.55C9.7875 88.51 9.8635 88.456 9.9315 88.388L10.0995 88.79C10.0075 88.874 9.8975 88.94 9.7695 88.988C9.6455 89.036 9.5015 89.06 9.3375 89.06C9.1855 89.06 9.0435 89.034 8.9115 88.982C8.7795 88.926 8.6735 88.84 8.5935 88.724C8.5175 88.604 8.4775 88.448 8.4735 88.256V85.28L8.9535 85.148ZM10.0455 86V86.414H7.8735V86H10.0455ZM10.7592 89V84.62H11.2392V86.45C11.3432 86.27 11.4812 86.14 11.6532 86.06C11.8252 85.98 12.0132 85.94 12.2172 85.94C12.4332 85.94 12.6292 85.982 12.8052 86.066C12.9812 86.146 13.1212 86.27 13.2252 86.438C13.3332 86.606 13.3872 86.82 13.3872 87.08V89H12.9072V87.248C12.9072 86.916 12.8352 86.686 12.6912 86.558C12.5512 86.426 12.3772 86.36 12.1692 86.36C12.0252 86.36 11.8812 86.394 11.7372 86.462C11.5932 86.53 11.4732 86.642 11.3772 86.798C11.2852 86.95 11.2392 87.154 11.2392 87.41V89H10.7592ZM14.474 89V86H14.864L14.93 86.492C15.014 86.308 15.136 86.17 15.296 86.078C15.46 85.986 15.658 85.94 15.89 85.94C15.942 85.94 15.998 85.944 16.058 85.952C16.122 85.96 16.176 85.976 16.22 86L16.136 86.438C16.092 86.422 16.044 86.41 15.992 86.402C15.94 86.394 15.866 86.39 15.77 86.39C15.646 86.39 15.52 86.426 15.392 86.498C15.268 86.57 15.164 86.68 15.08 86.828C14.996 86.972 14.954 87.156 14.954 87.38V89H14.474ZM18.0715 85.94C18.3555 85.94 18.6055 86.002 18.8215 86.126C19.0415 86.25 19.2135 86.43 19.3375 86.666C19.4615 86.898 19.5235 87.176 19.5235 87.5C19.5235 87.824 19.4615 88.104 19.3375 88.34C19.2135 88.572 19.0415 88.75 18.8215 88.874C18.6055 88.998 18.3555 89.06 18.0715 89.06C17.7915 89.06 17.5415 88.998 17.3215 88.874C17.1015 88.75 16.9295 88.572 16.8055 88.34C16.6815 88.104 16.6195 87.824 16.6195 87.5C16.6195 87.176 16.6815 86.898 16.8055 86.666C16.9295 86.43 17.1015 86.25 17.3215 86.126C17.5415 86.002 17.7915 85.94 18.0715 85.94ZM18.0715 86.354C17.8675 86.354 17.6935 86.4 17.5495 86.492C17.4055 86.584 17.2935 86.716 17.2135 86.888C17.1375 87.056 17.0995 87.26 17.0995 87.5C17.0995 87.736 17.1375 87.94 17.2135 88.112C17.2935 88.284 17.4055 88.416 17.5495 88.508C17.6935 88.6 17.8675 88.646 18.0715 88.646C18.2755 88.646 18.4495 88.6 18.5935 88.508C18.7375 88.416 18.8475 88.284 18.9235 88.112C19.0035 87.94 19.0435 87.736 19.0435 87.5C19.0435 87.26 19.0035 87.056 18.9235 86.888C18.8475 86.716 18.7375 86.584 18.5935 86.492C18.4495 86.4 18.2755 86.354 18.0715 86.354ZM21.5131 89.06C21.3211 89.06 21.1391 89.024 20.9671 88.952C20.7991 88.88 20.6611 88.764 20.5531 88.604C20.4491 88.44 20.3971 88.228 20.3971 87.968V86H20.8771V87.842C20.8771 88.146 20.9431 88.356 21.0751 88.472C21.2071 88.584 21.3931 88.64 21.6331 88.64C21.7451 88.64 21.8551 88.622 21.9631 88.586C22.0711 88.546 22.1671 88.486 22.2511 88.406C22.3391 88.322 22.4071 88.216 22.4551 88.088C22.5071 87.96 22.5331 87.808 22.5331 87.632V86H23.0131V89H22.5931L22.5631 88.544C22.4591 88.724 22.3171 88.856 22.1371 88.94C21.9611 89.02 21.7531 89.06 21.5131 89.06ZM26.6563 85.448L26.7643 85.874C26.7603 85.874 26.7543 85.874 26.7463 85.874C26.7383 85.874 26.7303 85.874 26.7223 85.874C26.5263 85.874 26.3743 85.914 26.2663 85.994C26.1623 86.07 26.1103 86.194 26.1103 86.366L25.8163 86.216C25.8163 86.06 25.8523 85.924 25.9243 85.808C25.9963 85.692 26.0943 85.604 26.2183 85.544C26.3423 85.48 26.4783 85.448 26.6263 85.448C26.6303 85.448 26.6343 85.448 26.6383 85.448C26.6463 85.448 26.6523 85.448 26.6563 85.448ZM25.7443 88.616C26.0283 88.616 26.2503 88.682 26.4103 88.814C26.5703 88.942 26.6503 89.114 26.6503 89.33C26.6503 89.526 26.5843 89.696 26.4523 89.84C26.3243 89.984 26.1503 90.094 25.9303 90.17C25.7143 90.25 25.4703 90.29 25.1983 90.29C24.7263 90.29 24.3723 90.21 24.1363 90.05C23.9043 89.89 23.7883 89.698 23.7883 89.474C23.7883 89.314 23.8403 89.17 23.9443 89.042C24.0523 88.918 24.2323 88.848 24.4843 88.832L24.4423 88.922C24.3063 88.886 24.1903 88.826 24.0943 88.742C24.0023 88.654 23.9563 88.528 23.9563 88.364C23.9563 88.2 24.0163 88.06 24.1363 87.944C24.2603 87.824 24.4423 87.75 24.6823 87.722L25.0003 87.884H24.9403C24.7443 87.904 24.6043 87.954 24.5203 88.034C24.4403 88.11 24.4003 88.194 24.4003 88.286C24.4003 88.398 24.4403 88.482 24.5203 88.538C24.6043 88.59 24.7203 88.616 24.8683 88.616H25.7443ZM25.1923 89.888C25.4243 89.888 25.6143 89.864 25.7623 89.816C25.9143 89.768 26.0263 89.706 26.0983 89.63C26.1703 89.554 26.2063 89.472 26.2063 89.384C26.2063 89.276 26.1623 89.19 26.0743 89.126C25.9903 89.062 25.8363 89.03 25.6123 89.03H24.6883C24.5603 89.03 24.4523 89.062 24.3643 89.126C24.2763 89.194 24.2323 89.286 24.2323 89.402C24.2323 89.55 24.3163 89.668 24.4843 89.756C24.6563 89.844 24.8923 89.888 25.1923 89.888ZM25.1503 85.94C25.3903 85.94 25.6023 85.984 25.7863 86.072C25.9743 86.156 26.1203 86.274 26.2243 86.426C26.3283 86.578 26.3803 86.754 26.3803 86.954C26.3803 87.15 26.3283 87.326 26.2243 87.482C26.1203 87.634 25.9743 87.754 25.7863 87.842C25.6023 87.926 25.3903 87.968 25.1503 87.968C24.7543 87.968 24.4503 87.874 24.2383 87.686C24.0263 87.494 23.9203 87.25 23.9203 86.954C23.9203 86.754 23.9723 86.578 24.0763 86.426C24.1843 86.274 24.3303 86.156 24.5143 86.072C24.6983 85.984 24.9103 85.94 25.1503 85.94ZM25.1503 86.33C24.9423 86.33 24.7683 86.388 24.6283 86.504C24.4883 86.616 24.4183 86.766 24.4183 86.954C24.4183 87.138 24.4883 87.288 24.6283 87.404C24.7683 87.52 24.9423 87.578 25.1503 87.578C25.3583 87.578 25.5323 87.52 25.6723 87.404C25.8123 87.288 25.8823 87.138 25.8823 86.954C25.8823 86.766 25.8123 86.616 25.6723 86.504C25.5323 86.388 25.3583 86.33 25.1503 86.33ZM27.3236 89V84.62H27.8036V86.45C27.9076 86.27 28.0456 86.14 28.2176 86.06C28.3896 85.98 28.5776 85.94 28.7816 85.94C28.9976 85.94 29.1936 85.982 29.3696 86.066C29.5456 86.146 29.6856 86.27 29.7896 86.438C29.8976 86.606 29.9516 86.82 29.9516 87.08V89H29.4716V87.248C29.4716 86.916 29.3996 86.686 29.2556 86.558C29.1156 86.426 28.9416 86.36 28.7336 86.36C28.5896 86.36 28.4456 86.394 28.3016 86.462C28.1576 86.53 28.0376 86.642 27.9416 86.798C27.8496 86.95 27.8036 87.154 27.8036 87.41V89H27.3236ZM34.8354 87.062C34.8354 86.838 34.7754 86.666 34.6554 86.546C34.5354 86.422 34.3654 86.36 34.1454 86.36C33.9374 86.36 33.7614 86.406 33.6174 86.498C33.4734 86.586 33.3674 86.73 33.2994 86.93L32.9094 86.69C32.9894 86.466 33.1374 86.286 33.3534 86.15C33.5694 86.01 33.8374 85.94 34.1574 85.94C34.3734 85.94 34.5694 85.978 34.7454 86.054C34.9214 86.126 35.0594 86.238 35.1594 86.39C35.2634 86.538 35.3154 86.73 35.3154 86.966V88.418C35.3154 88.562 35.3914 88.634 35.5434 88.634C35.6194 88.634 35.6934 88.624 35.7654 88.604L35.7414 88.982C35.6614 89.022 35.5574 89.042 35.4294 89.042C35.3134 89.042 35.2094 89.02 35.1174 88.976C35.0254 88.932 34.9534 88.866 34.9014 88.778C34.8494 88.686 34.8234 88.572 34.8234 88.436V88.376L34.9434 88.394C34.8954 88.55 34.8134 88.678 34.6974 88.778C34.5814 88.874 34.4514 88.946 34.3074 88.994C34.1634 89.038 34.0214 89.06 33.8814 89.06C33.7054 89.06 33.5414 89.03 33.3894 88.97C33.2374 88.91 33.1154 88.82 33.0234 88.7C32.9354 88.576 32.8914 88.424 32.8914 88.244C32.8914 88.02 32.9654 87.836 33.1134 87.692C33.2654 87.544 33.4754 87.444 33.7434 87.392L34.9314 87.158V87.554L33.9654 87.752C33.7694 87.792 33.6234 87.848 33.5274 87.92C33.4314 87.992 33.3834 88.092 33.3834 88.22C33.3834 88.344 33.4314 88.446 33.5274 88.526C33.6274 88.602 33.7674 88.64 33.9474 88.64C34.0634 88.64 34.1734 88.626 34.2774 88.598C34.3854 88.566 34.4814 88.52 34.5654 88.46C34.6494 88.396 34.7154 88.318 34.7634 88.226C34.8114 88.13 34.8354 88.018 34.8354 87.89V87.062ZM39.6281 85.94C39.8361 85.94 40.0181 85.972 40.1741 86.036C40.3341 86.1 40.4721 86.192 40.5881 86.312C40.7041 86.432 40.7981 86.574 40.8701 86.738L40.4141 86.954C40.3501 86.762 40.2521 86.616 40.1201 86.516C39.9921 86.412 39.8241 86.36 39.6161 86.36C39.4161 86.36 39.2441 86.406 39.1001 86.498C38.9561 86.586 38.8461 86.716 38.7701 86.888C38.6941 87.056 38.6561 87.26 38.6561 87.5C38.6561 87.736 38.6941 87.94 38.7701 88.112C38.8461 88.284 38.9561 88.416 39.1001 88.508C39.2441 88.596 39.4161 88.64 39.6161 88.64C39.7721 88.64 39.9061 88.616 40.0181 88.568C40.1341 88.52 40.2281 88.45 40.3001 88.358C40.3761 88.266 40.4281 88.154 40.4561 88.022L40.9001 88.178C40.8321 88.362 40.7381 88.52 40.6181 88.652C40.5021 88.784 40.3601 88.886 40.1921 88.958C40.0281 89.026 39.8401 89.06 39.6281 89.06C39.3481 89.06 39.0981 88.998 38.8781 88.874C38.6581 88.75 38.4861 88.572 38.3621 88.34C38.2381 88.104 38.1761 87.824 38.1761 87.5C38.1761 87.176 38.2381 86.898 38.3621 86.666C38.4861 86.43 38.6581 86.25 38.8781 86.126C39.0981 86.002 39.3481 85.94 39.6281 85.94ZM42.9855 85.94C43.2695 85.94 43.5195 86.002 43.7355 86.126C43.9555 86.25 44.1275 86.43 44.2515 86.666C44.3755 86.898 44.4375 87.176 44.4375 87.5C44.4375 87.824 44.3755 88.104 44.2515 88.34C44.1275 88.572 43.9555 88.75 43.7355 88.874C43.5195 88.998 43.2695 89.06 42.9855 89.06C42.7055 89.06 42.4555 88.998 42.2355 88.874C42.0155 88.75 41.8435 88.572 41.7195 88.34C41.5955 88.104 41.5335 87.824 41.5335 87.5C41.5335 87.176 41.5955 86.898 41.7195 86.666C41.8435 86.43 42.0155 86.25 42.2355 86.126C42.4555 86.002 42.7055 85.94 42.9855 85.94ZM42.9855 86.354C42.7815 86.354 42.6075 86.4 42.4635 86.492C42.3195 86.584 42.2075 86.716 42.1275 86.888C42.0515 87.056 42.0135 87.26 42.0135 87.5C42.0135 87.736 42.0515 87.94 42.1275 88.112C42.2075 88.284 42.3195 88.416 42.4635 88.508C42.6075 88.6 42.7815 88.646 42.9855 88.646C43.1895 88.646 43.3635 88.6 43.5075 88.508C43.6515 88.416 43.7615 88.284 43.8375 88.112C43.9175 87.94 43.9575 87.736 43.9575 87.5C43.9575 87.26 43.9175 87.056 43.8375 86.888C43.7615 86.716 43.6515 86.584 43.5075 86.492C43.3635 86.4 43.1895 86.354 42.9855 86.354ZM45.3412 89V86H45.7612L45.7912 86.468C45.8992 86.284 46.0392 86.15 46.2112 86.066C46.3872 85.982 46.5672 85.94 46.7512 85.94C46.9632 85.94 47.1632 85.988 47.3512 86.084C47.5392 86.18 47.6832 86.328 47.7832 86.528C47.8472 86.392 47.9372 86.282 48.0532 86.198C48.1692 86.11 48.2952 86.046 48.4312 86.006C48.5712 85.962 48.7032 85.94 48.8272 85.94C49.0192 85.94 49.2012 85.98 49.3732 86.06C49.5492 86.14 49.6932 86.264 49.8052 86.432C49.9172 86.6 49.9732 86.816 49.9732 87.08V89H49.4932V87.128C49.4932 86.856 49.4252 86.66 49.2892 86.54C49.1532 86.42 48.9852 86.36 48.7852 86.36C48.6292 86.36 48.4832 86.398 48.3472 86.474C48.2112 86.55 48.1012 86.662 48.0172 86.81C47.9372 86.958 47.8972 87.14 47.8972 87.356V89H47.4172V87.128C47.4172 86.856 47.3492 86.66 47.2132 86.54C47.0772 86.42 46.9092 86.36 46.7092 86.36C46.5772 86.36 46.4412 86.396 46.3012 86.468C46.1652 86.536 46.0512 86.646 45.9592 86.798C45.8672 86.95 45.8212 87.15 45.8212 87.398V89H45.3412ZM51.06 90.26V86H51.48L51.522 86.732L51.456 86.648C51.508 86.508 51.586 86.386 51.69 86.282C51.794 86.174 51.92 86.09 52.068 86.03C52.216 85.97 52.376 85.94 52.548 85.94C52.792 85.94 53.016 86.002 53.22 86.126C53.428 86.25 53.594 86.428 53.718 86.66C53.842 86.892 53.904 87.172 53.904 87.5C53.904 87.824 53.84 88.104 53.712 88.34C53.588 88.572 53.422 88.75 53.214 88.874C53.006 88.998 52.778 89.06 52.53 89.06C52.282 89.06 52.064 89 51.876 88.88C51.692 88.756 51.56 88.6 51.48 88.412L51.54 88.322V90.26H51.06ZM52.482 88.64C52.778 88.64 53.008 88.536 53.172 88.328C53.34 88.12 53.424 87.844 53.424 87.5C53.424 87.156 53.342 86.88 53.178 86.672C53.018 86.464 52.792 86.36 52.5 86.36C52.308 86.36 52.14 86.408 51.996 86.504C51.852 86.596 51.74 86.728 51.66 86.9C51.58 87.068 51.54 87.268 51.54 87.5C51.54 87.728 51.578 87.928 51.654 88.1C51.734 88.272 51.844 88.406 51.984 88.502C52.128 88.594 52.294 88.64 52.482 88.64ZM54.8217 89V86H55.2117L55.2777 86.492C55.3617 86.308 55.4837 86.17 55.6437 86.078C55.8077 85.986 56.0057 85.94 56.2377 85.94C56.2897 85.94 56.3457 85.944 56.4057 85.952C56.4697 85.96 56.5237 85.976 56.5677 86L56.4837 86.438C56.4397 86.422 56.3917 86.41 56.3397 86.402C56.2877 86.394 56.2137 86.39 56.1177 86.39C55.9937 86.39 55.8677 86.426 55.7397 86.498C55.6157 86.57 55.5117 86.68 55.4277 86.828C55.3437 86.972 55.3017 87.156 55.3017 87.38V89H54.8217ZM58.4311 89.06C58.1471 89.06 57.8931 88.998 57.6691 88.874C57.4491 88.75 57.2771 88.572 57.1531 88.34C57.0291 88.104 56.9671 87.824 56.9671 87.5C56.9671 87.176 57.0291 86.898 57.1531 86.666C57.2771 86.43 57.4471 86.25 57.6631 86.126C57.8791 86.002 58.1251 85.94 58.4011 85.94C58.6811 85.94 58.9191 86 59.1151 86.12C59.3151 86.24 59.4671 86.404 59.5711 86.612C59.6751 86.816 59.7271 87.046 59.7271 87.302C59.7271 87.37 59.7251 87.432 59.7211 87.488C59.7171 87.544 59.7111 87.594 59.7031 87.638H57.2791V87.212H59.4931L59.2471 87.26C59.2471 86.972 59.1671 86.75 59.0071 86.594C58.8511 86.438 58.6451 86.36 58.3891 86.36C58.1931 86.36 58.0231 86.406 57.8791 86.498C57.7391 86.586 57.6291 86.716 57.5491 86.888C57.4731 87.056 57.4351 87.26 57.4351 87.5C57.4351 87.736 57.4751 87.94 57.5551 88.112C57.6351 88.284 57.7471 88.416 57.8911 88.508C58.0391 88.596 58.2151 88.64 58.4191 88.64C58.6391 88.64 58.8171 88.598 58.9531 88.514C59.0931 88.43 59.2051 88.316 59.2891 88.172L59.6671 88.394C59.5911 88.53 59.4931 88.648 59.3731 88.748C59.2571 88.848 59.1191 88.926 58.9591 88.982C58.8031 89.034 58.6271 89.06 58.4311 89.06ZM60.64 89V84.62H61.12V86.45C61.224 86.27 61.362 86.14 61.534 86.06C61.706 85.98 61.894 85.94 62.098 85.94C62.314 85.94 62.51 85.982 62.686 86.066C62.862 86.146 63.002 86.27 63.106 86.438C63.214 86.606 63.268 86.82 63.268 87.08V89H62.788V87.248C62.788 86.916 62.716 86.686 62.572 86.558C62.432 86.426 62.258 86.36 62.05 86.36C61.906 86.36 61.762 86.394 61.618 86.462C61.474 86.53 61.354 86.642 61.258 86.798C61.166 86.95 61.12 87.154 61.12 87.41V89H60.64ZM65.6089 89.06C65.3249 89.06 65.0709 88.998 64.8469 88.874C64.6269 88.75 64.4549 88.572 64.3309 88.34C64.2069 88.104 64.1449 87.824 64.1449 87.5C64.1449 87.176 64.2069 86.898 64.3309 86.666C64.4549 86.43 64.6249 86.25 64.8409 86.126C65.0569 86.002 65.3029 85.94 65.5789 85.94C65.8589 85.94 66.0969 86 66.2929 86.12C66.4929 86.24 66.6449 86.404 66.7489 86.612C66.8529 86.816 66.9049 87.046 66.9049 87.302C66.9049 87.37 66.9029 87.432 66.8989 87.488C66.8949 87.544 66.8889 87.594 66.8809 87.638H64.4569V87.212H66.6709L66.4249 87.26C66.4249 86.972 66.3449 86.75 66.1849 86.594C66.0289 86.438 65.8229 86.36 65.5669 86.36C65.3709 86.36 65.2009 86.406 65.0569 86.498C64.9169 86.586 64.8069 86.716 64.7269 86.888C64.6509 87.056 64.6129 87.26 64.6129 87.5C64.6129 87.736 64.6529 87.94 64.7329 88.112C64.8129 88.284 64.9249 88.416 65.0689 88.508C65.2169 88.596 65.3929 88.64 65.5969 88.64C65.8169 88.64 65.9949 88.598 66.1309 88.514C66.2709 88.43 66.3829 88.316 66.4669 88.172L66.8449 88.394C66.7689 88.53 66.6709 88.648 66.5509 88.748C66.4349 88.848 66.2969 88.926 66.1369 88.982C65.9809 89.034 65.8049 89.06 65.6089 89.06ZM67.8178 89V86H68.2378L68.2798 86.672L68.2018 86.606C68.2658 86.446 68.3518 86.318 68.4598 86.222C68.5678 86.122 68.6918 86.05 68.8318 86.006C68.9758 85.962 69.1238 85.94 69.2758 85.94C69.4918 85.94 69.6878 85.982 69.8638 86.066C70.0398 86.146 70.1798 86.27 70.2838 86.438C70.3918 86.606 70.4458 86.82 70.4458 87.08V89H69.9658V87.248C69.9658 86.916 69.8938 86.686 69.7498 86.558C69.6098 86.426 69.4358 86.36 69.2278 86.36C69.0838 86.36 68.9398 86.394 68.7958 86.462C68.6518 86.53 68.5318 86.64 68.4358 86.792C68.3438 86.944 68.2978 87.148 68.2978 87.404V89H67.8178ZM72.6126 89.06C72.3206 89.06 72.0506 88.998 71.8026 88.874C71.5586 88.75 71.3706 88.574 71.2386 88.346L71.6466 88.052C71.7346 88.236 71.8626 88.38 72.0306 88.484C72.2026 88.588 72.4086 88.64 72.6486 88.64C72.8606 88.64 73.0266 88.6 73.1466 88.52C73.2666 88.436 73.3266 88.328 73.3266 88.196C73.3266 88.112 73.2986 88.036 73.2426 87.968C73.1906 87.896 73.0886 87.844 72.9366 87.812L72.2166 87.662C71.9246 87.602 71.7146 87.502 71.5866 87.362C71.4626 87.222 71.4006 87.048 71.4006 86.84C71.4006 86.676 71.4466 86.526 71.5386 86.39C71.6346 86.254 71.7686 86.146 71.9406 86.066C72.1166 85.982 72.3226 85.94 72.5586 85.94C72.8546 85.94 73.1046 85.998 73.3086 86.114C73.5126 86.23 73.6646 86.394 73.7646 86.606L73.3626 86.87C73.2946 86.694 73.1846 86.566 73.0326 86.486C72.8806 86.402 72.7226 86.36 72.5586 86.36C72.4146 86.36 72.2906 86.38 72.1866 86.42C72.0866 86.46 72.0086 86.516 71.9526 86.588C71.9006 86.656 71.8746 86.734 71.8746 86.822C71.8746 86.91 71.9046 86.992 71.9646 87.068C72.0246 87.14 72.1366 87.192 72.3006 87.224L73.0506 87.38C73.3306 87.436 73.5266 87.528 73.6386 87.656C73.7506 87.784 73.8066 87.94 73.8066 88.124C73.8066 88.312 73.7566 88.478 73.6566 88.622C73.5566 88.762 73.4166 88.87 73.2366 88.946C73.0566 89.022 72.8486 89.06 72.6126 89.06ZM74.9367 85.424C74.8287 85.424 74.7407 85.392 74.6727 85.328C74.6087 85.26 74.5767 85.172 74.5767 85.064C74.5767 84.956 74.6087 84.87 74.6727 84.806C74.7407 84.738 74.8287 84.704 74.9367 84.704C75.0447 84.704 75.1307 84.738 75.1947 84.806C75.2627 84.87 75.2967 84.956 75.2967 85.064C75.2967 85.172 75.2627 85.26 75.1947 85.328C75.1307 85.392 75.0447 85.424 74.9367 85.424ZM75.1767 86V89H74.6967V86H75.1767ZM78.2764 86H78.7804L77.5324 89H77.0524L75.8044 86H76.3504L77.2984 88.514L78.2764 86ZM80.6616 89.06C80.3776 89.06 80.1236 88.998 79.8996 88.874C79.6796 88.75 79.5076 88.572 79.3836 88.34C79.2596 88.104 79.1976 87.824 79.1976 87.5C79.1976 87.176 79.2596 86.898 79.3836 86.666C79.5076 86.43 79.6776 86.25 79.8936 86.126C80.1096 86.002 80.3556 85.94 80.6316 85.94C80.9116 85.94 81.1496 86 81.3456 86.12C81.5456 86.24 81.6976 86.404 81.8016 86.612C81.9056 86.816 81.9576 87.046 81.9576 87.302C81.9576 87.37 81.9556 87.432 81.9516 87.488C81.9476 87.544 81.9416 87.594 81.9336 87.638H79.5096V87.212H81.7236L81.4776 87.26C81.4776 86.972 81.3976 86.75 81.2376 86.594C81.0816 86.438 80.8756 86.36 80.6196 86.36C80.4236 86.36 80.2536 86.406 80.1096 86.498C79.9696 86.586 79.8596 86.716 79.7796 86.888C79.7036 87.056 79.6656 87.26 79.6656 87.5C79.6656 87.736 79.7056 87.94 79.7856 88.112C79.8656 88.284 79.9776 88.416 80.1216 88.508C80.2696 88.596 80.4456 88.64 80.6496 88.64C80.8696 88.64 81.0476 88.598 81.1836 88.514C81.3236 88.43 81.4356 88.316 81.5196 88.172L81.8976 88.394C81.8216 88.53 81.7236 88.648 81.6036 88.748C81.4876 88.848 81.3496 88.926 81.1896 88.982C81.0336 89.034 80.8576 89.06 80.6616 89.06ZM6.7181 90.62V94.238C6.7181 94.39 6.7461 94.496 6.8021 94.556C6.8581 94.612 6.9481 94.64 7.0721 94.64C7.1521 94.64 7.2181 94.634 7.2701 94.622C7.3221 94.61 7.3921 94.588 7.4801 94.556L7.4021 94.976C7.3381 95.004 7.2681 95.024 7.1921 95.036C7.1161 95.052 7.0381 95.06 6.9581 95.06C6.7141 95.06 6.5321 94.994 6.4121 94.862C6.2961 94.73 6.2381 94.528 6.2381 94.256V90.62H6.7181ZM9.35009 95.06C9.06609 95.06 8.81209 94.998 8.58809 94.874C8.36809 94.75 8.19609 94.572 8.07209 94.34C7.94809 94.104 7.88609 93.824 7.88609 93.5C7.88609 93.176 7.94809 92.898 8.07209 92.666C8.19609 92.43 8.36609 92.25 8.58209 92.126C8.79809 92.002 9.04409 91.94 9.32009 91.94C9.60009 91.94 9.83809 92 10.0341 92.12C10.2341 92.24 10.3861 92.404 10.4901 92.612C10.5941 92.816 10.6461 93.046 10.6461 93.302C10.6461 93.37 10.6441 93.432 10.6401 93.488C10.6361 93.544 10.6301 93.594 10.6221 93.638H8.19809V93.212H10.4121L10.1661 93.26C10.1661 92.972 10.0861 92.75 9.92609 92.594C9.77009 92.438 9.56409 92.36 9.30809 92.36C9.11209 92.36 8.94209 92.406 8.79809 92.498C8.65809 92.586 8.54809 92.716 8.46809 92.888C8.39209 93.056 8.35409 93.26 8.35409 93.5C8.35409 93.736 8.39409 93.94 8.47409 94.112C8.55409 94.284 8.66609 94.416 8.81009 94.508C8.95809 94.596 9.13409 94.64 9.33809 94.64C9.55809 94.64 9.73609 94.598 9.87209 94.514C10.0121 94.43 10.1241 94.316 10.2081 94.172L10.5861 94.394C10.5101 94.53 10.4121 94.648 10.2921 94.748C10.1761 94.848 10.0381 94.926 9.87809 94.982C9.72209 95.034 9.54609 95.06 9.35009 95.06ZM13.311 93.062C13.311 92.838 13.251 92.666 13.131 92.546C13.011 92.422 12.841 92.36 12.621 92.36C12.413 92.36 12.237 92.406 12.093 92.498C11.949 92.586 11.843 92.73 11.775 92.93L11.385 92.69C11.465 92.466 11.613 92.286 11.829 92.15C12.045 92.01 12.313 91.94 12.633 91.94C12.849 91.94 13.045 91.978 13.221 92.054C13.397 92.126 13.535 92.238 13.635 92.39C13.739 92.538 13.791 92.73 13.791 92.966V94.418C13.791 94.562 13.867 94.634 14.019 94.634C14.095 94.634 14.169 94.624 14.241 94.604L14.217 94.982C14.137 95.022 14.033 95.042 13.905 95.042C13.789 95.042 13.685 95.02 13.593 94.976C13.501 94.932 13.429 94.866 13.377 94.778C13.325 94.686 13.299 94.572 13.299 94.436V94.376L13.419 94.394C13.371 94.55 13.289 94.678 13.173 94.778C13.057 94.874 12.927 94.946 12.783 94.994C12.639 95.038 12.497 95.06 12.357 95.06C12.181 95.06 12.017 95.03 11.865 94.97C11.713 94.91 11.591 94.82 11.499 94.7C11.411 94.576 11.367 94.424 11.367 94.244C11.367 94.02 11.441 93.836 11.589 93.692C11.741 93.544 11.951 93.444 12.219 93.392L13.407 93.158V93.554L12.441 93.752C12.245 93.792 12.099 93.848 12.003 93.92C11.907 93.992 11.859 94.092 11.859 94.22C11.859 94.344 11.907 94.446 12.003 94.526C12.103 94.602 12.243 94.64 12.423 94.64C12.539 94.64 12.649 94.626 12.753 94.598C12.861 94.566 12.957 94.52 13.041 94.46C13.125 94.396 13.191 94.318 13.239 94.226C13.287 94.13 13.311 94.018 13.311 93.89V93.062ZM14.9574 95V92H15.3474L15.4134 92.492C15.4974 92.308 15.6194 92.17 15.7794 92.078C15.9434 91.986 16.1414 91.94 16.3734 91.94C16.4254 91.94 16.4814 91.944 16.5414 91.952C16.6054 91.96 16.6594 91.976 16.7034 92L16.6194 92.438C16.5754 92.422 16.5274 92.41 16.4754 92.402C16.4234 92.394 16.3494 92.39 16.2534 92.39C16.1294 92.39 16.0034 92.426 15.8754 92.498C15.7514 92.57 15.6474 92.68 15.5634 92.828C15.4794 92.972 15.4374 93.156 15.4374 93.38V95H14.9574ZM17.4066 95V92H17.8266L17.8686 92.672L17.7906 92.606C17.8546 92.446 17.9406 92.318 18.0486 92.222C18.1566 92.122 18.2806 92.05 18.4206 92.006C18.5646 91.962 18.7126 91.94 18.8646 91.94C19.0806 91.94 19.2766 91.982 19.4526 92.066C19.6286 92.146 19.7686 92.27 19.8726 92.438C19.9806 92.606 20.0346 92.82 20.0346 93.08V95H19.5546V93.248C19.5546 92.916 19.4826 92.686 19.3386 92.558C19.1986 92.426 19.0246 92.36 18.8166 92.36C18.6726 92.36 18.5286 92.394 18.3846 92.462C18.2406 92.53 18.1206 92.64 18.0246 92.792C17.9326 92.944 17.8866 93.148 17.8866 93.404V95H17.4066ZM21.3615 91.424C21.2535 91.424 21.1655 91.392 21.0975 91.328C21.0335 91.26 21.0015 91.172 21.0015 91.064C21.0015 90.956 21.0335 90.87 21.0975 90.806C21.1655 90.738 21.2535 90.704 21.3615 90.704C21.4695 90.704 21.5555 90.738 21.6195 90.806C21.6875 90.87 21.7215 90.956 21.7215 91.064C21.7215 91.172 21.6875 91.26 21.6195 91.328C21.5555 91.392 21.4695 91.424 21.3615 91.424ZM21.6015 92V95H21.1215V92H21.6015ZM22.7152 95V92H23.1352L23.1772 92.672L23.0992 92.606C23.1632 92.446 23.2492 92.318 23.3572 92.222C23.4652 92.122 23.5892 92.05 23.7292 92.006C23.8732 91.962 24.0212 91.94 24.1732 91.94C24.3892 91.94 24.5852 91.982 24.7612 92.066C24.9372 92.146 25.0772 92.27 25.1812 92.438C25.2892 92.606 25.3432 92.82 25.3432 93.08V95H24.8632V93.248C24.8632 92.916 24.7912 92.686 24.6472 92.558C24.5072 92.426 24.3332 92.36 24.1252 92.36C23.9812 92.36 23.8372 92.394 23.6932 92.462C23.5492 92.53 23.4292 92.64 23.3332 92.792C23.2412 92.944 23.1952 93.148 23.1952 93.404V95H22.7152ZM28.9561 91.448L29.0641 91.874C29.0601 91.874 29.0541 91.874 29.0461 91.874C29.0381 91.874 29.0301 91.874 29.0221 91.874C28.8261 91.874 28.6741 91.914 28.5661 91.994C28.4621 92.07 28.4101 92.194 28.4101 92.366L28.1161 92.216C28.1161 92.06 28.1521 91.924 28.2241 91.808C28.2961 91.692 28.3941 91.604 28.5181 91.544C28.6421 91.48 28.7781 91.448 28.9261 91.448C28.9301 91.448 28.9341 91.448 28.9381 91.448C28.9461 91.448 28.9521 91.448 28.9561 91.448ZM28.0441 94.616C28.3281 94.616 28.5501 94.682 28.7101 94.814C28.8701 94.942 28.9501 95.114 28.9501 95.33C28.9501 95.526 28.8841 95.696 28.7521 95.84C28.6241 95.984 28.4501 96.094 28.2301 96.17C28.0141 96.25 27.7701 96.29 27.4981 96.29C27.0261 96.29 26.6721 96.21 26.4361 96.05C26.2041 95.89 26.0881 95.698 26.0881 95.474C26.0881 95.314 26.1401 95.17 26.2441 95.042C26.3521 94.918 26.5321 94.848 26.7841 94.832L26.7421 94.922C26.6061 94.886 26.4901 94.826 26.3941 94.742C26.3021 94.654 26.2561 94.528 26.2561 94.364C26.2561 94.2 26.3161 94.06 26.4361 93.944C26.5601 93.824 26.7421 93.75 26.9821 93.722L27.3001 93.884H27.2401C27.0441 93.904 26.9041 93.954 26.8201 94.034C26.7401 94.11 26.7001 94.194 26.7001 94.286C26.7001 94.398 26.7401 94.482 26.8201 94.538C26.9041 94.59 27.0201 94.616 27.1681 94.616H28.0441ZM27.4921 95.888C27.7241 95.888 27.9141 95.864 28.0621 95.816C28.2141 95.768 28.3261 95.706 28.3981 95.63C28.4701 95.554 28.5061 95.472 28.5061 95.384C28.5061 95.276 28.4621 95.19 28.3741 95.126C28.2901 95.062 28.1361 95.03 27.9121 95.03H26.9881C26.8601 95.03 26.7521 95.062 26.6641 95.126C26.5761 95.194 26.5321 95.286 26.5321 95.402C26.5321 95.55 26.6161 95.668 26.7841 95.756C26.9561 95.844 27.1921 95.888 27.4921 95.888ZM27.4501 91.94C27.6901 91.94 27.9021 91.984 28.0861 92.072C28.2741 92.156 28.4201 92.274 28.5241 92.426C28.6281 92.578 28.6801 92.754 28.6801 92.954C28.6801 93.15 28.6281 93.326 28.5241 93.482C28.4201 93.634 28.2741 93.754 28.0861 93.842C27.9021 93.926 27.6901 93.968 27.4501 93.968C27.0541 93.968 26.7501 93.874 26.5381 93.686C26.3261 93.494 26.2201 93.25 26.2201 92.954C26.2201 92.754 26.2721 92.578 26.3761 92.426C26.4841 92.274 26.6301 92.156 26.8141 92.072C26.9981 91.984 27.2101 91.94 27.4501 91.94ZM27.4501 92.33C27.2421 92.33 27.0681 92.388 26.9281 92.504C26.7881 92.616 26.7181 92.766 26.7181 92.954C26.7181 93.138 26.7881 93.288 26.9281 93.404C27.0681 93.52 27.2421 93.578 27.4501 93.578C27.6581 93.578 27.8321 93.52 27.9721 93.404C28.1121 93.288 28.1821 93.138 28.1821 92.954C28.1821 92.766 28.1121 92.616 27.9721 92.504C27.8321 92.388 27.6581 92.33 27.4501 92.33ZM33.4204 93.062C33.4204 92.838 33.3604 92.666 33.2404 92.546C33.1204 92.422 32.9504 92.36 32.7304 92.36C32.5224 92.36 32.3464 92.406 32.2024 92.498C32.0584 92.586 31.9524 92.73 31.8844 92.93L31.4944 92.69C31.5744 92.466 31.7224 92.286 31.9384 92.15C32.1544 92.01 32.4224 91.94 32.7424 91.94C32.9584 91.94 33.1544 91.978 33.3304 92.054C33.5064 92.126 33.6444 92.238 33.7444 92.39C33.8484 92.538 33.9004 92.73 33.9004 92.966V94.418C33.9004 94.562 33.9764 94.634 34.1284 94.634C34.2044 94.634 34.2784 94.624 34.3504 94.604L34.3264 94.982C34.2464 95.022 34.1424 95.042 34.0144 95.042C33.8984 95.042 33.7944 95.02 33.7024 94.976C33.6104 94.932 33.5384 94.866 33.4864 94.778C33.4344 94.686 33.4084 94.572 33.4084 94.436V94.376L33.5284 94.394C33.4804 94.55 33.3984 94.678 33.2824 94.778C33.1664 94.874 33.0364 94.946 32.8924 94.994C32.7484 95.038 32.6064 95.06 32.4664 95.06C32.2904 95.06 32.1264 95.03 31.9744 94.97C31.8224 94.91 31.7004 94.82 31.6084 94.7C31.5204 94.576 31.4764 94.424 31.4764 94.244C31.4764 94.02 31.5504 93.836 31.6984 93.692C31.8504 93.544 32.0604 93.444 32.3284 93.392L33.5164 93.158V93.554L32.5504 93.752C32.3544 93.792 32.2084 93.848 32.1124 93.92C32.0164 93.992 31.9684 94.092 31.9684 94.22C31.9684 94.344 32.0164 94.446 32.1124 94.526C32.2124 94.602 32.3524 94.64 32.5324 94.64C32.6484 94.64 32.7584 94.626 32.8624 94.598C32.9704 94.566 33.0664 94.52 33.1504 94.46C33.2344 94.396 33.3004 94.318 33.3484 94.226C33.3964 94.13 33.4204 94.018 33.4204 93.89V93.062ZM35.0668 95V92H35.4868L35.5288 92.672L35.4508 92.606C35.5148 92.446 35.6008 92.318 35.7088 92.222C35.8168 92.122 35.9408 92.05 36.0808 92.006C36.2248 91.962 36.3728 91.94 36.5248 91.94C36.7408 91.94 36.9368 91.982 37.1128 92.066C37.2888 92.146 37.4288 92.27 37.5328 92.438C37.6408 92.606 37.6948 92.82 37.6948 93.08V95H37.2148V93.248C37.2148 92.916 37.1428 92.686 36.9988 92.558C36.8588 92.426 36.6848 92.36 36.4768 92.36C36.3328 92.36 36.1888 92.394 36.0448 92.462C35.9008 92.53 35.7808 92.64 35.6848 92.792C35.5928 92.944 35.5468 93.148 35.5468 93.404V95H35.0668ZM39.9516 95.06C39.7036 95.06 39.4756 94.998 39.2676 94.874C39.0596 94.75 38.8936 94.572 38.7696 94.34C38.6456 94.104 38.5836 93.824 38.5836 93.5C38.5836 93.168 38.6496 92.886 38.7816 92.654C38.9136 92.422 39.0876 92.246 39.3036 92.126C39.5196 92.002 39.7516 91.94 39.9996 91.94C40.2476 91.94 40.4616 92.004 40.6416 92.132C40.8256 92.26 40.9476 92.43 41.0076 92.642L40.9476 92.684V90.62H41.4276V95H41.0076L40.9656 94.274L41.0316 94.238C41.0036 94.414 40.9356 94.564 40.8276 94.688C40.7236 94.808 40.5936 94.9 40.4376 94.964C40.2856 95.028 40.1236 95.06 39.9516 95.06ZM39.9996 94.64C40.1916 94.64 40.3576 94.592 40.4976 94.496C40.6416 94.4 40.7516 94.264 40.8276 94.088C40.9076 93.908 40.9476 93.698 40.9476 93.458C40.9476 93.23 40.9076 93.034 40.8276 92.87C40.7516 92.706 40.6436 92.58 40.5036 92.492C40.3676 92.404 40.2076 92.36 40.0236 92.36C39.7196 92.36 39.4836 92.464 39.3156 92.672C39.1476 92.88 39.0636 93.156 39.0636 93.5C39.0636 93.844 39.1456 94.12 39.3096 94.328C39.4736 94.536 39.7036 94.64 39.9996 94.64ZM44.5883 95V92H45.0083L45.0503 92.672L44.9723 92.606C45.0363 92.446 45.1223 92.318 45.2303 92.222C45.3383 92.122 45.4623 92.05 45.6023 92.006C45.7463 91.962 45.8943 91.94 46.0463 91.94C46.2623 91.94 46.4583 91.982 46.6343 92.066C46.8103 92.146 46.9503 92.27 47.0543 92.438C47.1623 92.606 47.2163 92.82 47.2163 93.08V95H46.7363V93.248C46.7363 92.916 46.6643 92.686 46.5203 92.558C46.3803 92.426 46.2063 92.36 45.9983 92.36C45.8543 92.36 45.7103 92.394 45.5663 92.462C45.4223 92.53 45.3023 92.64 45.2063 92.792C45.1143 92.944 45.0683 93.148 45.0683 93.404V95H44.5883ZM49.5571 95.06C49.2731 95.06 49.0191 94.998 48.7951 94.874C48.5751 94.75 48.4031 94.572 48.2791 94.34C48.1551 94.104 48.0931 93.824 48.0931 93.5C48.0931 93.176 48.1551 92.898 48.2791 92.666C48.4031 92.43 48.5731 92.25 48.7891 92.126C49.0051 92.002 49.2511 91.94 49.5271 91.94C49.8071 91.94 50.0451 92 50.2411 92.12C50.4411 92.24 50.5931 92.404 50.6971 92.612C50.8011 92.816 50.8531 93.046 50.8531 93.302C50.8531 93.37 50.8511 93.432 50.8471 93.488C50.8431 93.544 50.8371 93.594 50.8291 93.638H48.4051V93.212H50.6191L50.3731 93.26C50.3731 92.972 50.2931 92.75 50.1331 92.594C49.9771 92.438 49.7711 92.36 49.5151 92.36C49.3191 92.36 49.1491 92.406 49.0051 92.498C48.8651 92.586 48.7551 92.716 48.6751 92.888C48.5991 93.056 48.5611 93.26 48.5611 93.5C48.5611 93.736 48.6011 93.94 48.6811 94.112C48.7611 94.284 48.8731 94.416 49.0171 94.508C49.1651 94.596 49.3411 94.64 49.5451 94.64C49.7651 94.64 49.9431 94.598 50.0791 94.514C50.2191 94.43 50.3311 94.316 50.4151 94.172L50.7931 94.394C50.7171 94.53 50.6191 94.648 50.4991 94.748C50.3831 94.848 50.2451 94.926 50.0851 94.982C49.9291 95.034 49.7531 95.06 49.5571 95.06ZM55.4577 92H55.9917L54.9477 95H54.4677L53.6217 92.612L52.8237 95H52.3437L51.2997 92H51.8337L52.5897 94.442L53.4057 92H53.8857L54.7017 94.442L55.4577 92ZM57.7269 95.06C57.4349 95.06 57.1649 94.998 56.9169 94.874C56.6729 94.75 56.4849 94.574 56.3529 94.346L56.7609 94.052C56.8489 94.236 56.9769 94.38 57.1449 94.484C57.3169 94.588 57.5229 94.64 57.7629 94.64C57.9749 94.64 58.1409 94.6 58.2609 94.52C58.3809 94.436 58.4409 94.328 58.4409 94.196C58.4409 94.112 58.4129 94.036 58.3569 93.968C58.3049 93.896 58.2029 93.844 58.0509 93.812L57.3309 93.662C57.0389 93.602 56.8289 93.502 56.7009 93.362C56.5769 93.222 56.5149 93.048 56.5149 92.84C56.5149 92.676 56.5609 92.526 56.6529 92.39C56.7489 92.254 56.8829 92.146 57.0549 92.066C57.2309 91.982 57.4369 91.94 57.6729 91.94C57.9689 91.94 58.2189 91.998 58.4229 92.114C58.6269 92.23 58.7789 92.394 58.8789 92.606L58.4769 92.87C58.4089 92.694 58.2989 92.566 58.1469 92.486C57.9949 92.402 57.8369 92.36 57.6729 92.36C57.5289 92.36 57.4049 92.38 57.3009 92.42C57.2009 92.46 57.1229 92.516 57.0669 92.588C57.0149 92.656 56.9889 92.734 56.9889 92.822C56.9889 92.91 57.0189 92.992 57.0789 93.068C57.1389 93.14 57.2509 93.192 57.4149 93.224L58.1649 93.38C58.4449 93.436 58.6409 93.528 58.7529 93.656C58.8649 93.784 58.9209 93.94 58.9209 94.124C58.9209 94.312 58.8709 94.478 58.7709 94.622C58.6709 94.762 58.5309 94.87 58.3509 94.946C58.1709 95.022 57.9629 95.06 57.7269 95.06ZM62.9359 95.06C62.6439 95.06 62.3739 94.998 62.1259 94.874C61.8819 94.75 61.6939 94.574 61.5619 94.346L61.9699 94.052C62.0579 94.236 62.1859 94.38 62.3539 94.484C62.5259 94.588 62.7319 94.64 62.9719 94.64C63.1839 94.64 63.3499 94.6 63.4699 94.52C63.5899 94.436 63.6499 94.328 63.6499 94.196C63.6499 94.112 63.6219 94.036 63.5659 93.968C63.5139 93.896 63.4119 93.844 63.2599 93.812L62.5399 93.662C62.2479 93.602 62.0379 93.502 61.9099 93.362C61.7859 93.222 61.7239 93.048 61.7239 92.84C61.7239 92.676 61.7699 92.526 61.8619 92.39C61.9579 92.254 62.0919 92.146 62.2639 92.066C62.4399 91.982 62.6459 91.94 62.8819 91.94C63.1779 91.94 63.4279 91.998 63.6319 92.114C63.8359 92.23 63.9879 92.394 64.0879 92.606L63.6859 92.87C63.6179 92.694 63.5079 92.566 63.3559 92.486C63.2039 92.402 63.0459 92.36 62.8819 92.36C62.7379 92.36 62.6139 92.38 62.5099 92.42C62.4099 92.46 62.3319 92.516 62.2759 92.588C62.2239 92.656 62.1979 92.734 62.1979 92.822C62.1979 92.91 62.2279 92.992 62.2879 93.068C62.3479 93.14 62.4599 93.192 62.6239 93.224L63.3739 93.38C63.6539 93.436 63.8499 93.528 63.9619 93.656C64.0739 93.784 64.1299 93.94 64.1299 94.124C64.1299 94.312 64.0799 94.478 63.9799 94.622C63.8799 94.762 63.7399 94.87 63.5599 94.946C63.3799 95.022 63.1719 95.06 62.9359 95.06ZM66.2739 95.06C65.9899 95.06 65.7359 94.998 65.5119 94.874C65.2919 94.75 65.1199 94.572 64.9959 94.34C64.8719 94.104 64.8099 93.824 64.8099 93.5C64.8099 93.176 64.8719 92.898 64.9959 92.666C65.1199 92.43 65.2899 92.25 65.5059 92.126C65.7219 92.002 65.9679 91.94 66.2439 91.94C66.5239 91.94 66.7619 92 66.9579 92.12C67.1579 92.24 67.3099 92.404 67.4139 92.612C67.5179 92.816 67.5699 93.046 67.5699 93.302C67.5699 93.37 67.5679 93.432 67.5639 93.488C67.5599 93.544 67.5539 93.594 67.5459 93.638H65.1219V93.212H67.3359L67.0899 93.26C67.0899 92.972 67.0099 92.75 66.8499 92.594C66.6939 92.438 66.4879 92.36 66.2319 92.36C66.0359 92.36 65.8659 92.406 65.7219 92.498C65.5819 92.586 65.4719 92.716 65.3919 92.888C65.3159 93.056 65.2779 93.26 65.2779 93.5C65.2779 93.736 65.3179 93.94 65.3979 94.112C65.4779 94.284 65.5899 94.416 65.7339 94.508C65.8819 94.596 66.0579 94.64 66.2619 94.64C66.4819 94.64 66.6599 94.598 66.7959 94.514C66.9359 94.43 67.0479 94.316 67.1319 94.172L67.5099 94.394C67.4339 94.53 67.3359 94.648 67.2159 94.748C67.0999 94.848 66.9619 94.926 66.8019 94.982C66.6459 95.034 66.4699 95.06 66.2739 95.06ZM69.7248 91.94C69.9328 91.94 70.1148 91.972 70.2708 92.036C70.4308 92.1 70.5688 92.192 70.6848 92.312C70.8008 92.432 70.8948 92.574 70.9668 92.738L70.5108 92.954C70.4468 92.762 70.3488 92.616 70.2168 92.516C70.0888 92.412 69.9208 92.36 69.7128 92.36C69.5128 92.36 69.3408 92.406 69.1968 92.498C69.0528 92.586 68.9428 92.716 68.8668 92.888C68.7908 93.056 68.7528 93.26 68.7528 93.5C68.7528 93.736 68.7908 93.94 68.8668 94.112C68.9428 94.284 69.0528 94.416 69.1968 94.508C69.3408 94.596 69.5128 94.64 69.7128 94.64C69.8688 94.64 70.0028 94.616 70.1148 94.568C70.2308 94.52 70.3248 94.45 70.3968 94.358C70.4728 94.266 70.5248 94.154 70.5528 94.022L70.9968 94.178C70.9288 94.362 70.8348 94.52 70.7148 94.652C70.5988 94.784 70.4568 94.886 70.2888 94.958C70.1248 95.026 69.9368 95.06 69.7248 95.06C69.4448 95.06 69.1948 94.998 68.9748 94.874C68.7548 94.75 68.5828 94.572 68.4588 94.34C68.3348 94.104 68.2728 93.824 68.2728 93.5C68.2728 93.176 68.3348 92.898 68.4588 92.666C68.5828 92.43 68.7548 92.25 68.9748 92.126C69.1948 92.002 69.4448 91.94 69.7248 91.94ZM72.5482 91.148V94.172C72.5482 94.32 72.5902 94.43 72.6742 94.502C72.7582 94.574 72.8662 94.61 72.9982 94.61C73.1142 94.61 73.2142 94.59 73.2982 94.55C73.3822 94.51 73.4582 94.456 73.5262 94.388L73.6942 94.79C73.6022 94.874 73.4922 94.94 73.3642 94.988C73.2402 95.036 73.0962 95.06 72.9322 95.06C72.7802 95.06 72.6382 95.034 72.5062 94.982C72.3742 94.926 72.2682 94.84 72.1882 94.724C72.1122 94.604 72.0722 94.448 72.0682 94.256V91.28L72.5482 91.148ZM73.6402 92V92.414H71.4682V92H73.6402ZM74.5939 91.424C74.4859 91.424 74.3979 91.392 74.3299 91.328C74.2659 91.26 74.2339 91.172 74.2339 91.064C74.2339 90.956 74.2659 90.87 74.3299 90.806C74.3979 90.738 74.4859 90.704 74.5939 90.704C74.7019 90.704 74.7879 90.738 74.8519 90.806C74.9199 90.87 74.9539 90.956 74.9539 91.064C74.9539 91.172 74.9199 91.26 74.8519 91.328C74.7879 91.392 74.7019 91.424 74.5939 91.424ZM74.8339 92V95H74.3539V92H74.8339ZM77.1896 91.94C77.4736 91.94 77.7236 92.002 77.9396 92.126C78.1596 92.25 78.3316 92.43 78.4556 92.666C78.5796 92.898 78.6416 93.176 78.6416 93.5C78.6416 93.824 78.5796 94.104 78.4556 94.34C78.3316 94.572 78.1596 94.75 77.9396 94.874C77.7236 94.998 77.4736 95.06 77.1896 95.06C76.9096 95.06 76.6596 94.998 76.4396 94.874C76.2196 94.75 76.0476 94.572 75.9236 94.34C75.7996 94.104 75.7376 93.824 75.7376 93.5C75.7376 93.176 75.7996 92.898 75.9236 92.666C76.0476 92.43 76.2196 92.25 76.4396 92.126C76.6596 92.002 76.9096 91.94 77.1896 91.94ZM77.1896 92.354C76.9856 92.354 76.8116 92.4 76.6676 92.492C76.5236 92.584 76.4116 92.716 76.3316 92.888C76.2556 93.056 76.2176 93.26 76.2176 93.5C76.2176 93.736 76.2556 93.94 76.3316 94.112C76.4116 94.284 76.5236 94.416 76.6676 94.508C76.8116 94.6 76.9856 94.646 77.1896 94.646C77.3936 94.646 77.5676 94.6 77.7116 94.508C77.8556 94.416 77.9656 94.284 78.0416 94.112C78.1216 93.94 78.1616 93.736 78.1616 93.5C78.1616 93.26 78.1216 93.056 78.0416 92.888C77.9656 92.716 77.8556 92.584 77.7116 92.492C77.5676 92.4 77.3936 92.354 77.1896 92.354ZM79.5453 95V92H79.9653L80.0073 92.672L79.9293 92.606C79.9933 92.446 80.0793 92.318 80.1873 92.222C80.2953 92.122 80.4193 92.05 80.5593 92.006C80.7033 91.962 80.8513 91.94 81.0033 91.94C81.2193 91.94 81.4153 91.982 81.5913 92.066C81.7673 92.146 81.9073 92.27 82.0113 92.438C82.1193 92.606 82.1733 92.82 82.1733 93.08V95H81.6933V93.248C81.6933 92.916 81.6213 92.686 81.4773 92.558C81.3373 92.426 81.1633 92.36 80.9553 92.36C80.8113 92.36 80.6673 92.394 80.5233 92.462C80.3793 92.53 80.2593 92.64 80.1633 92.792C80.0713 92.944 80.0253 93.148 80.0253 93.404V95H79.5453ZM83.5001 94.28C83.6161 94.28 83.7101 94.316 83.7821 94.388C83.8541 94.46 83.8901 94.554 83.8901 94.67C83.8901 94.786 83.8541 94.88 83.7821 94.952C83.7101 95.024 83.6161 95.06 83.5001 95.06C83.3841 95.06 83.2901 95.024 83.2181 94.952C83.1461 94.88 83.1101 94.786 83.1101 94.67C83.1101 94.554 83.1461 94.46 83.2181 94.388C83.2901 94.316 83.3841 94.28 83.5001 94.28Z" fill="white"/>
<path d="M31.3229 18.075H28V39.3375C28 41.0081 29.4953 42.375 31.3229 42.375H54.5833V39.3375H31.3229V18.075ZM57.9062 12H37.9688C36.1411 12 34.6458 13.3669 34.6458 15.0375V33.2625C34.6458 34.9331 36.1411 36.3 37.9688 36.3H57.9062C59.7339 36.3 61.2292 34.9331 61.2292 33.2625V15.0375C61.2292 13.3669 59.7339 12 57.9062 12ZM57.9062 33.2625H37.9688V15.0375H57.9062V33.2625ZM41.2917 22.6313H54.5833V25.6688H41.2917V22.6313ZM41.2917 27.1875H47.9375V30.225H41.2917V27.1875ZM41.2917 18.075H54.5833V21.1125H41.2917V18.075Z" fill="#FF1643"/>
</svg>
