<svg width="90" height="121" viewBox="0 0 90 121" fill="none" xmlns="http://www.w3.org/2000/svg">
<ellipse cx="43.5" cy="28" rx="27.5" ry="28" fill="#FF9100" fill-opacity="0.2"/>
<path d="M30.8614 72.12C30.3014 72.12 29.7648 72.0467 29.2514 71.9C28.7381 71.7467 28.3248 71.55 28.0114 71.31L28.5614 70.09C28.8614 70.3033 29.2148 70.48 29.6214 70.62C30.0348 70.7533 30.4514 70.82 30.8714 70.82C31.1914 70.82 31.4481 70.79 31.6414 70.73C31.8414 70.6633 31.9881 70.5733 32.0814 70.46C32.1748 70.3467 32.2214 70.2167 32.2214 70.07C32.2214 69.8833 32.1481 69.7367 32.0014 69.63C31.8548 69.5167 31.6614 69.4267 31.4214 69.36C31.1814 69.2867 30.9148 69.22 30.6214 69.16C30.3348 69.0933 30.0448 69.0133 29.7514 68.92C29.4648 68.8267 29.2014 68.7067 28.9614 68.56C28.7214 68.4133 28.5248 68.22 28.3714 67.98C28.2248 67.74 28.1514 67.4333 28.1514 67.06C28.1514 66.66 28.2581 66.2967 28.4714 65.97C28.6914 65.6367 29.0181 65.3733 29.4514 65.18C29.8914 64.98 30.4414 64.88 31.1014 64.88C31.5414 64.88 31.9748 64.9333 32.4014 65.04C32.8281 65.14 33.2048 65.2933 33.5314 65.5L33.0314 66.73C32.7048 66.5433 32.3781 66.4067 32.0514 66.32C31.7248 66.2267 31.4048 66.18 31.0914 66.18C30.7781 66.18 30.5214 66.2167 30.3214 66.29C30.1214 66.3633 29.9781 66.46 29.8914 66.58C29.8048 66.6933 29.7614 66.8267 29.7614 66.98C29.7614 67.16 29.8348 67.3067 29.9814 67.42C30.1281 67.5267 30.3214 67.6133 30.5614 67.68C30.8014 67.7467 31.0648 67.8133 31.3514 67.88C31.6448 67.9467 31.9348 68.0233 32.2214 68.11C32.5148 68.1967 32.7814 68.3133 33.0214 68.46C33.2614 68.6067 33.4548 68.8 33.6014 69.04C33.7548 69.28 33.8314 69.5833 33.8314 69.95C33.8314 70.3433 33.7214 70.7033 33.5014 71.03C33.2814 71.3567 32.9514 71.62 32.5114 71.82C32.0781 72.02 31.5281 72.12 30.8614 72.12ZM36.2907 72V66.32H34.0507V65H40.1507V66.32H37.9107V72H36.2907ZM44.3247 72.12C43.7714 72.12 43.2581 72.03 42.7847 71.85C42.3181 71.67 41.9114 71.4167 41.5647 71.09C41.2247 70.7633 40.9581 70.38 40.7647 69.94C40.5781 69.5 40.4847 69.02 40.4847 68.5C40.4847 67.98 40.5781 67.5 40.7647 67.06C40.9581 66.62 41.2281 66.2367 41.5747 65.91C41.9214 65.5833 42.3281 65.33 42.7947 65.15C43.2614 64.97 43.7681 64.88 44.3147 64.88C44.8681 64.88 45.3747 64.97 45.8347 65.15C46.3014 65.33 46.7047 65.5833 47.0447 65.91C47.3914 66.2367 47.6614 66.62 47.8547 67.06C48.0481 67.4933 48.1447 67.9733 48.1447 68.5C48.1447 69.02 48.0481 69.5033 47.8547 69.95C47.6614 70.39 47.3914 70.7733 47.0447 71.1C46.7047 71.42 46.3014 71.67 45.8347 71.85C45.3747 72.03 44.8714 72.12 44.3247 72.12ZM44.3147 70.74C44.6281 70.74 44.9147 70.6867 45.1747 70.58C45.4414 70.4733 45.6747 70.32 45.8747 70.12C46.0747 69.92 46.2281 69.6833 46.3347 69.41C46.4481 69.1367 46.5047 68.8333 46.5047 68.5C46.5047 68.1667 46.4481 67.8633 46.3347 67.59C46.2281 67.3167 46.0747 67.08 45.8747 66.88C45.6814 66.68 45.4514 66.5267 45.1847 66.42C44.9181 66.3133 44.6281 66.26 44.3147 66.26C44.0014 66.26 43.7114 66.3133 43.4447 66.42C43.1847 66.5267 42.9547 66.68 42.7547 66.88C42.5547 67.08 42.3981 67.3167 42.2847 67.59C42.1781 67.8633 42.1247 68.1667 42.1247 68.5C42.1247 68.8267 42.1781 69.13 42.2847 69.41C42.3981 69.6833 42.5514 69.92 42.7447 70.12C42.9447 70.32 43.1781 70.4733 43.4447 70.58C43.7114 70.6867 44.0014 70.74 44.3147 70.74ZM52.7122 72.12C52.1722 72.12 51.6689 72.0333 51.2022 71.86C50.7422 71.68 50.3422 71.4267 50.0022 71.1C49.6622 70.7733 49.3956 70.39 49.2022 69.95C49.0156 69.51 48.9222 69.0267 48.9222 68.5C48.9222 67.9733 49.0156 67.49 49.2022 67.05C49.3956 66.61 49.6622 66.2267 50.0022 65.9C50.3489 65.5733 50.7522 65.3233 51.2122 65.15C51.6722 64.97 52.1756 64.88 52.7222 64.88C53.3289 64.88 53.8756 64.9867 54.3622 65.2C54.8556 65.4067 55.2689 65.7133 55.6022 66.12L54.5622 67.08C54.3222 66.8067 54.0556 66.6033 53.7622 66.47C53.4689 66.33 53.1489 66.26 52.8022 66.26C52.4756 66.26 52.1756 66.3133 51.9022 66.42C51.6289 66.5267 51.3922 66.68 51.1922 66.88C50.9922 67.08 50.8356 67.3167 50.7222 67.59C50.6156 67.8633 50.5622 68.1667 50.5622 68.5C50.5622 68.8333 50.6156 69.1367 50.7222 69.41C50.8356 69.6833 50.9922 69.92 51.1922 70.12C51.3922 70.32 51.6289 70.4733 51.9022 70.58C52.1756 70.6867 52.4756 70.74 52.8022 70.74C53.1489 70.74 53.4689 70.6733 53.7622 70.54C54.0556 70.4 54.3222 70.19 54.5622 69.91L55.6022 70.87C55.2689 71.2767 54.8556 71.5867 54.3622 71.8C53.8756 72.0133 53.3256 72.12 52.7122 72.12ZM58.1462 70.4L58.0562 68.53L61.4062 65H63.2062L60.1862 68.25L59.2862 69.21L58.1462 70.4ZM56.6962 72V65H58.3062V72H56.6962ZM61.4862 72L58.9962 68.95L60.0562 67.8L63.3762 72H61.4862ZM13.2929 82V75H16.3229C16.9496 75 17.4896 75.1033 17.9429 75.31C18.3962 75.51 18.7462 75.8 18.9929 76.18C19.2396 76.56 19.3629 77.0133 19.3629 77.54C19.3629 78.06 19.2396 78.51 18.9929 78.89C18.7462 79.27 18.3962 79.5633 17.9429 79.77C17.4896 79.97 16.9496 80.07 16.3229 80.07H14.1929L14.9129 79.34V82H13.2929ZM14.9129 79.52L14.1929 78.75H16.2329C16.7329 78.75 17.1062 78.6433 17.3529 78.43C17.5996 78.2167 17.7229 77.92 17.7229 77.54C17.7229 77.1533 17.5996 76.8533 17.3529 76.64C17.1062 76.4267 16.7329 76.32 16.2329 76.32H14.1929L14.9129 75.55V79.52ZM20.5195 82V75H23.5495C24.1761 75 24.7161 75.1033 25.1695 75.31C25.6228 75.51 25.9728 75.8 26.2195 76.18C26.4661 76.56 26.5895 77.0133 26.5895 77.54C26.5895 78.06 26.4661 78.51 26.2195 78.89C25.9728 79.2633 25.6228 79.55 25.1695 79.75C24.7161 79.95 24.1761 80.05 23.5495 80.05H21.4195L22.1395 79.34V82H20.5195ZM24.9695 82L23.2195 79.46H24.9495L26.7195 82H24.9695ZM22.1395 79.52L21.4195 78.76H23.4595C23.9595 78.76 24.3328 78.6533 24.5795 78.44C24.8261 78.22 24.9495 77.92 24.9495 77.54C24.9495 77.1533 24.8261 76.8533 24.5795 76.64C24.3328 76.4267 23.9595 76.32 23.4595 76.32H21.4195L22.1395 75.55V79.52ZM29.363 77.82H32.733V79.08H29.363V77.82ZM29.483 80.7H33.293V82H27.873V75H33.163V76.3H29.483V80.7ZM34.582 82V75H37.762C38.522 75 39.192 75.1467 39.772 75.44C40.352 75.7267 40.8053 76.13 41.132 76.65C41.4586 77.17 41.622 77.7867 41.622 78.5C41.622 79.2067 41.4586 79.8233 41.132 80.35C40.8053 80.87 40.352 81.2767 39.772 81.57C39.192 81.8567 38.522 82 37.762 82H34.582ZM36.202 80.67H37.682C38.1486 80.67 38.552 80.5833 38.892 80.41C39.2386 80.23 39.5053 79.9767 39.692 79.65C39.8853 79.3233 39.982 78.94 39.982 78.5C39.982 78.0533 39.8853 77.67 39.692 77.35C39.5053 77.0233 39.2386 76.7733 38.892 76.6C38.552 76.42 38.1486 76.33 37.682 76.33H36.202V80.67ZM42.8437 82V75H44.4637V82H42.8437ZM49.4749 82.12C48.9349 82.12 48.4316 82.0333 47.9649 81.86C47.5049 81.68 47.1049 81.4267 46.7649 81.1C46.4249 80.7733 46.1583 80.39 45.9649 79.95C45.7783 79.51 45.6849 79.0267 45.6849 78.5C45.6849 77.9733 45.7783 77.49 45.9649 77.05C46.1583 76.61 46.4249 76.2267 46.7649 75.9C47.1116 75.5733 47.5149 75.3233 47.9749 75.15C48.4349 74.97 48.9383 74.88 49.4849 74.88C50.0916 74.88 50.6383 74.9867 51.1249 75.2C51.6183 75.4067 52.0316 75.7133 52.3649 76.12L51.3249 77.08C51.0849 76.8067 50.8183 76.6033 50.5249 76.47C50.2316 76.33 49.9116 76.26 49.5649 76.26C49.2383 76.26 48.9383 76.3133 48.6649 76.42C48.3916 76.5267 48.1549 76.68 47.9549 76.88C47.7549 77.08 47.5983 77.3167 47.4849 77.59C47.3783 77.8633 47.3249 78.1667 47.3249 78.5C47.3249 78.8333 47.3783 79.1367 47.4849 79.41C47.5983 79.6833 47.7549 79.92 47.9549 80.12C48.1549 80.32 48.3916 80.4733 48.6649 80.58C48.9383 80.6867 49.2383 80.74 49.5649 80.74C49.9116 80.74 50.2316 80.6733 50.5249 80.54C50.8183 80.4 51.0849 80.19 51.3249 79.91L52.3649 80.87C52.0316 81.2767 51.6183 81.5867 51.1249 81.8C50.6383 82.0133 50.0883 82.12 49.4749 82.12ZM54.8405 82V76.32H52.6005V75H58.7005V76.32H56.4605V82H54.8405ZM59.5722 82V75H61.1922V82H59.5722ZM66.2534 82.12C65.7001 82.12 65.1868 82.03 64.7134 81.85C64.2468 81.67 63.8401 81.4167 63.4934 81.09C63.1534 80.7633 62.8868 80.38 62.6934 79.94C62.5068 79.5 62.4134 79.02 62.4134 78.5C62.4134 77.98 62.5068 77.5 62.6934 77.06C62.8868 76.62 63.1568 76.2367 63.5034 75.91C63.8501 75.5833 64.2568 75.33 64.7234 75.15C65.1901 74.97 65.6968 74.88 66.2434 74.88C66.7968 74.88 67.3034 74.97 67.7634 75.15C68.2301 75.33 68.6334 75.5833 68.9734 75.91C69.3201 76.2367 69.5901 76.62 69.7834 77.06C69.9768 77.4933 70.0734 77.9733 70.0734 78.5C70.0734 79.02 69.9768 79.5033 69.7834 79.95C69.5901 80.39 69.3201 80.7733 68.9734 81.1C68.6334 81.42 68.2301 81.67 67.7634 81.85C67.3034 82.03 66.8001 82.12 66.2534 82.12ZM66.2434 80.74C66.5568 80.74 66.8434 80.6867 67.1034 80.58C67.3701 80.4733 67.6034 80.32 67.8034 80.12C68.0034 79.92 68.1568 79.6833 68.2634 79.41C68.3768 79.1367 68.4334 78.8333 68.4334 78.5C68.4334 78.1667 68.3768 77.8633 68.2634 77.59C68.1568 77.3167 68.0034 77.08 67.8034 76.88C67.6101 76.68 67.3801 76.5267 67.1134 76.42C66.8468 76.3133 66.5568 76.26 66.2434 76.26C65.9301 76.26 65.6401 76.3133 65.3734 76.42C65.1134 76.5267 64.8834 76.68 64.6834 76.88C64.4834 77.08 64.3268 77.3167 64.2134 77.59C64.1068 77.8633 64.0534 78.1667 64.0534 78.5C64.0534 78.8267 64.1068 79.13 64.2134 79.41C64.3268 79.6833 64.4801 79.92 64.6734 80.12C64.8734 80.32 65.1068 80.4733 65.3734 80.58C65.6401 80.6867 65.9301 80.74 66.2434 80.74ZM71.2909 82V75H72.6309L76.7609 80.04H76.1109V75H77.7109V82H76.3809L72.2409 76.96H72.8909V82H71.2909Z" fill="white"/>
<path d="M6.99916 91.04V95H6.51916V91.04H6.99916ZM4.37116 91.04V95H3.89116V91.04H4.37116ZM6.74116 92.768V93.218H4.14316V92.768H6.74116ZM9.92426 93.062C9.92426 92.838 9.86426 92.666 9.74426 92.546C9.62426 92.422 9.45426 92.36 9.23426 92.36C9.02626 92.36 8.85026 92.406 8.70626 92.498C8.56226 92.586 8.45626 92.73 8.38826 92.93L7.99826 92.69C8.07826 92.466 8.22626 92.286 8.44226 92.15C8.65826 92.01 8.92626 91.94 9.24626 91.94C9.46226 91.94 9.65826 91.978 9.83426 92.054C10.0103 92.126 10.1483 92.238 10.2483 92.39C10.3523 92.538 10.4043 92.73 10.4043 92.966V94.418C10.4043 94.562 10.4803 94.634 10.6323 94.634C10.7083 94.634 10.7823 94.624 10.8543 94.604L10.8303 94.982C10.7503 95.022 10.6463 95.042 10.5183 95.042C10.4023 95.042 10.2983 95.02 10.2063 94.976C10.1143 94.932 10.0423 94.866 9.99026 94.778C9.93826 94.686 9.91226 94.572 9.91226 94.436V94.376L10.0323 94.394C9.98426 94.55 9.90226 94.678 9.78626 94.778C9.67026 94.874 9.54026 94.946 9.39626 94.994C9.25226 95.038 9.11026 95.06 8.97026 95.06C8.79426 95.06 8.63026 95.03 8.47826 94.97C8.32626 94.91 8.20426 94.82 8.11226 94.7C8.02426 94.576 7.98026 94.424 7.98026 94.244C7.98026 94.02 8.05426 93.836 8.20226 93.692C8.35426 93.544 8.56426 93.444 8.83226 93.392L10.0203 93.158V93.554L9.05426 93.752C8.85826 93.792 8.71226 93.848 8.61626 93.92C8.52026 93.992 8.47226 94.092 8.47226 94.22C8.47226 94.344 8.52026 94.446 8.61626 94.526C8.71626 94.602 8.85626 94.64 9.03626 94.64C9.15226 94.64 9.26226 94.626 9.36626 94.598C9.47426 94.566 9.57026 94.52 9.65426 94.46C9.73826 94.396 9.80426 94.318 9.85226 94.226C9.90026 94.13 9.92426 94.018 9.92426 93.89V93.062ZM11.5707 95V92H11.9607L12.0267 92.492C12.1107 92.308 12.2327 92.17 12.3927 92.078C12.5567 91.986 12.7547 91.94 12.9867 91.94C13.0387 91.94 13.0947 91.944 13.1547 91.952C13.2187 91.96 13.2727 91.976 13.3167 92L13.2327 92.438C13.1887 92.422 13.1407 92.41 13.0887 92.402C13.0367 92.394 12.9627 92.39 12.8667 92.39C12.7427 92.39 12.6167 92.426 12.4887 92.498C12.3647 92.57 12.2607 92.68 12.1767 92.828C12.0927 92.972 12.0507 93.156 12.0507 93.38V95H11.5707ZM14.0199 95V92H14.4399L14.4819 92.672L14.4039 92.606C14.4679 92.446 14.5539 92.318 14.6619 92.222C14.7699 92.122 14.8939 92.05 15.0339 92.006C15.1779 91.962 15.3259 91.94 15.4779 91.94C15.6939 91.94 15.8899 91.982 16.0659 92.066C16.2419 92.146 16.3819 92.27 16.4859 92.438C16.5939 92.606 16.6479 92.82 16.6479 93.08V95H16.1679V93.248C16.1679 92.916 16.0959 92.686 15.9519 92.558C15.8119 92.426 15.6379 92.36 15.4299 92.36C15.2859 92.36 15.1419 92.394 14.9979 92.462C14.8539 92.53 14.7339 92.64 14.6379 92.792C14.5459 92.944 14.4999 93.148 14.4999 93.404V95H14.0199ZM18.9888 95.06C18.7048 95.06 18.4508 94.998 18.2268 94.874C18.0068 94.75 17.8348 94.572 17.7108 94.34C17.5868 94.104 17.5248 93.824 17.5248 93.5C17.5248 93.176 17.5868 92.898 17.7108 92.666C17.8348 92.43 18.0048 92.25 18.2208 92.126C18.4368 92.002 18.6828 91.94 18.9588 91.94C19.2388 91.94 19.4768 92 19.6728 92.12C19.8728 92.24 20.0248 92.404 20.1288 92.612C20.2328 92.816 20.2848 93.046 20.2848 93.302C20.2848 93.37 20.2828 93.432 20.2788 93.488C20.2748 93.544 20.2688 93.594 20.2608 93.638H17.8368V93.212H20.0508L19.8048 93.26C19.8048 92.972 19.7248 92.75 19.5648 92.594C19.4088 92.438 19.2028 92.36 18.9468 92.36C18.7508 92.36 18.5808 92.406 18.4368 92.498C18.2968 92.586 18.1868 92.716 18.1068 92.888C18.0308 93.056 17.9928 93.26 17.9928 93.5C17.9928 93.736 18.0328 93.94 18.1128 94.112C18.1928 94.284 18.3048 94.416 18.4488 94.508C18.5968 94.596 18.7728 94.64 18.9768 94.64C19.1968 94.64 19.3748 94.598 19.5108 94.514C19.6508 94.43 19.7628 94.316 19.8468 94.172L20.2248 94.394C20.1488 94.53 20.0508 94.648 19.9308 94.748C19.8148 94.848 19.6768 94.926 19.5168 94.982C19.3608 95.034 19.1848 95.06 18.9888 95.06ZM22.2776 95.06C21.9856 95.06 21.7156 94.998 21.4676 94.874C21.2236 94.75 21.0356 94.574 20.9036 94.346L21.3116 94.052C21.3996 94.236 21.5276 94.38 21.6956 94.484C21.8676 94.588 22.0736 94.64 22.3136 94.64C22.5256 94.64 22.6916 94.6 22.8116 94.52C22.9316 94.436 22.9916 94.328 22.9916 94.196C22.9916 94.112 22.9636 94.036 22.9076 93.968C22.8556 93.896 22.7536 93.844 22.6016 93.812L21.8816 93.662C21.5896 93.602 21.3796 93.502 21.2516 93.362C21.1276 93.222 21.0656 93.048 21.0656 92.84C21.0656 92.676 21.1116 92.526 21.2036 92.39C21.2996 92.254 21.4336 92.146 21.6056 92.066C21.7816 91.982 21.9876 91.94 22.2236 91.94C22.5196 91.94 22.7696 91.998 22.9736 92.114C23.1776 92.23 23.3296 92.394 23.4296 92.606L23.0276 92.87C22.9596 92.694 22.8496 92.566 22.6976 92.486C22.5456 92.402 22.3876 92.36 22.2236 92.36C22.0796 92.36 21.9556 92.38 21.8516 92.42C21.7516 92.46 21.6736 92.516 21.6176 92.588C21.5656 92.656 21.5396 92.734 21.5396 92.822C21.5396 92.91 21.5696 92.992 21.6296 93.068C21.6896 93.14 21.8016 93.192 21.9656 93.224L22.7156 93.38C22.9956 93.436 23.1916 93.528 23.3036 93.656C23.4156 93.784 23.4716 93.94 23.4716 94.124C23.4716 94.312 23.4216 94.478 23.3216 94.622C23.2216 94.762 23.0816 94.87 22.9016 94.946C22.7216 95.022 22.5136 95.06 22.2776 95.06ZM25.4417 95.06C25.1497 95.06 24.8797 94.998 24.6317 94.874C24.3877 94.75 24.1997 94.574 24.0677 94.346L24.4757 94.052C24.5637 94.236 24.6917 94.38 24.8597 94.484C25.0317 94.588 25.2377 94.64 25.4777 94.64C25.6897 94.64 25.8557 94.6 25.9757 94.52C26.0957 94.436 26.1557 94.328 26.1557 94.196C26.1557 94.112 26.1277 94.036 26.0717 93.968C26.0197 93.896 25.9177 93.844 25.7657 93.812L25.0457 93.662C24.7537 93.602 24.5437 93.502 24.4157 93.362C24.2917 93.222 24.2297 93.048 24.2297 92.84C24.2297 92.676 24.2757 92.526 24.3677 92.39C24.4637 92.254 24.5977 92.146 24.7697 92.066C24.9457 91.982 25.1517 91.94 25.3877 91.94C25.6837 91.94 25.9337 91.998 26.1377 92.114C26.3417 92.23 26.4937 92.394 26.5937 92.606L26.1917 92.87C26.1237 92.694 26.0137 92.566 25.8617 92.486C25.7097 92.402 25.5517 92.36 25.3877 92.36C25.2437 92.36 25.1197 92.38 25.0157 92.42C24.9157 92.46 24.8377 92.516 24.7817 92.588C24.7297 92.656 24.7037 92.734 24.7037 92.822C24.7037 92.91 24.7337 92.992 24.7937 93.068C24.8537 93.14 24.9657 93.192 25.1297 93.224L25.8797 93.38C26.1597 93.436 26.3557 93.528 26.4677 93.656C26.5797 93.784 26.6357 93.94 26.6357 94.124C26.6357 94.312 26.5857 94.478 26.4857 94.622C26.3857 94.762 26.2457 94.87 26.0657 94.946C25.8857 95.022 25.6777 95.06 25.4417 95.06ZM30.1615 91.148V94.172C30.1615 94.32 30.2035 94.43 30.2875 94.502C30.3715 94.574 30.4795 94.61 30.6115 94.61C30.7275 94.61 30.8275 94.59 30.9115 94.55C30.9955 94.51 31.0715 94.456 31.1395 94.388L31.3075 94.79C31.2155 94.874 31.1055 94.94 30.9775 94.988C30.8535 95.036 30.7095 95.06 30.5455 95.06C30.3935 95.06 30.2515 95.034 30.1195 94.982C29.9875 94.926 29.8815 94.84 29.8015 94.724C29.7255 94.604 29.6855 94.448 29.6815 94.256V91.28L30.1615 91.148ZM31.2535 92V92.414H29.0815V92H31.2535ZM31.9672 95V90.62H32.4472V92.45C32.5512 92.27 32.6892 92.14 32.8612 92.06C33.0332 91.98 33.2212 91.94 33.4252 91.94C33.6412 91.94 33.8372 91.982 34.0132 92.066C34.1892 92.146 34.3292 92.27 34.4332 92.438C34.5412 92.606 34.5952 92.82 34.5952 93.08V95H34.1152V93.248C34.1152 92.916 34.0432 92.686 33.8992 92.558C33.7592 92.426 33.5852 92.36 33.3772 92.36C33.2332 92.36 33.0892 92.394 32.9452 92.462C32.8012 92.53 32.6812 92.642 32.5852 92.798C32.4932 92.95 32.4472 93.154 32.4472 93.41V95H31.9672ZM36.936 95.06C36.652 95.06 36.398 94.998 36.174 94.874C35.954 94.75 35.782 94.572 35.658 94.34C35.534 94.104 35.472 93.824 35.472 93.5C35.472 93.176 35.534 92.898 35.658 92.666C35.782 92.43 35.952 92.25 36.168 92.126C36.384 92.002 36.63 91.94 36.906 91.94C37.186 91.94 37.424 92 37.62 92.12C37.82 92.24 37.972 92.404 38.076 92.612C38.18 92.816 38.232 93.046 38.232 93.302C38.232 93.37 38.23 93.432 38.226 93.488C38.222 93.544 38.216 93.594 38.208 93.638H35.784V93.212H37.998L37.752 93.26C37.752 92.972 37.672 92.75 37.512 92.594C37.356 92.438 37.15 92.36 36.894 92.36C36.698 92.36 36.528 92.406 36.384 92.498C36.244 92.586 36.134 92.716 36.054 92.888C35.978 93.056 35.94 93.26 35.94 93.5C35.94 93.736 35.98 93.94 36.06 94.112C36.14 94.284 36.252 94.416 36.396 94.508C36.544 94.596 36.72 94.64 36.924 94.64C37.144 94.64 37.322 94.598 37.458 94.514C37.598 94.43 37.71 94.316 37.794 94.172L38.172 94.394C38.096 94.53 37.998 94.648 37.878 94.748C37.762 94.848 37.624 94.926 37.464 94.982C37.308 95.034 37.132 95.06 36.936 95.06ZM41.1898 96.26V92H41.6098L41.6518 92.732L41.5858 92.648C41.6378 92.508 41.7158 92.386 41.8198 92.282C41.9238 92.174 42.0498 92.09 42.1978 92.03C42.3458 91.97 42.5058 91.94 42.6778 91.94C42.9218 91.94 43.1458 92.002 43.3498 92.126C43.5578 92.25 43.7238 92.428 43.8478 92.66C43.9718 92.892 44.0338 93.172 44.0338 93.5C44.0338 93.824 43.9698 94.104 43.8418 94.34C43.7178 94.572 43.5518 94.75 43.3438 94.874C43.1358 94.998 42.9078 95.06 42.6598 95.06C42.4118 95.06 42.1938 95 42.0058 94.88C41.8218 94.756 41.6898 94.6 41.6098 94.412L41.6698 94.322V96.26H41.1898ZM42.6118 94.64C42.9078 94.64 43.1378 94.536 43.3018 94.328C43.4698 94.12 43.5538 93.844 43.5538 93.5C43.5538 93.156 43.4718 92.88 43.3078 92.672C43.1478 92.464 42.9218 92.36 42.6298 92.36C42.4378 92.36 42.2698 92.408 42.1258 92.504C41.9818 92.596 41.8698 92.728 41.7898 92.9C41.7098 93.068 41.6698 93.268 41.6698 93.5C41.6698 93.728 41.7078 93.928 41.7838 94.1C41.8638 94.272 41.9738 94.406 42.1138 94.502C42.2578 94.594 42.4238 94.64 42.6118 94.64ZM46.1936 91.94C46.4776 91.94 46.7276 92.002 46.9436 92.126C47.1636 92.25 47.3356 92.43 47.4596 92.666C47.5836 92.898 47.6456 93.176 47.6456 93.5C47.6456 93.824 47.5836 94.104 47.4596 94.34C47.3356 94.572 47.1636 94.75 46.9436 94.874C46.7276 94.998 46.4776 95.06 46.1936 95.06C45.9136 95.06 45.6636 94.998 45.4436 94.874C45.2236 94.75 45.0516 94.572 44.9276 94.34C44.8036 94.104 44.7416 93.824 44.7416 93.5C44.7416 93.176 44.8036 92.898 44.9276 92.666C45.0516 92.43 45.2236 92.25 45.4436 92.126C45.6636 92.002 45.9136 91.94 46.1936 91.94ZM46.1936 92.354C45.9896 92.354 45.8156 92.4 45.6716 92.492C45.5276 92.584 45.4156 92.716 45.3356 92.888C45.2596 93.056 45.2216 93.26 45.2216 93.5C45.2216 93.736 45.2596 93.94 45.3356 94.112C45.4156 94.284 45.5276 94.416 45.6716 94.508C45.8156 94.6 45.9896 94.646 46.1936 94.646C46.3976 94.646 46.5716 94.6 46.7156 94.508C46.8596 94.416 46.9696 94.284 47.0456 94.112C47.1256 93.94 47.1656 93.736 47.1656 93.5C47.1656 93.26 47.1256 93.056 47.0456 92.888C46.9696 92.716 46.8596 92.584 46.7156 92.492C46.5716 92.4 46.3976 92.354 46.1936 92.354ZM52.2175 92H52.7515L51.7075 95H51.2275L50.3815 92.612L49.5835 95H49.1035L48.0595 92H48.5935L49.3495 94.442L50.1655 92H50.6455L51.4615 94.442L52.2175 92ZM54.6313 95.06C54.3473 95.06 54.0933 94.998 53.8693 94.874C53.6493 94.75 53.4773 94.572 53.3533 94.34C53.2293 94.104 53.1673 93.824 53.1673 93.5C53.1673 93.176 53.2293 92.898 53.3533 92.666C53.4773 92.43 53.6473 92.25 53.8633 92.126C54.0793 92.002 54.3253 91.94 54.6013 91.94C54.8813 91.94 55.1193 92 55.3153 92.12C55.5153 92.24 55.6673 92.404 55.7713 92.612C55.8753 92.816 55.9273 93.046 55.9273 93.302C55.9273 93.37 55.9253 93.432 55.9213 93.488C55.9173 93.544 55.9113 93.594 55.9033 93.638H53.4793V93.212H55.6933L55.4473 93.26C55.4473 92.972 55.3673 92.75 55.2073 92.594C55.0513 92.438 54.8453 92.36 54.5893 92.36C54.3933 92.36 54.2233 92.406 54.0793 92.498C53.9393 92.586 53.8293 92.716 53.7493 92.888C53.6733 93.056 53.6353 93.26 53.6353 93.5C53.6353 93.736 53.6753 93.94 53.7553 94.112C53.8353 94.284 53.9473 94.416 54.0913 94.508C54.2393 94.596 54.4153 94.64 54.6193 94.64C54.8393 94.64 55.0173 94.598 55.1533 94.514C55.2933 94.43 55.4053 94.316 55.4893 94.172L55.8673 94.394C55.7913 94.53 55.6933 94.648 55.5733 94.748C55.4573 94.848 55.3193 94.926 55.1593 94.982C55.0033 95.034 54.8273 95.06 54.6313 95.06ZM56.8402 95V92H57.2302L57.2962 92.492C57.3802 92.308 57.5022 92.17 57.6622 92.078C57.8262 91.986 58.0242 91.94 58.2562 91.94C58.3082 91.94 58.3642 91.944 58.4242 91.952C58.4882 91.96 58.5422 91.976 58.5862 92L58.5022 92.438C58.4582 92.422 58.4102 92.41 58.3582 92.402C58.3062 92.394 58.2322 92.39 58.1362 92.39C58.0122 92.39 57.8862 92.426 57.7582 92.498C57.6342 92.57 57.5302 92.68 57.4462 92.828C57.3622 92.972 57.3202 93.156 57.3202 93.38V95H56.8402ZM62.4357 91.94C62.7197 91.94 62.9697 92.002 63.1857 92.126C63.4057 92.25 63.5777 92.43 63.7017 92.666C63.8257 92.898 63.8877 93.176 63.8877 93.5C63.8877 93.824 63.8257 94.104 63.7017 94.34C63.5777 94.572 63.4057 94.75 63.1857 94.874C62.9697 94.998 62.7197 95.06 62.4357 95.06C62.1557 95.06 61.9057 94.998 61.6857 94.874C61.4657 94.75 61.2937 94.572 61.1697 94.34C61.0457 94.104 60.9837 93.824 60.9837 93.5C60.9837 93.176 61.0457 92.898 61.1697 92.666C61.2937 92.43 61.4657 92.25 61.6857 92.126C61.9057 92.002 62.1557 91.94 62.4357 91.94ZM62.4357 92.354C62.2317 92.354 62.0577 92.4 61.9137 92.492C61.7697 92.584 61.6577 92.716 61.5777 92.888C61.5017 93.056 61.4637 93.26 61.4637 93.5C61.4637 93.736 61.5017 93.94 61.5777 94.112C61.6577 94.284 61.7697 94.416 61.9137 94.508C62.0577 94.6 62.2317 94.646 62.4357 94.646C62.6397 94.646 62.8137 94.6 62.9577 94.508C63.1017 94.416 63.2117 94.284 63.2877 94.112C63.3677 93.94 63.4077 93.736 63.4077 93.5C63.4077 93.26 63.3677 93.056 63.2877 92.888C63.2117 92.716 63.1017 92.584 62.9577 92.492C62.8137 92.4 62.6397 92.354 62.4357 92.354ZM65.9567 90.59C66.0607 90.59 66.1587 90.602 66.2507 90.626C66.3427 90.65 66.4147 90.684 66.4667 90.728L66.3407 91.118C66.2927 91.086 66.2407 91.064 66.1847 91.052C66.1287 91.036 66.0667 91.028 65.9987 91.028C65.8267 91.028 65.6927 91.07 65.5967 91.154C65.5007 91.234 65.4527 91.364 65.4527 91.544V92V92.156V95H64.9727V91.496C64.9727 91.364 64.9927 91.242 65.0327 91.13C65.0727 91.018 65.1327 90.922 65.2127 90.842C65.2967 90.762 65.4007 90.7 65.5247 90.656C65.6487 90.612 65.7927 90.59 65.9567 90.59ZM66.4547 92V92.414H64.3727V92H66.4547ZM71.9046 95H71.3946L70.9746 93.902H69.1806L68.7606 95H68.2566L69.7986 91.04H70.3686L71.9046 95ZM69.3546 93.452H70.8006L70.0746 91.502L69.3546 93.452ZM73.1895 91.04V95H72.7095V91.04H73.1895ZM78.1918 93.062C78.1918 92.838 78.1318 92.666 78.0118 92.546C77.8918 92.422 77.7218 92.36 77.5018 92.36C77.2938 92.36 77.1178 92.406 76.9738 92.498C76.8298 92.586 76.7238 92.73 76.6558 92.93L76.2658 92.69C76.3458 92.466 76.4938 92.286 76.7098 92.15C76.9258 92.01 77.1938 91.94 77.5138 91.94C77.7298 91.94 77.9258 91.978 78.1018 92.054C78.2778 92.126 78.4158 92.238 78.5158 92.39C78.6198 92.538 78.6718 92.73 78.6718 92.966V94.418C78.6718 94.562 78.7478 94.634 78.8998 94.634C78.9758 94.634 79.0498 94.624 79.1218 94.604L79.0978 94.982C79.0178 95.022 78.9138 95.042 78.7858 95.042C78.6698 95.042 78.5658 95.02 78.4738 94.976C78.3818 94.932 78.3098 94.866 78.2578 94.778C78.2058 94.686 78.1798 94.572 78.1798 94.436V94.376L78.2998 94.394C78.2518 94.55 78.1698 94.678 78.0538 94.778C77.9378 94.874 77.8078 94.946 77.6638 94.994C77.5198 95.038 77.3778 95.06 77.2378 95.06C77.0618 95.06 76.8978 95.03 76.7458 94.97C76.5938 94.91 76.4718 94.82 76.3798 94.7C76.2918 94.576 76.2478 94.424 76.2478 94.244C76.2478 94.02 76.3218 93.836 76.4698 93.692C76.6218 93.544 76.8318 93.444 77.0998 93.392L78.2878 93.158V93.554L77.3218 93.752C77.1258 93.792 76.9798 93.848 76.8838 93.92C76.7878 93.992 76.7398 94.092 76.7398 94.22C76.7398 94.344 76.7878 94.446 76.8838 94.526C76.9838 94.602 77.1238 94.64 77.3038 94.64C77.4198 94.64 77.5298 94.626 77.6338 94.598C77.7418 94.566 77.8378 94.52 77.9218 94.46C78.0058 94.396 78.0718 94.318 78.1198 94.226C78.1678 94.13 78.1918 94.018 78.1918 93.89V93.062ZM79.8383 95V92H80.2583L80.3003 92.672L80.2223 92.606C80.2863 92.446 80.3723 92.318 80.4803 92.222C80.5883 92.122 80.7123 92.05 80.8523 92.006C80.9963 91.962 81.1443 91.94 81.2963 91.94C81.5123 91.94 81.7083 91.982 81.8843 92.066C82.0603 92.146 82.2003 92.27 82.3043 92.438C82.4123 92.606 82.4663 92.82 82.4663 93.08V95H81.9863V93.248C81.9863 92.916 81.9143 92.686 81.7703 92.558C81.6303 92.426 81.4563 92.36 81.2483 92.36C81.1043 92.36 80.9603 92.394 80.8163 92.462C80.6723 92.53 80.5523 92.64 80.4563 92.792C80.3643 92.944 80.3183 93.148 80.3183 93.404V95H79.8383ZM84.7231 95.06C84.4751 95.06 84.2471 94.998 84.0391 94.874C83.8311 94.75 83.6651 94.572 83.5411 94.34C83.4171 94.104 83.3551 93.824 83.3551 93.5C83.3551 93.168 83.4211 92.886 83.5531 92.654C83.6851 92.422 83.8591 92.246 84.0751 92.126C84.2911 92.002 84.5231 91.94 84.7711 91.94C85.0191 91.94 85.2331 92.004 85.4131 92.132C85.5971 92.26 85.7191 92.43 85.7791 92.642L85.7191 92.684V90.62H86.1991V95H85.7791L85.7371 94.274L85.8031 94.238C85.7751 94.414 85.7071 94.564 85.5991 94.688C85.4951 94.808 85.3651 94.9 85.2091 94.964C85.0571 95.028 84.8951 95.06 84.7231 95.06ZM84.7711 94.64C84.9631 94.64 85.1291 94.592 85.2691 94.496C85.4131 94.4 85.5231 94.264 85.5991 94.088C85.6791 93.908 85.7191 93.698 85.7191 93.458C85.7191 93.23 85.6791 93.034 85.5991 92.87C85.5231 92.706 85.4151 92.58 85.2751 92.492C85.1391 92.404 84.9791 92.36 84.7951 92.36C84.4911 92.36 84.2551 92.464 84.0871 92.672C83.9191 92.88 83.8351 93.156 83.8351 93.5C83.8351 93.844 83.9171 94.12 84.0811 94.328C84.2451 94.536 84.4751 94.64 84.7711 94.64ZM11.6322 101V96.62H12.1122V98.45C12.2162 98.27 12.3542 98.14 12.5262 98.06C12.6982 97.98 12.8862 97.94 13.0902 97.94C13.3062 97.94 13.5022 97.982 13.6782 98.066C13.8542 98.146 13.9942 98.27 14.0982 98.438C14.2062 98.606 14.2602 98.82 14.2602 99.08V101H13.7802V99.248C13.7802 98.916 13.7082 98.686 13.5642 98.558C13.4242 98.426 13.2502 98.36 13.0422 98.36C12.8982 98.36 12.7542 98.394 12.6102 98.462C12.4662 98.53 12.3462 98.642 12.2502 98.798C12.1582 98.95 12.1122 99.154 12.1122 99.41V101H11.6322ZM15.5871 97.424C15.4791 97.424 15.3911 97.392 15.3231 97.328C15.2591 97.26 15.2271 97.172 15.2271 97.064C15.2271 96.956 15.2591 96.87 15.3231 96.806C15.3911 96.738 15.4791 96.704 15.5871 96.704C15.6951 96.704 15.7811 96.738 15.8451 96.806C15.9131 96.87 15.9471 96.956 15.9471 97.064C15.9471 97.172 15.9131 97.26 15.8451 97.328C15.7811 97.392 15.6951 97.424 15.5871 97.424ZM15.8271 98V101H15.3471V98H15.8271ZM18.0208 101.06C17.7288 101.06 17.4588 100.998 17.2108 100.874C16.9668 100.75 16.7788 100.574 16.6468 100.346L17.0548 100.052C17.1428 100.236 17.2708 100.38 17.4388 100.484C17.6108 100.588 17.8168 100.64 18.0568 100.64C18.2688 100.64 18.4348 100.6 18.5548 100.52C18.6748 100.436 18.7348 100.328 18.7348 100.196C18.7348 100.112 18.7068 100.036 18.6508 99.968C18.5988 99.896 18.4968 99.844 18.3448 99.812L17.6248 99.662C17.3328 99.602 17.1228 99.502 16.9948 99.362C16.8708 99.222 16.8088 99.048 16.8088 98.84C16.8088 98.676 16.8548 98.526 16.9468 98.39C17.0428 98.254 17.1768 98.146 17.3488 98.066C17.5248 97.982 17.7308 97.94 17.9668 97.94C18.2628 97.94 18.5128 97.998 18.7168 98.114C18.9208 98.23 19.0728 98.394 19.1728 98.606L18.7708 98.87C18.7028 98.694 18.5928 98.566 18.4408 98.486C18.2888 98.402 18.1308 98.36 17.9668 98.36C17.8228 98.36 17.6988 98.38 17.5948 98.42C17.4948 98.46 17.4168 98.516 17.3608 98.588C17.3088 98.656 17.2828 98.734 17.2828 98.822C17.2828 98.91 17.3128 98.992 17.3728 99.068C17.4328 99.14 17.5448 99.192 17.7088 99.224L18.4588 99.38C18.7388 99.436 18.9348 99.528 19.0468 99.656C19.1588 99.784 19.2148 99.94 19.2148 100.124C19.2148 100.312 19.1648 100.478 19.0648 100.622C18.9648 100.762 18.8248 100.87 18.6448 100.946C18.4648 101.022 18.2568 101.06 18.0208 101.06ZM20.8129 97.148V100.172C20.8129 100.32 20.8549 100.43 20.9389 100.502C21.0229 100.574 21.1309 100.61 21.2629 100.61C21.3789 100.61 21.4789 100.59 21.5629 100.55C21.6469 100.51 21.7229 100.456 21.7909 100.388L21.9589 100.79C21.8669 100.874 21.7569 100.94 21.6289 100.988C21.5049 101.036 21.3609 101.06 21.1969 101.06C21.0449 101.06 20.9029 101.034 20.7709 100.982C20.6389 100.926 20.5329 100.84 20.4529 100.724C20.3769 100.604 20.3369 100.448 20.3329 100.256V97.28L20.8129 97.148ZM21.9049 98V98.414H19.7329V98H21.9049ZM23.8605 97.94C24.1445 97.94 24.3945 98.002 24.6105 98.126C24.8305 98.25 25.0025 98.43 25.1265 98.666C25.2505 98.898 25.3125 99.176 25.3125 99.5C25.3125 99.824 25.2505 100.104 25.1265 100.34C25.0025 100.572 24.8305 100.75 24.6105 100.874C24.3945 100.998 24.1445 101.06 23.8605 101.06C23.5805 101.06 23.3305 100.998 23.1105 100.874C22.8905 100.75 22.7185 100.572 22.5945 100.34C22.4705 100.104 22.4085 99.824 22.4085 99.5C22.4085 99.176 22.4705 98.898 22.5945 98.666C22.7185 98.43 22.8905 98.25 23.1105 98.126C23.3305 98.002 23.5805 97.94 23.8605 97.94ZM23.8605 98.354C23.6565 98.354 23.4825 98.4 23.3385 98.492C23.1945 98.584 23.0825 98.716 23.0025 98.888C22.9265 99.056 22.8885 99.26 22.8885 99.5C22.8885 99.736 22.9265 99.94 23.0025 100.112C23.0825 100.284 23.1945 100.416 23.3385 100.508C23.4825 100.6 23.6565 100.646 23.8605 100.646C24.0645 100.646 24.2385 100.6 24.3825 100.508C24.5265 100.416 24.6365 100.284 24.7125 100.112C24.7925 99.94 24.8325 99.736 24.8325 99.5C24.8325 99.26 24.7925 99.056 24.7125 98.888C24.6365 98.716 24.5265 98.584 24.3825 98.492C24.2385 98.4 24.0645 98.354 23.8605 98.354ZM26.2162 101V98H26.6062L26.6722 98.492C26.7562 98.308 26.8782 98.17 27.0382 98.078C27.2022 97.986 27.4002 97.94 27.6322 97.94C27.6842 97.94 27.7402 97.944 27.8002 97.952C27.8642 97.96 27.9182 97.976 27.9622 98L27.8782 98.438C27.8342 98.422 27.7862 98.41 27.7342 98.402C27.6822 98.394 27.6082 98.39 27.5122 98.39C27.3882 98.39 27.2622 98.426 27.1342 98.498C27.0102 98.57 26.9062 98.68 26.8222 98.828C26.7382 98.972 26.6962 99.156 26.6962 99.38V101H26.2162ZM28.9054 97.424C28.7974 97.424 28.7094 97.392 28.6414 97.328C28.5774 97.26 28.5454 97.172 28.5454 97.064C28.5454 96.956 28.5774 96.87 28.6414 96.806C28.7094 96.738 28.7974 96.704 28.9054 96.704C29.0134 96.704 29.0994 96.738 29.1634 96.806C29.2314 96.87 29.2654 96.956 29.2654 97.064C29.2654 97.172 29.2314 97.26 29.1634 97.328C29.0994 97.392 29.0134 97.424 28.9054 97.424ZM29.1454 98V101H28.6654V98H29.1454ZM31.5012 97.94C31.7092 97.94 31.8912 97.972 32.0472 98.036C32.2072 98.1 32.3452 98.192 32.4612 98.312C32.5772 98.432 32.6712 98.574 32.7432 98.738L32.2872 98.954C32.2232 98.762 32.1252 98.616 31.9932 98.516C31.8652 98.412 31.6972 98.36 31.4892 98.36C31.2892 98.36 31.1172 98.406 30.9732 98.498C30.8292 98.586 30.7192 98.716 30.6432 98.888C30.5672 99.056 30.5292 99.26 30.5292 99.5C30.5292 99.736 30.5672 99.94 30.6432 100.112C30.7192 100.284 30.8292 100.416 30.9732 100.508C31.1172 100.596 31.2892 100.64 31.4892 100.64C31.6452 100.64 31.7792 100.616 31.8912 100.568C32.0072 100.52 32.1012 100.45 32.1732 100.358C32.2492 100.266 32.3012 100.154 32.3292 100.022L32.7732 100.178C32.7052 100.362 32.6112 100.52 32.4912 100.652C32.3752 100.784 32.2332 100.886 32.0652 100.958C31.9012 101.026 31.7132 101.06 31.5012 101.06C31.2212 101.06 30.9712 100.998 30.7512 100.874C30.5312 100.75 30.3592 100.572 30.2352 100.34C30.1112 100.104 30.0492 99.824 30.0492 99.5C30.0492 99.176 30.1112 98.898 30.2352 98.666C30.3592 98.43 30.5312 98.25 30.7512 98.126C30.9712 98.002 31.2212 97.94 31.5012 97.94ZM35.3686 99.062C35.3686 98.838 35.3086 98.666 35.1886 98.546C35.0686 98.422 34.8986 98.36 34.6786 98.36C34.4706 98.36 34.2946 98.406 34.1506 98.498C34.0066 98.586 33.9006 98.73 33.8326 98.93L33.4426 98.69C33.5226 98.466 33.6706 98.286 33.8866 98.15C34.1026 98.01 34.3706 97.94 34.6906 97.94C34.9066 97.94 35.1026 97.978 35.2786 98.054C35.4546 98.126 35.5926 98.238 35.6926 98.39C35.7966 98.538 35.8486 98.73 35.8486 98.966V100.418C35.8486 100.562 35.9246 100.634 36.0766 100.634C36.1526 100.634 36.2266 100.624 36.2986 100.604L36.2746 100.982C36.1946 101.022 36.0906 101.042 35.9626 101.042C35.8466 101.042 35.7426 101.02 35.6506 100.976C35.5586 100.932 35.4866 100.866 35.4346 100.778C35.3826 100.686 35.3566 100.572 35.3566 100.436V100.376L35.4766 100.394C35.4286 100.55 35.3466 100.678 35.2306 100.778C35.1146 100.874 34.9846 100.946 34.8406 100.994C34.6966 101.038 34.5546 101.06 34.4146 101.06C34.2386 101.06 34.0746 101.03 33.9226 100.97C33.7706 100.91 33.6486 100.82 33.5566 100.7C33.4686 100.576 33.4246 100.424 33.4246 100.244C33.4246 100.02 33.4986 99.836 33.6466 99.692C33.7986 99.544 34.0086 99.444 34.2766 99.392L35.4646 99.158V99.554L34.4986 99.752C34.3026 99.792 34.1566 99.848 34.0606 99.92C33.9646 99.992 33.9166 100.092 33.9166 100.22C33.9166 100.344 33.9646 100.446 34.0606 100.526C34.1606 100.602 34.3006 100.64 34.4806 100.64C34.5966 100.64 34.7066 100.626 34.8106 100.598C34.9186 100.566 35.0146 100.52 35.0986 100.46C35.1826 100.396 35.2486 100.318 35.2966 100.226C35.3446 100.13 35.3686 100.018 35.3686 99.89V99.062ZM37.471 96.62V100.238C37.471 100.39 37.499 100.496 37.555 100.556C37.611 100.612 37.701 100.64 37.825 100.64C37.905 100.64 37.971 100.634 38.023 100.622C38.075 100.61 38.145 100.588 38.233 100.556L38.155 100.976C38.091 101.004 38.021 101.024 37.945 101.036C37.869 101.052 37.791 101.06 37.711 101.06C37.467 101.06 37.285 100.994 37.165 100.862C37.049 100.73 36.991 100.528 36.991 100.256V96.62H37.471ZM41.763 101.06C41.471 101.06 41.201 100.998 40.953 100.874C40.709 100.75 40.521 100.574 40.389 100.346L40.797 100.052C40.885 100.236 41.013 100.38 41.181 100.484C41.353 100.588 41.559 100.64 41.799 100.64C42.011 100.64 42.177 100.6 42.297 100.52C42.417 100.436 42.477 100.328 42.477 100.196C42.477 100.112 42.449 100.036 42.393 99.968C42.341 99.896 42.239 99.844 42.087 99.812L41.367 99.662C41.075 99.602 40.865 99.502 40.737 99.362C40.613 99.222 40.551 99.048 40.551 98.84C40.551 98.676 40.597 98.526 40.689 98.39C40.785 98.254 40.919 98.146 41.091 98.066C41.267 97.982 41.473 97.94 41.709 97.94C42.005 97.94 42.255 97.998 42.459 98.114C42.663 98.23 42.815 98.394 42.915 98.606L42.513 98.87C42.445 98.694 42.335 98.566 42.183 98.486C42.031 98.402 41.873 98.36 41.709 98.36C41.565 98.36 41.441 98.38 41.337 98.42C41.237 98.46 41.159 98.516 41.103 98.588C41.051 98.656 41.025 98.734 41.025 98.822C41.025 98.91 41.055 98.992 41.115 99.068C41.175 99.14 41.287 99.192 41.451 99.224L42.201 99.38C42.481 99.436 42.677 99.528 42.789 99.656C42.901 99.784 42.957 99.94 42.957 100.124C42.957 100.312 42.907 100.478 42.807 100.622C42.707 100.762 42.567 100.87 42.387 100.946C42.207 101.022 41.999 101.06 41.763 101.06ZM44.5551 97.148V100.172C44.5551 100.32 44.5971 100.43 44.6811 100.502C44.7651 100.574 44.8731 100.61 45.0051 100.61C45.1211 100.61 45.2211 100.59 45.3051 100.55C45.3891 100.51 45.4651 100.456 45.5331 100.388L45.7011 100.79C45.6091 100.874 45.4991 100.94 45.3711 100.988C45.2471 101.036 45.1031 101.06 44.9391 101.06C44.7871 101.06 44.6451 101.034 44.5131 100.982C44.3811 100.926 44.2751 100.84 44.1951 100.724C44.1191 100.604 44.0791 100.448 44.0751 100.256V97.28L44.5551 97.148ZM45.6471 98V98.414H43.4751V98H45.6471ZM47.6027 97.94C47.8867 97.94 48.1367 98.002 48.3527 98.126C48.5727 98.25 48.7447 98.43 48.8687 98.666C48.9927 98.898 49.0547 99.176 49.0547 99.5C49.0547 99.824 48.9927 100.104 48.8687 100.34C48.7447 100.572 48.5727 100.75 48.3527 100.874C48.1367 100.998 47.8867 101.06 47.6027 101.06C47.3227 101.06 47.0727 100.998 46.8527 100.874C46.6327 100.75 46.4607 100.572 46.3367 100.34C46.2127 100.104 46.1507 99.824 46.1507 99.5C46.1507 99.176 46.2127 98.898 46.3367 98.666C46.4607 98.43 46.6327 98.25 46.8527 98.126C47.0727 98.002 47.3227 97.94 47.6027 97.94ZM47.6027 98.354C47.3987 98.354 47.2247 98.4 47.0807 98.492C46.9367 98.584 46.8247 98.716 46.7447 98.888C46.6687 99.056 46.6307 99.26 46.6307 99.5C46.6307 99.736 46.6687 99.94 46.7447 100.112C46.8247 100.284 46.9367 100.416 47.0807 100.508C47.2247 100.6 47.3987 100.646 47.6027 100.646C47.8067 100.646 47.9807 100.6 48.1247 100.508C48.2687 100.416 48.3787 100.284 48.4547 100.112C48.5347 99.94 48.5747 99.736 48.5747 99.5C48.5747 99.26 48.5347 99.056 48.4547 98.888C48.3787 98.716 48.2687 98.584 48.1247 98.492C47.9807 98.4 47.8067 98.354 47.6027 98.354ZM51.2004 97.94C51.4084 97.94 51.5904 97.972 51.7464 98.036C51.9064 98.1 52.0444 98.192 52.1604 98.312C52.2764 98.432 52.3704 98.574 52.4424 98.738L51.9864 98.954C51.9224 98.762 51.8244 98.616 51.6924 98.516C51.5644 98.412 51.3964 98.36 51.1884 98.36C50.9884 98.36 50.8164 98.406 50.6724 98.498C50.5284 98.586 50.4184 98.716 50.3424 98.888C50.2664 99.056 50.2284 99.26 50.2284 99.5C50.2284 99.736 50.2664 99.94 50.3424 100.112C50.4184 100.284 50.5284 100.416 50.6724 100.508C50.8164 100.596 50.9884 100.64 51.1884 100.64C51.3444 100.64 51.4784 100.616 51.5904 100.568C51.7064 100.52 51.8004 100.45 51.8724 100.358C51.9484 100.266 52.0004 100.154 52.0284 100.022L52.4724 100.178C52.4044 100.362 52.3104 100.52 52.1904 100.652C52.0744 100.784 51.9324 100.886 51.7644 100.958C51.6004 101.026 51.4124 101.06 51.2004 101.06C50.9204 101.06 50.6704 100.998 50.4504 100.874C50.2304 100.75 50.0584 100.572 49.9344 100.34C49.8104 100.104 49.7484 99.824 49.7484 99.5C49.7484 99.176 49.8104 98.898 49.9344 98.666C50.0584 98.43 50.2304 98.25 50.4504 98.126C50.6704 98.002 50.9204 97.94 51.2004 97.94ZM55.9498 98L54.6538 99.296L54.5398 99.41L53.5558 100.394V99.794L55.3438 98H55.9498ZM53.7958 96.62V101H53.3158V96.62H53.7958ZM54.6958 99.05L56.0218 101H55.4398L54.2938 99.32L54.6958 99.05ZM59.8003 101.06C59.5523 101.06 59.3243 100.998 59.1163 100.874C58.9083 100.75 58.7423 100.572 58.6183 100.34C58.4943 100.104 58.4323 99.824 58.4323 99.5C58.4323 99.168 58.4983 98.886 58.6303 98.654C58.7623 98.422 58.9363 98.246 59.1523 98.126C59.3683 98.002 59.6003 97.94 59.8483 97.94C60.0963 97.94 60.3103 98.004 60.4903 98.132C60.6743 98.26 60.7963 98.43 60.8563 98.642L60.7963 98.684V96.62H61.2763V101H60.8563L60.8143 100.274L60.8803 100.238C60.8523 100.414 60.7843 100.564 60.6763 100.688C60.5723 100.808 60.4423 100.9 60.2863 100.964C60.1343 101.028 59.9723 101.06 59.8003 101.06ZM59.8483 100.64C60.0403 100.64 60.2063 100.592 60.3463 100.496C60.4903 100.4 60.6003 100.264 60.6763 100.088C60.7563 99.908 60.7963 99.698 60.7963 99.458C60.7963 99.23 60.7563 99.034 60.6763 98.87C60.6003 98.706 60.4923 98.58 60.3523 98.492C60.2163 98.404 60.0563 98.36 59.8723 98.36C59.5683 98.36 59.3323 98.464 59.1643 98.672C58.9963 98.88 58.9123 99.156 58.9123 99.5C58.9123 99.844 58.9943 100.12 59.1583 100.328C59.3223 100.536 59.5523 100.64 59.8483 100.64ZM64.144 99.062C64.144 98.838 64.084 98.666 63.964 98.546C63.844 98.422 63.674 98.36 63.454 98.36C63.246 98.36 63.07 98.406 62.926 98.498C62.782 98.586 62.676 98.73 62.608 98.93L62.218 98.69C62.298 98.466 62.446 98.286 62.662 98.15C62.878 98.01 63.146 97.94 63.466 97.94C63.682 97.94 63.878 97.978 64.054 98.054C64.23 98.126 64.368 98.238 64.468 98.39C64.572 98.538 64.624 98.73 64.624 98.966V100.418C64.624 100.562 64.7 100.634 64.852 100.634C64.928 100.634 65.002 100.624 65.074 100.604L65.05 100.982C64.97 101.022 64.866 101.042 64.738 101.042C64.622 101.042 64.518 101.02 64.426 100.976C64.334 100.932 64.262 100.866 64.21 100.778C64.158 100.686 64.132 100.572 64.132 100.436V100.376L64.252 100.394C64.204 100.55 64.122 100.678 64.006 100.778C63.89 100.874 63.76 100.946 63.616 100.994C63.472 101.038 63.33 101.06 63.19 101.06C63.014 101.06 62.85 101.03 62.698 100.97C62.546 100.91 62.424 100.82 62.332 100.7C62.244 100.576 62.2 100.424 62.2 100.244C62.2 100.02 62.274 99.836 62.422 99.692C62.574 99.544 62.784 99.444 63.052 99.392L64.24 99.158V99.554L63.274 99.752C63.078 99.792 62.932 99.848 62.836 99.92C62.74 99.992 62.692 100.092 62.692 100.22C62.692 100.344 62.74 100.446 62.836 100.526C62.936 100.602 63.076 100.64 63.256 100.64C63.372 100.64 63.482 100.626 63.586 100.598C63.694 100.566 63.79 100.52 63.874 100.46C63.958 100.396 64.024 100.318 64.072 100.226C64.12 100.13 64.144 100.018 64.144 99.89V99.062ZM66.3812 97.148V100.172C66.3812 100.32 66.4232 100.43 66.5072 100.502C66.5912 100.574 66.6992 100.61 66.8312 100.61C66.9472 100.61 67.0472 100.59 67.1312 100.55C67.2152 100.51 67.2912 100.456 67.3592 100.388L67.5272 100.79C67.4352 100.874 67.3252 100.94 67.1972 100.988C67.0732 101.036 66.9292 101.06 66.7652 101.06C66.6132 101.06 66.4712 101.034 66.3392 100.982C66.2072 100.926 66.1012 100.84 66.0212 100.724C65.9452 100.604 65.9052 100.448 65.9012 100.256V97.28L66.3812 97.148ZM67.4732 98V98.414H65.3012V98H67.4732ZM69.9389 99.062C69.9389 98.838 69.8789 98.666 69.7589 98.546C69.6389 98.422 69.4689 98.36 69.2489 98.36C69.0409 98.36 68.8649 98.406 68.7209 98.498C68.5769 98.586 68.4709 98.73 68.4029 98.93L68.0129 98.69C68.0929 98.466 68.2409 98.286 68.4569 98.15C68.6729 98.01 68.9409 97.94 69.2609 97.94C69.4769 97.94 69.6729 97.978 69.8489 98.054C70.0249 98.126 70.1629 98.238 70.2629 98.39C70.3669 98.538 70.4189 98.73 70.4189 98.966V100.418C70.4189 100.562 70.4949 100.634 70.6469 100.634C70.7229 100.634 70.7969 100.624 70.8689 100.604L70.8449 100.982C70.7649 101.022 70.6609 101.042 70.5329 101.042C70.4169 101.042 70.3129 101.02 70.2209 100.976C70.1289 100.932 70.0569 100.866 70.0049 100.778C69.9529 100.686 69.9269 100.572 69.9269 100.436V100.376L70.0469 100.394C69.9989 100.55 69.9169 100.678 69.8009 100.778C69.6849 100.874 69.5549 100.946 69.4109 100.994C69.2669 101.038 69.1249 101.06 68.9849 101.06C68.8089 101.06 68.6449 101.03 68.4929 100.97C68.3409 100.91 68.2189 100.82 68.1269 100.7C68.0389 100.576 67.9949 100.424 67.9949 100.244C67.9949 100.02 68.0689 99.836 68.2169 99.692C68.3689 99.544 68.5789 99.444 68.8469 99.392L70.0349 99.158V99.554L69.0689 99.752C68.8729 99.792 68.7269 99.848 68.6309 99.92C68.5349 99.992 68.4869 100.092 68.4869 100.22C68.4869 100.344 68.5349 100.446 68.6309 100.526C68.7309 100.602 68.8709 100.64 69.0509 100.64C69.1669 100.64 69.2769 100.626 69.3809 100.598C69.4889 100.566 69.5849 100.52 69.6689 100.46C69.7529 100.396 69.8189 100.318 69.8669 100.226C69.9149 100.13 69.9389 100.018 69.9389 99.89V99.062ZM74.0805 97.148V100.172C74.0805 100.32 74.1225 100.43 74.2065 100.502C74.2905 100.574 74.3985 100.61 74.5305 100.61C74.6465 100.61 74.7465 100.59 74.8305 100.55C74.9145 100.51 74.9905 100.456 75.0585 100.388L75.2265 100.79C75.1345 100.874 75.0245 100.94 74.8965 100.988C74.7725 101.036 74.6285 101.06 74.4645 101.06C74.3125 101.06 74.1705 101.034 74.0385 100.982C73.9065 100.926 73.8005 100.84 73.7205 100.724C73.6445 100.604 73.6045 100.448 73.6005 100.256V97.28L74.0805 97.148ZM75.1725 98V98.414H73.0005V98H75.1725ZM77.1281 97.94C77.4121 97.94 77.6621 98.002 77.8781 98.126C78.0981 98.25 78.2701 98.43 78.3941 98.666C78.5181 98.898 78.5801 99.176 78.5801 99.5C78.5801 99.824 78.5181 100.104 78.3941 100.34C78.2701 100.572 78.0981 100.75 77.8781 100.874C77.6621 100.998 77.4121 101.06 77.1281 101.06C76.8481 101.06 76.5981 100.998 76.3781 100.874C76.1581 100.75 75.9861 100.572 75.8621 100.34C75.7381 100.104 75.6761 99.824 75.6761 99.5C75.6761 99.176 75.7381 98.898 75.8621 98.666C75.9861 98.43 76.1581 98.25 76.3781 98.126C76.5981 98.002 76.8481 97.94 77.1281 97.94ZM77.1281 98.354C76.9241 98.354 76.7501 98.4 76.6061 98.492C76.4621 98.584 76.3501 98.716 76.2701 98.888C76.1941 99.056 76.1561 99.26 76.1561 99.5C76.1561 99.736 76.1941 99.94 76.2701 100.112C76.3501 100.284 76.4621 100.416 76.6061 100.508C76.7501 100.6 76.9241 100.646 77.1281 100.646C77.3321 100.646 77.5061 100.6 77.6501 100.508C77.7941 100.416 77.9041 100.284 77.9801 100.112C78.0601 99.94 78.1001 99.736 78.1001 99.5C78.1001 99.26 78.0601 99.056 77.9801 98.888C77.9041 98.716 77.7941 98.584 77.6501 98.492C77.5061 98.4 77.3321 98.354 77.1281 98.354ZM5.81018 102.59C5.91418 102.59 6.01218 102.602 6.10418 102.626C6.19618 102.65 6.26818 102.684 6.32018 102.728L6.19418 103.118C6.14618 103.086 6.09418 103.064 6.03818 103.052C5.98218 103.036 5.92018 103.028 5.85218 103.028C5.68018 103.028 5.54618 103.07 5.45018 103.154C5.35418 103.234 5.30618 103.364 5.30618 103.544V104V104.156V107H4.82618V103.496C4.82618 103.364 4.84618 103.242 4.88618 103.13C4.92618 103.018 4.98618 102.922 5.06618 102.842C5.15018 102.762 5.25418 102.7 5.37818 102.656C5.50218 102.612 5.64618 102.59 5.81018 102.59ZM6.30818 104V104.414H4.22618V104H6.30818ZM8.10762 103.94C8.39162 103.94 8.64162 104.002 8.85762 104.126C9.07762 104.25 9.24962 104.43 9.37362 104.666C9.49762 104.898 9.55962 105.176 9.55962 105.5C9.55962 105.824 9.49762 106.104 9.37362 106.34C9.24962 106.572 9.07762 106.75 8.85762 106.874C8.64162 106.998 8.39162 107.06 8.10762 107.06C7.82762 107.06 7.57762 106.998 7.35762 106.874C7.13762 106.75 6.96562 106.572 6.84162 106.34C6.71762 106.104 6.65562 105.824 6.65562 105.5C6.65562 105.176 6.71762 104.898 6.84162 104.666C6.96562 104.43 7.13762 104.25 7.35762 104.126C7.57762 104.002 7.82762 103.94 8.10762 103.94ZM8.10762 104.354C7.90362 104.354 7.72962 104.4 7.58562 104.492C7.44162 104.584 7.32962 104.716 7.24962 104.888C7.17362 105.056 7.13562 105.26 7.13562 105.5C7.13562 105.736 7.17362 105.94 7.24962 106.112C7.32962 106.284 7.44162 106.416 7.58562 106.508C7.72962 106.6 7.90362 106.646 8.10762 106.646C8.31162 106.646 8.48562 106.6 8.62962 106.508C8.77362 106.416 8.88362 106.284 8.95962 106.112C9.03962 105.94 9.07962 105.736 9.07962 105.5C9.07962 105.26 9.03962 105.056 8.95962 104.888C8.88362 104.716 8.77362 104.584 8.62962 104.492C8.48562 104.4 8.31162 104.354 8.10762 104.354ZM10.4633 107V104H10.8533L10.9193 104.492C11.0033 104.308 11.1253 104.17 11.2853 104.078C11.4493 103.986 11.6473 103.94 11.8793 103.94C11.9313 103.94 11.9873 103.944 12.0473 103.952C12.1113 103.96 12.1653 103.976 12.2093 104L12.1253 104.438C12.0813 104.422 12.0333 104.41 11.9813 104.402C11.9293 104.394 11.8553 104.39 11.7593 104.39C11.6353 104.39 11.5093 104.426 11.3813 104.498C11.2573 104.57 11.1533 104.68 11.0693 104.828C10.9853 104.972 10.9433 105.156 10.9433 105.38V107H10.4633ZM14.0727 107.06C13.7887 107.06 13.5347 106.998 13.3107 106.874C13.0907 106.75 12.9187 106.572 12.7947 106.34C12.6707 106.104 12.6087 105.824 12.6087 105.5C12.6087 105.176 12.6707 104.898 12.7947 104.666C12.9187 104.43 13.0887 104.25 13.3047 104.126C13.5207 104.002 13.7667 103.94 14.0427 103.94C14.3227 103.94 14.5607 104 14.7567 104.12C14.9567 104.24 15.1087 104.404 15.2127 104.612C15.3167 104.816 15.3687 105.046 15.3687 105.302C15.3687 105.37 15.3667 105.432 15.3627 105.488C15.3587 105.544 15.3527 105.594 15.3447 105.638H12.9207V105.212H15.1347L14.8887 105.26C14.8887 104.972 14.8087 104.75 14.6487 104.594C14.4927 104.438 14.2867 104.36 14.0307 104.36C13.8347 104.36 13.6647 104.406 13.5207 104.498C13.3807 104.586 13.2707 104.716 13.1907 104.888C13.1147 105.056 13.0767 105.26 13.0767 105.5C13.0767 105.736 13.1167 105.94 13.1967 106.112C13.2767 106.284 13.3887 106.416 13.5327 106.508C13.6807 106.596 13.8567 106.64 14.0607 106.64C14.2807 106.64 14.4587 106.598 14.5947 106.514C14.7347 106.43 14.8467 106.316 14.9307 106.172L15.3087 106.394C15.2327 106.53 15.1347 106.648 15.0147 106.748C14.8987 106.848 14.7607 106.926 14.6007 106.982C14.4447 107.034 14.2687 107.06 14.0727 107.06ZM17.5236 103.94C17.7316 103.94 17.9136 103.972 18.0696 104.036C18.2296 104.1 18.3676 104.192 18.4836 104.312C18.5996 104.432 18.6936 104.574 18.7656 104.738L18.3096 104.954C18.2456 104.762 18.1476 104.616 18.0156 104.516C17.8876 104.412 17.7196 104.36 17.5116 104.36C17.3116 104.36 17.1396 104.406 16.9956 104.498C16.8516 104.586 16.7416 104.716 16.6656 104.888C16.5896 105.056 16.5516 105.26 16.5516 105.5C16.5516 105.736 16.5896 105.94 16.6656 106.112C16.7416 106.284 16.8516 106.416 16.9956 106.508C17.1396 106.596 17.3116 106.64 17.5116 106.64C17.6676 106.64 17.8016 106.616 17.9136 106.568C18.0296 106.52 18.1236 106.45 18.1956 106.358C18.2716 106.266 18.3236 106.154 18.3516 106.022L18.7956 106.178C18.7276 106.362 18.6336 106.52 18.5136 106.652C18.3976 106.784 18.2556 106.886 18.0876 106.958C17.9236 107.026 17.7356 107.06 17.5236 107.06C17.2436 107.06 16.9936 106.998 16.7736 106.874C16.5536 106.75 16.3816 106.572 16.2576 106.34C16.1336 106.104 16.0716 105.824 16.0716 105.5C16.0716 105.176 16.1336 104.898 16.2576 104.666C16.3816 104.43 16.5536 104.25 16.7736 104.126C16.9936 104.002 17.2436 103.94 17.5236 103.94ZM21.3911 105.062C21.3911 104.838 21.3311 104.666 21.2111 104.546C21.0911 104.422 20.9211 104.36 20.7011 104.36C20.4931 104.36 20.3171 104.406 20.1731 104.498C20.0291 104.586 19.9231 104.73 19.8551 104.93L19.4651 104.69C19.5451 104.466 19.6931 104.286 19.9091 104.15C20.1251 104.01 20.3931 103.94 20.7131 103.94C20.9291 103.94 21.1251 103.978 21.3011 104.054C21.4771 104.126 21.6151 104.238 21.7151 104.39C21.8191 104.538 21.8711 104.73 21.8711 104.966V106.418C21.8711 106.562 21.9471 106.634 22.0991 106.634C22.1751 106.634 22.2491 106.624 22.3211 106.604L22.2971 106.982C22.2171 107.022 22.1131 107.042 21.9851 107.042C21.8691 107.042 21.7651 107.02 21.6731 106.976C21.5811 106.932 21.5091 106.866 21.4571 106.778C21.4051 106.686 21.3791 106.572 21.3791 106.436V106.376L21.4991 106.394C21.4511 106.55 21.3691 106.678 21.2531 106.778C21.1371 106.874 21.0071 106.946 20.8631 106.994C20.7191 107.038 20.5771 107.06 20.4371 107.06C20.2611 107.06 20.0971 107.03 19.9451 106.97C19.7931 106.91 19.6711 106.82 19.5791 106.7C19.4911 106.576 19.4471 106.424 19.4471 106.244C19.4471 106.02 19.5211 105.836 19.6691 105.692C19.8211 105.544 20.0311 105.444 20.2991 105.392L21.4871 105.158V105.554L20.5211 105.752C20.3251 105.792 20.1791 105.848 20.0831 105.92C19.9871 105.992 19.9391 106.092 19.9391 106.22C19.9391 106.344 19.9871 106.446 20.0831 106.526C20.1831 106.602 20.3231 106.64 20.5031 106.64C20.6191 106.64 20.7291 106.626 20.8331 106.598C20.9411 106.566 21.0371 106.52 21.1211 106.46C21.2051 106.396 21.2711 106.318 21.3191 106.226C21.3671 106.13 21.3911 106.018 21.3911 105.89V105.062ZM24.1175 107.06C23.8255 107.06 23.5555 106.998 23.3075 106.874C23.0635 106.75 22.8755 106.574 22.7435 106.346L23.1515 106.052C23.2395 106.236 23.3675 106.38 23.5355 106.484C23.7075 106.588 23.9135 106.64 24.1535 106.64C24.3655 106.64 24.5315 106.6 24.6515 106.52C24.7715 106.436 24.8315 106.328 24.8315 106.196C24.8315 106.112 24.8035 106.036 24.7475 105.968C24.6955 105.896 24.5935 105.844 24.4415 105.812L23.7215 105.662C23.4295 105.602 23.2195 105.502 23.0915 105.362C22.9675 105.222 22.9055 105.048 22.9055 104.84C22.9055 104.676 22.9515 104.526 23.0435 104.39C23.1395 104.254 23.2735 104.146 23.4455 104.066C23.6215 103.982 23.8275 103.94 24.0635 103.94C24.3595 103.94 24.6095 103.998 24.8135 104.114C25.0175 104.23 25.1695 104.394 25.2695 104.606L24.8675 104.87C24.7995 104.694 24.6895 104.566 24.5375 104.486C24.3855 104.402 24.2275 104.36 24.0635 104.36C23.9195 104.36 23.7955 104.38 23.6915 104.42C23.5915 104.46 23.5135 104.516 23.4575 104.588C23.4055 104.656 23.3795 104.734 23.3795 104.822C23.3795 104.91 23.4095 104.992 23.4695 105.068C23.5295 105.14 23.6415 105.192 23.8055 105.224L24.5555 105.38C24.8355 105.436 25.0315 105.528 25.1435 105.656C25.2555 105.784 25.3115 105.94 25.3115 106.124C25.3115 106.312 25.2615 106.478 25.1615 106.622C25.0615 106.762 24.9215 106.87 24.7415 106.946C24.5615 107.022 24.3535 107.06 24.1175 107.06ZM26.9096 103.148V106.172C26.9096 106.32 26.9516 106.43 27.0356 106.502C27.1196 106.574 27.2276 106.61 27.3596 106.61C27.4756 106.61 27.5756 106.59 27.6596 106.55C27.7436 106.51 27.8196 106.456 27.8876 106.388L28.0556 106.79C27.9636 106.874 27.8536 106.94 27.7256 106.988C27.6016 107.036 27.4576 107.06 27.2936 107.06C27.1416 107.06 26.9996 107.034 26.8676 106.982C26.7356 106.926 26.6296 106.84 26.5496 106.724C26.4736 106.604 26.4336 106.448 26.4296 106.256V103.28L26.9096 103.148ZM28.0016 104V104.414H25.8296V104H28.0016ZM31.8668 102.59C31.9708 102.59 32.0688 102.602 32.1608 102.626C32.2528 102.65 32.3248 102.684 32.3768 102.728L32.2508 103.118C32.2028 103.086 32.1508 103.064 32.0948 103.052C32.0388 103.036 31.9768 103.028 31.9088 103.028C31.7368 103.028 31.6028 103.07 31.5068 103.154C31.4108 103.234 31.3628 103.364 31.3628 103.544V104V104.156V107H30.8828V103.496C30.8828 103.364 30.9028 103.242 30.9428 103.13C30.9828 103.018 31.0428 102.922 31.1228 102.842C31.2068 102.762 31.3108 102.7 31.4348 102.656C31.5588 102.612 31.7028 102.59 31.8668 102.59ZM32.3648 104V104.414H30.2828V104H32.3648ZM34.0903 107.06C33.8983 107.06 33.7163 107.024 33.5443 106.952C33.3763 106.88 33.2383 106.764 33.1303 106.604C33.0263 106.44 32.9743 106.228 32.9743 105.968V104H33.4543V105.842C33.4543 106.146 33.5203 106.356 33.6523 106.472C33.7843 106.584 33.9703 106.64 34.2103 106.64C34.3223 106.64 34.4323 106.622 34.5403 106.586C34.6483 106.546 34.7443 106.486 34.8283 106.406C34.9163 106.322 34.9843 106.216 35.0323 106.088C35.0843 105.96 35.1103 105.808 35.1103 105.632V104H35.5903V107H35.1703L35.1403 106.544C35.0363 106.724 34.8943 106.856 34.7143 106.94C34.5383 107.02 34.3303 107.06 34.0903 107.06ZM37.4154 103.148V106.172C37.4154 106.32 37.4574 106.43 37.5414 106.502C37.6254 106.574 37.7334 106.61 37.8654 106.61C37.9814 106.61 38.0814 106.59 38.1654 106.55C38.2494 106.51 38.3254 106.456 38.3934 106.388L38.5614 106.79C38.4694 106.874 38.3594 106.94 38.2314 106.988C38.1074 107.036 37.9634 107.06 37.7994 107.06C37.6474 107.06 37.5054 107.034 37.3734 106.982C37.2414 106.926 37.1354 106.84 37.0554 106.724C36.9794 106.604 36.9394 106.448 36.9354 106.256V103.28L37.4154 103.148ZM38.5074 104V104.414H36.3354V104H38.5074ZM40.3071 107.06C40.1151 107.06 39.9331 107.024 39.7611 106.952C39.5931 106.88 39.4551 106.764 39.3471 106.604C39.2431 106.44 39.1911 106.228 39.1911 105.968V104H39.6711V105.842C39.6711 106.146 39.7371 106.356 39.8691 106.472C40.0011 106.584 40.1871 106.64 40.4271 106.64C40.5391 106.64 40.6491 106.622 40.7571 106.586C40.8651 106.546 40.9611 106.486 41.0451 106.406C41.1331 106.322 41.2011 106.216 41.2491 106.088C41.3011 105.96 41.3271 105.808 41.3271 105.632V104H41.8071V107H41.3871L41.3571 106.544C41.2531 106.724 41.1111 106.856 40.9311 106.94C40.7551 107.02 40.5471 107.06 40.3071 107.06ZM42.9242 107V104H43.3142L43.3802 104.492C43.4642 104.308 43.5862 104.17 43.7462 104.078C43.9102 103.986 44.1082 103.94 44.3402 103.94C44.3922 103.94 44.4482 103.944 44.5082 103.952C44.5722 103.96 44.6262 103.976 44.6702 104L44.5862 104.438C44.5422 104.422 44.4942 104.41 44.4422 104.402C44.3902 104.394 44.3162 104.39 44.2202 104.39C44.0962 104.39 43.9702 104.426 43.8422 104.498C43.7182 104.57 43.6142 104.68 43.5302 104.828C43.4462 104.972 43.4042 105.156 43.4042 105.38V107H42.9242ZM46.5337 107.06C46.2497 107.06 45.9957 106.998 45.7717 106.874C45.5517 106.75 45.3797 106.572 45.2557 106.34C45.1317 106.104 45.0697 105.824 45.0697 105.5C45.0697 105.176 45.1317 104.898 45.2557 104.666C45.3797 104.43 45.5497 104.25 45.7657 104.126C45.9817 104.002 46.2277 103.94 46.5037 103.94C46.7837 103.94 47.0217 104 47.2177 104.12C47.4177 104.24 47.5697 104.404 47.6737 104.612C47.7777 104.816 47.8297 105.046 47.8297 105.302C47.8297 105.37 47.8277 105.432 47.8237 105.488C47.8197 105.544 47.8137 105.594 47.8057 105.638H45.3817V105.212H47.5957L47.3497 105.26C47.3497 104.972 47.2697 104.75 47.1097 104.594C46.9537 104.438 46.7477 104.36 46.4917 104.36C46.2957 104.36 46.1257 104.406 45.9817 104.498C45.8417 104.586 45.7317 104.716 45.6517 104.888C45.5757 105.056 45.5377 105.26 45.5377 105.5C45.5377 105.736 45.5777 105.94 45.6577 106.112C45.7377 106.284 45.8497 106.416 45.9937 106.508C46.1417 106.596 46.3177 106.64 46.5217 106.64C46.7417 106.64 46.9197 106.598 47.0557 106.514C47.1957 106.43 47.3077 106.316 47.3917 106.172L47.7697 106.394C47.6937 106.53 47.5957 106.648 47.4757 106.748C47.3597 106.848 47.2217 106.926 47.0617 106.982C46.9057 107.034 46.7297 107.06 46.5337 107.06ZM51.8675 107.06C51.5755 107.06 51.3055 106.998 51.0575 106.874C50.8135 106.75 50.6255 106.574 50.4935 106.346L50.9015 106.052C50.9895 106.236 51.1175 106.38 51.2855 106.484C51.4575 106.588 51.6635 106.64 51.9035 106.64C52.1155 106.64 52.2815 106.6 52.4015 106.52C52.5215 106.436 52.5815 106.328 52.5815 106.196C52.5815 106.112 52.5535 106.036 52.4975 105.968C52.4455 105.896 52.3435 105.844 52.1915 105.812L51.4715 105.662C51.1795 105.602 50.9695 105.502 50.8415 105.362C50.7175 105.222 50.6555 105.048 50.6555 104.84C50.6555 104.676 50.7015 104.526 50.7935 104.39C50.8895 104.254 51.0235 104.146 51.1955 104.066C51.3715 103.982 51.5775 103.94 51.8135 103.94C52.1095 103.94 52.3595 103.998 52.5635 104.114C52.7675 104.23 52.9195 104.394 53.0195 104.606L52.6175 104.87C52.5495 104.694 52.4395 104.566 52.2875 104.486C52.1355 104.402 51.9775 104.36 51.8135 104.36C51.6695 104.36 51.5455 104.38 51.4415 104.42C51.3415 104.46 51.2635 104.516 51.2075 104.588C51.1555 104.656 51.1295 104.734 51.1295 104.822C51.1295 104.91 51.1595 104.992 51.2195 105.068C51.2795 105.14 51.3915 105.192 51.5555 105.224L52.3055 105.38C52.5855 105.436 52.7815 105.528 52.8935 105.656C53.0055 105.784 53.0615 105.94 53.0615 106.124C53.0615 106.312 53.0115 106.478 52.9115 106.622C52.8115 106.762 52.6715 106.87 52.4915 106.946C52.3115 107.022 52.1035 107.06 51.8675 107.06ZM54.6596 103.148V106.172C54.6596 106.32 54.7016 106.43 54.7856 106.502C54.8696 106.574 54.9776 106.61 55.1096 106.61C55.2256 106.61 55.3256 106.59 55.4096 106.55C55.4936 106.51 55.5696 106.456 55.6376 106.388L55.8056 106.79C55.7136 106.874 55.6036 106.94 55.4756 106.988C55.3516 107.036 55.2076 107.06 55.0436 107.06C54.8916 107.06 54.7496 107.034 54.6176 106.982C54.4856 106.926 54.3796 106.84 54.2996 106.724C54.2236 106.604 54.1836 106.448 54.1796 106.256V103.28L54.6596 103.148ZM55.7516 104V104.414H53.5796V104H55.7516ZM57.7072 103.94C57.9912 103.94 58.2412 104.002 58.4572 104.126C58.6772 104.25 58.8492 104.43 58.9732 104.666C59.0972 104.898 59.1592 105.176 59.1592 105.5C59.1592 105.824 59.0972 106.104 58.9732 106.34C58.8492 106.572 58.6772 106.75 58.4572 106.874C58.2412 106.998 57.9912 107.06 57.7072 107.06C57.4272 107.06 57.1772 106.998 56.9572 106.874C56.7372 106.75 56.5652 106.572 56.4412 106.34C56.3172 106.104 56.2552 105.824 56.2552 105.5C56.2552 105.176 56.3172 104.898 56.4412 104.666C56.5652 104.43 56.7372 104.25 56.9572 104.126C57.1772 104.002 57.4272 103.94 57.7072 103.94ZM57.7072 104.354C57.5032 104.354 57.3292 104.4 57.1852 104.492C57.0412 104.584 56.9292 104.716 56.8492 104.888C56.7732 105.056 56.7352 105.26 56.7352 105.5C56.7352 105.736 56.7732 105.94 56.8492 106.112C56.9292 106.284 57.0412 106.416 57.1852 106.508C57.3292 106.6 57.5032 106.646 57.7072 106.646C57.9112 106.646 58.0852 106.6 58.2292 106.508C58.3732 106.416 58.4832 106.284 58.5592 106.112C58.6392 105.94 58.6792 105.736 58.6792 105.5C58.6792 105.26 58.6392 105.056 58.5592 104.888C58.4832 104.716 58.3732 104.584 58.2292 104.492C58.0852 104.4 57.9112 104.354 57.7072 104.354ZM61.3049 103.94C61.5129 103.94 61.6949 103.972 61.8509 104.036C62.0109 104.1 62.1489 104.192 62.2649 104.312C62.3809 104.432 62.4749 104.574 62.5469 104.738L62.0909 104.954C62.0269 104.762 61.9289 104.616 61.7969 104.516C61.6689 104.412 61.5009 104.36 61.2929 104.36C61.0929 104.36 60.9209 104.406 60.7769 104.498C60.6329 104.586 60.5229 104.716 60.4469 104.888C60.3709 105.056 60.3329 105.26 60.3329 105.5C60.3329 105.736 60.3709 105.94 60.4469 106.112C60.5229 106.284 60.6329 106.416 60.7769 106.508C60.9209 106.596 61.0929 106.64 61.2929 106.64C61.4489 106.64 61.5829 106.616 61.6949 106.568C61.8109 106.52 61.9049 106.45 61.9769 106.358C62.0529 106.266 62.1049 106.154 62.1329 106.022L62.5769 106.178C62.5089 106.362 62.4149 106.52 62.2949 106.652C62.1789 106.784 62.0369 106.886 61.8689 106.958C61.7049 107.026 61.5169 107.06 61.3049 107.06C61.0249 107.06 60.7749 106.998 60.5549 106.874C60.3349 106.75 60.1629 106.572 60.0389 106.34C59.9149 106.104 59.8529 105.824 59.8529 105.5C59.8529 105.176 59.9149 104.898 60.0389 104.666C60.1629 104.43 60.3349 104.25 60.5549 104.126C60.7749 104.002 61.0249 103.94 61.3049 103.94ZM66.0543 104L64.7583 105.296L64.6443 105.41L63.6603 106.394V105.794L65.4483 104H66.0543ZM63.9003 102.62V107H63.4203V102.62H63.9003ZM64.8003 105.05L66.1263 107H65.5443L64.3983 105.32L64.8003 105.05ZM68.7348 108.26V104H69.1548L69.1968 104.732L69.1308 104.648C69.1828 104.508 69.2608 104.386 69.3648 104.282C69.4688 104.174 69.5948 104.09 69.7428 104.03C69.8908 103.97 70.0508 103.94 70.2228 103.94C70.4668 103.94 70.6908 104.002 70.8948 104.126C71.1028 104.25 71.2688 104.428 71.3928 104.66C71.5168 104.892 71.5788 105.172 71.5788 105.5C71.5788 105.824 71.5148 106.104 71.3868 106.34C71.2628 106.572 71.0968 106.75 70.8888 106.874C70.6808 106.998 70.4528 107.06 70.2048 107.06C69.9568 107.06 69.7388 107 69.5508 106.88C69.3668 106.756 69.2348 106.6 69.1548 106.412L69.2148 106.322V108.26H68.7348ZM70.1568 106.64C70.4528 106.64 70.6828 106.536 70.8468 106.328C71.0148 106.12 71.0988 105.844 71.0988 105.5C71.0988 105.156 71.0168 104.88 70.8528 104.672C70.6928 104.464 70.4668 104.36 70.1748 104.36C69.9828 104.36 69.8148 104.408 69.6708 104.504C69.5268 104.596 69.4148 104.728 69.3348 104.9C69.2548 105.068 69.2148 105.268 69.2148 105.5C69.2148 105.728 69.2528 105.928 69.3288 106.1C69.4088 106.272 69.5188 106.406 69.6588 106.502C69.8028 106.594 69.9688 106.64 70.1568 106.64ZM72.4965 107V104H72.8865L72.9525 104.492C73.0365 104.308 73.1585 104.17 73.3185 104.078C73.4825 103.986 73.6805 103.94 73.9125 103.94C73.9645 103.94 74.0205 103.944 74.0805 103.952C74.1445 103.96 74.1985 103.976 74.2425 104L74.1585 104.438C74.1145 104.422 74.0665 104.41 74.0145 104.402C73.9625 104.394 73.8885 104.39 73.7925 104.39C73.6685 104.39 73.5425 104.426 73.4145 104.498C73.2905 104.57 73.1865 104.68 73.1025 104.828C73.0185 104.972 72.9765 105.156 72.9765 105.38V107H72.4965ZM75.1857 103.424C75.0777 103.424 74.9897 103.392 74.9217 103.328C74.8577 103.26 74.8257 103.172 74.8257 103.064C74.8257 102.956 74.8577 102.87 74.9217 102.806C74.9897 102.738 75.0777 102.704 75.1857 102.704C75.2937 102.704 75.3797 102.738 75.4437 102.806C75.5117 102.87 75.5457 102.956 75.5457 103.064C75.5457 103.172 75.5117 103.26 75.4437 103.328C75.3797 103.392 75.2937 103.424 75.1857 103.424ZM75.4257 104V107H74.9457V104H75.4257ZM77.7814 103.94C77.9894 103.94 78.1714 103.972 78.3274 104.036C78.4874 104.1 78.6254 104.192 78.7414 104.312C78.8574 104.432 78.9514 104.574 79.0234 104.738L78.5674 104.954C78.5034 104.762 78.4054 104.616 78.2734 104.516C78.1454 104.412 77.9774 104.36 77.7694 104.36C77.5694 104.36 77.3974 104.406 77.2534 104.498C77.1094 104.586 76.9994 104.716 76.9234 104.888C76.8474 105.056 76.8094 105.26 76.8094 105.5C76.8094 105.736 76.8474 105.94 76.9234 106.112C76.9994 106.284 77.1094 106.416 77.2534 106.508C77.3974 106.596 77.5694 106.64 77.7694 106.64C77.9254 106.64 78.0594 106.616 78.1714 106.568C78.2874 106.52 78.3814 106.45 78.4534 106.358C78.5294 106.266 78.5814 106.154 78.6094 106.022L79.0534 106.178C78.9854 106.362 78.8914 106.52 78.7714 106.652C78.6554 106.784 78.5134 106.886 78.3454 106.958C78.1814 107.026 77.9934 107.06 77.7814 107.06C77.5014 107.06 77.2514 106.998 77.0314 106.874C76.8114 106.75 76.6394 106.572 76.5154 106.34C76.3914 106.104 76.3294 105.824 76.3294 105.5C76.3294 105.176 76.3914 104.898 76.5154 104.666C76.6394 104.43 76.8114 104.25 77.0314 104.126C77.2514 104.002 77.5014 103.94 77.7814 103.94ZM81.1509 107.06C80.8669 107.06 80.6129 106.998 80.3889 106.874C80.1689 106.75 79.9969 106.572 79.8729 106.34C79.7489 106.104 79.6869 105.824 79.6869 105.5C79.6869 105.176 79.7489 104.898 79.8729 104.666C79.9969 104.43 80.1669 104.25 80.3829 104.126C80.5989 104.002 80.8449 103.94 81.1209 103.94C81.4009 103.94 81.6389 104 81.8349 104.12C82.0349 104.24 82.1869 104.404 82.2909 104.612C82.3949 104.816 82.4469 105.046 82.4469 105.302C82.4469 105.37 82.4449 105.432 82.4409 105.488C82.4369 105.544 82.4309 105.594 82.4229 105.638H79.9989V105.212H82.2129L81.9669 105.26C81.9669 104.972 81.8869 104.75 81.7269 104.594C81.5709 104.438 81.3649 104.36 81.1089 104.36C80.9129 104.36 80.7429 104.406 80.5989 104.498C80.4589 104.586 80.3489 104.716 80.2689 104.888C80.1929 105.056 80.1549 105.26 80.1549 105.5C80.1549 105.736 80.1949 105.94 80.2749 106.112C80.3549 106.284 80.4669 106.416 80.6109 106.508C80.7589 106.596 80.9349 106.64 81.1389 106.64C81.3589 106.64 81.5369 106.598 81.6729 106.514C81.8129 106.43 81.9249 106.316 82.0089 106.172L82.3869 106.394C82.3109 106.53 82.2129 106.648 82.0929 106.748C81.9769 106.848 81.8389 106.926 81.6789 106.982C81.5229 107.034 81.3469 107.06 81.1509 107.06ZM84.4398 107.06C84.1478 107.06 83.8778 106.998 83.6298 106.874C83.3858 106.75 83.1978 106.574 83.0658 106.346L83.4738 106.052C83.5618 106.236 83.6898 106.38 83.8578 106.484C84.0298 106.588 84.2358 106.64 84.4758 106.64C84.6878 106.64 84.8538 106.6 84.9738 106.52C85.0938 106.436 85.1538 106.328 85.1538 106.196C85.1538 106.112 85.1258 106.036 85.0698 105.968C85.0178 105.896 84.9158 105.844 84.7638 105.812L84.0438 105.662C83.7518 105.602 83.5418 105.502 83.4138 105.362C83.2898 105.222 83.2278 105.048 83.2278 104.84C83.2278 104.676 83.2738 104.526 83.3658 104.39C83.4618 104.254 83.5958 104.146 83.7678 104.066C83.9438 103.982 84.1498 103.94 84.3858 103.94C84.6818 103.94 84.9318 103.998 85.1358 104.114C85.3398 104.23 85.4918 104.394 85.5918 104.606L85.1898 104.87C85.1218 104.694 85.0118 104.566 84.8598 104.486C84.7078 104.402 84.5498 104.36 84.3858 104.36C84.2418 104.36 84.1178 104.38 84.0138 104.42C83.9138 104.46 83.8358 104.516 83.7798 104.588C83.7278 104.656 83.7018 104.734 83.7018 104.822C83.7018 104.91 83.7318 104.992 83.7918 105.068C83.8518 105.14 83.9638 105.192 84.1278 105.224L84.8778 105.38C85.1578 105.436 85.3538 105.528 85.4658 105.656C85.5778 105.784 85.6338 105.94 85.6338 106.124C85.6338 106.312 85.5838 106.478 85.4838 106.622C85.3838 106.762 85.2438 106.87 85.0638 106.946C84.8838 107.022 84.6758 107.06 84.4398 107.06ZM16.1061 110H16.6401L15.5961 113H15.1161L14.2701 110.612L13.4721 113H12.9921L11.9481 110H12.4821L13.2381 112.442L14.0541 110H14.5341L15.3501 112.442L16.1061 110ZM17.5998 109.424C17.4918 109.424 17.4038 109.392 17.3358 109.328C17.2718 109.26 17.2398 109.172 17.2398 109.064C17.2398 108.956 17.2718 108.87 17.3358 108.806C17.4038 108.738 17.4918 108.704 17.5998 108.704C17.7078 108.704 17.7938 108.738 17.8578 108.806C17.9258 108.87 17.9598 108.956 17.9598 109.064C17.9598 109.172 17.9258 109.26 17.8578 109.328C17.7938 109.392 17.7078 109.424 17.5998 109.424ZM17.8398 110V113H17.3598V110H17.8398ZM19.6615 109.148V112.172C19.6615 112.32 19.7035 112.43 19.7875 112.502C19.8715 112.574 19.9795 112.61 20.1115 112.61C20.2275 112.61 20.3275 112.59 20.4115 112.55C20.4955 112.51 20.5715 112.456 20.6395 112.388L20.8075 112.79C20.7155 112.874 20.6055 112.94 20.4775 112.988C20.3535 113.036 20.2095 113.06 20.0455 113.06C19.8935 113.06 19.7515 113.034 19.6195 112.982C19.4875 112.926 19.3815 112.84 19.3015 112.724C19.2255 112.604 19.1855 112.448 19.1815 112.256V109.28L19.6615 109.148ZM20.7535 110V110.414H18.5815V110H20.7535ZM21.4672 113V108.62H21.9472V110.45C22.0512 110.27 22.1892 110.14 22.3612 110.06C22.5332 109.98 22.7212 109.94 22.9252 109.94C23.1412 109.94 23.3372 109.982 23.5132 110.066C23.6892 110.146 23.8292 110.27 23.9332 110.438C24.0412 110.606 24.0952 110.82 24.0952 111.08V113H23.6152V111.248C23.6152 110.916 23.5432 110.686 23.3992 110.558C23.2592 110.426 23.0852 110.36 22.8772 110.36C22.7332 110.36 22.5892 110.394 22.4452 110.462C22.3012 110.53 22.1812 110.642 22.0852 110.798C21.9932 110.95 21.9472 111.154 21.9472 111.41V113H21.4672ZM28.3336 108.59C28.4376 108.59 28.5356 108.602 28.6276 108.626C28.7196 108.65 28.7916 108.684 28.8436 108.728L28.7176 109.118C28.6696 109.086 28.6176 109.064 28.5616 109.052C28.5056 109.036 28.4436 109.028 28.3756 109.028C28.2036 109.028 28.0696 109.07 27.9736 109.154C27.8776 109.234 27.8296 109.364 27.8296 109.544V110V110.156V113H27.3496V109.496C27.3496 109.364 27.3696 109.242 27.4096 109.13C27.4496 109.018 27.5096 108.922 27.5896 108.842C27.6736 108.762 27.7776 108.7 27.9016 108.656C28.0256 108.612 28.1696 108.59 28.3336 108.59ZM28.8316 110V110.414H26.7496V110H28.8316ZM31.0414 111.062C31.0414 110.838 30.9814 110.666 30.8614 110.546C30.7414 110.422 30.5714 110.36 30.3514 110.36C30.1434 110.36 29.9674 110.406 29.8234 110.498C29.6794 110.586 29.5734 110.73 29.5054 110.93L29.1154 110.69C29.1954 110.466 29.3434 110.286 29.5594 110.15C29.7754 110.01 30.0434 109.94 30.3634 109.94C30.5794 109.94 30.7754 109.978 30.9514 110.054C31.1274 110.126 31.2654 110.238 31.3654 110.39C31.4694 110.538 31.5214 110.73 31.5214 110.966V112.418C31.5214 112.562 31.5974 112.634 31.7494 112.634C31.8254 112.634 31.8994 112.624 31.9714 112.604L31.9474 112.982C31.8674 113.022 31.7634 113.042 31.6354 113.042C31.5194 113.042 31.4154 113.02 31.3234 112.976C31.2314 112.932 31.1594 112.866 31.1074 112.778C31.0554 112.686 31.0294 112.572 31.0294 112.436V112.376L31.1494 112.394C31.1014 112.55 31.0194 112.678 30.9034 112.778C30.7874 112.874 30.6574 112.946 30.5134 112.994C30.3694 113.038 30.2274 113.06 30.0874 113.06C29.9114 113.06 29.7474 113.03 29.5954 112.97C29.4434 112.91 29.3214 112.82 29.2294 112.7C29.1414 112.576 29.0974 112.424 29.0974 112.244C29.0974 112.02 29.1714 111.836 29.3194 111.692C29.4714 111.544 29.6814 111.444 29.9494 111.392L31.1374 111.158V111.554L30.1714 111.752C29.9754 111.792 29.8294 111.848 29.7334 111.92C29.6374 111.992 29.5894 112.092 29.5894 112.22C29.5894 112.344 29.6374 112.446 29.7334 112.526C29.8334 112.602 29.9734 112.64 30.1534 112.64C30.2694 112.64 30.3794 112.626 30.4834 112.598C30.5914 112.566 30.6874 112.52 30.7714 112.46C30.8554 112.396 30.9214 112.318 30.9694 112.226C31.0174 112.13 31.0414 112.018 31.0414 111.89V111.062ZM33.7679 113.06C33.4759 113.06 33.2059 112.998 32.9579 112.874C32.7139 112.75 32.5259 112.574 32.3939 112.346L32.8019 112.052C32.8899 112.236 33.0179 112.38 33.1859 112.484C33.3579 112.588 33.5639 112.64 33.8039 112.64C34.0159 112.64 34.1819 112.6 34.3019 112.52C34.4219 112.436 34.4819 112.328 34.4819 112.196C34.4819 112.112 34.4539 112.036 34.3979 111.968C34.3459 111.896 34.2439 111.844 34.0919 111.812L33.3719 111.662C33.0799 111.602 32.8699 111.502 32.7419 111.362C32.6179 111.222 32.5559 111.048 32.5559 110.84C32.5559 110.676 32.6019 110.526 32.6939 110.39C32.7899 110.254 32.9239 110.146 33.0959 110.066C33.2719 109.982 33.4779 109.94 33.7139 109.94C34.0099 109.94 34.2599 109.998 34.4639 110.114C34.6679 110.23 34.8199 110.394 34.9199 110.606L34.5179 110.87C34.4499 110.694 34.3399 110.566 34.1879 110.486C34.0359 110.402 33.8779 110.36 33.7139 110.36C33.5699 110.36 33.4459 110.38 33.3419 110.42C33.2419 110.46 33.1639 110.516 33.1079 110.588C33.0559 110.656 33.0299 110.734 33.0299 110.822C33.0299 110.91 33.0599 110.992 33.1199 111.068C33.1799 111.14 33.2919 111.192 33.4559 111.224L34.2059 111.38C34.4859 111.436 34.6819 111.528 34.7939 111.656C34.9059 111.784 34.9619 111.94 34.9619 112.124C34.9619 112.312 34.9119 112.478 34.8119 112.622C34.7119 112.762 34.5719 112.87 34.3919 112.946C34.2119 113.022 34.0039 113.06 33.7679 113.06ZM36.5599 109.148V112.172C36.5599 112.32 36.6019 112.43 36.6859 112.502C36.7699 112.574 36.8779 112.61 37.0099 112.61C37.1259 112.61 37.2259 112.59 37.3099 112.55C37.3939 112.51 37.4699 112.456 37.5379 112.388L37.7059 112.79C37.6139 112.874 37.5039 112.94 37.3759 112.988C37.2519 113.036 37.1079 113.06 36.9439 113.06C36.7919 113.06 36.6499 113.034 36.5179 112.982C36.3859 112.926 36.2799 112.84 36.1999 112.724C36.1239 112.604 36.0839 112.448 36.0799 112.256V109.28L36.5599 109.148ZM37.6519 110V110.414H35.4799V110H37.6519ZM42.1625 111.062C42.1625 110.838 42.1025 110.666 41.9825 110.546C41.8625 110.422 41.6925 110.36 41.4725 110.36C41.2645 110.36 41.0885 110.406 40.9445 110.498C40.8005 110.586 40.6945 110.73 40.6265 110.93L40.2365 110.69C40.3165 110.466 40.4645 110.286 40.6805 110.15C40.8965 110.01 41.1645 109.94 41.4845 109.94C41.7005 109.94 41.8965 109.978 42.0725 110.054C42.2485 110.126 42.3865 110.238 42.4865 110.39C42.5905 110.538 42.6425 110.73 42.6425 110.966V112.418C42.6425 112.562 42.7185 112.634 42.8705 112.634C42.9465 112.634 43.0205 112.624 43.0925 112.604L43.0685 112.982C42.9885 113.022 42.8845 113.042 42.7565 113.042C42.6405 113.042 42.5365 113.02 42.4445 112.976C42.3525 112.932 42.2805 112.866 42.2285 112.778C42.1765 112.686 42.1505 112.572 42.1505 112.436V112.376L42.2705 112.394C42.2225 112.55 42.1405 112.678 42.0245 112.778C41.9085 112.874 41.7785 112.946 41.6345 112.994C41.4905 113.038 41.3485 113.06 41.2085 113.06C41.0325 113.06 40.8685 113.03 40.7165 112.97C40.5645 112.91 40.4425 112.82 40.3505 112.7C40.2625 112.576 40.2185 112.424 40.2185 112.244C40.2185 112.02 40.2925 111.836 40.4405 111.692C40.5925 111.544 40.8025 111.444 41.0705 111.392L42.2585 111.158V111.554L41.2925 111.752C41.0965 111.792 40.9505 111.848 40.8545 111.92C40.7585 111.992 40.7105 112.092 40.7105 112.22C40.7105 112.344 40.7585 112.446 40.8545 112.526C40.9545 112.602 41.0945 112.64 41.2745 112.64C41.3905 112.64 41.5005 112.626 41.6045 112.598C41.7125 112.566 41.8085 112.52 41.8925 112.46C41.9765 112.396 42.0425 112.318 42.0905 112.226C42.1385 112.13 42.1625 112.018 42.1625 111.89V111.062ZM43.809 113V110H44.229L44.271 110.672L44.193 110.606C44.257 110.446 44.343 110.318 44.451 110.222C44.559 110.122 44.683 110.05 44.823 110.006C44.967 109.962 45.115 109.94 45.267 109.94C45.483 109.94 45.679 109.982 45.855 110.066C46.031 110.146 46.171 110.27 46.275 110.438C46.383 110.606 46.437 110.82 46.437 111.08V113H45.957V111.248C45.957 110.916 45.885 110.686 45.741 110.558C45.601 110.426 45.427 110.36 45.219 110.36C45.075 110.36 44.931 110.394 44.787 110.462C44.643 110.53 44.523 110.64 44.427 110.792C44.335 110.944 44.289 111.148 44.289 111.404V113H43.809ZM48.6938 113.06C48.4458 113.06 48.2178 112.998 48.0098 112.874C47.8018 112.75 47.6358 112.572 47.5118 112.34C47.3878 112.104 47.3258 111.824 47.3258 111.5C47.3258 111.168 47.3918 110.886 47.5238 110.654C47.6558 110.422 47.8298 110.246 48.0458 110.126C48.2618 110.002 48.4938 109.94 48.7418 109.94C48.9898 109.94 49.2038 110.004 49.3838 110.132C49.5678 110.26 49.6898 110.43 49.7498 110.642L49.6898 110.684V108.62H50.1698V113H49.7498L49.7078 112.274L49.7738 112.238C49.7458 112.414 49.6778 112.564 49.5698 112.688C49.4658 112.808 49.3358 112.9 49.1798 112.964C49.0278 113.028 48.8658 113.06 48.6938 113.06ZM48.7418 112.64C48.9338 112.64 49.0998 112.592 49.2398 112.496C49.3838 112.4 49.4938 112.264 49.5698 112.088C49.6498 111.908 49.6898 111.698 49.6898 111.458C49.6898 111.23 49.6498 111.034 49.5698 110.87C49.4938 110.706 49.3858 110.58 49.2458 110.492C49.1098 110.404 48.9498 110.36 48.7658 110.36C48.4618 110.36 48.2258 110.464 48.0578 110.672C47.8898 110.88 47.8058 111.156 47.8058 111.5C47.8058 111.844 47.8878 112.12 48.0518 112.328C48.2158 112.536 48.4458 112.64 48.7418 112.64ZM55.0825 111.062C55.0825 110.838 55.0225 110.666 54.9025 110.546C54.7825 110.422 54.6125 110.36 54.3925 110.36C54.1845 110.36 54.0085 110.406 53.8645 110.498C53.7205 110.586 53.6145 110.73 53.5465 110.93L53.1565 110.69C53.2365 110.466 53.3845 110.286 53.6005 110.15C53.8165 110.01 54.0845 109.94 54.4045 109.94C54.6205 109.94 54.8165 109.978 54.9925 110.054C55.1685 110.126 55.3065 110.238 55.4065 110.39C55.5105 110.538 55.5625 110.73 55.5625 110.966V112.418C55.5625 112.562 55.6385 112.634 55.7905 112.634C55.8665 112.634 55.9405 112.624 56.0125 112.604L55.9885 112.982C55.9085 113.022 55.8045 113.042 55.6765 113.042C55.5605 113.042 55.4565 113.02 55.3645 112.976C55.2725 112.932 55.2005 112.866 55.1485 112.778C55.0965 112.686 55.0705 112.572 55.0705 112.436V112.376L55.1905 112.394C55.1425 112.55 55.0605 112.678 54.9445 112.778C54.8285 112.874 54.6985 112.946 54.5545 112.994C54.4105 113.038 54.2685 113.06 54.1285 113.06C53.9525 113.06 53.7885 113.03 53.6365 112.97C53.4845 112.91 53.3625 112.82 53.2705 112.7C53.1825 112.576 53.1385 112.424 53.1385 112.244C53.1385 112.02 53.2125 111.836 53.3605 111.692C53.5125 111.544 53.7225 111.444 53.9905 111.392L55.1785 111.158V111.554L54.2125 111.752C54.0165 111.792 53.8705 111.848 53.7745 111.92C53.6785 111.992 53.6305 112.092 53.6305 112.22C53.6305 112.344 53.6785 112.446 53.7745 112.526C53.8745 112.602 54.0145 112.64 54.1945 112.64C54.3105 112.64 54.4205 112.626 54.5245 112.598C54.6325 112.566 54.7285 112.52 54.8125 112.46C54.8965 112.396 54.9625 112.318 55.0105 112.226C55.0585 112.13 55.0825 112.018 55.0825 111.89V111.062ZM57.9709 109.94C58.1789 109.94 58.3609 109.972 58.5169 110.036C58.6769 110.1 58.8149 110.192 58.9309 110.312C59.0469 110.432 59.1409 110.574 59.2129 110.738L58.7569 110.954C58.6929 110.762 58.5949 110.616 58.4629 110.516C58.3349 110.412 58.1669 110.36 57.9589 110.36C57.7589 110.36 57.5869 110.406 57.4429 110.498C57.2989 110.586 57.1889 110.716 57.1129 110.888C57.0369 111.056 56.9989 111.26 56.9989 111.5C56.9989 111.736 57.0369 111.94 57.1129 112.112C57.1889 112.284 57.2989 112.416 57.4429 112.508C57.5869 112.596 57.7589 112.64 57.9589 112.64C58.1149 112.64 58.2489 112.616 58.3609 112.568C58.4769 112.52 58.5709 112.45 58.6429 112.358C58.7189 112.266 58.7709 112.154 58.7989 112.022L59.2429 112.178C59.1749 112.362 59.0809 112.52 58.9609 112.652C58.8449 112.784 58.7029 112.886 58.5349 112.958C58.3709 113.026 58.1829 113.06 57.9709 113.06C57.6909 113.06 57.4409 112.998 57.2209 112.874C57.0009 112.75 56.8289 112.572 56.7049 112.34C56.5809 112.104 56.5189 111.824 56.5189 111.5C56.5189 111.176 56.5809 110.898 56.7049 110.666C56.8289 110.43 57.0009 110.25 57.2209 110.126C57.4409 110.002 57.6909 109.94 57.9709 109.94ZM61.3283 109.94C61.5363 109.94 61.7183 109.972 61.8743 110.036C62.0343 110.1 62.1723 110.192 62.2883 110.312C62.4043 110.432 62.4983 110.574 62.5703 110.738L62.1143 110.954C62.0503 110.762 61.9523 110.616 61.8203 110.516C61.6923 110.412 61.5243 110.36 61.3163 110.36C61.1163 110.36 60.9443 110.406 60.8003 110.498C60.6563 110.586 60.5463 110.716 60.4703 110.888C60.3943 111.056 60.3563 111.26 60.3563 111.5C60.3563 111.736 60.3943 111.94 60.4703 112.112C60.5463 112.284 60.6563 112.416 60.8003 112.508C60.9443 112.596 61.1163 112.64 61.3163 112.64C61.4723 112.64 61.6063 112.616 61.7183 112.568C61.8343 112.52 61.9283 112.45 62.0003 112.358C62.0763 112.266 62.1283 112.154 62.1563 112.022L62.6003 112.178C62.5323 112.362 62.4383 112.52 62.3183 112.652C62.2023 112.784 62.0603 112.886 61.8923 112.958C61.7283 113.026 61.5403 113.06 61.3283 113.06C61.0483 113.06 60.7983 112.998 60.5783 112.874C60.3583 112.75 60.1863 112.572 60.0623 112.34C59.9383 112.104 59.8763 111.824 59.8763 111.5C59.8763 111.176 59.9383 110.898 60.0623 110.666C60.1863 110.43 60.3583 110.25 60.5783 110.126C60.7983 110.002 61.0483 109.94 61.3283 109.94ZM64.5297 113.06C64.3377 113.06 64.1557 113.024 63.9837 112.952C63.8157 112.88 63.6777 112.764 63.5697 112.604C63.4657 112.44 63.4137 112.228 63.4137 111.968V110H63.8937V111.842C63.8937 112.146 63.9597 112.356 64.0917 112.472C64.2237 112.584 64.4097 112.64 64.6497 112.64C64.7617 112.64 64.8717 112.622 64.9797 112.586C65.0877 112.546 65.1837 112.486 65.2677 112.406C65.3557 112.322 65.4237 112.216 65.4717 112.088C65.5237 111.96 65.5497 111.808 65.5497 111.632V110H66.0297V113H65.6097L65.5797 112.544C65.4757 112.724 65.3337 112.856 65.1537 112.94C64.9777 113.02 64.7697 113.06 64.5297 113.06ZM67.1469 113V110H67.5369L67.6029 110.492C67.6869 110.308 67.8089 110.17 67.9689 110.078C68.1329 109.986 68.3309 109.94 68.5629 109.94C68.6149 109.94 68.6709 109.944 68.7309 109.952C68.7949 109.96 68.8489 109.976 68.8929 110L68.8089 110.438C68.7649 110.422 68.7169 110.41 68.6649 110.402C68.6129 110.394 68.5389 110.39 68.4429 110.39C68.3189 110.39 68.1929 110.426 68.0649 110.498C67.9409 110.57 67.8369 110.68 67.7529 110.828C67.6689 110.972 67.6269 111.156 67.6269 111.38V113H67.1469ZM71.2661 111.062C71.2661 110.838 71.2061 110.666 71.0861 110.546C70.9661 110.422 70.7961 110.36 70.5761 110.36C70.3681 110.36 70.1921 110.406 70.0481 110.498C69.9041 110.586 69.7981 110.73 69.7301 110.93L69.3401 110.69C69.4201 110.466 69.5681 110.286 69.7841 110.15C70.0001 110.01 70.2681 109.94 70.5881 109.94C70.8041 109.94 71.0001 109.978 71.1761 110.054C71.3521 110.126 71.4901 110.238 71.5901 110.39C71.6941 110.538 71.7461 110.73 71.7461 110.966V112.418C71.7461 112.562 71.8221 112.634 71.9741 112.634C72.0501 112.634 72.1241 112.624 72.1961 112.604L72.1721 112.982C72.0921 113.022 71.9881 113.042 71.8601 113.042C71.7441 113.042 71.6401 113.02 71.5481 112.976C71.4561 112.932 71.3841 112.866 71.3321 112.778C71.2801 112.686 71.2541 112.572 71.2541 112.436V112.376L71.3741 112.394C71.3261 112.55 71.2441 112.678 71.1281 112.778C71.0121 112.874 70.8821 112.946 70.7381 112.994C70.5941 113.038 70.4521 113.06 70.3121 113.06C70.1361 113.06 69.9721 113.03 69.8201 112.97C69.6681 112.91 69.5461 112.82 69.4541 112.7C69.3661 112.576 69.3221 112.424 69.3221 112.244C69.3221 112.02 69.3961 111.836 69.5441 111.692C69.6961 111.544 69.9061 111.444 70.1741 111.392L71.3621 111.158V111.554L70.3961 111.752C70.2001 111.792 70.0541 111.848 69.9581 111.92C69.8621 111.992 69.8141 112.092 69.8141 112.22C69.8141 112.344 69.8621 112.446 69.9581 112.526C70.0581 112.602 70.1981 112.64 70.3781 112.64C70.4941 112.64 70.6041 112.626 70.7081 112.598C70.8161 112.566 70.9121 112.52 70.9961 112.46C71.0801 112.396 71.1461 112.318 71.1941 112.226C71.2421 112.13 71.2661 112.018 71.2661 111.89V111.062ZM73.5033 109.148V112.172C73.5033 112.32 73.5453 112.43 73.6293 112.502C73.7133 112.574 73.8213 112.61 73.9533 112.61C74.0693 112.61 74.1693 112.59 74.2533 112.55C74.3373 112.51 74.4133 112.456 74.4813 112.388L74.6493 112.79C74.5573 112.874 74.4473 112.94 74.3193 112.988C74.1953 113.036 74.0513 113.06 73.8873 113.06C73.7353 113.06 73.5933 113.034 73.4613 112.982C73.3293 112.926 73.2233 112.84 73.1433 112.724C73.0673 112.604 73.0273 112.448 73.0233 112.256V109.28L73.5033 109.148ZM74.5953 110V110.414H72.4233V110H74.5953ZM76.563 113.06C76.279 113.06 76.025 112.998 75.801 112.874C75.581 112.75 75.409 112.572 75.285 112.34C75.161 112.104 75.099 111.824 75.099 111.5C75.099 111.176 75.161 110.898 75.285 110.666C75.409 110.43 75.579 110.25 75.795 110.126C76.011 110.002 76.257 109.94 76.533 109.94C76.813 109.94 77.051 110 77.247 110.12C77.447 110.24 77.599 110.404 77.703 110.612C77.807 110.816 77.859 111.046 77.859 111.302C77.859 111.37 77.857 111.432 77.853 111.488C77.849 111.544 77.843 111.594 77.835 111.638H75.411V111.212H77.625L77.379 111.26C77.379 110.972 77.299 110.75 77.139 110.594C76.983 110.438 76.777 110.36 76.521 110.36C76.325 110.36 76.155 110.406 76.011 110.498C75.871 110.586 75.761 110.716 75.681 110.888C75.605 111.056 75.567 111.26 75.567 111.5C75.567 111.736 75.607 111.94 75.687 112.112C75.767 112.284 75.879 112.416 76.023 112.508C76.171 112.596 76.347 112.64 76.551 112.64C76.771 112.64 76.949 112.598 77.085 112.514C77.225 112.43 77.337 112.316 77.421 112.172L77.799 112.394C77.723 112.53 77.625 112.648 77.505 112.748C77.389 112.848 77.251 112.926 77.091 112.982C76.935 113.034 76.759 113.06 76.563 113.06ZM28.3226 120.26V116H28.7426L28.7846 116.732L28.7186 116.648C28.7706 116.508 28.8486 116.386 28.9526 116.282C29.0566 116.174 29.1826 116.09 29.3306 116.03C29.4786 115.97 29.6386 115.94 29.8106 115.94C30.0546 115.94 30.2786 116.002 30.4826 116.126C30.6906 116.25 30.8566 116.428 30.9806 116.66C31.1046 116.892 31.1666 117.172 31.1666 117.5C31.1666 117.824 31.1026 118.104 30.9746 118.34C30.8506 118.572 30.6846 118.75 30.4766 118.874C30.2686 118.998 30.0406 119.06 29.7926 119.06C29.5446 119.06 29.3266 119 29.1386 118.88C28.9546 118.756 28.8226 118.6 28.7426 118.412L28.8026 118.322V120.26H28.3226ZM29.7446 118.64C30.0406 118.64 30.2706 118.536 30.4346 118.328C30.6026 118.12 30.6866 117.844 30.6866 117.5C30.6866 117.156 30.6046 116.88 30.4406 116.672C30.2806 116.464 30.0546 116.36 29.7626 116.36C29.5706 116.36 29.4026 116.408 29.2586 116.504C29.1146 116.596 29.0026 116.728 28.9226 116.9C28.8426 117.068 28.8026 117.268 28.8026 117.5C28.8026 117.728 28.8406 117.928 28.9166 118.1C28.9966 118.272 29.1066 118.406 29.2466 118.502C29.3906 118.594 29.5566 118.64 29.7446 118.64ZM32.0844 119V116H32.4744L32.5404 116.492C32.6244 116.308 32.7464 116.17 32.9064 116.078C33.0704 115.986 33.2684 115.94 33.5004 115.94C33.5524 115.94 33.6084 115.944 33.6684 115.952C33.7324 115.96 33.7864 115.976 33.8304 116L33.7464 116.438C33.7024 116.422 33.6544 116.41 33.6024 116.402C33.5504 116.394 33.4764 116.39 33.3804 116.39C33.2564 116.39 33.1304 116.426 33.0024 116.498C32.8784 116.57 32.7744 116.68 32.6904 116.828C32.6064 116.972 32.5644 117.156 32.5644 117.38V119H32.0844ZM35.6938 119.06C35.4098 119.06 35.1558 118.998 34.9318 118.874C34.7118 118.75 34.5398 118.572 34.4158 118.34C34.2918 118.104 34.2298 117.824 34.2298 117.5C34.2298 117.176 34.2918 116.898 34.4158 116.666C34.5398 116.43 34.7098 116.25 34.9258 116.126C35.1418 116.002 35.3878 115.94 35.6638 115.94C35.9438 115.94 36.1818 116 36.3778 116.12C36.5778 116.24 36.7298 116.404 36.8338 116.612C36.9378 116.816 36.9898 117.046 36.9898 117.302C36.9898 117.37 36.9878 117.432 36.9838 117.488C36.9798 117.544 36.9738 117.594 36.9658 117.638H34.5418V117.212H36.7558L36.5098 117.26C36.5098 116.972 36.4298 116.75 36.2698 116.594C36.1138 116.438 35.9078 116.36 35.6518 116.36C35.4558 116.36 35.2858 116.406 35.1418 116.498C35.0018 116.586 34.8918 116.716 34.8118 116.888C34.7358 117.056 34.6978 117.26 34.6978 117.5C34.6978 117.736 34.7378 117.94 34.8178 118.112C34.8978 118.284 35.0098 118.416 35.1538 118.508C35.3018 118.596 35.4778 118.64 35.6818 118.64C35.9018 118.64 36.0798 118.598 36.2158 118.514C36.3558 118.43 36.4678 118.316 36.5518 118.172L36.9298 118.394C36.8538 118.53 36.7558 118.648 36.6358 118.748C36.5198 118.848 36.3818 118.926 36.2218 118.982C36.0658 119.034 35.8898 119.06 35.6938 119.06ZM39.0727 119.06C38.8247 119.06 38.5967 118.998 38.3887 118.874C38.1807 118.75 38.0147 118.572 37.8907 118.34C37.7667 118.104 37.7047 117.824 37.7047 117.5C37.7047 117.168 37.7707 116.886 37.9027 116.654C38.0347 116.422 38.2087 116.246 38.4247 116.126C38.6407 116.002 38.8727 115.94 39.1207 115.94C39.3687 115.94 39.5827 116.004 39.7627 116.132C39.9467 116.26 40.0687 116.43 40.1287 116.642L40.0687 116.684V114.62H40.5487V119H40.1287L40.0867 118.274L40.1527 118.238C40.1247 118.414 40.0567 118.564 39.9487 118.688C39.8447 118.808 39.7147 118.9 39.5587 118.964C39.4067 119.028 39.2447 119.06 39.0727 119.06ZM39.1207 118.64C39.3127 118.64 39.4787 118.592 39.6187 118.496C39.7627 118.4 39.8727 118.264 39.9487 118.088C40.0287 117.908 40.0687 117.698 40.0687 117.458C40.0687 117.23 40.0287 117.034 39.9487 116.87C39.8727 116.706 39.7647 116.58 39.6247 116.492C39.4887 116.404 39.3287 116.36 39.1447 116.36C38.8407 116.36 38.6047 116.464 38.4367 116.672C38.2687 116.88 38.1847 117.156 38.1847 117.5C38.1847 117.844 38.2667 118.12 38.4307 118.328C38.5947 118.536 38.8247 118.64 39.1207 118.64ZM41.9044 115.424C41.7964 115.424 41.7084 115.392 41.6404 115.328C41.5764 115.26 41.5444 115.172 41.5444 115.064C41.5444 114.956 41.5764 114.87 41.6404 114.806C41.7084 114.738 41.7964 114.704 41.9044 114.704C42.0124 114.704 42.0984 114.738 42.1624 114.806C42.2304 114.87 42.2644 114.956 42.2644 115.064C42.2644 115.172 42.2304 115.26 42.1624 115.328C42.0984 115.392 42.0124 115.424 41.9044 115.424ZM42.1444 116V119H41.6644V116H42.1444ZM44.5002 115.94C44.7082 115.94 44.8902 115.972 45.0462 116.036C45.2062 116.1 45.3442 116.192 45.4602 116.312C45.5762 116.432 45.6702 116.574 45.7422 116.738L45.2862 116.954C45.2222 116.762 45.1242 116.616 44.9922 116.516C44.8642 116.412 44.6962 116.36 44.4882 116.36C44.2882 116.36 44.1162 116.406 43.9722 116.498C43.8282 116.586 43.7182 116.716 43.6422 116.888C43.5662 117.056 43.5282 117.26 43.5282 117.5C43.5282 117.736 43.5662 117.94 43.6422 118.112C43.7182 118.284 43.8282 118.416 43.9722 118.508C44.1162 118.596 44.2882 118.64 44.4882 118.64C44.6442 118.64 44.7782 118.616 44.8902 118.568C45.0062 118.52 45.1002 118.45 45.1722 118.358C45.2482 118.266 45.3002 118.154 45.3282 118.022L45.7722 118.178C45.7042 118.362 45.6102 118.52 45.4902 118.652C45.3742 118.784 45.2322 118.886 45.0642 118.958C44.9002 119.026 44.7122 119.06 44.5002 119.06C44.2202 119.06 43.9702 118.998 43.7502 118.874C43.5302 118.75 43.3582 118.572 43.2342 118.34C43.1102 118.104 43.0482 117.824 43.0482 117.5C43.0482 117.176 43.1102 116.898 43.2342 116.666C43.3582 116.43 43.5302 116.25 43.7502 116.126C43.9702 116.002 44.2202 115.94 44.5002 115.94ZM47.3236 115.148V118.172C47.3236 118.32 47.3656 118.43 47.4496 118.502C47.5336 118.574 47.6416 118.61 47.7736 118.61C47.8896 118.61 47.9896 118.59 48.0736 118.55C48.1576 118.51 48.2336 118.456 48.3016 118.388L48.4696 118.79C48.3776 118.874 48.2676 118.94 48.1396 118.988C48.0156 119.036 47.8716 119.06 47.7076 119.06C47.5556 119.06 47.4136 119.034 47.2816 118.982C47.1496 118.926 47.0436 118.84 46.9636 118.724C46.8876 118.604 46.8476 118.448 46.8436 118.256V115.28L47.3236 115.148ZM48.4156 116V116.414H46.2436V116H48.4156ZM49.3693 115.424C49.2613 115.424 49.1733 115.392 49.1053 115.328C49.0413 115.26 49.0093 115.172 49.0093 115.064C49.0093 114.956 49.0413 114.87 49.1053 114.806C49.1733 114.738 49.2613 114.704 49.3693 114.704C49.4773 114.704 49.5633 114.738 49.6273 114.806C49.6953 114.87 49.7293 114.956 49.7293 115.064C49.7293 115.172 49.6953 115.26 49.6273 115.328C49.5633 115.392 49.4773 115.424 49.3693 115.424ZM49.6093 116V119H49.1293V116H49.6093ZM51.965 115.94C52.249 115.94 52.499 116.002 52.715 116.126C52.935 116.25 53.107 116.43 53.231 116.666C53.355 116.898 53.417 117.176 53.417 117.5C53.417 117.824 53.355 118.104 53.231 118.34C53.107 118.572 52.935 118.75 52.715 118.874C52.499 118.998 52.249 119.06 51.965 119.06C51.685 119.06 51.435 118.998 51.215 118.874C50.995 118.75 50.823 118.572 50.699 118.34C50.575 118.104 50.513 117.824 50.513 117.5C50.513 117.176 50.575 116.898 50.699 116.666C50.823 116.43 50.995 116.25 51.215 116.126C51.435 116.002 51.685 115.94 51.965 115.94ZM51.965 116.354C51.761 116.354 51.587 116.4 51.443 116.492C51.299 116.584 51.187 116.716 51.107 116.888C51.031 117.056 50.993 117.26 50.993 117.5C50.993 117.736 51.031 117.94 51.107 118.112C51.187 118.284 51.299 118.416 51.443 118.508C51.587 118.6 51.761 118.646 51.965 118.646C52.169 118.646 52.343 118.6 52.487 118.508C52.631 118.416 52.741 118.284 52.817 118.112C52.897 117.94 52.937 117.736 52.937 117.5C52.937 117.26 52.897 117.056 52.817 116.888C52.741 116.716 52.631 116.584 52.487 116.492C52.343 116.4 52.169 116.354 51.965 116.354ZM54.3207 119V116H54.7407L54.7827 116.672L54.7047 116.606C54.7687 116.446 54.8547 116.318 54.9627 116.222C55.0707 116.122 55.1947 116.05 55.3347 116.006C55.4787 115.962 55.6267 115.94 55.7787 115.94C55.9947 115.94 56.1907 115.982 56.3667 116.066C56.5427 116.146 56.6827 116.27 56.7867 116.438C56.8947 116.606 56.9487 116.82 56.9487 117.08V119H56.4687V117.248C56.4687 116.916 56.3967 116.686 56.2527 116.558C56.1127 116.426 55.9387 116.36 55.7307 116.36C55.5867 116.36 55.4427 116.394 55.2987 116.462C55.1547 116.53 55.0347 116.64 54.9387 116.792C54.8467 116.944 54.8007 117.148 54.8007 117.404V119H54.3207ZM59.1155 119.06C58.8235 119.06 58.5535 118.998 58.3055 118.874C58.0615 118.75 57.8735 118.574 57.7415 118.346L58.1495 118.052C58.2375 118.236 58.3655 118.38 58.5335 118.484C58.7055 118.588 58.9115 118.64 59.1515 118.64C59.3635 118.64 59.5295 118.6 59.6495 118.52C59.7695 118.436 59.8295 118.328 59.8295 118.196C59.8295 118.112 59.8015 118.036 59.7455 117.968C59.6935 117.896 59.5915 117.844 59.4395 117.812L58.7195 117.662C58.4275 117.602 58.2175 117.502 58.0895 117.362C57.9655 117.222 57.9035 117.048 57.9035 116.84C57.9035 116.676 57.9495 116.526 58.0415 116.39C58.1375 116.254 58.2715 116.146 58.4435 116.066C58.6195 115.982 58.8255 115.94 59.0615 115.94C59.3575 115.94 59.6075 115.998 59.8115 116.114C60.0155 116.23 60.1675 116.394 60.2675 116.606L59.8655 116.87C59.7975 116.694 59.6875 116.566 59.5355 116.486C59.3835 116.402 59.2255 116.36 59.0615 116.36C58.9175 116.36 58.7935 116.38 58.6895 116.42C58.5895 116.46 58.5115 116.516 58.4555 116.588C58.4035 116.656 58.3775 116.734 58.3775 116.822C58.3775 116.91 58.4075 116.992 58.4675 117.068C58.5275 117.14 58.6395 117.192 58.8035 117.224L59.5535 117.38C59.8335 117.436 60.0295 117.528 60.1415 117.656C60.2535 117.784 60.3095 117.94 60.3095 118.124C60.3095 118.312 60.2595 118.478 60.1595 118.622C60.0595 118.762 59.9195 118.87 59.7395 118.946C59.5595 119.022 59.3515 119.06 59.1155 119.06ZM61.4396 118.28C61.5556 118.28 61.6496 118.316 61.7216 118.388C61.7936 118.46 61.8296 118.554 61.8296 118.67C61.8296 118.786 61.7936 118.88 61.7216 118.952C61.6496 119.024 61.5556 119.06 61.4396 119.06C61.3236 119.06 61.2296 119.024 61.1576 118.952C61.0856 118.88 61.0496 118.786 61.0496 118.67C61.0496 118.554 61.0856 118.46 61.1576 118.388C61.2296 118.316 61.3236 118.28 61.4396 118.28Z" fill="white"/>
<path d="M27 26.0191H29V38.6378H27C26.7373 38.6382 26.4771 38.584 26.2343 38.4784C25.9915 38.3729 25.7709 38.218 25.5851 38.0226C25.3993 37.8272 25.252 37.5953 25.1516 37.3399C25.0512 37.0846 24.9997 36.811 25 36.5347V28.1222C24.9997 27.846 25.0512 27.5723 25.1516 27.317C25.252 27.0617 25.3993 26.8297 25.5851 26.6344C25.7709 26.439 25.9915 26.2841 26.2343 26.1785C26.4771 26.073 26.7373 26.0188 27 26.0191ZM59 22.8644V40.741C58.9989 41.8562 58.5772 42.9254 57.8273 43.714C57.0773 44.5026 56.0605 44.9461 55 44.9472H35C33.9395 44.9461 32.9226 44.5026 32.1727 43.714C31.4228 42.9254 31.001 41.8562 31 40.741V22.8644C30.9998 22.1739 31.129 21.4901 31.3802 20.8521C31.6314 20.2141 31.9997 19.6344 32.464 19.1461C32.9283 18.6578 33.4796 18.2706 34.0863 18.0064C34.6931 17.7423 35.3433 17.6064 36 17.6067H43V13.4004C43 12.8426 43.2107 12.3077 43.5858 11.9133C43.9609 11.5189 44.4696 11.2973 45 11.2973C45.5304 11.2973 46.0391 11.5189 46.4142 11.9133C46.7893 12.3077 47 12.8426 47 13.4004V17.6067H54C54.6567 17.6064 55.3069 17.7423 55.9137 18.0064C56.5204 18.2706 57.0717 18.6578 57.536 19.1461C58.0003 19.6344 58.3686 20.2141 58.6198 20.8521C58.871 21.4901 59.0002 22.1739 59 22.8644ZM41.5 28.1222C41.5 27.6023 41.3534 27.094 41.0787 26.6617C40.804 26.2294 40.4135 25.8924 39.9567 25.6935C39.4999 25.4945 38.9972 25.4424 38.5123 25.5439C38.0273 25.6453 37.5819 25.8957 37.2322 26.2633C36.8826 26.631 36.6445 27.0994 36.548 27.6094C36.4516 28.1193 36.5011 28.6479 36.6903 29.1283C36.8795 29.6087 37.2 30.0192 37.6111 30.3081C38.0222 30.597 38.5055 30.7511 39 30.7511C39.3283 30.7512 39.6534 30.6832 39.9567 30.5511C40.2601 30.419 40.5357 30.2253 40.7678 29.9812C41 29.7371 41.1841 29.4473 41.3097 29.1283C41.4354 28.8093 41.5 28.4675 41.5 28.1222ZM41 36.5347H37V38.6378H41V36.5347ZM47 36.5347H43V38.6378H47V36.5347ZM53.5 28.1222C53.5 27.6023 53.3534 27.094 53.0787 26.6617C52.804 26.2294 52.4135 25.8924 51.9567 25.6935C51.4999 25.4945 50.9972 25.4424 50.5123 25.5439C50.0273 25.6453 49.5819 25.8957 49.2322 26.2633C48.8826 26.631 48.6445 27.0994 48.548 27.6094C48.4516 28.1193 48.5011 28.6479 48.6903 29.1283C48.8795 29.6087 49.2 30.0192 49.6111 30.3081C50.0222 30.597 50.5055 30.7511 51 30.7511C51.3283 30.7512 51.6534 30.6832 51.9567 30.5511C52.2601 30.419 52.5357 30.2253 52.7678 29.9812C53 29.7371 53.1841 29.4473 53.3097 29.1283C53.4354 28.8093 53.5 28.4675 53.5 28.1222ZM53 36.5347H49V38.6378H53V36.5347ZM65 28.1222V36.5347C65.0003 36.811 64.9488 37.0846 64.8484 37.3399C64.748 37.5953 64.6007 37.8272 64.4149 38.0226C64.2291 38.218 64.0085 38.3729 63.7657 38.4784C63.5229 38.584 63.2627 38.6382 63 38.6378H61V26.0191H63C63.2627 26.0188 63.5229 26.073 63.7657 26.1785C64.0085 26.2841 64.2291 26.439 64.4149 26.6344C64.6007 26.8297 64.748 27.0617 64.8484 27.317C64.9488 27.5723 65.0003 27.846 65 28.1222Z" fill="#EA8436"/>
</svg>
