<svg width="91" height="107" viewBox="0 0 91 107" fill="none" xmlns="http://www.w3.org/2000/svg">
<ellipse cx="47.5" cy="27" rx="27.5" ry="27" fill="#00E5FF" fill-opacity="0.2"/>
<path d="M48.875 42.752C57.9877 42.752 65.375 35.5993 65.375 26.776C65.375 17.9527 57.9877 10.8 48.875 10.8C39.7623 10.8 32.375 17.9527 32.375 26.776C32.375 35.5993 39.7623 42.752 48.875 42.752Z" stroke="#00E5FF" stroke-width="2.46682" stroke-linecap="round" stroke-linejoin="round"/>
<path d="M32.375 26.776H65.375" stroke="#00E5FF" stroke-width="2.46682" stroke-linecap="round" stroke-linejoin="round"/>
<path d="M48.875 10.8C53.0021 15.1748 55.3475 20.8522 55.475 26.776C55.3475 32.6999 53.0021 38.3772 48.875 42.752C44.7479 38.3772 42.4025 32.6999 42.275 26.776C42.4025 20.8522 44.7479 15.1748 48.875 10.8Z" stroke="#00E5FF" stroke-width="2.46682" stroke-linecap="round" stroke-linejoin="round"/>
<path d="M30.167 68.1C29.6204 68.1 29.117 68.0133 28.657 67.84C28.2037 67.66 27.807 67.41 27.467 67.09C27.127 66.7633 26.8637 66.38 26.677 65.94C26.4904 65.5 26.397 65.02 26.397 64.5C26.397 63.98 26.4904 63.5 26.677 63.06C26.8637 62.62 27.127 62.24 27.467 61.92C27.8137 61.5933 28.217 61.3433 28.677 61.17C29.137 60.99 29.6404 60.9 30.187 60.9C30.7804 60.9 31.3137 60.9967 31.787 61.19C32.267 61.3833 32.6704 61.6667 32.997 62.04L32.177 62.84C31.9037 62.5667 31.607 62.3667 31.287 62.24C30.9737 62.1067 30.627 62.04 30.247 62.04C29.8804 62.04 29.5404 62.1 29.227 62.22C28.9137 62.34 28.6437 62.51 28.417 62.73C28.1904 62.95 28.0137 63.21 27.887 63.51C27.767 63.81 27.707 64.14 27.707 64.5C27.707 64.8533 27.767 65.18 27.887 65.48C28.0137 65.78 28.1904 66.0433 28.417 66.27C28.6437 66.49 28.9104 66.66 29.217 66.78C29.5237 66.9 29.8637 66.96 30.237 66.96C30.5837 66.96 30.917 66.9067 31.237 66.8C31.5637 66.6867 31.8737 66.5 32.167 66.24L32.907 67.21C32.5404 67.5033 32.1137 67.7267 31.627 67.88C31.147 68.0267 30.6604 68.1 30.167 68.1ZM31.677 67.04V64.42H32.907V67.21L31.677 67.04ZM34.6216 68V61H35.9216V66.9H39.5816V68H34.6216ZM43.761 68.1C43.2143 68.1 42.711 68.01 42.251 67.83C41.791 67.65 41.391 67.4 41.051 67.08C40.711 66.7533 40.4477 66.3733 40.261 65.94C40.0743 65.5 39.981 65.02 39.981 64.5C39.981 63.98 40.0743 63.5033 40.261 63.07C40.4477 62.63 40.711 62.25 41.051 61.93C41.391 61.6033 41.791 61.35 42.251 61.17C42.711 60.99 43.211 60.9 43.751 60.9C44.2977 60.9 44.7977 60.99 45.251 61.17C45.711 61.35 46.111 61.6033 46.451 61.93C46.791 62.25 47.0543 62.63 47.241 63.07C47.4277 63.5033 47.521 63.98 47.521 64.5C47.521 65.02 47.4277 65.5 47.241 65.94C47.0543 66.38 46.791 66.76 46.451 67.08C46.111 67.4 45.711 67.65 45.251 67.83C44.7977 68.01 44.301 68.1 43.761 68.1ZM43.751 66.96C44.1043 66.96 44.431 66.9 44.731 66.78C45.031 66.66 45.291 66.49 45.511 66.27C45.731 66.0433 45.901 65.7833 46.021 65.49C46.1477 65.19 46.211 64.86 46.211 64.5C46.211 64.14 46.1477 63.8133 46.021 63.52C45.901 63.22 45.731 62.96 45.511 62.74C45.291 62.5133 45.031 62.34 44.731 62.22C44.431 62.1 44.1043 62.04 43.751 62.04C43.3977 62.04 43.071 62.1 42.771 62.22C42.4777 62.34 42.2177 62.5133 41.991 62.74C41.771 62.96 41.5977 63.22 41.471 63.52C41.351 63.8133 41.291 64.14 41.291 64.5C41.291 64.8533 41.351 65.18 41.471 65.48C41.5977 65.78 41.771 66.0433 41.991 66.27C42.211 66.49 42.471 66.66 42.771 66.78C43.071 66.9 43.3977 66.96 43.751 66.96ZM48.899 68V61H52.179C53.019 61 53.659 61.1667 54.099 61.5C54.539 61.8267 54.759 62.2667 54.759 62.82C54.759 63.1933 54.6723 63.5133 54.499 63.78C54.3257 64.04 54.0923 64.2433 53.799 64.39C53.5123 64.53 53.199 64.6 52.859 64.6L53.039 64.24C53.4323 64.24 53.7857 64.3133 54.099 64.46C54.4123 64.6 54.659 64.8067 54.839 65.08C55.0257 65.3533 55.119 65.6933 55.119 66.1C55.119 66.7 54.889 67.1667 54.429 67.5C53.969 67.8333 53.2857 68 52.379 68H48.899ZM50.199 66.98H52.299C52.7857 66.98 53.159 66.9 53.419 66.74C53.679 66.58 53.809 66.3233 53.809 65.97C53.809 65.6233 53.679 65.37 53.419 65.21C53.159 65.0433 52.7857 64.96 52.299 64.96H50.099V63.95H52.039C52.4923 63.95 52.839 63.87 53.079 63.71C53.3257 63.55 53.449 63.31 53.449 62.99C53.449 62.6633 53.3257 62.42 53.079 62.26C52.839 62.1 52.4923 62.02 52.039 62.02H50.199V66.98ZM55.5164 68L58.6664 61H59.9464L63.1064 68H61.7464L59.0364 61.69H59.5564L56.8564 68H55.5164ZM56.9664 66.38L57.3164 65.36H61.0964L61.4464 66.38H56.9664ZM63.9966 68V61H65.2966V66.9H68.9566V68H63.9966ZM22.5345 78.1C22.0012 78.1 21.5045 78.0133 21.0445 77.84C20.5912 77.66 20.1945 77.41 19.8545 77.09C19.5212 76.7633 19.2612 76.38 19.0745 75.94C18.8878 75.5 18.7945 75.02 18.7945 74.5C18.7945 73.98 18.8878 73.5 19.0745 73.06C19.2612 72.62 19.5245 72.24 19.8645 71.92C20.2045 71.5933 20.6012 71.3433 21.0545 71.17C21.5078 70.99 22.0045 70.9 22.5445 70.9C23.1178 70.9 23.6412 71 24.1145 71.2C24.5878 71.3933 24.9878 71.6833 25.3145 72.07L24.4745 72.86C24.2212 72.5867 23.9378 72.3833 23.6245 72.25C23.3112 72.11 22.9712 72.04 22.6045 72.04C22.2378 72.04 21.9012 72.1 21.5945 72.22C21.2945 72.34 21.0312 72.51 20.8045 72.73C20.5845 72.95 20.4112 73.21 20.2845 73.51C20.1645 73.81 20.1045 74.14 20.1045 74.5C20.1045 74.86 20.1645 75.19 20.2845 75.49C20.4112 75.79 20.5845 76.05 20.8045 76.27C21.0312 76.49 21.2945 76.66 21.5945 76.78C21.9012 76.9 22.2378 76.96 22.6045 76.96C22.9712 76.96 23.3112 76.8933 23.6245 76.76C23.9378 76.62 24.2212 76.41 24.4745 76.13L25.3145 76.93C24.9878 77.31 24.5878 77.6 24.1145 77.8C23.6412 78 23.1145 78.1 22.5345 78.1ZM29.6936 78.1C29.147 78.1 28.6436 78.01 28.1836 77.83C27.7236 77.65 27.3236 77.4 26.9836 77.08C26.6436 76.7533 26.3803 76.3733 26.1936 75.94C26.007 75.5 25.9136 75.02 25.9136 74.5C25.9136 73.98 26.007 73.5033 26.1936 73.07C26.3803 72.63 26.6436 72.25 26.9836 71.93C27.3236 71.6033 27.7236 71.35 28.1836 71.17C28.6436 70.99 29.1436 70.9 29.6836 70.9C30.2303 70.9 30.7303 70.99 31.1836 71.17C31.6436 71.35 32.0436 71.6033 32.3836 71.93C32.7236 72.25 32.987 72.63 33.1736 73.07C33.3603 73.5033 33.4536 73.98 33.4536 74.5C33.4536 75.02 33.3603 75.5 33.1736 75.94C32.987 76.38 32.7236 76.76 32.3836 77.08C32.0436 77.4 31.6436 77.65 31.1836 77.83C30.7303 78.01 30.2336 78.1 29.6936 78.1ZM29.6836 76.96C30.037 76.96 30.3636 76.9 30.6636 76.78C30.9636 76.66 31.2236 76.49 31.4436 76.27C31.6636 76.0433 31.8336 75.7833 31.9536 75.49C32.0803 75.19 32.1436 74.86 32.1436 74.5C32.1436 74.14 32.0803 73.8133 31.9536 73.52C31.8336 73.22 31.6636 72.96 31.4436 72.74C31.2236 72.5133 30.9636 72.34 30.6636 72.22C30.3636 72.1 30.037 72.04 29.6836 72.04C29.3303 72.04 29.0036 72.1 28.7036 72.22C28.4103 72.34 28.1503 72.5133 27.9236 72.74C27.7036 72.96 27.5303 73.22 27.4036 73.52C27.2836 73.8133 27.2236 74.14 27.2236 74.5C27.2236 74.8533 27.2836 75.18 27.4036 75.48C27.5303 75.78 27.7036 76.0433 27.9236 76.27C28.1436 76.49 28.4036 76.66 28.7036 76.78C29.0036 76.9 29.3303 76.96 29.6836 76.96ZM36.6868 78L33.6268 71H35.0368L37.7668 77.33H36.9568L39.7168 71H41.0168L37.9668 78H36.6868ZM42.9554 73.91H46.4354V74.98H42.9554V73.91ZM43.0554 76.91H47.0054V78H41.7554V71H46.8654V72.09H43.0554V76.91ZM48.4546 78V71H51.3346C51.9546 71 52.4846 71.1 52.9246 71.3C53.3713 71.5 53.7146 71.7867 53.9546 72.16C54.1946 72.5333 54.3146 72.9767 54.3146 73.49C54.3146 74.0033 54.1946 74.4467 53.9546 74.82C53.7146 75.1867 53.3713 75.47 52.9246 75.67C52.4846 75.8633 51.9546 75.96 51.3346 75.96H49.1746L49.7546 75.37V78H48.4546ZM53.0346 78L51.2646 75.46H52.6546L54.4346 78H53.0346ZM49.7546 75.51L49.1746 74.89H51.2746C51.848 74.89 52.278 74.7667 52.5646 74.52C52.858 74.2733 53.0046 73.93 53.0046 73.49C53.0046 73.0433 52.858 72.7 52.5646 72.46C52.278 72.22 51.848 72.1 51.2746 72.1H49.1746L49.7546 71.46V75.51ZM54.7791 78L57.9291 71H59.2091L62.3691 78H61.0091L58.2991 71.69H58.8191L56.1191 78H54.7791ZM56.2291 76.38L56.5791 75.36H60.3591L60.7091 76.38H56.2291ZM66.4317 78.1C65.885 78.1 65.3817 78.0133 64.9217 77.84C64.4683 77.66 64.0717 77.41 63.7317 77.09C63.3917 76.7633 63.1283 76.38 62.9417 75.94C62.755 75.5 62.6617 75.02 62.6617 74.5C62.6617 73.98 62.755 73.5 62.9417 73.06C63.1283 72.62 63.3917 72.24 63.7317 71.92C64.0783 71.5933 64.4817 71.3433 64.9417 71.17C65.4017 70.99 65.905 70.9 66.4517 70.9C67.045 70.9 67.5783 70.9967 68.0517 71.19C68.5317 71.3833 68.935 71.6667 69.2617 72.04L68.4417 72.84C68.1683 72.5667 67.8717 72.3667 67.5517 72.24C67.2383 72.1067 66.8917 72.04 66.5117 72.04C66.145 72.04 65.805 72.1 65.4917 72.22C65.1783 72.34 64.9083 72.51 64.6817 72.73C64.455 72.95 64.2783 73.21 64.1517 73.51C64.0317 73.81 63.9717 74.14 63.9717 74.5C63.9717 74.8533 64.0317 75.18 64.1517 75.48C64.2783 75.78 64.455 76.0433 64.6817 76.27C64.9083 76.49 65.175 76.66 65.4817 76.78C65.7883 76.9 66.1283 76.96 66.5017 76.96C66.8483 76.96 67.1817 76.9067 67.5017 76.8C67.8283 76.6867 68.1383 76.5 68.4317 76.24L69.1717 77.21C68.805 77.5033 68.3783 77.7267 67.8917 77.88C67.4117 78.0267 66.925 78.1 66.4317 78.1ZM67.9417 77.04V74.42H69.1717V77.21L67.9417 77.04ZM72.0863 73.91H75.5663V74.98H72.0863V73.91ZM72.1863 76.91H76.1363V78H70.8863V71H75.9963V72.09H72.1863V76.91Z" fill="white"/>
<path d="M12.4426 83.04V85.524C12.4426 86.032 12.3086 86.416 12.0406 86.676C11.7726 86.932 11.3886 87.06 10.8886 87.06C10.3926 87.06 10.0086 86.932 9.73665 86.676C9.46865 86.416 9.33465 86.032 9.33465 85.524V83.04H9.81465V85.404C9.81465 85.816 9.90065 86.12 10.0726 86.316C10.2486 86.512 10.5206 86.61 10.8886 86.61C11.2566 86.61 11.5266 86.512 11.6986 86.316C11.8746 86.12 11.9626 85.816 11.9626 85.404V83.04H12.4426ZM13.5414 88.26V84H13.9614L14.0034 84.732L13.9374 84.648C13.9894 84.508 14.0674 84.386 14.1714 84.282C14.2754 84.174 14.4014 84.09 14.5494 84.03C14.6974 83.97 14.8574 83.94 15.0294 83.94C15.2734 83.94 15.4974 84.002 15.7014 84.126C15.9094 84.25 16.0754 84.428 16.1994 84.66C16.3234 84.892 16.3854 85.172 16.3854 85.5C16.3854 85.824 16.3214 86.104 16.1934 86.34C16.0694 86.572 15.9034 86.75 15.6954 86.874C15.4874 86.998 15.2594 87.06 15.0114 87.06C14.7634 87.06 14.5454 87 14.3574 86.88C14.1734 86.756 14.0414 86.6 13.9614 86.412L14.0214 86.322V88.26H13.5414ZM14.9634 86.64C15.2594 86.64 15.4894 86.536 15.6534 86.328C15.8214 86.12 15.9054 85.844 15.9054 85.5C15.9054 85.156 15.8234 84.88 15.6594 84.672C15.4994 84.464 15.2734 84.36 14.9814 84.36C14.7894 84.36 14.6214 84.408 14.4774 84.504C14.3334 84.596 14.2214 84.728 14.1414 84.9C14.0614 85.068 14.0214 85.268 14.0214 85.5C14.0214 85.728 14.0594 85.928 14.1354 86.1C14.2154 86.272 14.3254 86.406 14.4654 86.502C14.6094 86.594 14.7754 86.64 14.9634 86.64ZM19.2651 85.182V85.68H17.2851V85.182H19.2651ZM20.9056 83.148V86.172C20.9056 86.32 20.9476 86.43 21.0316 86.502C21.1156 86.574 21.2236 86.61 21.3556 86.61C21.4716 86.61 21.5716 86.59 21.6556 86.55C21.7396 86.51 21.8156 86.456 21.8836 86.388L22.0516 86.79C21.9596 86.874 21.8496 86.94 21.7216 86.988C21.5976 87.036 21.4536 87.06 21.2896 87.06C21.1376 87.06 20.9956 87.034 20.8636 86.982C20.7316 86.926 20.6256 86.84 20.5456 86.724C20.4696 86.604 20.4296 86.448 20.4256 86.256V83.28L20.9056 83.148ZM21.9976 84V84.414H19.8256V84H21.9976ZM23.9533 83.94C24.2373 83.94 24.4873 84.002 24.7033 84.126C24.9233 84.25 25.0953 84.43 25.2193 84.666C25.3433 84.898 25.4053 85.176 25.4053 85.5C25.4053 85.824 25.3433 86.104 25.2193 86.34C25.0953 86.572 24.9233 86.75 24.7033 86.874C24.4873 86.998 24.2373 87.06 23.9533 87.06C23.6733 87.06 23.4233 86.998 23.2033 86.874C22.9833 86.75 22.8113 86.572 22.6873 86.34C22.5633 86.104 22.5013 85.824 22.5013 85.5C22.5013 85.176 22.5633 84.898 22.6873 84.666C22.8113 84.43 22.9833 84.25 23.2033 84.126C23.4233 84.002 23.6733 83.94 23.9533 83.94ZM23.9533 84.354C23.7493 84.354 23.5753 84.4 23.4313 84.492C23.2873 84.584 23.1753 84.716 23.0953 84.888C23.0193 85.056 22.9813 85.26 22.9813 85.5C22.9813 85.736 23.0193 85.94 23.0953 86.112C23.1753 86.284 23.2873 86.416 23.4313 86.508C23.5753 86.6 23.7493 86.646 23.9533 86.646C24.1573 86.646 24.3313 86.6 24.4753 86.508C24.6193 86.416 24.7293 86.284 24.8053 86.112C24.8853 85.94 24.9253 85.736 24.9253 85.5C24.9253 85.26 24.8853 85.056 24.8053 84.888C24.7293 84.716 24.6193 84.584 24.4753 84.492C24.3313 84.4 24.1573 84.354 23.9533 84.354ZM28.271 85.182V85.68H26.291V85.182H28.271ZM30.5376 87.06C30.2896 87.06 30.0616 86.998 29.8536 86.874C29.6456 86.75 29.4796 86.572 29.3556 86.34C29.2316 86.104 29.1696 85.824 29.1696 85.5C29.1696 85.168 29.2356 84.886 29.3676 84.654C29.4996 84.422 29.6736 84.246 29.8896 84.126C30.1056 84.002 30.3376 83.94 30.5856 83.94C30.8336 83.94 31.0476 84.004 31.2276 84.132C31.4116 84.26 31.5336 84.43 31.5936 84.642L31.5336 84.684V82.62H32.0136V87H31.5936L31.5516 86.274L31.6176 86.238C31.5896 86.414 31.5216 86.564 31.4136 86.688C31.3096 86.808 31.1796 86.9 31.0236 86.964C30.8716 87.028 30.7096 87.06 30.5376 87.06ZM30.5856 86.64C30.7776 86.64 30.9436 86.592 31.0836 86.496C31.2276 86.4 31.3376 86.264 31.4136 86.088C31.4936 85.908 31.5336 85.698 31.5336 85.458C31.5336 85.23 31.4936 85.034 31.4136 84.87C31.3376 84.706 31.2296 84.58 31.0896 84.492C30.9536 84.404 30.7936 84.36 30.6096 84.36C30.3056 84.36 30.0696 84.464 29.9016 84.672C29.7336 84.88 29.6496 85.156 29.6496 85.5C29.6496 85.844 29.7316 86.12 29.8956 86.328C30.0596 86.536 30.2896 86.64 30.5856 86.64ZM34.8813 85.062C34.8813 84.838 34.8213 84.666 34.7013 84.546C34.5813 84.422 34.4113 84.36 34.1913 84.36C33.9833 84.36 33.8073 84.406 33.6633 84.498C33.5193 84.586 33.4133 84.73 33.3453 84.93L32.9553 84.69C33.0353 84.466 33.1833 84.286 33.3993 84.15C33.6153 84.01 33.8833 83.94 34.2033 83.94C34.4193 83.94 34.6153 83.978 34.7913 84.054C34.9673 84.126 35.1053 84.238 35.2053 84.39C35.3093 84.538 35.3613 84.73 35.3613 84.966V86.418C35.3613 86.562 35.4373 86.634 35.5893 86.634C35.6653 86.634 35.7393 86.624 35.8113 86.604L35.7873 86.982C35.7073 87.022 35.6033 87.042 35.4753 87.042C35.3593 87.042 35.2553 87.02 35.1633 86.976C35.0713 86.932 34.9993 86.866 34.9473 86.778C34.8953 86.686 34.8693 86.572 34.8693 86.436V86.376L34.9893 86.394C34.9413 86.55 34.8593 86.678 34.7433 86.778C34.6273 86.874 34.4973 86.946 34.3533 86.994C34.2093 87.038 34.0673 87.06 33.9273 87.06C33.7513 87.06 33.5873 87.03 33.4353 86.97C33.2833 86.91 33.1613 86.82 33.0693 86.7C32.9813 86.576 32.9373 86.424 32.9373 86.244C32.9373 86.02 33.0113 85.836 33.1593 85.692C33.3113 85.544 33.5213 85.444 33.7893 85.392L34.9773 85.158V85.554L34.0113 85.752C33.8153 85.792 33.6693 85.848 33.5733 85.92C33.4773 85.992 33.4293 86.092 33.4293 86.22C33.4293 86.344 33.4773 86.446 33.5733 86.526C33.6733 86.602 33.8133 86.64 33.9933 86.64C34.1093 86.64 34.2193 86.626 34.3233 86.598C34.4313 86.566 34.5273 86.52 34.6113 86.46C34.6953 86.396 34.7613 86.318 34.8093 86.226C34.8573 86.13 34.8813 86.018 34.8813 85.89V85.062ZM37.1185 83.148V86.172C37.1185 86.32 37.1605 86.43 37.2445 86.502C37.3285 86.574 37.4365 86.61 37.5685 86.61C37.6845 86.61 37.7845 86.59 37.8685 86.55C37.9525 86.51 38.0285 86.456 38.0965 86.388L38.2645 86.79C38.1725 86.874 38.0625 86.94 37.9345 86.988C37.8105 87.036 37.6665 87.06 37.5025 87.06C37.3505 87.06 37.2085 87.034 37.0765 86.982C36.9445 86.926 36.8385 86.84 36.7585 86.724C36.6825 86.604 36.6425 86.448 36.6385 86.256V83.28L37.1185 83.148ZM38.2105 84V84.414H36.0385V84H38.2105ZM40.1782 87.06C39.8942 87.06 39.6402 86.998 39.4162 86.874C39.1962 86.75 39.0242 86.572 38.9002 86.34C38.7762 86.104 38.7142 85.824 38.7142 85.5C38.7142 85.176 38.7762 84.898 38.9002 84.666C39.0242 84.43 39.1942 84.25 39.4102 84.126C39.6262 84.002 39.8722 83.94 40.1482 83.94C40.4282 83.94 40.6662 84 40.8622 84.12C41.0622 84.24 41.2142 84.404 41.3182 84.612C41.4222 84.816 41.4742 85.046 41.4742 85.302C41.4742 85.37 41.4722 85.432 41.4682 85.488C41.4642 85.544 41.4582 85.594 41.4502 85.638H39.0262V85.212H41.2402L40.9942 85.26C40.9942 84.972 40.9142 84.75 40.7542 84.594C40.5982 84.438 40.3922 84.36 40.1362 84.36C39.9402 84.36 39.7702 84.406 39.6262 84.498C39.4862 84.586 39.3762 84.716 39.2962 84.888C39.2202 85.056 39.1822 85.26 39.1822 85.5C39.1822 85.736 39.2222 85.94 39.3022 86.112C39.3822 86.284 39.4942 86.416 39.6382 86.508C39.7862 86.596 39.9622 86.64 40.1662 86.64C40.3862 86.64 40.5642 86.598 40.7002 86.514C40.8402 86.43 40.9522 86.316 41.0362 86.172L41.4142 86.394C41.3382 86.53 41.2402 86.648 41.1202 86.748C41.0042 86.848 40.8662 86.926 40.7062 86.982C40.5502 87.034 40.3742 87.06 40.1782 87.06ZM46.184 85.062C46.184 84.838 46.124 84.666 46.004 84.546C45.884 84.422 45.714 84.36 45.494 84.36C45.286 84.36 45.11 84.406 44.966 84.498C44.822 84.586 44.716 84.73 44.648 84.93L44.258 84.69C44.338 84.466 44.486 84.286 44.702 84.15C44.918 84.01 45.186 83.94 45.506 83.94C45.722 83.94 45.918 83.978 46.094 84.054C46.27 84.126 46.408 84.238 46.508 84.39C46.612 84.538 46.664 84.73 46.664 84.966V86.418C46.664 86.562 46.74 86.634 46.892 86.634C46.968 86.634 47.042 86.624 47.114 86.604L47.09 86.982C47.01 87.022 46.906 87.042 46.778 87.042C46.662 87.042 46.558 87.02 46.466 86.976C46.374 86.932 46.302 86.866 46.25 86.778C46.198 86.686 46.172 86.572 46.172 86.436V86.376L46.292 86.394C46.244 86.55 46.162 86.678 46.046 86.778C45.93 86.874 45.8 86.946 45.656 86.994C45.512 87.038 45.37 87.06 45.23 87.06C45.054 87.06 44.89 87.03 44.738 86.97C44.586 86.91 44.464 86.82 44.372 86.7C44.284 86.576 44.24 86.424 44.24 86.244C44.24 86.02 44.314 85.836 44.462 85.692C44.614 85.544 44.824 85.444 45.092 85.392L46.28 85.158V85.554L45.314 85.752C45.118 85.792 44.972 85.848 44.876 85.92C44.78 85.992 44.732 86.092 44.732 86.22C44.732 86.344 44.78 86.446 44.876 86.526C44.976 86.602 45.116 86.64 45.296 86.64C45.412 86.64 45.522 86.626 45.626 86.598C45.734 86.566 45.83 86.52 45.914 86.46C45.998 86.396 46.064 86.318 46.112 86.226C46.16 86.13 46.184 86.018 46.184 85.89V85.062ZM47.8305 87V84H48.2505L48.2925 84.672L48.2145 84.606C48.2785 84.446 48.3645 84.318 48.4725 84.222C48.5805 84.122 48.7045 84.05 48.8445 84.006C48.9885 83.962 49.1365 83.94 49.2885 83.94C49.5045 83.94 49.7005 83.982 49.8765 84.066C50.0525 84.146 50.1925 84.27 50.2965 84.438C50.4045 84.606 50.4585 84.82 50.4585 85.08V87H49.9785V85.248C49.9785 84.916 49.9065 84.686 49.7625 84.558C49.6225 84.426 49.4485 84.36 49.2405 84.36C49.0965 84.36 48.9525 84.394 48.8085 84.462C48.6645 84.53 48.5445 84.64 48.4485 84.792C48.3565 84.944 48.3105 85.148 48.3105 85.404V87H47.8305ZM52.7153 87.06C52.4673 87.06 52.2393 86.998 52.0313 86.874C51.8233 86.75 51.6573 86.572 51.5333 86.34C51.4093 86.104 51.3473 85.824 51.3473 85.5C51.3473 85.168 51.4133 84.886 51.5453 84.654C51.6773 84.422 51.8513 84.246 52.0673 84.126C52.2833 84.002 52.5153 83.94 52.7633 83.94C53.0113 83.94 53.2253 84.004 53.4053 84.132C53.5893 84.26 53.7113 84.43 53.7713 84.642L53.7113 84.684V82.62H54.1913V87H53.7713L53.7293 86.274L53.7953 86.238C53.7673 86.414 53.6993 86.564 53.5913 86.688C53.4873 86.808 53.3573 86.9 53.2013 86.964C53.0493 87.028 52.8873 87.06 52.7153 87.06ZM52.7633 86.64C52.9553 86.64 53.1213 86.592 53.2613 86.496C53.4053 86.4 53.5153 86.264 53.5913 86.088C53.6713 85.908 53.7113 85.698 53.7113 85.458C53.7113 85.23 53.6713 85.034 53.5913 84.87C53.5153 84.706 53.4073 84.58 53.2673 84.492C53.1313 84.404 52.9713 84.36 52.7873 84.36C52.4833 84.36 52.2473 84.464 52.0793 84.672C51.9113 84.88 51.8273 85.156 51.8273 85.5C51.8273 85.844 51.9093 86.12 52.0733 86.328C52.2373 86.536 52.4673 86.64 52.7633 86.64ZM59.1039 85.062C59.1039 84.838 59.0439 84.666 58.9239 84.546C58.8039 84.422 58.6339 84.36 58.4139 84.36C58.2059 84.36 58.0299 84.406 57.8859 84.498C57.7419 84.586 57.6359 84.73 57.5679 84.93L57.1779 84.69C57.2579 84.466 57.4059 84.286 57.6219 84.15C57.8379 84.01 58.1059 83.94 58.4259 83.94C58.6419 83.94 58.8379 83.978 59.0139 84.054C59.1899 84.126 59.3279 84.238 59.4279 84.39C59.5319 84.538 59.5839 84.73 59.5839 84.966V86.418C59.5839 86.562 59.6599 86.634 59.8119 86.634C59.8879 86.634 59.9619 86.624 60.0339 86.604L60.0099 86.982C59.9299 87.022 59.8259 87.042 59.6979 87.042C59.5819 87.042 59.4779 87.02 59.3859 86.976C59.2939 86.932 59.2219 86.866 59.1699 86.778C59.1179 86.686 59.0919 86.572 59.0919 86.436V86.376L59.2119 86.394C59.1639 86.55 59.0819 86.678 58.9659 86.778C58.8499 86.874 58.7199 86.946 58.5759 86.994C58.4319 87.038 58.2899 87.06 58.1499 87.06C57.9739 87.06 57.8099 87.03 57.6579 86.97C57.5059 86.91 57.3839 86.82 57.2919 86.7C57.2039 86.576 57.1599 86.424 57.1599 86.244C57.1599 86.02 57.2339 85.836 57.3819 85.692C57.5339 85.544 57.7439 85.444 58.0119 85.392L59.1999 85.158V85.554L58.2339 85.752C58.0379 85.792 57.8919 85.848 57.7959 85.92C57.6999 85.992 57.6519 86.092 57.6519 86.22C57.6519 86.344 57.6999 86.446 57.7959 86.526C57.8959 86.602 58.0359 86.64 58.2159 86.64C58.3319 86.64 58.4419 86.626 58.5459 86.598C58.6539 86.566 58.7499 86.52 58.8339 86.46C58.9179 86.396 58.9839 86.318 59.0319 86.226C59.0799 86.13 59.1039 86.018 59.1039 85.89V85.062ZM61.9924 83.94C62.2004 83.94 62.3824 83.972 62.5384 84.036C62.6984 84.1 62.8364 84.192 62.9524 84.312C63.0684 84.432 63.1624 84.574 63.2344 84.738L62.7784 84.954C62.7144 84.762 62.6164 84.616 62.4844 84.516C62.3564 84.412 62.1884 84.36 61.9804 84.36C61.7804 84.36 61.6084 84.406 61.4644 84.498C61.3204 84.586 61.2104 84.716 61.1344 84.888C61.0584 85.056 61.0204 85.26 61.0204 85.5C61.0204 85.736 61.0584 85.94 61.1344 86.112C61.2104 86.284 61.3204 86.416 61.4644 86.508C61.6084 86.596 61.7804 86.64 61.9804 86.64C62.1364 86.64 62.2704 86.616 62.3824 86.568C62.4984 86.52 62.5924 86.45 62.6644 86.358C62.7404 86.266 62.7924 86.154 62.8204 86.022L63.2644 86.178C63.1964 86.362 63.1024 86.52 62.9824 86.652C62.8664 86.784 62.7244 86.886 62.5564 86.958C62.3924 87.026 62.2044 87.06 61.9924 87.06C61.7124 87.06 61.4624 86.998 61.2424 86.874C61.0224 86.75 60.8504 86.572 60.7264 86.34C60.6024 86.104 60.5404 85.824 60.5404 85.5C60.5404 85.176 60.6024 84.898 60.7264 84.666C60.8504 84.43 61.0224 84.25 61.2424 84.126C61.4624 84.002 61.7124 83.94 61.9924 83.94ZM65.3498 83.94C65.5578 83.94 65.7398 83.972 65.8958 84.036C66.0558 84.1 66.1938 84.192 66.3098 84.312C66.4258 84.432 66.5198 84.574 66.5918 84.738L66.1358 84.954C66.0718 84.762 65.9738 84.616 65.8418 84.516C65.7138 84.412 65.5458 84.36 65.3378 84.36C65.1378 84.36 64.9658 84.406 64.8218 84.498C64.6778 84.586 64.5678 84.716 64.4918 84.888C64.4158 85.056 64.3778 85.26 64.3778 85.5C64.3778 85.736 64.4158 85.94 64.4918 86.112C64.5678 86.284 64.6778 86.416 64.8218 86.508C64.9658 86.596 65.1378 86.64 65.3378 86.64C65.4938 86.64 65.6278 86.616 65.7398 86.568C65.8558 86.52 65.9498 86.45 66.0218 86.358C66.0978 86.266 66.1498 86.154 66.1778 86.022L66.6218 86.178C66.5538 86.362 66.4598 86.52 66.3398 86.652C66.2238 86.784 66.0818 86.886 65.9138 86.958C65.7498 87.026 65.5618 87.06 65.3498 87.06C65.0698 87.06 64.8198 86.998 64.5998 86.874C64.3798 86.75 64.2078 86.572 64.0838 86.34C63.9598 86.104 63.8978 85.824 63.8978 85.5C63.8978 85.176 63.9598 84.898 64.0838 84.666C64.2078 84.43 64.3798 84.25 64.5998 84.126C64.8198 84.002 65.0698 83.94 65.3498 83.94ZM68.5512 87.06C68.3592 87.06 68.1772 87.024 68.0052 86.952C67.8372 86.88 67.6992 86.764 67.5912 86.604C67.4872 86.44 67.4352 86.228 67.4352 85.968V84H67.9152V85.842C67.9152 86.146 67.9812 86.356 68.1132 86.472C68.2452 86.584 68.4312 86.64 68.6712 86.64C68.7832 86.64 68.8932 86.622 69.0012 86.586C69.1092 86.546 69.2052 86.486 69.2892 86.406C69.3772 86.322 69.4452 86.216 69.4932 86.088C69.5452 85.96 69.5712 85.808 69.5712 85.632V84H70.0512V87H69.6312L69.6012 86.544C69.4972 86.724 69.3552 86.856 69.1752 86.94C68.9992 87.02 68.7912 87.06 68.5512 87.06ZM71.1684 87V84H71.5584L71.6244 84.492C71.7084 84.308 71.8304 84.17 71.9904 84.078C72.1544 83.986 72.3524 83.94 72.5844 83.94C72.6364 83.94 72.6924 83.944 72.7524 83.952C72.8164 83.96 72.8704 83.976 72.9144 84L72.8304 84.438C72.7864 84.422 72.7384 84.41 72.6864 84.402C72.6344 84.394 72.5604 84.39 72.4644 84.39C72.3404 84.39 72.2144 84.426 72.0864 84.498C71.9624 84.57 71.8584 84.68 71.7744 84.828C71.6904 84.972 71.6484 85.156 71.6484 85.38V87H71.1684ZM75.2875 85.062C75.2875 84.838 75.2275 84.666 75.1075 84.546C74.9875 84.422 74.8175 84.36 74.5975 84.36C74.3895 84.36 74.2135 84.406 74.0695 84.498C73.9255 84.586 73.8195 84.73 73.7515 84.93L73.3615 84.69C73.4415 84.466 73.5895 84.286 73.8055 84.15C74.0215 84.01 74.2895 83.94 74.6095 83.94C74.8255 83.94 75.0215 83.978 75.1975 84.054C75.3735 84.126 75.5115 84.238 75.6115 84.39C75.7155 84.538 75.7675 84.73 75.7675 84.966V86.418C75.7675 86.562 75.8435 86.634 75.9955 86.634C76.0715 86.634 76.1455 86.624 76.2175 86.604L76.1935 86.982C76.1135 87.022 76.0095 87.042 75.8815 87.042C75.7655 87.042 75.6615 87.02 75.5695 86.976C75.4775 86.932 75.4055 86.866 75.3535 86.778C75.3015 86.686 75.2755 86.572 75.2755 86.436V86.376L75.3955 86.394C75.3475 86.55 75.2655 86.678 75.1495 86.778C75.0335 86.874 74.9035 86.946 74.7595 86.994C74.6155 87.038 74.4735 87.06 74.3335 87.06C74.1575 87.06 73.9935 87.03 73.8415 86.97C73.6895 86.91 73.5675 86.82 73.4755 86.7C73.3875 86.576 73.3435 86.424 73.3435 86.244C73.3435 86.02 73.4175 85.836 73.5655 85.692C73.7175 85.544 73.9275 85.444 74.1955 85.392L75.3835 85.158V85.554L74.4175 85.752C74.2215 85.792 74.0755 85.848 73.9795 85.92C73.8835 85.992 73.8355 86.092 73.8355 86.22C73.8355 86.344 73.8835 86.446 73.9795 86.526C74.0795 86.602 74.2195 86.64 74.3995 86.64C74.5155 86.64 74.6255 86.626 74.7295 86.598C74.8375 86.566 74.9335 86.52 75.0175 86.46C75.1015 86.396 75.1675 86.318 75.2155 86.226C75.2635 86.13 75.2875 86.018 75.2875 85.89V85.062ZM77.5248 83.148V86.172C77.5248 86.32 77.5668 86.43 77.6508 86.502C77.7348 86.574 77.8428 86.61 77.9748 86.61C78.0908 86.61 78.1908 86.59 78.2748 86.55C78.3588 86.51 78.4348 86.456 78.5028 86.388L78.6708 86.79C78.5788 86.874 78.4688 86.94 78.3408 86.988C78.2168 87.036 78.0728 87.06 77.9088 87.06C77.7568 87.06 77.6148 87.034 77.4828 86.982C77.3508 86.926 77.2448 86.84 77.1648 86.724C77.0888 86.604 77.0488 86.448 77.0448 86.256V83.28L77.5248 83.148ZM78.6168 84V84.414H76.4448V84H78.6168ZM80.5845 87.06C80.3005 87.06 80.0465 86.998 79.8225 86.874C79.6025 86.75 79.4305 86.572 79.3065 86.34C79.1825 86.104 79.1205 85.824 79.1205 85.5C79.1205 85.176 79.1825 84.898 79.3065 84.666C79.4305 84.43 79.6005 84.25 79.8165 84.126C80.0325 84.002 80.2785 83.94 80.5545 83.94C80.8345 83.94 81.0725 84 81.2685 84.12C81.4685 84.24 81.6205 84.404 81.7245 84.612C81.8285 84.816 81.8805 85.046 81.8805 85.302C81.8805 85.37 81.8785 85.432 81.8745 85.488C81.8705 85.544 81.8645 85.594 81.8565 85.638H79.4325V85.212H81.6465L81.4005 85.26C81.4005 84.972 81.3205 84.75 81.1605 84.594C81.0045 84.438 80.7985 84.36 80.5425 84.36C80.3465 84.36 80.1765 84.406 80.0325 84.498C79.8925 84.586 79.7825 84.716 79.7025 84.888C79.6265 85.056 79.5885 85.26 79.5885 85.5C79.5885 85.736 79.6285 85.94 79.7085 86.112C79.7885 86.284 79.9005 86.416 80.0445 86.508C80.1925 86.596 80.3685 86.64 80.5725 86.64C80.7925 86.64 80.9705 86.598 81.1065 86.514C81.2465 86.43 81.3585 86.316 81.4425 86.172L81.8205 86.394C81.7445 86.53 81.6465 86.648 81.5265 86.748C81.4105 86.848 81.2725 86.926 81.1125 86.982C80.9565 87.034 80.7805 87.06 80.5845 87.06ZM6.01135 88.59C6.11535 88.59 6.21335 88.602 6.30535 88.626C6.39735 88.65 6.46935 88.684 6.52135 88.728L6.39535 89.118C6.34735 89.086 6.29535 89.064 6.23935 89.052C6.18335 89.036 6.12135 89.028 6.05335 89.028C5.88135 89.028 5.74735 89.07 5.65135 89.154C5.55535 89.234 5.50735 89.364 5.50735 89.544V90V90.156V93H5.02735V89.496C5.02735 89.364 5.04735 89.242 5.08735 89.13C5.12735 89.018 5.18735 88.922 5.26735 88.842C5.35135 88.762 5.45535 88.7 5.57935 88.656C5.70335 88.612 5.84735 88.59 6.01135 88.59ZM6.50935 90V90.414H4.42735V90H6.50935ZM7.39135 89.424C7.28335 89.424 7.19535 89.392 7.12735 89.328C7.06335 89.26 7.03135 89.172 7.03135 89.064C7.03135 88.956 7.06335 88.87 7.12735 88.806C7.19535 88.738 7.28335 88.704 7.39135 88.704C7.49935 88.704 7.58535 88.738 7.64935 88.806C7.71735 88.87 7.75135 88.956 7.75135 89.064C7.75135 89.172 7.71735 89.26 7.64935 89.328C7.58535 89.392 7.49935 89.424 7.39135 89.424ZM7.63135 90V93H7.15135V90H7.63135ZM8.74843 93V90H9.16843L9.21043 90.672L9.13243 90.606C9.19643 90.446 9.28243 90.318 9.39043 90.222C9.49843 90.122 9.62243 90.05 9.76243 90.006C9.90643 89.962 10.0544 89.94 10.2064 89.94C10.4224 89.94 10.6184 89.982 10.7944 90.066C10.9704 90.146 11.1104 90.27 11.2144 90.438C11.3224 90.606 11.3764 90.82 11.3764 91.08V93H10.8964V91.248C10.8964 90.916 10.8244 90.686 10.6804 90.558C10.5404 90.426 10.3664 90.36 10.1584 90.36C10.0144 90.36 9.87043 90.394 9.72643 90.462C9.58243 90.53 9.46243 90.64 9.36643 90.792C9.27443 90.944 9.22843 91.148 9.22843 91.404V93H8.74843ZM14.2153 91.062C14.2153 90.838 14.1553 90.666 14.0353 90.546C13.9153 90.422 13.7453 90.36 13.5253 90.36C13.3173 90.36 13.1413 90.406 12.9973 90.498C12.8533 90.586 12.7473 90.73 12.6793 90.93L12.2893 90.69C12.3693 90.466 12.5173 90.286 12.7333 90.15C12.9493 90.01 13.2173 89.94 13.5373 89.94C13.7533 89.94 13.9493 89.978 14.1253 90.054C14.3013 90.126 14.4393 90.238 14.5393 90.39C14.6433 90.538 14.6953 90.73 14.6953 90.966V92.418C14.6953 92.562 14.7713 92.634 14.9233 92.634C14.9993 92.634 15.0733 92.624 15.1453 92.604L15.1213 92.982C15.0413 93.022 14.9373 93.042 14.8093 93.042C14.6933 93.042 14.5893 93.02 14.4973 92.976C14.4053 92.932 14.3333 92.866 14.2813 92.778C14.2293 92.686 14.2033 92.572 14.2033 92.436V92.376L14.3233 92.394C14.2753 92.55 14.1933 92.678 14.0773 92.778C13.9613 92.874 13.8313 92.946 13.6873 92.994C13.5433 93.038 13.4013 93.06 13.2613 93.06C13.0853 93.06 12.9213 93.03 12.7693 92.97C12.6173 92.91 12.4953 92.82 12.4033 92.7C12.3153 92.576 12.2713 92.424 12.2713 92.244C12.2713 92.02 12.3453 91.836 12.4933 91.692C12.6453 91.544 12.8553 91.444 13.1233 91.392L14.3113 91.158V91.554L13.3453 91.752C13.1493 91.792 13.0033 91.848 12.9073 91.92C12.8113 91.992 12.7633 92.092 12.7633 92.22C12.7633 92.344 12.8113 92.446 12.9073 92.526C13.0073 92.602 13.1473 92.64 13.3273 92.64C13.4433 92.64 13.5533 92.626 13.6573 92.598C13.7653 92.566 13.8613 92.52 13.9453 92.46C14.0293 92.396 14.0953 92.318 14.1433 92.226C14.1913 92.13 14.2153 92.018 14.2153 91.89V91.062ZM15.8617 93V90H16.2817L16.3237 90.672L16.2457 90.606C16.3097 90.446 16.3957 90.318 16.5037 90.222C16.6117 90.122 16.7357 90.05 16.8757 90.006C17.0197 89.962 17.1677 89.94 17.3197 89.94C17.5357 89.94 17.7317 89.982 17.9077 90.066C18.0837 90.146 18.2237 90.27 18.3277 90.438C18.4357 90.606 18.4897 90.82 18.4897 91.08V93H18.0097V91.248C18.0097 90.916 17.9377 90.686 17.7937 90.558C17.6537 90.426 17.4797 90.36 17.2717 90.36C17.1277 90.36 16.9837 90.394 16.8397 90.462C16.6957 90.53 16.5757 90.64 16.4797 90.792C16.3877 90.944 16.3417 91.148 16.3417 91.404V93H15.8617ZM20.8186 89.94C21.0266 89.94 21.2086 89.972 21.3646 90.036C21.5246 90.1 21.6626 90.192 21.7786 90.312C21.8946 90.432 21.9886 90.574 22.0606 90.738L21.6046 90.954C21.5406 90.762 21.4426 90.616 21.3106 90.516C21.1826 90.412 21.0146 90.36 20.8066 90.36C20.6066 90.36 20.4346 90.406 20.2906 90.498C20.1466 90.586 20.0366 90.716 19.9606 90.888C19.8846 91.056 19.8466 91.26 19.8466 91.5C19.8466 91.736 19.8846 91.94 19.9606 92.112C20.0366 92.284 20.1466 92.416 20.2906 92.508C20.4346 92.596 20.6066 92.64 20.8066 92.64C20.9626 92.64 21.0966 92.616 21.2086 92.568C21.3246 92.52 21.4186 92.45 21.4906 92.358C21.5666 92.266 21.6186 92.154 21.6466 92.022L22.0906 92.178C22.0226 92.362 21.9286 92.52 21.8086 92.652C21.6926 92.784 21.5506 92.886 21.3826 92.958C21.2186 93.026 21.0306 93.06 20.8186 93.06C20.5386 93.06 20.2886 92.998 20.0686 92.874C19.8486 92.75 19.6766 92.572 19.5526 92.34C19.4286 92.104 19.3666 91.824 19.3666 91.5C19.3666 91.176 19.4286 90.898 19.5526 90.666C19.6766 90.43 19.8486 90.25 20.0686 90.126C20.2886 90.002 20.5386 89.94 20.8186 89.94ZM23.174 89.424C23.066 89.424 22.978 89.392 22.91 89.328C22.846 89.26 22.814 89.172 22.814 89.064C22.814 88.956 22.846 88.87 22.91 88.806C22.978 88.738 23.066 88.704 23.174 88.704C23.282 88.704 23.368 88.738 23.432 88.806C23.5 88.87 23.534 88.956 23.534 89.064C23.534 89.172 23.5 89.26 23.432 89.328C23.368 89.392 23.282 89.424 23.174 89.424ZM23.414 90V93H22.934V90H23.414ZM26.2797 91.062C26.2797 90.838 26.2197 90.666 26.0997 90.546C25.9797 90.422 25.8097 90.36 25.5897 90.36C25.3817 90.36 25.2057 90.406 25.0617 90.498C24.9177 90.586 24.8117 90.73 24.7437 90.93L24.3537 90.69C24.4337 90.466 24.5817 90.286 24.7977 90.15C25.0137 90.01 25.2817 89.94 25.6017 89.94C25.8177 89.94 26.0137 89.978 26.1897 90.054C26.3657 90.126 26.5037 90.238 26.6037 90.39C26.7077 90.538 26.7597 90.73 26.7597 90.966V92.418C26.7597 92.562 26.8357 92.634 26.9877 92.634C27.0637 92.634 27.1377 92.624 27.2097 92.604L27.1857 92.982C27.1057 93.022 27.0017 93.042 26.8737 93.042C26.7577 93.042 26.6537 93.02 26.5617 92.976C26.4697 92.932 26.3977 92.866 26.3457 92.778C26.2937 92.686 26.2677 92.572 26.2677 92.436V92.376L26.3877 92.394C26.3397 92.55 26.2577 92.678 26.1417 92.778C26.0257 92.874 25.8957 92.946 25.7517 92.994C25.6077 93.038 25.4657 93.06 25.3257 93.06C25.1497 93.06 24.9857 93.03 24.8337 92.97C24.6817 92.91 24.5597 92.82 24.4677 92.7C24.3797 92.576 24.3357 92.424 24.3357 92.244C24.3357 92.02 24.4097 91.836 24.5577 91.692C24.7097 91.544 24.9197 91.444 25.1877 91.392L26.3757 91.158V91.554L25.4097 91.752C25.2137 91.792 25.0677 91.848 24.9717 91.92C24.8757 91.992 24.8277 92.092 24.8277 92.22C24.8277 92.344 24.8757 92.446 24.9717 92.526C25.0717 92.602 25.2117 92.64 25.3917 92.64C25.5077 92.64 25.6177 92.626 25.7217 92.598C25.8297 92.566 25.9257 92.52 26.0097 92.46C26.0937 92.396 26.1597 92.318 26.2077 92.226C26.2557 92.13 26.2797 92.018 26.2797 91.89V91.062ZM28.3822 88.62V92.238C28.3822 92.39 28.4102 92.496 28.4662 92.556C28.5222 92.612 28.6122 92.64 28.7362 92.64C28.8162 92.64 28.8822 92.634 28.9342 92.622C28.9862 92.61 29.0562 92.588 29.1442 92.556L29.0662 92.976C29.0022 93.004 28.9322 93.024 28.8562 93.036C28.7802 93.052 28.7022 93.06 28.6222 93.06C28.3782 93.06 28.1962 92.994 28.0762 92.862C27.9602 92.73 27.9022 92.528 27.9022 92.256V88.62H28.3822ZM32.7641 93.06C32.5161 93.06 32.2881 92.998 32.0801 92.874C31.8721 92.75 31.7061 92.572 31.5821 92.34C31.4581 92.104 31.3961 91.824 31.3961 91.5C31.3961 91.168 31.4621 90.886 31.5941 90.654C31.7261 90.422 31.9001 90.246 32.1161 90.126C32.3321 90.002 32.5641 89.94 32.8121 89.94C33.0601 89.94 33.2741 90.004 33.4541 90.132C33.6381 90.26 33.7601 90.43 33.8201 90.642L33.7601 90.684V88.62H34.2401V93H33.8201L33.7781 92.274L33.8441 92.238C33.8161 92.414 33.7481 92.564 33.6401 92.688C33.5361 92.808 33.4061 92.9 33.2501 92.964C33.0981 93.028 32.9361 93.06 32.7641 93.06ZM32.8121 92.64C33.0041 92.64 33.1701 92.592 33.3101 92.496C33.4541 92.4 33.5641 92.264 33.6401 92.088C33.7201 91.908 33.7601 91.698 33.7601 91.458C33.7601 91.23 33.7201 91.034 33.6401 90.87C33.5641 90.706 33.4561 90.58 33.3161 90.492C33.1801 90.404 33.0201 90.36 32.8361 90.36C32.5321 90.36 32.2961 90.464 32.1281 90.672C31.9601 90.88 31.8761 91.156 31.8761 91.5C31.8761 91.844 31.9581 92.12 32.1221 92.328C32.2861 92.536 32.5161 92.64 32.8121 92.64ZM37.1079 91.062C37.1079 90.838 37.0479 90.666 36.9279 90.546C36.8079 90.422 36.6379 90.36 36.4179 90.36C36.2099 90.36 36.0339 90.406 35.8899 90.498C35.7459 90.586 35.6399 90.73 35.5719 90.93L35.1819 90.69C35.2619 90.466 35.4099 90.286 35.6259 90.15C35.8419 90.01 36.1099 89.94 36.4299 89.94C36.6459 89.94 36.8419 89.978 37.0179 90.054C37.1939 90.126 37.3319 90.238 37.4319 90.39C37.5359 90.538 37.5879 90.73 37.5879 90.966V92.418C37.5879 92.562 37.6639 92.634 37.8159 92.634C37.8919 92.634 37.9659 92.624 38.0379 92.604L38.0139 92.982C37.9339 93.022 37.8299 93.042 37.7019 93.042C37.5859 93.042 37.4819 93.02 37.3899 92.976C37.2979 92.932 37.2259 92.866 37.1739 92.778C37.1219 92.686 37.0959 92.572 37.0959 92.436V92.376L37.2159 92.394C37.1679 92.55 37.0859 92.678 36.9699 92.778C36.8539 92.874 36.7239 92.946 36.5799 92.994C36.4359 93.038 36.2939 93.06 36.1539 93.06C35.9779 93.06 35.8139 93.03 35.6619 92.97C35.5099 92.91 35.3879 92.82 35.2959 92.7C35.2079 92.576 35.1639 92.424 35.1639 92.244C35.1639 92.02 35.2379 91.836 35.3859 91.692C35.5379 91.544 35.7479 91.444 36.0159 91.392L37.2039 91.158V91.554L36.2379 91.752C36.0419 91.792 35.8959 91.848 35.7999 91.92C35.7039 91.992 35.6559 92.092 35.6559 92.22C35.6559 92.344 35.7039 92.446 35.7999 92.526C35.8999 92.602 36.0399 92.64 36.2199 92.64C36.3359 92.64 36.4459 92.626 36.5499 92.598C36.6579 92.566 36.7539 92.52 36.8379 92.46C36.9219 92.396 36.9879 92.318 37.0359 92.226C37.0839 92.13 37.1079 92.018 37.1079 91.89V91.062ZM39.3451 89.148V92.172C39.3451 92.32 39.3871 92.43 39.4711 92.502C39.5551 92.574 39.6631 92.61 39.7951 92.61C39.9111 92.61 40.0111 92.59 40.0951 92.55C40.1791 92.51 40.2551 92.456 40.3231 92.388L40.4911 92.79C40.3991 92.874 40.2891 92.94 40.1611 92.988C40.0371 93.036 39.8931 93.06 39.7291 93.06C39.5771 93.06 39.4351 93.034 39.3031 92.982C39.1711 92.926 39.0651 92.84 38.9851 92.724C38.9091 92.604 38.8691 92.448 38.8651 92.256V89.28L39.3451 89.148ZM40.4371 90V90.414H38.2651V90H40.4371ZM42.9028 91.062C42.9028 90.838 42.8428 90.666 42.7228 90.546C42.6028 90.422 42.4328 90.36 42.2128 90.36C42.0048 90.36 41.8288 90.406 41.6848 90.498C41.5408 90.586 41.4348 90.73 41.3668 90.93L40.9768 90.69C41.0568 90.466 41.2048 90.286 41.4208 90.15C41.6368 90.01 41.9048 89.94 42.2248 89.94C42.4408 89.94 42.6368 89.978 42.8128 90.054C42.9888 90.126 43.1268 90.238 43.2268 90.39C43.3308 90.538 43.3828 90.73 43.3828 90.966V92.418C43.3828 92.562 43.4588 92.634 43.6108 92.634C43.6868 92.634 43.7608 92.624 43.8328 92.604L43.8088 92.982C43.7288 93.022 43.6248 93.042 43.4968 93.042C43.3808 93.042 43.2768 93.02 43.1848 92.976C43.0928 92.932 43.0208 92.866 42.9688 92.778C42.9168 92.686 42.8908 92.572 42.8908 92.436V92.376L43.0108 92.394C42.9628 92.55 42.8808 92.678 42.7648 92.778C42.6488 92.874 42.5188 92.946 42.3748 92.994C42.2308 93.038 42.0888 93.06 41.9488 93.06C41.7728 93.06 41.6088 93.03 41.4568 92.97C41.3048 92.91 41.1828 92.82 41.0908 92.7C41.0028 92.576 40.9588 92.424 40.9588 92.244C40.9588 92.02 41.0328 91.836 41.1808 91.692C41.3328 91.544 41.5428 91.444 41.8108 91.392L42.9988 91.158V91.554L42.0328 91.752C41.8368 91.792 41.6908 91.848 41.5948 91.92C41.4988 91.992 41.4508 92.092 41.4508 92.22C41.4508 92.344 41.4988 92.446 41.5948 92.526C41.6948 92.602 41.8348 92.64 42.0148 92.64C42.1308 92.64 42.2408 92.626 42.3448 92.598C42.4528 92.566 42.5488 92.52 42.6328 92.46C42.7168 92.396 42.7828 92.318 42.8308 92.226C42.8788 92.13 42.9028 92.018 42.9028 91.89V91.062ZM47.5602 88.59C47.6642 88.59 47.7622 88.602 47.8542 88.626C47.9462 88.65 48.0182 88.684 48.0702 88.728L47.9442 89.118C47.8962 89.086 47.8442 89.064 47.7882 89.052C47.7322 89.036 47.6702 89.028 47.6022 89.028C47.4302 89.028 47.2962 89.07 47.2002 89.154C47.1042 89.234 47.0562 89.364 47.0562 89.544V90V90.156V93H46.5762V89.496C46.5762 89.364 46.5962 89.242 46.6362 89.13C46.6762 89.018 46.7362 88.922 46.8162 88.842C46.9002 88.762 47.0042 88.7 47.1282 88.656C47.2522 88.612 47.3962 88.59 47.5602 88.59ZM48.0582 90V90.414H45.9762V90H48.0582ZM49.8576 89.94C50.1416 89.94 50.3916 90.002 50.6076 90.126C50.8276 90.25 50.9996 90.43 51.1236 90.666C51.2476 90.898 51.3096 91.176 51.3096 91.5C51.3096 91.824 51.2476 92.104 51.1236 92.34C50.9996 92.572 50.8276 92.75 50.6076 92.874C50.3916 92.998 50.1416 93.06 49.8576 93.06C49.5776 93.06 49.3276 92.998 49.1076 92.874C48.8876 92.75 48.7156 92.572 48.5916 92.34C48.4676 92.104 48.4056 91.824 48.4056 91.5C48.4056 91.176 48.4676 90.898 48.5916 90.666C48.7156 90.43 48.8876 90.25 49.1076 90.126C49.3276 90.002 49.5776 89.94 49.8576 89.94ZM49.8576 90.354C49.6536 90.354 49.4796 90.4 49.3356 90.492C49.1916 90.584 49.0796 90.716 48.9996 90.888C48.9236 91.056 48.8856 91.26 48.8856 91.5C48.8856 91.736 48.9236 91.94 48.9996 92.112C49.0796 92.284 49.1916 92.416 49.3356 92.508C49.4796 92.6 49.6536 92.646 49.8576 92.646C50.0616 92.646 50.2356 92.6 50.3796 92.508C50.5236 92.416 50.6336 92.284 50.7096 92.112C50.7896 91.94 50.8296 91.736 50.8296 91.5C50.8296 91.26 50.7896 91.056 50.7096 90.888C50.6336 90.716 50.5236 90.584 50.3796 90.492C50.2356 90.4 50.0616 90.354 49.8576 90.354ZM52.2133 93V90H52.6033L52.6693 90.492C52.7533 90.308 52.8753 90.17 53.0353 90.078C53.1993 89.986 53.3973 89.94 53.6293 89.94C53.6813 89.94 53.7373 89.944 53.7973 89.952C53.8613 89.96 53.9153 89.976 53.9593 90L53.8753 90.438C53.8313 90.422 53.7833 90.41 53.7313 90.402C53.6793 90.394 53.6053 90.39 53.5093 90.39C53.3853 90.39 53.2593 90.426 53.1313 90.498C53.0073 90.57 52.9033 90.68 52.8193 90.828C52.7353 90.972 52.6933 91.156 52.6933 91.38V93H52.2133ZM57.1576 89.148V92.172C57.1576 92.32 57.1996 92.43 57.2836 92.502C57.3676 92.574 57.4756 92.61 57.6076 92.61C57.7236 92.61 57.8236 92.59 57.9076 92.55C57.9916 92.51 58.0676 92.456 58.1356 92.388L58.3036 92.79C58.2116 92.874 58.1016 92.94 57.9736 92.988C57.8496 93.036 57.7056 93.06 57.5416 93.06C57.3896 93.06 57.2476 93.034 57.1156 92.982C56.9836 92.926 56.8776 92.84 56.7976 92.724C56.7216 92.604 56.6816 92.448 56.6776 92.256V89.28L57.1576 89.148ZM58.2496 90V90.414H56.0776V90H58.2496ZM58.9633 93V88.62H59.4433V90.45C59.5473 90.27 59.6853 90.14 59.8573 90.06C60.0293 89.98 60.2173 89.94 60.4213 89.94C60.6373 89.94 60.8333 89.982 61.0093 90.066C61.1853 90.146 61.3253 90.27 61.4293 90.438C61.5373 90.606 61.5913 90.82 61.5913 91.08V93H61.1113V91.248C61.1113 90.916 61.0393 90.686 60.8953 90.558C60.7553 90.426 60.5813 90.36 60.3733 90.36C60.2293 90.36 60.0853 90.394 59.9413 90.462C59.7973 90.53 59.6773 90.642 59.5813 90.798C59.4893 90.95 59.4433 91.154 59.4433 91.41V93H58.9633ZM63.9321 93.06C63.6481 93.06 63.3941 92.998 63.1701 92.874C62.9501 92.75 62.7781 92.572 62.6541 92.34C62.5301 92.104 62.4681 91.824 62.4681 91.5C62.4681 91.176 62.5301 90.898 62.6541 90.666C62.7781 90.43 62.9481 90.25 63.1641 90.126C63.3801 90.002 63.6261 89.94 63.9021 89.94C64.1821 89.94 64.4201 90 64.6161 90.12C64.8161 90.24 64.9681 90.404 65.0721 90.612C65.1761 90.816 65.2281 91.046 65.2281 91.302C65.2281 91.37 65.2261 91.432 65.2221 91.488C65.2181 91.544 65.2121 91.594 65.2041 91.638H62.7801V91.212H64.9941L64.7481 91.26C64.7481 90.972 64.6681 90.75 64.5081 90.594C64.3521 90.438 64.1461 90.36 63.8901 90.36C63.6941 90.36 63.5241 90.406 63.3801 90.498C63.2401 90.586 63.1301 90.716 63.0501 90.888C62.9741 91.056 62.9361 91.26 62.9361 91.5C62.9361 91.736 62.9761 91.94 63.0561 92.112C63.1361 92.284 63.2481 92.416 63.3921 92.508C63.5401 92.596 63.7161 92.64 63.9201 92.64C64.1401 92.64 64.3181 92.598 64.4541 92.514C64.5941 92.43 64.7061 92.316 64.7901 92.172L65.1681 92.394C65.0921 92.53 64.9941 92.648 64.8741 92.748C64.7581 92.848 64.6201 92.926 64.4601 92.982C64.3041 93.034 64.1281 93.06 63.9321 93.06ZM69.2659 93.06C68.9739 93.06 68.7039 92.998 68.4559 92.874C68.2119 92.75 68.0239 92.574 67.8919 92.346L68.2999 92.052C68.3879 92.236 68.5159 92.38 68.6839 92.484C68.8559 92.588 69.0619 92.64 69.3019 92.64C69.5139 92.64 69.6799 92.6 69.7999 92.52C69.9199 92.436 69.9799 92.328 69.9799 92.196C69.9799 92.112 69.9519 92.036 69.8959 91.968C69.8439 91.896 69.7419 91.844 69.5899 91.812L68.8699 91.662C68.5779 91.602 68.3679 91.502 68.2399 91.362C68.1159 91.222 68.0539 91.048 68.0539 90.84C68.0539 90.676 68.0999 90.526 68.1919 90.39C68.2879 90.254 68.4219 90.146 68.5939 90.066C68.7699 89.982 68.9759 89.94 69.2119 89.94C69.5079 89.94 69.7579 89.998 69.9619 90.114C70.1659 90.23 70.3179 90.394 70.4179 90.606L70.0159 90.87C69.9479 90.694 69.8379 90.566 69.6859 90.486C69.5339 90.402 69.3759 90.36 69.2119 90.36C69.0679 90.36 68.9439 90.38 68.8399 90.42C68.7399 90.46 68.6619 90.516 68.6059 90.588C68.5539 90.656 68.5279 90.734 68.5279 90.822C68.5279 90.91 68.5579 90.992 68.6179 91.068C68.6779 91.14 68.7899 91.192 68.9539 91.224L69.7039 91.38C69.9839 91.436 70.1799 91.528 70.2919 91.656C70.4039 91.784 70.4599 91.94 70.4599 92.124C70.4599 92.312 70.4099 92.478 70.3099 92.622C70.2099 92.762 70.0699 92.87 69.8899 92.946C69.7099 93.022 69.5019 93.06 69.2659 93.06ZM72.058 89.148V92.172C72.058 92.32 72.1 92.43 72.184 92.502C72.268 92.574 72.376 92.61 72.508 92.61C72.624 92.61 72.724 92.59 72.808 92.55C72.892 92.51 72.968 92.456 73.036 92.388L73.204 92.79C73.112 92.874 73.002 92.94 72.874 92.988C72.75 93.036 72.606 93.06 72.442 93.06C72.29 93.06 72.148 93.034 72.016 92.982C71.884 92.926 71.778 92.84 71.698 92.724C71.622 92.604 71.582 92.448 71.578 92.256V89.28L72.058 89.148ZM73.15 90V90.414H70.978V90H73.15ZM75.1057 89.94C75.3897 89.94 75.6397 90.002 75.8557 90.126C76.0757 90.25 76.2477 90.43 76.3717 90.666C76.4957 90.898 76.5577 91.176 76.5577 91.5C76.5577 91.824 76.4957 92.104 76.3717 92.34C76.2477 92.572 76.0757 92.75 75.8557 92.874C75.6397 92.998 75.3897 93.06 75.1057 93.06C74.8257 93.06 74.5757 92.998 74.3557 92.874C74.1357 92.75 73.9637 92.572 73.8397 92.34C73.7157 92.104 73.6537 91.824 73.6537 91.5C73.6537 91.176 73.7157 90.898 73.8397 90.666C73.9637 90.43 74.1357 90.25 74.3557 90.126C74.5757 90.002 74.8257 89.94 75.1057 89.94ZM75.1057 90.354C74.9017 90.354 74.7277 90.4 74.5837 90.492C74.4397 90.584 74.3277 90.716 74.2477 90.888C74.1717 91.056 74.1337 91.26 74.1337 91.5C74.1337 91.736 74.1717 91.94 74.2477 92.112C74.3277 92.284 74.4397 92.416 74.5837 92.508C74.7277 92.6 74.9017 92.646 75.1057 92.646C75.3097 92.646 75.4837 92.6 75.6277 92.508C75.7717 92.416 75.8817 92.284 75.9577 92.112C76.0377 91.94 76.0777 91.736 76.0777 91.5C76.0777 91.26 76.0377 91.056 75.9577 90.888C75.8817 90.716 75.7717 90.584 75.6277 90.492C75.4837 90.4 75.3097 90.354 75.1057 90.354ZM78.7033 89.94C78.9113 89.94 79.0933 89.972 79.2493 90.036C79.4093 90.1 79.5473 90.192 79.6633 90.312C79.7793 90.432 79.8733 90.574 79.9453 90.738L79.4893 90.954C79.4253 90.762 79.3273 90.616 79.1953 90.516C79.0673 90.412 78.8993 90.36 78.6913 90.36C78.4913 90.36 78.3193 90.406 78.1753 90.498C78.0313 90.586 77.9213 90.716 77.8453 90.888C77.7693 91.056 77.7313 91.26 77.7313 91.5C77.7313 91.736 77.7693 91.94 77.8453 92.112C77.9213 92.284 78.0313 92.416 78.1753 92.508C78.3193 92.596 78.4913 92.64 78.6913 92.64C78.8473 92.64 78.9813 92.616 79.0933 92.568C79.2093 92.52 79.3033 92.45 79.3753 92.358C79.4513 92.266 79.5033 92.154 79.5313 92.022L79.9753 92.178C79.9073 92.362 79.8133 92.52 79.6933 92.652C79.5773 92.784 79.4353 92.886 79.2673 92.958C79.1033 93.026 78.9153 93.06 78.7033 93.06C78.4233 93.06 78.1733 92.998 77.9533 92.874C77.7333 92.75 77.5613 92.572 77.4373 92.34C77.3133 92.104 77.2513 91.824 77.2513 91.5C77.2513 91.176 77.3133 90.898 77.4373 90.666C77.5613 90.43 77.7333 90.25 77.9533 90.126C78.1733 90.002 78.4233 89.94 78.7033 89.94ZM83.4527 90L82.1567 91.296L82.0427 91.41L81.0587 92.394V91.794L82.8467 90H83.4527ZM81.2987 88.62V93H80.8187V88.62H81.2987ZM82.1987 91.05L83.5247 93H82.9427L81.7967 91.32L82.1987 91.05ZM85.2386 93.06C84.9466 93.06 84.6766 92.998 84.4286 92.874C84.1846 92.75 83.9966 92.574 83.8646 92.346L84.2726 92.052C84.3606 92.236 84.4886 92.38 84.6566 92.484C84.8286 92.588 85.0346 92.64 85.2746 92.64C85.4866 92.64 85.6526 92.6 85.7726 92.52C85.8926 92.436 85.9526 92.328 85.9526 92.196C85.9526 92.112 85.9246 92.036 85.8686 91.968C85.8166 91.896 85.7146 91.844 85.5626 91.812L84.8426 91.662C84.5506 91.602 84.3406 91.502 84.2126 91.362C84.0886 91.222 84.0266 91.048 84.0266 90.84C84.0266 90.676 84.0726 90.526 84.1646 90.39C84.2606 90.254 84.3946 90.146 84.5666 90.066C84.7426 89.982 84.9486 89.94 85.1846 89.94C85.4806 89.94 85.7306 89.998 85.9346 90.114C86.1386 90.23 86.2906 90.394 86.3906 90.606L85.9886 90.87C85.9206 90.694 85.8106 90.566 85.6586 90.486C85.5066 90.402 85.3486 90.36 85.1846 90.36C85.0406 90.36 84.9166 90.38 84.8126 90.42C84.7126 90.46 84.6346 90.516 84.5786 90.588C84.5266 90.656 84.5006 90.734 84.5006 90.822C84.5006 90.91 84.5306 90.992 84.5906 91.068C84.6506 91.14 84.7626 91.192 84.9266 91.224L85.6766 91.38C85.9566 91.436 86.1526 91.528 86.2646 91.656C86.3766 91.784 86.4326 91.94 86.4326 92.124C86.4326 92.312 86.3826 92.478 86.2826 92.622C86.1826 92.762 86.0426 92.87 85.8626 92.946C85.6826 93.022 85.4746 93.06 85.2386 93.06ZM7.51531 96H8.04931L7.00531 99H6.52531L5.67931 96.612L4.88131 99H4.40131L3.35731 96H3.89131L4.64731 98.442L5.46331 96H5.94331L6.75931 98.442L7.51531 96ZM9.00894 95.424C8.90094 95.424 8.81294 95.392 8.74494 95.328C8.68094 95.26 8.64894 95.172 8.64894 95.064C8.64894 94.956 8.68094 94.87 8.74494 94.806C8.81294 94.738 8.90094 94.704 9.00894 94.704C9.11694 94.704 9.20294 94.738 9.26694 94.806C9.33494 94.87 9.36894 94.956 9.36894 95.064C9.36894 95.172 9.33494 95.26 9.26694 95.328C9.20294 95.392 9.11694 95.424 9.00894 95.424ZM9.24894 96V99H8.76894V96H9.24894ZM11.0707 95.148V98.172C11.0707 98.32 11.1127 98.43 11.1967 98.502C11.2807 98.574 11.3887 98.61 11.5207 98.61C11.6367 98.61 11.7367 98.59 11.8207 98.55C11.9047 98.51 11.9807 98.456 12.0487 98.388L12.2167 98.79C12.1247 98.874 12.0147 98.94 11.8867 98.988C11.7627 99.036 11.6187 99.06 11.4547 99.06C11.3027 99.06 11.1607 99.034 11.0287 98.982C10.8967 98.926 10.7907 98.84 10.7107 98.724C10.6347 98.604 10.5947 98.448 10.5907 98.256V95.28L11.0707 95.148ZM12.1627 96V96.414H9.99069V96H12.1627ZM12.8764 99V94.62H13.3564V96.45C13.4604 96.27 13.5984 96.14 13.7704 96.06C13.9424 95.98 14.1304 95.94 14.3344 95.94C14.5504 95.94 14.7464 95.982 14.9224 96.066C15.0984 96.146 15.2384 96.27 15.3424 96.438C15.4504 96.606 15.5044 96.82 15.5044 97.08V99H15.0244V97.248C15.0244 96.916 14.9524 96.686 14.8084 96.558C14.6684 96.426 14.4944 96.36 14.2864 96.36C14.1424 96.36 13.9984 96.394 13.8544 96.462C13.7104 96.53 13.5904 96.642 13.4944 96.798C13.4024 96.95 13.3564 97.154 13.3564 97.41V99H12.8764ZM19.7221 99.06C19.5301 99.06 19.3481 99.024 19.1761 98.952C19.0081 98.88 18.8701 98.764 18.7621 98.604C18.6581 98.44 18.6061 98.228 18.6061 97.968V96H19.0861V97.842C19.0861 98.146 19.1521 98.356 19.2841 98.472C19.4161 98.584 19.6021 98.64 19.8421 98.64C19.9541 98.64 20.0641 98.622 20.1721 98.586C20.2801 98.546 20.3761 98.486 20.4601 98.406C20.5481 98.322 20.6161 98.216 20.6641 98.088C20.7161 97.96 20.7421 97.808 20.7421 97.632V96H21.2221V99H20.8021L20.7721 98.544C20.6681 98.724 20.5261 98.856 20.3461 98.94C20.1701 99.02 19.9621 99.06 19.7221 99.06ZM22.3393 99V96H22.7593L22.8013 96.672L22.7233 96.606C22.7873 96.446 22.8733 96.318 22.9813 96.222C23.0893 96.122 23.2133 96.05 23.3533 96.006C23.4973 95.962 23.6453 95.94 23.7973 95.94C24.0133 95.94 24.2093 95.982 24.3853 96.066C24.5613 96.146 24.7013 96.27 24.8053 96.438C24.9133 96.606 24.9673 96.82 24.9673 97.08V99H24.4873V97.248C24.4873 96.916 24.4153 96.686 24.2713 96.558C24.1313 96.426 23.9573 96.36 23.7493 96.36C23.6053 96.36 23.4613 96.394 23.3173 96.462C23.1733 96.53 23.0533 96.64 22.9573 96.792C22.8653 96.944 22.8193 97.148 22.8193 97.404V99H22.3393ZM26.5101 94.62V98.238C26.5101 98.39 26.5381 98.496 26.5941 98.556C26.6501 98.612 26.7401 98.64 26.8641 98.64C26.9441 98.64 27.0101 98.634 27.0621 98.622C27.1141 98.61 27.1841 98.588 27.2721 98.556L27.1941 98.976C27.1301 99.004 27.0601 99.024 26.9841 99.036C26.9081 99.052 26.8301 99.06 26.7501 99.06C26.5061 99.06 26.3241 98.994 26.2041 98.862C26.0881 98.73 26.0301 98.528 26.0301 98.256V94.62H26.5101ZM28.1281 95.424C28.0201 95.424 27.9321 95.392 27.8641 95.328C27.8001 95.26 27.7681 95.172 27.7681 95.064C27.7681 94.956 27.8001 94.87 27.8641 94.806C27.9321 94.738 28.0201 94.704 28.1281 94.704C28.2361 94.704 28.3221 94.738 28.3861 94.806C28.4541 94.87 28.4881 94.956 28.4881 95.064C28.4881 95.172 28.4541 95.26 28.3861 95.328C28.3221 95.392 28.2361 95.424 28.1281 95.424ZM28.3681 96V99H27.8881V96H28.3681ZM29.4818 99V96H29.9018L29.9318 96.468C30.0398 96.284 30.1798 96.15 30.3518 96.066C30.5278 95.982 30.7078 95.94 30.8918 95.94C31.1038 95.94 31.3038 95.988 31.4918 96.084C31.6798 96.18 31.8238 96.328 31.9238 96.528C31.9878 96.392 32.0778 96.282 32.1938 96.198C32.3098 96.11 32.4358 96.046 32.5718 96.006C32.7118 95.962 32.8438 95.94 32.9678 95.94C33.1598 95.94 33.3418 95.98 33.5138 96.06C33.6898 96.14 33.8338 96.264 33.9458 96.432C34.0578 96.6 34.1138 96.816 34.1138 97.08V99H33.6338V97.128C33.6338 96.856 33.5658 96.66 33.4298 96.54C33.2938 96.42 33.1258 96.36 32.9258 96.36C32.7698 96.36 32.6238 96.398 32.4878 96.474C32.3518 96.55 32.2418 96.662 32.1578 96.81C32.0778 96.958 32.0378 97.14 32.0378 97.356V99H31.5578V97.128C31.5578 96.856 31.4898 96.66 31.3538 96.54C31.2178 96.42 31.0498 96.36 30.8498 96.36C30.7178 96.36 30.5818 96.396 30.4418 96.468C30.3058 96.536 30.1918 96.646 30.0998 96.798C30.0078 96.95 29.9618 97.15 29.9618 97.398V99H29.4818ZM35.4406 95.424C35.3326 95.424 35.2446 95.392 35.1766 95.328C35.1126 95.26 35.0806 95.172 35.0806 95.064C35.0806 94.956 35.1126 94.87 35.1766 94.806C35.2446 94.738 35.3326 94.704 35.4406 94.704C35.5486 94.704 35.6346 94.738 35.6986 94.806C35.7666 94.87 35.8006 94.956 35.8006 95.064C35.8006 95.172 35.7666 95.26 35.6986 95.328C35.6346 95.392 35.5486 95.424 35.4406 95.424ZM35.6806 96V99H35.2006V96H35.6806ZM37.5023 95.148V98.172C37.5023 98.32 37.5443 98.43 37.6283 98.502C37.7123 98.574 37.8203 98.61 37.9523 98.61C38.0683 98.61 38.1683 98.59 38.2523 98.55C38.3363 98.51 38.4123 98.456 38.4803 98.388L38.6483 98.79C38.5563 98.874 38.4463 98.94 38.3183 98.988C38.1943 99.036 38.0503 99.06 37.8863 99.06C37.7343 99.06 37.5923 99.034 37.4603 98.982C37.3283 98.926 37.2223 98.84 37.1423 98.724C37.0663 98.604 37.0263 98.448 37.0223 98.256V95.28L37.5023 95.148ZM38.5943 96V96.414H36.4223V96H38.5943ZM40.562 99.06C40.278 99.06 40.024 98.998 39.8 98.874C39.58 98.75 39.408 98.572 39.284 98.34C39.16 98.104 39.098 97.824 39.098 97.5C39.098 97.176 39.16 96.898 39.284 96.666C39.408 96.43 39.578 96.25 39.794 96.126C40.01 96.002 40.256 95.94 40.532 95.94C40.812 95.94 41.05 96 41.246 96.12C41.446 96.24 41.598 96.404 41.702 96.612C41.806 96.816 41.858 97.046 41.858 97.302C41.858 97.37 41.856 97.432 41.852 97.488C41.848 97.544 41.842 97.594 41.834 97.638H39.41V97.212H41.624L41.378 97.26C41.378 96.972 41.298 96.75 41.138 96.594C40.982 96.438 40.776 96.36 40.52 96.36C40.324 96.36 40.154 96.406 40.01 96.498C39.87 96.586 39.76 96.716 39.68 96.888C39.604 97.056 39.566 97.26 39.566 97.5C39.566 97.736 39.606 97.94 39.686 98.112C39.766 98.284 39.878 98.416 40.022 98.508C40.17 98.596 40.346 98.64 40.55 98.64C40.77 98.64 40.948 98.598 41.084 98.514C41.224 98.43 41.336 98.316 41.42 98.172L41.798 98.394C41.722 98.53 41.624 98.648 41.504 98.748C41.388 98.848 41.25 98.926 41.09 98.982C40.934 99.034 40.758 99.06 40.562 99.06ZM43.9409 99.06C43.6929 99.06 43.4649 98.998 43.2569 98.874C43.0489 98.75 42.8829 98.572 42.7589 98.34C42.6349 98.104 42.5729 97.824 42.5729 97.5C42.5729 97.168 42.6389 96.886 42.7709 96.654C42.9029 96.422 43.0769 96.246 43.2929 96.126C43.5089 96.002 43.7409 95.94 43.9889 95.94C44.2369 95.94 44.4509 96.004 44.6309 96.132C44.8149 96.26 44.9369 96.43 44.9969 96.642L44.9369 96.684V94.62H45.4169V99H44.9969L44.9549 98.274L45.0209 98.238C44.9929 98.414 44.9249 98.564 44.8169 98.688C44.7129 98.808 44.5829 98.9 44.4269 98.964C44.2749 99.028 44.1129 99.06 43.9409 99.06ZM43.9889 98.64C44.1809 98.64 44.3469 98.592 44.4869 98.496C44.6309 98.4 44.7409 98.264 44.8169 98.088C44.8969 97.908 44.9369 97.698 44.9369 97.458C44.9369 97.23 44.8969 97.034 44.8169 96.87C44.7409 96.706 44.6329 96.58 44.4929 96.492C44.3569 96.404 44.1969 96.36 44.0129 96.36C43.7089 96.36 43.4729 96.464 43.3049 96.672C43.1369 96.88 43.0529 97.156 43.0529 97.5C43.0529 97.844 43.1349 98.12 43.2989 98.328C43.4629 98.536 43.6929 98.64 43.9889 98.64ZM49.7475 99.06C49.4995 99.06 49.2715 98.998 49.0635 98.874C48.8555 98.75 48.6895 98.572 48.5655 98.34C48.4415 98.104 48.3795 97.824 48.3795 97.5C48.3795 97.168 48.4455 96.886 48.5775 96.654C48.7095 96.422 48.8835 96.246 49.0995 96.126C49.3155 96.002 49.5475 95.94 49.7955 95.94C50.0435 95.94 50.2575 96.004 50.4375 96.132C50.6215 96.26 50.7435 96.43 50.8035 96.642L50.7435 96.684V94.62H51.2235V99H50.8035L50.7615 98.274L50.8275 98.238C50.7995 98.414 50.7315 98.564 50.6235 98.688C50.5195 98.808 50.3895 98.9 50.2335 98.964C50.0815 99.028 49.9195 99.06 49.7475 99.06ZM49.7955 98.64C49.9875 98.64 50.1535 98.592 50.2935 98.496C50.4375 98.4 50.5475 98.264 50.6235 98.088C50.7035 97.908 50.7435 97.698 50.7435 97.458C50.7435 97.23 50.7035 97.034 50.6235 96.87C50.5475 96.706 50.4395 96.58 50.2995 96.492C50.1635 96.404 50.0035 96.36 49.8195 96.36C49.5155 96.36 49.2795 96.464 49.1115 96.672C48.9435 96.88 48.8595 97.156 48.8595 97.5C48.8595 97.844 48.9415 98.12 49.1055 98.328C49.2695 98.536 49.4995 98.64 49.7955 98.64ZM54.0913 97.062C54.0913 96.838 54.0313 96.666 53.9113 96.546C53.7913 96.422 53.6213 96.36 53.4013 96.36C53.1933 96.36 53.0173 96.406 52.8733 96.498C52.7293 96.586 52.6233 96.73 52.5553 96.93L52.1653 96.69C52.2453 96.466 52.3933 96.286 52.6093 96.15C52.8253 96.01 53.0933 95.94 53.4133 95.94C53.6293 95.94 53.8253 95.978 54.0013 96.054C54.1773 96.126 54.3153 96.238 54.4153 96.39C54.5193 96.538 54.5713 96.73 54.5713 96.966V98.418C54.5713 98.562 54.6473 98.634 54.7993 98.634C54.8753 98.634 54.9493 98.624 55.0213 98.604L54.9973 98.982C54.9173 99.022 54.8133 99.042 54.6853 99.042C54.5693 99.042 54.4653 99.02 54.3733 98.976C54.2813 98.932 54.2093 98.866 54.1573 98.778C54.1053 98.686 54.0793 98.572 54.0793 98.436V98.376L54.1993 98.394C54.1513 98.55 54.0693 98.678 53.9533 98.778C53.8373 98.874 53.7073 98.946 53.5633 98.994C53.4193 99.038 53.2773 99.06 53.1373 99.06C52.9613 99.06 52.7973 99.03 52.6453 98.97C52.4933 98.91 52.3713 98.82 52.2793 98.7C52.1913 98.576 52.1473 98.424 52.1473 98.244C52.1473 98.02 52.2213 97.836 52.3693 97.692C52.5213 97.544 52.7313 97.444 52.9993 97.392L54.1873 97.158V97.554L53.2213 97.752C53.0253 97.792 52.8793 97.848 52.7833 97.92C52.6873 97.992 52.6393 98.092 52.6393 98.22C52.6393 98.344 52.6873 98.446 52.7833 98.526C52.8833 98.602 53.0233 98.64 53.2033 98.64C53.3193 98.64 53.4293 98.626 53.5333 98.598C53.6413 98.566 53.7373 98.52 53.8213 98.46C53.9053 98.396 53.9713 98.318 54.0193 98.226C54.0673 98.13 54.0913 98.018 54.0913 97.89V97.062ZM56.3285 95.148V98.172C56.3285 98.32 56.3705 98.43 56.4545 98.502C56.5385 98.574 56.6465 98.61 56.7785 98.61C56.8945 98.61 56.9945 98.59 57.0785 98.55C57.1625 98.51 57.2385 98.456 57.3065 98.388L57.4745 98.79C57.3825 98.874 57.2725 98.94 57.1445 98.988C57.0205 99.036 56.8765 99.06 56.7125 99.06C56.5605 99.06 56.4185 99.034 56.2865 98.982C56.1545 98.926 56.0485 98.84 55.9685 98.724C55.8925 98.604 55.8525 98.448 55.8485 98.256V95.28L56.3285 95.148ZM57.4205 96V96.414H55.2485V96H57.4205ZM59.8862 97.062C59.8862 96.838 59.8262 96.666 59.7062 96.546C59.5862 96.422 59.4162 96.36 59.1962 96.36C58.9882 96.36 58.8122 96.406 58.6682 96.498C58.5242 96.586 58.4182 96.73 58.3502 96.93L57.9602 96.69C58.0402 96.466 58.1882 96.286 58.4042 96.15C58.6202 96.01 58.8882 95.94 59.2082 95.94C59.4242 95.94 59.6202 95.978 59.7962 96.054C59.9722 96.126 60.1102 96.238 60.2102 96.39C60.3142 96.538 60.3662 96.73 60.3662 96.966V98.418C60.3662 98.562 60.4422 98.634 60.5942 98.634C60.6702 98.634 60.7442 98.624 60.8162 98.604L60.7922 98.982C60.7122 99.022 60.6082 99.042 60.4802 99.042C60.3642 99.042 60.2602 99.02 60.1682 98.976C60.0762 98.932 60.0042 98.866 59.9522 98.778C59.9002 98.686 59.8742 98.572 59.8742 98.436V98.376L59.9942 98.394C59.9462 98.55 59.8642 98.678 59.7482 98.778C59.6322 98.874 59.5022 98.946 59.3582 98.994C59.2142 99.038 59.0722 99.06 58.9322 99.06C58.7562 99.06 58.5922 99.03 58.4402 98.97C58.2882 98.91 58.1662 98.82 58.0742 98.7C57.9862 98.576 57.9422 98.424 57.9422 98.244C57.9422 98.02 58.0162 97.836 58.1642 97.692C58.3162 97.544 58.5262 97.444 58.7942 97.392L59.9822 97.158V97.554L59.0162 97.752C58.8202 97.792 58.6742 97.848 58.5782 97.92C58.4822 97.992 58.4342 98.092 58.4342 98.22C58.4342 98.344 58.4822 98.446 58.5782 98.526C58.6782 98.602 58.8182 98.64 58.9982 98.64C59.1142 98.64 59.2242 98.626 59.3282 98.598C59.4362 98.566 59.5322 98.52 59.6162 98.46C59.7002 98.396 59.7662 98.318 59.8142 98.226C59.8622 98.13 59.8862 98.018 59.8862 97.89V97.062ZM63.4369 99V94.62H63.9169V96.45C64.0209 96.27 64.1589 96.14 64.3309 96.06C64.5029 95.98 64.6909 95.94 64.8949 95.94C65.1109 95.94 65.3069 95.982 65.4829 96.066C65.6589 96.146 65.7989 96.27 65.9029 96.438C66.0109 96.606 66.0649 96.82 66.0649 97.08V99H65.5849V97.248C65.5849 96.916 65.5129 96.686 65.3689 96.558C65.2289 96.426 65.0549 96.36 64.8469 96.36C64.7029 96.36 64.5589 96.394 64.4149 96.462C64.2709 96.53 64.1509 96.642 64.0549 96.798C63.9629 96.95 63.9169 97.154 63.9169 97.41V99H63.4369ZM68.9038 97.062C68.9038 96.838 68.8438 96.666 68.7238 96.546C68.6038 96.422 68.4338 96.36 68.2138 96.36C68.0058 96.36 67.8298 96.406 67.6858 96.498C67.5418 96.586 67.4358 96.73 67.3678 96.93L66.9778 96.69C67.0578 96.466 67.2058 96.286 67.4218 96.15C67.6378 96.01 67.9058 95.94 68.2258 95.94C68.4418 95.94 68.6378 95.978 68.8138 96.054C68.9898 96.126 69.1278 96.238 69.2278 96.39C69.3318 96.538 69.3838 96.73 69.3838 96.966V98.418C69.3838 98.562 69.4598 98.634 69.6118 98.634C69.6878 98.634 69.7618 98.624 69.8338 98.604L69.8098 98.982C69.7298 99.022 69.6258 99.042 69.4978 99.042C69.3818 99.042 69.2778 99.02 69.1858 98.976C69.0938 98.932 69.0218 98.866 68.9698 98.778C68.9178 98.686 68.8918 98.572 68.8918 98.436V98.376L69.0118 98.394C68.9638 98.55 68.8818 98.678 68.7658 98.778C68.6498 98.874 68.5198 98.946 68.3758 98.994C68.2318 99.038 68.0898 99.06 67.9498 99.06C67.7738 99.06 67.6098 99.03 67.4578 98.97C67.3058 98.91 67.1838 98.82 67.0918 98.7C67.0038 98.576 66.9598 98.424 66.9598 98.244C66.9598 98.02 67.0338 97.836 67.1818 97.692C67.3338 97.544 67.5438 97.444 67.8118 97.392L68.9998 97.158V97.554L68.0338 97.752C67.8378 97.792 67.6918 97.848 67.5958 97.92C67.4998 97.992 67.4518 98.092 67.4518 98.22C67.4518 98.344 67.4998 98.446 67.5958 98.526C67.6958 98.602 67.8358 98.64 68.0158 98.64C68.1318 98.64 68.2418 98.626 68.3458 98.598C68.4538 98.566 68.5498 98.52 68.6338 98.46C68.7178 98.396 68.7838 98.318 68.8318 98.226C68.8798 98.13 68.9038 98.018 68.9038 97.89V97.062ZM70.5502 99V96H70.9702L71.0122 96.672L70.9342 96.606C70.9982 96.446 71.0842 96.318 71.1922 96.222C71.3002 96.122 71.4242 96.05 71.5642 96.006C71.7082 95.962 71.8562 95.94 72.0082 95.94C72.2242 95.94 72.4202 95.982 72.5962 96.066C72.7722 96.146 72.9122 96.27 73.0162 96.438C73.1242 96.606 73.1782 96.82 73.1782 97.08V99H72.6982V97.248C72.6982 96.916 72.6262 96.686 72.4822 96.558C72.3422 96.426 72.1682 96.36 71.9602 96.36C71.8162 96.36 71.6722 96.394 71.5282 96.462C71.3842 96.53 71.2642 96.64 71.1682 96.792C71.0762 96.944 71.0302 97.148 71.0302 97.404V99H70.5502ZM75.435 99.06C75.187 99.06 74.959 98.998 74.751 98.874C74.543 98.75 74.377 98.572 74.253 98.34C74.129 98.104 74.067 97.824 74.067 97.5C74.067 97.168 74.133 96.886 74.265 96.654C74.397 96.422 74.571 96.246 74.787 96.126C75.003 96.002 75.235 95.94 75.483 95.94C75.731 95.94 75.945 96.004 76.125 96.132C76.309 96.26 76.431 96.43 76.491 96.642L76.431 96.684V94.62H76.911V99H76.491L76.449 98.274L76.515 98.238C76.487 98.414 76.419 98.564 76.311 98.688C76.207 98.808 76.077 98.9 75.921 98.964C75.769 99.028 75.607 99.06 75.435 99.06ZM75.483 98.64C75.675 98.64 75.841 98.592 75.981 98.496C76.125 98.4 76.235 98.264 76.311 98.088C76.391 97.908 76.431 97.698 76.431 97.458C76.431 97.23 76.391 97.034 76.311 96.87C76.235 96.706 76.127 96.58 75.987 96.492C75.851 96.404 75.691 96.36 75.507 96.36C75.203 96.36 74.967 96.464 74.799 96.672C74.631 96.88 74.547 97.156 74.547 97.5C74.547 97.844 74.629 98.12 74.793 98.328C74.957 98.536 75.187 98.64 75.483 98.64ZM78.4828 94.62V98.238C78.4828 98.39 78.5108 98.496 78.5668 98.556C78.6228 98.612 78.7128 98.64 78.8368 98.64C78.9168 98.64 78.9828 98.634 79.0348 98.622C79.0868 98.61 79.1568 98.588 79.2448 98.556L79.1668 98.976C79.1028 99.004 79.0328 99.024 78.9568 99.036C78.8808 99.052 78.8028 99.06 78.7228 99.06C78.4788 99.06 78.2968 98.994 78.1768 98.862C78.0608 98.73 78.0028 98.528 78.0028 98.256V94.62H78.4828ZM80.1007 95.424C79.9927 95.424 79.9047 95.392 79.8367 95.328C79.7727 95.26 79.7407 95.172 79.7407 95.064C79.7407 94.956 79.7727 94.87 79.8367 94.806C79.9047 94.738 79.9927 94.704 80.1007 94.704C80.2087 94.704 80.2947 94.738 80.3587 94.806C80.4267 94.87 80.4607 94.956 80.4607 95.064C80.4607 95.172 80.4267 95.26 80.3587 95.328C80.2947 95.392 80.2087 95.424 80.1007 95.424ZM80.3407 96V99H79.8607V96H80.3407ZM81.4545 99V96H81.8745L81.9165 96.672L81.8385 96.606C81.9025 96.446 81.9885 96.318 82.0965 96.222C82.2045 96.122 82.3285 96.05 82.4685 96.006C82.6125 95.962 82.7605 95.94 82.9125 95.94C83.1285 95.94 83.3245 95.982 83.5005 96.066C83.6765 96.146 83.8165 96.27 83.9205 96.438C84.0285 96.606 84.0825 96.82 84.0825 97.08V99H83.6025V97.248C83.6025 96.916 83.5305 96.686 83.3865 96.558C83.2465 96.426 83.0725 96.36 82.8645 96.36C82.7205 96.36 82.5765 96.394 82.4325 96.462C82.2885 96.53 82.1685 96.64 82.0725 96.792C81.9805 96.944 81.9345 97.148 81.9345 97.404V99H81.4545ZM87.6953 95.448L87.8033 95.874C87.7993 95.874 87.7933 95.874 87.7853 95.874C87.7773 95.874 87.7693 95.874 87.7613 95.874C87.5653 95.874 87.4133 95.914 87.3053 95.994C87.2013 96.07 87.1493 96.194 87.1493 96.366L86.8553 96.216C86.8553 96.06 86.8913 95.924 86.9633 95.808C87.0353 95.692 87.1333 95.604 87.2573 95.544C87.3813 95.48 87.5173 95.448 87.6653 95.448C87.6693 95.448 87.6733 95.448 87.6773 95.448C87.6853 95.448 87.6913 95.448 87.6953 95.448ZM86.7833 98.616C87.0673 98.616 87.2893 98.682 87.4493 98.814C87.6093 98.942 87.6893 99.114 87.6893 99.33C87.6893 99.526 87.6233 99.696 87.4913 99.84C87.3633 99.984 87.1893 100.094 86.9693 100.17C86.7533 100.25 86.5093 100.29 86.2373 100.29C85.7653 100.29 85.4113 100.21 85.1753 100.05C84.9433 99.89 84.8273 99.698 84.8273 99.474C84.8273 99.314 84.8793 99.17 84.9833 99.042C85.0913 98.918 85.2713 98.848 85.5233 98.832L85.4813 98.922C85.3453 98.886 85.2293 98.826 85.1333 98.742C85.0413 98.654 84.9953 98.528 84.9953 98.364C84.9953 98.2 85.0553 98.06 85.1753 97.944C85.2993 97.824 85.4813 97.75 85.7213 97.722L86.0393 97.884H85.9793C85.7833 97.904 85.6433 97.954 85.5593 98.034C85.4793 98.11 85.4393 98.194 85.4393 98.286C85.4393 98.398 85.4793 98.482 85.5593 98.538C85.6433 98.59 85.7593 98.616 85.9073 98.616H86.7833ZM86.2313 99.888C86.4633 99.888 86.6533 99.864 86.8013 99.816C86.9533 99.768 87.0653 99.706 87.1373 99.63C87.2093 99.554 87.2453 99.472 87.2453 99.384C87.2453 99.276 87.2013 99.19 87.1133 99.126C87.0293 99.062 86.8753 99.03 86.6513 99.03H85.7273C85.5993 99.03 85.4913 99.062 85.4033 99.126C85.3153 99.194 85.2713 99.286 85.2713 99.402C85.2713 99.55 85.3553 99.668 85.5233 99.756C85.6953 99.844 85.9313 99.888 86.2313 99.888ZM86.1893 95.94C86.4293 95.94 86.6413 95.984 86.8253 96.072C87.0133 96.156 87.1593 96.274 87.2633 96.426C87.3673 96.578 87.4193 96.754 87.4193 96.954C87.4193 97.15 87.3673 97.326 87.2633 97.482C87.1593 97.634 87.0133 97.754 86.8253 97.842C86.6413 97.926 86.4293 97.968 86.1893 97.968C85.7933 97.968 85.4893 97.874 85.2773 97.686C85.0653 97.494 84.9593 97.25 84.9593 96.954C84.9593 96.754 85.0113 96.578 85.1153 96.426C85.2233 96.274 85.3693 96.156 85.5533 96.072C85.7373 95.984 85.9493 95.94 86.1893 95.94ZM86.1893 96.33C85.9813 96.33 85.8073 96.388 85.6673 96.504C85.5273 96.616 85.4573 96.766 85.4573 96.954C85.4573 97.138 85.5273 97.288 85.6673 97.404C85.8073 97.52 85.9813 97.578 86.1893 97.578C86.3973 97.578 86.5713 97.52 86.7113 97.404C86.8513 97.288 86.9213 97.138 86.9213 96.954C86.9213 96.766 86.8513 96.616 86.7113 96.504C86.5713 96.388 86.3973 96.33 86.1893 96.33ZM32.5725 101.94C32.7805 101.94 32.9625 101.972 33.1185 102.036C33.2785 102.1 33.4165 102.192 33.5325 102.312C33.6485 102.432 33.7425 102.574 33.8145 102.738L33.3585 102.954C33.2945 102.762 33.1965 102.616 33.0645 102.516C32.9365 102.412 32.7685 102.36 32.5605 102.36C32.3605 102.36 32.1885 102.406 32.0445 102.498C31.9005 102.586 31.7905 102.716 31.7145 102.888C31.6385 103.056 31.6005 103.26 31.6005 103.5C31.6005 103.736 31.6385 103.94 31.7145 104.112C31.7905 104.284 31.9005 104.416 32.0445 104.508C32.1885 104.596 32.3605 104.64 32.5605 104.64C32.7165 104.64 32.8505 104.616 32.9625 104.568C33.0785 104.52 33.1725 104.45 33.2445 104.358C33.3205 104.266 33.3725 104.154 33.4005 104.022L33.8445 104.178C33.7765 104.362 33.6825 104.52 33.5625 104.652C33.4465 104.784 33.3045 104.886 33.1365 104.958C32.9725 105.026 32.7845 105.06 32.5725 105.06C32.2925 105.06 32.0425 104.998 31.8225 104.874C31.6025 104.75 31.4305 104.572 31.3065 104.34C31.1825 104.104 31.1205 103.824 31.1205 103.5C31.1205 103.176 31.1825 102.898 31.3065 102.666C31.4305 102.43 31.6025 102.25 31.8225 102.126C32.0425 102.002 32.2925 101.94 32.5725 101.94ZM36.4399 103.062C36.4399 102.838 36.3799 102.666 36.2599 102.546C36.1399 102.422 35.9699 102.36 35.7499 102.36C35.5419 102.36 35.3659 102.406 35.2219 102.498C35.0779 102.586 34.9719 102.73 34.9039 102.93L34.5139 102.69C34.5939 102.466 34.7419 102.286 34.9579 102.15C35.1739 102.01 35.4419 101.94 35.7619 101.94C35.9779 101.94 36.1739 101.978 36.3499 102.054C36.5259 102.126 36.6639 102.238 36.7639 102.39C36.8679 102.538 36.9199 102.73 36.9199 102.966V104.418C36.9199 104.562 36.9959 104.634 37.1479 104.634C37.2239 104.634 37.2979 104.624 37.3699 104.604L37.3459 104.982C37.2659 105.022 37.1619 105.042 37.0339 105.042C36.9179 105.042 36.8139 105.02 36.7219 104.976C36.6299 104.932 36.5579 104.866 36.5059 104.778C36.4539 104.686 36.4279 104.572 36.4279 104.436V104.376L36.5479 104.394C36.4999 104.55 36.4179 104.678 36.3019 104.778C36.1859 104.874 36.0559 104.946 35.9119 104.994C35.7679 105.038 35.6259 105.06 35.4859 105.06C35.3099 105.06 35.1459 105.03 34.9939 104.97C34.8419 104.91 34.7199 104.82 34.6279 104.7C34.5399 104.576 34.4959 104.424 34.4959 104.244C34.4959 104.02 34.5699 103.836 34.7179 103.692C34.8699 103.544 35.0799 103.444 35.3479 103.392L36.5359 103.158V103.554L35.5699 103.752C35.3739 103.792 35.2279 103.848 35.1319 103.92C35.0359 103.992 34.9879 104.092 34.9879 104.22C34.9879 104.344 35.0359 104.446 35.1319 104.526C35.2319 104.602 35.3719 104.64 35.5519 104.64C35.6679 104.64 35.7779 104.626 35.8819 104.598C35.9899 104.566 36.0859 104.52 36.1699 104.46C36.2539 104.396 36.3199 104.318 36.3679 104.226C36.4159 104.13 36.4399 104.018 36.4399 103.89V103.062ZM38.0863 106.26V102H38.5063L38.5483 102.732L38.4823 102.648C38.5343 102.508 38.6123 102.386 38.7163 102.282C38.8203 102.174 38.9463 102.09 39.0943 102.03C39.2423 101.97 39.4023 101.94 39.5743 101.94C39.8183 101.94 40.0423 102.002 40.2463 102.126C40.4543 102.25 40.6203 102.428 40.7443 102.66C40.8683 102.892 40.9303 103.172 40.9303 103.5C40.9303 103.824 40.8663 104.104 40.7383 104.34C40.6143 104.572 40.4483 104.75 40.2403 104.874C40.0323 104.998 39.8043 105.06 39.5563 105.06C39.3083 105.06 39.0903 105 38.9023 104.88C38.7183 104.756 38.5863 104.6 38.5063 104.412L38.5663 104.322V106.26H38.0863ZM39.5083 104.64C39.8043 104.64 40.0343 104.536 40.1983 104.328C40.3663 104.12 40.4503 103.844 40.4503 103.5C40.4503 103.156 40.3683 102.88 40.2043 102.672C40.0443 102.464 39.8183 102.36 39.5263 102.36C39.3343 102.36 39.1663 102.408 39.0223 102.504C38.8783 102.596 38.7663 102.728 38.6863 102.9C38.6063 103.068 38.5663 103.268 38.5663 103.5C38.5663 103.728 38.6043 103.928 38.6803 104.1C38.7603 104.272 38.8703 104.406 39.0103 104.502C39.1543 104.594 39.3203 104.64 39.5083 104.64ZM43.6 103.062C43.6 102.838 43.54 102.666 43.42 102.546C43.3 102.422 43.13 102.36 42.91 102.36C42.702 102.36 42.526 102.406 42.382 102.498C42.238 102.586 42.132 102.73 42.064 102.93L41.674 102.69C41.754 102.466 41.902 102.286 42.118 102.15C42.334 102.01 42.602 101.94 42.922 101.94C43.138 101.94 43.334 101.978 43.51 102.054C43.686 102.126 43.824 102.238 43.924 102.39C44.028 102.538 44.08 102.73 44.08 102.966V104.418C44.08 104.562 44.156 104.634 44.308 104.634C44.384 104.634 44.458 104.624 44.53 104.604L44.506 104.982C44.426 105.022 44.322 105.042 44.194 105.042C44.078 105.042 43.974 105.02 43.882 104.976C43.79 104.932 43.718 104.866 43.666 104.778C43.614 104.686 43.588 104.572 43.588 104.436V104.376L43.708 104.394C43.66 104.55 43.578 104.678 43.462 104.778C43.346 104.874 43.216 104.946 43.072 104.994C42.928 105.038 42.786 105.06 42.646 105.06C42.47 105.06 42.306 105.03 42.154 104.97C42.002 104.91 41.88 104.82 41.788 104.7C41.7 104.576 41.656 104.424 41.656 104.244C41.656 104.02 41.73 103.836 41.878 103.692C42.03 103.544 42.24 103.444 42.508 103.392L43.696 103.158V103.554L42.73 103.752C42.534 103.792 42.388 103.848 42.292 103.92C42.196 103.992 42.148 104.092 42.148 104.22C42.148 104.344 42.196 104.446 42.292 104.526C42.392 104.602 42.532 104.64 42.712 104.64C42.828 104.64 42.938 104.626 43.042 104.598C43.15 104.566 43.246 104.52 43.33 104.46C43.414 104.396 43.48 104.318 43.528 104.226C43.576 104.13 43.6 104.018 43.6 103.89V103.062ZM46.7165 105.06C46.5485 105.06 46.3925 105.03 46.2485 104.97C46.1045 104.91 45.9805 104.826 45.8765 104.718C45.7725 104.61 45.6945 104.488 45.6425 104.352L45.7085 104.268L45.6665 105H45.2465V100.62H45.7265V102.678L45.6665 102.588C45.7465 102.4 45.8805 102.246 46.0685 102.126C46.2605 102.002 46.4785 101.94 46.7225 101.94C46.9705 101.94 47.1985 102.002 47.4065 102.126C47.6145 102.25 47.7805 102.428 47.9045 102.66C48.0285 102.892 48.0905 103.172 48.0905 103.5C48.0905 103.824 48.0265 104.104 47.8985 104.34C47.7745 104.572 47.6085 104.75 47.4005 104.874C47.1925 104.998 46.9645 105.06 46.7165 105.06ZM46.6685 104.64C46.9645 104.64 47.1945 104.536 47.3585 104.328C47.5265 104.12 47.6105 103.844 47.6105 103.5C47.6105 103.156 47.5285 102.88 47.3645 102.672C47.2005 102.464 46.9705 102.36 46.6745 102.36C46.4865 102.36 46.3205 102.408 46.1765 102.504C46.0365 102.6 45.9265 102.734 45.8465 102.906C45.7665 103.078 45.7265 103.28 45.7265 103.512C45.7265 103.74 45.7645 103.94 45.8405 104.112C45.9205 104.28 46.0305 104.41 46.1705 104.502C46.3145 104.594 46.4805 104.64 46.6685 104.64ZM49.2482 101.424C49.1402 101.424 49.0522 101.392 48.9842 101.328C48.9202 101.26 48.8882 101.172 48.8882 101.064C48.8882 100.956 48.9202 100.87 48.9842 100.806C49.0522 100.738 49.1402 100.704 49.2482 100.704C49.3562 100.704 49.4422 100.738 49.5062 100.806C49.5742 100.87 49.6082 100.956 49.6082 101.064C49.6082 101.172 49.5742 101.26 49.5062 101.328C49.4422 101.392 49.3562 101.424 49.2482 101.424ZM49.4882 102V105H49.0082V102H49.4882ZM51.0579 100.62V104.238C51.0579 104.39 51.0859 104.496 51.1419 104.556C51.1979 104.612 51.2879 104.64 51.4119 104.64C51.4919 104.64 51.5579 104.634 51.6099 104.622C51.6619 104.61 51.7319 104.588 51.8199 104.556L51.7419 104.976C51.6779 105.004 51.6079 105.024 51.5319 105.036C51.4559 105.052 51.3779 105.06 51.2979 105.06C51.0539 105.06 50.8719 104.994 50.7519 104.862C50.6359 104.73 50.5779 104.528 50.5779 104.256V100.62H51.0579ZM52.6759 101.424C52.5679 101.424 52.4799 101.392 52.4119 101.328C52.3479 101.26 52.3159 101.172 52.3159 101.064C52.3159 100.956 52.3479 100.87 52.4119 100.806C52.4799 100.738 52.5679 100.704 52.6759 100.704C52.7839 100.704 52.8699 100.738 52.9339 100.806C53.0019 100.87 53.0359 100.956 53.0359 101.064C53.0359 101.172 53.0019 101.26 52.9339 101.328C52.8699 101.392 52.7839 101.424 52.6759 101.424ZM52.9159 102V105H52.4359V102H52.9159ZM54.7377 101.148V104.172C54.7377 104.32 54.7797 104.43 54.8637 104.502C54.9477 104.574 55.0557 104.61 55.1877 104.61C55.3037 104.61 55.4037 104.59 55.4877 104.55C55.5717 104.51 55.6477 104.456 55.7157 104.388L55.8837 104.79C55.7917 104.874 55.6817 104.94 55.5537 104.988C55.4297 105.036 55.2857 105.06 55.1217 105.06C54.9697 105.06 54.8277 105.034 54.6957 104.982C54.5637 104.926 54.4577 104.84 54.3777 104.724C54.3017 104.604 54.2617 104.448 54.2577 104.256V101.28L54.7377 101.148ZM55.8297 102V102.414H53.6577V102H55.8297ZM59.0094 102L57.5994 105.504C57.5234 105.7 57.4394 105.854 57.3474 105.966C57.2594 106.082 57.1594 106.164 57.0474 106.212C56.9394 106.264 56.8134 106.29 56.6694 106.29C56.5334 106.29 56.4074 106.27 56.2914 106.23C56.1794 106.194 56.0794 106.144 55.9914 106.08L56.1234 105.66C56.2034 105.732 56.2874 105.784 56.3754 105.816C56.4674 105.852 56.5574 105.87 56.6454 105.87C56.7494 105.87 56.8474 105.838 56.9394 105.774C57.0314 105.71 57.1154 105.58 57.1914 105.384L57.3474 104.994L57.0474 104.28L56.0934 102H56.6394L57.3894 103.956L57.5754 104.49L57.7914 103.896L58.4934 102H59.0094ZM59.4318 104.28C59.5478 104.28 59.6418 104.316 59.7138 104.388C59.7858 104.46 59.8218 104.554 59.8218 104.67C59.8218 104.786 59.7858 104.88 59.7138 104.952C59.6418 105.024 59.5478 105.06 59.4318 105.06C59.3158 105.06 59.2218 105.024 59.1498 104.952C59.0778 104.88 59.0418 104.786 59.0418 104.67C59.0418 104.554 59.0778 104.46 59.1498 104.388C59.2218 104.316 59.3158 104.28 59.4318 104.28Z" fill="white"/>
</svg>
