<svg width="293" height="340" viewBox="0 0 293 340" fill="none" xmlns="http://www.w3.org/2000/svg">
<rect x="96.25" y="38" width="100" height="100" rx="50" fill="black" fill-opacity="0.6"/>
<path d="M123.927 85.5H126.427V100.5H123.927H123.848C122.52 100.5 121.348 99.4062 121.348 98.0781C121.348 98.0781 121.427 98.0781 121.427 98V88C121.427 86.6719 122.52 85.5 123.848 85.5C123.848 85.5 123.848 85.5 123.927 85.5ZM163.927 81.75V103C163.848 105.812 161.661 108 158.927 108H133.927C131.114 108 128.927 105.812 128.927 103V81.75C128.927 78.3125 131.661 75.5 135.098 75.5C135.098 75.5 135.098 75.5 135.177 75.5H143.927V70.5C143.927 69.1719 145.02 68 146.427 68C147.755 68 148.927 69.1719 148.927 70.5V75.5H157.677C161.114 75.5 163.927 78.3125 163.927 81.75ZM142.052 88C142.052 86.2812 140.645 84.875 138.927 84.875C137.13 84.875 135.802 86.2812 135.802 88C135.802 89.7969 137.13 91.125 138.927 91.125C140.645 91.125 142.052 89.7969 142.052 88ZM141.427 98H136.427V100.5H141.427V98ZM148.927 98H143.927V100.5H148.927V98ZM157.052 88C157.052 86.2812 155.645 84.875 153.927 84.875C152.13 84.875 150.802 86.2812 150.802 88C150.802 89.7969 152.13 91.125 153.927 91.125C155.645 91.125 157.052 89.7969 157.052 88ZM156.427 98H151.427V100.5H156.427V98ZM171.427 88V98V98.0781C171.427 99.4062 170.255 100.578 168.927 100.578V100.5H166.427V85.5H168.927C170.255 85.5 171.427 86.6719 171.427 88Z" fill="white"/>
<path d="M87.9007 177L94.1407 163H97.3407L103.601 177H100.201L95.0807 164.64H96.3607L91.2207 177H87.9007ZM91.0207 174L91.8807 171.54H99.0807L99.9607 174H91.0207ZM105.053 177V163H111.113C112.367 163 113.447 163.207 114.353 163.62C115.26 164.02 115.96 164.6 116.453 165.36C116.947 166.12 117.193 167.027 117.193 168.08C117.193 169.12 116.947 170.02 116.453 170.78C115.96 171.527 115.26 172.1 114.353 172.5C113.447 172.9 112.367 173.1 111.113 173.1H106.853L108.293 171.68V177H105.053ZM113.953 177L110.453 171.92H113.913L117.453 177H113.953ZM108.293 172.04L106.853 170.52H110.933C111.933 170.52 112.68 170.307 113.173 169.88C113.667 169.44 113.913 168.84 113.913 168.08C113.913 167.307 113.667 166.707 113.173 166.28C112.68 165.853 111.933 165.64 110.933 165.64H106.853L108.293 164.1V172.04ZM122.465 177V165.64H117.985V163H130.185V165.64H125.705V177H122.465ZM131.928 177V163H135.168V177H131.928ZM141.491 169.3H148.211V171.9H141.491V169.3ZM141.731 177H138.491V163H149.071V165.6H141.731V177ZM151.264 177V163H154.504V177H151.264ZM164.527 177.24C163.447 177.24 162.44 177.067 161.507 176.72C160.587 176.36 159.787 175.853 159.107 175.2C158.427 174.547 157.893 173.78 157.507 172.9C157.133 172.02 156.947 171.053 156.947 170C156.947 168.947 157.133 167.98 157.507 167.1C157.893 166.22 158.427 165.453 159.107 164.8C159.8 164.147 160.607 163.647 161.527 163.3C162.447 162.94 163.453 162.76 164.547 162.76C165.76 162.76 166.853 162.973 167.827 163.4C168.813 163.813 169.64 164.427 170.307 165.24L168.227 167.16C167.747 166.613 167.213 166.207 166.627 165.94C166.04 165.66 165.4 165.52 164.707 165.52C164.053 165.52 163.453 165.627 162.907 165.84C162.36 166.053 161.887 166.36 161.487 166.76C161.087 167.16 160.773 167.633 160.547 168.18C160.333 168.727 160.227 169.333 160.227 170C160.227 170.667 160.333 171.273 160.547 171.82C160.773 172.367 161.087 172.84 161.487 173.24C161.887 173.64 162.36 173.947 162.907 174.16C163.453 174.373 164.053 174.48 164.707 174.48C165.4 174.48 166.04 174.347 166.627 174.08C167.213 173.8 167.747 173.38 168.227 172.82L170.307 174.74C169.64 175.553 168.813 176.173 167.827 176.6C166.853 177.027 165.753 177.24 164.527 177.24ZM172.495 177V163H175.735V177H172.495ZM177.217 177L183.457 163H186.657L192.917 177H189.517L184.397 164.64H185.677L180.537 177H177.217ZM180.337 174L181.197 171.54H188.397L189.277 174H180.337ZM194.37 177V163H197.61V174.36H204.63V177H194.37Z" fill="white"/>
<path d="M71.9216 211V197H75.1616V211H71.9216ZM78.4841 211V197H81.1641L89.4241 207.08H88.1241V197H91.3241V211H88.6641L80.3841 200.92H81.6841V211H78.4841ZM97.5365 211V199.64H93.0565V197H105.256V199.64H100.776V211H97.5365ZM109.98 202.64H116.72V205.16H109.98V202.64ZM110.22 208.4H117.84V211H107V197H117.58V199.6H110.22V208.4ZM120.418 211V197H123.658V208.36H130.678V211H120.418ZM132.488 211V197H135.728V208.36H142.748V211H132.488ZM144.558 211V197H147.798V211H144.558ZM157.881 211.24C156.774 211.24 155.754 211.067 154.821 210.72C153.901 210.36 153.094 209.853 152.401 209.2C151.721 208.547 151.187 207.78 150.801 206.9C150.427 206.02 150.241 205.053 150.241 204C150.241 202.947 150.427 201.98 150.801 201.1C151.187 200.22 151.727 199.453 152.421 198.8C153.114 198.147 153.927 197.647 154.861 197.3C155.794 196.94 156.821 196.76 157.941 196.76C159.181 196.76 160.294 196.967 161.281 197.38C162.281 197.793 163.121 198.393 163.801 199.18L161.721 201.1C161.214 200.567 160.661 200.173 160.061 199.92C159.461 199.653 158.807 199.52 158.101 199.52C157.421 199.52 156.801 199.627 156.241 199.84C155.681 200.053 155.194 200.36 154.781 200.76C154.381 201.16 154.067 201.633 153.841 202.18C153.627 202.727 153.521 203.333 153.521 204C153.521 204.653 153.627 205.253 153.841 205.8C154.067 206.347 154.381 206.827 154.781 207.24C155.194 207.64 155.674 207.947 156.221 208.16C156.781 208.373 157.394 208.48 158.061 208.48C158.701 208.48 159.321 208.38 159.921 208.18C160.534 207.967 161.127 207.613 161.701 207.12L163.541 209.46C162.781 210.033 161.894 210.473 160.881 210.78C159.881 211.087 158.881 211.24 157.881 211.24ZM160.581 209.04V203.78H163.541V209.46L160.581 209.04ZM169.531 202.64H176.271V205.16H169.531V202.64ZM169.771 208.4H177.391V211H166.551V197H177.131V199.6H169.771V208.4ZM179.968 211V197H182.648L190.908 207.08H189.608V197H192.808V211H190.148L181.868 200.92H183.168V211H179.968ZM202.821 211.24C201.741 211.24 200.734 211.067 199.801 210.72C198.881 210.36 198.081 209.853 197.401 209.2C196.721 208.547 196.187 207.78 195.801 206.9C195.427 206.02 195.241 205.053 195.241 204C195.241 202.947 195.427 201.98 195.801 201.1C196.187 200.22 196.721 199.453 197.401 198.8C198.094 198.147 198.901 197.647 199.821 197.3C200.741 196.94 201.747 196.76 202.841 196.76C204.054 196.76 205.147 196.973 206.121 197.4C207.107 197.813 207.934 198.427 208.601 199.24L206.521 201.16C206.041 200.613 205.507 200.207 204.921 199.94C204.334 199.66 203.694 199.52 203.001 199.52C202.347 199.52 201.747 199.627 201.201 199.84C200.654 200.053 200.181 200.36 199.781 200.76C199.381 201.16 199.067 201.633 198.841 202.18C198.627 202.727 198.521 203.333 198.521 204C198.521 204.667 198.627 205.273 198.841 205.82C199.067 206.367 199.381 206.84 199.781 207.24C200.181 207.64 200.654 207.947 201.201 208.16C201.747 208.373 202.347 208.48 203.001 208.48C203.694 208.48 204.334 208.347 204.921 208.08C205.507 207.8 206.041 207.38 206.521 206.82L208.601 208.74C207.934 209.553 207.107 210.173 206.121 210.6C205.147 211.027 204.047 211.24 202.821 211.24ZM213.769 202.64H220.509V205.16H213.769V202.64ZM214.009 208.4H221.629V211H210.789V197H221.369V199.6H214.009V208.4Z" fill="white"/>
<path d="M40.7371 240.29C41.5518 240.29 42.2538 240.472 42.8431 240.836C43.4411 241.191 43.9005 241.698 44.2211 242.357C44.5505 243.016 44.7151 243.8 44.7151 244.71C44.7151 245.62 44.5505 246.404 44.2211 247.063C43.9005 247.722 43.4411 248.233 42.8431 248.597C42.2538 248.952 41.5518 249.13 40.7371 249.13C39.9225 249.13 39.2161 248.952 38.6181 248.597C38.0288 248.233 37.5695 247.722 37.2401 247.063C36.9195 246.404 36.7591 245.62 36.7591 244.71C36.7591 243.8 36.9195 243.016 37.2401 242.357C37.5695 241.698 38.0288 241.191 38.6181 240.836C39.2161 240.472 39.9225 240.29 40.7371 240.29ZM40.7371 241.265C40.1478 241.265 39.6365 241.404 39.2031 241.681C38.7698 241.95 38.4361 242.344 38.2021 242.864C37.9681 243.375 37.8511 243.991 37.8511 244.71C37.8511 245.429 37.9681 246.049 38.2021 246.569C38.4361 247.08 38.7698 247.475 39.2031 247.752C39.6365 248.021 40.1478 248.155 40.7371 248.155C41.3351 248.155 41.8465 248.021 42.2711 247.752C42.7045 247.475 43.0381 247.08 43.2721 246.569C43.5061 246.049 43.6231 245.429 43.6231 244.71C43.6231 243.991 43.5061 243.375 43.2721 242.864C43.0381 242.344 42.7045 241.95 42.2711 241.681C41.8465 241.404 41.3351 241.265 40.7371 241.265ZM49.1617 249.13C48.7457 249.13 48.3514 249.052 47.9787 248.896C47.6147 248.74 47.3157 248.489 47.0817 248.142C46.8564 247.787 46.7437 247.327 46.7437 246.764V242.5H47.7837V246.491C47.7837 247.15 47.9267 247.605 48.2127 247.856C48.4987 248.099 48.9017 248.22 49.4217 248.22C49.6644 248.22 49.9027 248.181 50.1367 248.103C50.3707 248.016 50.5787 247.886 50.7607 247.713C50.9514 247.531 51.0987 247.301 51.2027 247.024C51.3154 246.747 51.3717 246.417 51.3717 246.036V242.5H52.4117V249H51.5017L51.4367 248.012C51.2114 248.402 50.9037 248.688 50.5137 248.87C50.1324 249.043 49.6817 249.13 49.1617 249.13ZM54.8322 249V242.5H55.6772L55.8202 243.566C56.0022 243.167 56.2665 242.868 56.6132 242.669C56.9685 242.47 57.3975 242.37 57.9002 242.37C58.0128 242.37 58.1342 242.379 58.2642 242.396C58.4028 242.413 58.5198 242.448 58.6152 242.5L58.4332 243.449C58.3378 243.414 58.2338 243.388 58.1212 243.371C58.0085 243.354 57.8482 243.345 57.6402 243.345C57.3715 243.345 57.0985 243.423 56.8212 243.579C56.5525 243.735 56.3272 243.973 56.1452 244.294C55.9632 244.606 55.8722 245.005 55.8722 245.49V249H54.8322ZM68.0608 244.801C68.0608 244.316 67.9308 243.943 67.6708 243.683C67.4108 243.414 67.0425 243.28 66.5658 243.28C66.1151 243.28 65.7338 243.38 65.4218 243.579C65.1098 243.77 64.8801 244.082 64.7328 244.515L63.8878 243.995C64.0611 243.51 64.3818 243.12 64.8498 242.825C65.3178 242.522 65.8985 242.37 66.5918 242.37C67.0598 242.37 67.4845 242.452 67.8658 242.617C68.2471 242.773 68.5461 243.016 68.7628 243.345C68.9881 243.666 69.1008 244.082 69.1008 244.593V247.739C69.1008 248.051 69.2655 248.207 69.5948 248.207C69.7595 248.207 69.9198 248.185 70.0758 248.142L70.0238 248.961C69.8505 249.048 69.6251 249.091 69.3478 249.091C69.0965 249.091 68.8711 249.043 68.6718 248.948C68.4725 248.853 68.3165 248.71 68.2038 248.519C68.0911 248.32 68.0348 248.073 68.0348 247.778V247.648L68.2948 247.687C68.1908 248.025 68.0131 248.302 67.7618 248.519C67.5105 248.727 67.2288 248.883 66.9168 248.987C66.6048 249.082 66.2971 249.13 65.9938 249.13C65.6125 249.13 65.2571 249.065 64.9278 248.935C64.5985 248.805 64.3341 248.61 64.1348 248.35C63.9441 248.081 63.8488 247.752 63.8488 247.362C63.8488 246.877 64.0091 246.478 64.3298 246.166C64.6591 245.845 65.1141 245.629 65.6948 245.516L68.2688 245.009V245.867L66.1758 246.296C65.7511 246.383 65.4348 246.504 65.2268 246.66C65.0188 246.816 64.9148 247.033 64.9148 247.31C64.9148 247.579 65.0188 247.8 65.2268 247.973C65.4435 248.138 65.7468 248.22 66.1368 248.22C66.3881 248.22 66.6265 248.19 66.8518 248.129C67.0858 248.06 67.2938 247.96 67.4758 247.83C67.6578 247.691 67.8008 247.522 67.9048 247.323C68.0088 247.115 68.0608 246.872 68.0608 246.595V244.801ZM71.6281 249V242.5H72.4731L72.6161 243.566C72.7981 243.167 73.0624 242.868 73.4091 242.669C73.7644 242.47 74.1934 242.37 74.6961 242.37C74.8087 242.37 74.9301 242.379 75.0601 242.396C75.1987 242.413 75.3157 242.448 75.4111 242.5L75.2291 243.449C75.1337 243.414 75.0297 243.388 74.9171 243.371C74.8044 243.354 74.6441 243.345 74.4361 243.345C74.1674 243.345 73.8944 243.423 73.6171 243.579C73.3484 243.735 73.1231 243.973 72.9411 244.294C72.7591 244.606 72.6681 245.005 72.6681 245.49V249H71.6281ZM78.0752 240.654V247.206C78.0752 247.527 78.1662 247.765 78.3482 247.921C78.5302 248.077 78.7642 248.155 79.0502 248.155C79.3015 248.155 79.5182 248.112 79.7002 248.025C79.8822 247.938 80.0468 247.821 80.1942 247.674L80.5582 248.545C80.3588 248.727 80.1205 248.87 79.8432 248.974C79.5745 249.078 79.2625 249.13 78.9072 249.13C78.5778 249.13 78.2702 249.074 77.9842 248.961C77.6982 248.84 77.4685 248.653 77.2952 248.402C77.1305 248.142 77.0438 247.804 77.0352 247.388V240.94L78.0752 240.654ZM80.4412 242.5V243.397H75.7352V242.5H80.4412ZM82.5075 241.252C82.2735 241.252 82.0828 241.183 81.9355 241.044C81.7968 240.897 81.7275 240.706 81.7275 240.472C81.7275 240.238 81.7968 240.052 81.9355 239.913C82.0828 239.766 82.2735 239.692 82.5075 239.692C82.7415 239.692 82.9278 239.766 83.0665 239.913C83.2138 240.052 83.2875 240.238 83.2875 240.472C83.2875 240.706 83.2138 240.897 83.0665 241.044C82.9278 241.183 82.7415 241.252 82.5075 241.252ZM83.0275 242.5V249H81.9875V242.5H83.0275ZM88.0796 239.445C88.3049 239.445 88.5172 239.471 88.7166 239.523C88.9159 239.575 89.0719 239.649 89.1846 239.744L88.9116 240.589C88.8076 240.52 88.6949 240.472 88.5736 240.446C88.4522 240.411 88.3179 240.394 88.1706 240.394C87.7979 240.394 87.5076 240.485 87.2996 240.667C87.0916 240.84 86.9876 241.122 86.9876 241.512V242.5V242.838V249H85.9476V241.408C85.9476 241.122 85.9909 240.858 86.0776 240.615C86.1642 240.372 86.2942 240.164 86.4676 239.991C86.6496 239.818 86.8749 239.683 87.1436 239.588C87.4122 239.493 87.7242 239.445 88.0796 239.445ZM89.1586 242.5V243.397H84.6476V242.5H89.1586ZM91.0696 241.252C90.8356 241.252 90.6449 241.183 90.4976 241.044C90.3589 240.897 90.2896 240.706 90.2896 240.472C90.2896 240.238 90.3589 240.052 90.4976 239.913C90.6449 239.766 90.8356 239.692 91.0696 239.692C91.3036 239.692 91.4899 239.766 91.6286 239.913C91.7759 240.052 91.8496 240.238 91.8496 240.472C91.8496 240.706 91.7759 240.897 91.6286 241.044C91.4899 241.183 91.3036 241.252 91.0696 241.252ZM91.5896 242.5V249H90.5496V242.5H91.5896ZM96.7009 242.37C97.1516 242.37 97.5459 242.439 97.8839 242.578C98.2306 242.717 98.5296 242.916 98.7809 243.176C99.0322 243.436 99.2359 243.744 99.3919 244.099L98.4039 244.567C98.2652 244.151 98.0529 243.835 97.7669 243.618C97.4896 243.393 97.1256 243.28 96.6749 243.28C96.2416 243.28 95.8689 243.38 95.5569 243.579C95.2449 243.77 95.0066 244.051 94.8419 244.424C94.6772 244.788 94.5949 245.23 94.5949 245.75C94.5949 246.261 94.6772 246.703 94.8419 247.076C95.0066 247.449 95.2449 247.735 95.5569 247.934C95.8689 248.125 96.2416 248.22 96.6749 248.22C97.0129 248.22 97.3032 248.168 97.5459 248.064C97.7972 247.96 98.0009 247.808 98.1569 247.609C98.3216 247.41 98.4342 247.167 98.4949 246.881L99.4569 247.219C99.3096 247.618 99.1059 247.96 98.8459 248.246C98.5946 248.532 98.2869 248.753 97.9229 248.909C97.5676 249.056 97.1602 249.13 96.7009 249.13C96.0942 249.13 95.5526 248.996 95.0759 248.727C94.5992 248.458 94.2266 248.073 93.9579 247.57C93.6892 247.059 93.5549 246.452 93.5549 245.75C93.5549 245.048 93.6892 244.446 93.9579 243.943C94.2266 243.432 94.5992 243.042 95.0759 242.773C95.5526 242.504 96.0942 242.37 96.7009 242.37ZM101.804 241.252C101.57 241.252 101.38 241.183 101.232 241.044C101.094 240.897 101.024 240.706 101.024 240.472C101.024 240.238 101.094 240.052 101.232 239.913C101.38 239.766 101.57 239.692 101.804 239.692C102.038 239.692 102.225 239.766 102.363 239.913C102.511 240.052 102.584 240.238 102.584 240.472C102.584 240.706 102.511 240.897 102.363 241.044C102.225 241.183 102.038 241.252 101.804 241.252ZM102.324 242.5V249H101.284V242.5H102.324ZM108.533 244.801C108.533 244.316 108.403 243.943 108.143 243.683C107.883 243.414 107.515 243.28 107.038 243.28C106.588 243.28 106.206 243.38 105.894 243.579C105.582 243.77 105.353 244.082 105.205 244.515L104.36 243.995C104.534 243.51 104.854 243.12 105.322 242.825C105.79 242.522 106.371 242.37 107.064 242.37C107.532 242.37 107.957 242.452 108.338 242.617C108.72 242.773 109.019 243.016 109.235 243.345C109.461 243.666 109.573 244.082 109.573 244.593V247.739C109.573 248.051 109.738 248.207 110.067 248.207C110.232 248.207 110.392 248.185 110.548 248.142L110.496 248.961C110.323 249.048 110.098 249.091 109.82 249.091C109.569 249.091 109.344 249.043 109.144 248.948C108.945 248.853 108.789 248.71 108.676 248.519C108.564 248.32 108.507 248.073 108.507 247.778V247.648L108.767 247.687C108.663 248.025 108.486 248.302 108.234 248.519C107.983 248.727 107.701 248.883 107.389 248.987C107.077 249.082 106.77 249.13 106.466 249.13C106.085 249.13 105.73 249.065 105.4 248.935C105.071 248.805 104.807 248.61 104.607 248.35C104.417 248.081 104.321 247.752 104.321 247.362C104.321 246.877 104.482 246.478 104.802 246.166C105.132 245.845 105.587 245.629 106.167 245.516L108.741 245.009V245.867L106.648 246.296C106.224 246.383 105.907 246.504 105.699 246.66C105.491 246.816 105.387 247.033 105.387 247.31C105.387 247.579 105.491 247.8 105.699 247.973C105.916 248.138 106.219 248.22 106.609 248.22C106.861 248.22 107.099 248.19 107.324 248.129C107.558 248.06 107.766 247.96 107.948 247.83C108.13 247.691 108.273 247.522 108.377 247.323C108.481 247.115 108.533 246.872 108.533 246.595V244.801ZM113.089 239.51V247.349C113.089 247.678 113.149 247.908 113.271 248.038C113.392 248.159 113.587 248.22 113.856 248.22C114.029 248.22 114.172 248.207 114.285 248.181C114.397 248.155 114.549 248.107 114.74 248.038L114.571 248.948C114.432 249.009 114.28 249.052 114.116 249.078C113.951 249.113 113.782 249.13 113.609 249.13C113.08 249.13 112.686 248.987 112.426 248.701C112.174 248.415 112.049 247.977 112.049 247.388V239.51H113.089ZM120.568 241.252C120.334 241.252 120.143 241.183 119.996 241.044C119.857 240.897 119.788 240.706 119.788 240.472C119.788 240.238 119.857 240.052 119.996 239.913C120.143 239.766 120.334 239.692 120.568 239.692C120.802 239.692 120.988 239.766 121.127 239.913C121.274 240.052 121.348 240.238 121.348 240.472C121.348 240.706 121.274 240.897 121.127 241.044C120.988 241.183 120.802 241.252 120.568 241.252ZM121.088 242.5V249H120.048V242.5H121.088ZM123.501 249V242.5H124.411L124.502 243.956L124.333 243.813C124.472 243.466 124.658 243.189 124.892 242.981C125.126 242.764 125.395 242.608 125.698 242.513C126.01 242.418 126.331 242.37 126.66 242.37C127.128 242.37 127.553 242.461 127.934 242.643C128.315 242.816 128.619 243.085 128.844 243.449C129.078 243.813 129.195 244.277 129.195 244.84V249H128.155V245.204C128.155 244.485 127.999 243.986 127.687 243.709C127.384 243.423 127.007 243.28 126.556 243.28C126.244 243.28 125.932 243.354 125.62 243.501C125.308 243.648 125.048 243.887 124.84 244.216C124.641 244.545 124.541 244.987 124.541 245.542V249H123.501ZM132.995 240.654V247.206C132.995 247.527 133.086 247.765 133.268 247.921C133.45 248.077 133.684 248.155 133.97 248.155C134.221 248.155 134.438 248.112 134.62 248.025C134.802 247.938 134.967 247.821 135.114 247.674L135.478 248.545C135.279 248.727 135.04 248.87 134.763 248.974C134.494 249.078 134.182 249.13 133.827 249.13C133.498 249.13 133.19 249.074 132.904 248.961C132.618 248.84 132.388 248.653 132.215 248.402C132.05 248.142 131.964 247.804 131.955 247.388V240.94L132.995 240.654ZM135.361 242.5V243.397H130.655V242.5H135.361ZM139.624 249.13C139.009 249.13 138.459 248.996 137.973 248.727C137.497 248.458 137.124 248.073 136.855 247.57C136.587 247.059 136.452 246.452 136.452 245.75C136.452 245.048 136.587 244.446 136.855 243.943C137.124 243.432 137.492 243.042 137.96 242.773C138.428 242.504 138.961 242.37 139.559 242.37C140.166 242.37 140.682 242.5 141.106 242.76C141.54 243.02 141.869 243.375 142.094 243.826C142.32 244.268 142.432 244.766 142.432 245.321C142.432 245.468 142.428 245.603 142.419 245.724C142.411 245.845 142.398 245.954 142.38 246.049H137.128V245.126H141.925L141.392 245.23C141.392 244.606 141.219 244.125 140.872 243.787C140.534 243.449 140.088 243.28 139.533 243.28C139.109 243.28 138.74 243.38 138.428 243.579C138.125 243.77 137.887 244.051 137.713 244.424C137.549 244.788 137.466 245.23 137.466 245.75C137.466 246.261 137.553 246.703 137.726 247.076C137.9 247.449 138.142 247.735 138.454 247.934C138.775 248.125 139.156 248.22 139.598 248.22C140.075 248.22 140.461 248.129 140.755 247.947C141.059 247.765 141.301 247.518 141.483 247.206L142.302 247.687C142.138 247.982 141.925 248.237 141.665 248.454C141.414 248.671 141.115 248.84 140.768 248.961C140.43 249.074 140.049 249.13 139.624 249.13ZM145.398 239.51V247.349C145.398 247.678 145.459 247.908 145.58 248.038C145.702 248.159 145.897 248.22 146.165 248.22C146.339 248.22 146.482 248.207 146.594 248.181C146.707 248.155 146.859 248.107 147.049 248.038L146.88 248.948C146.742 249.009 146.59 249.052 146.425 249.078C146.261 249.113 146.092 249.13 145.918 249.13C145.39 249.13 144.995 248.987 144.735 248.701C144.484 248.415 144.358 247.977 144.358 247.388V239.51H145.398ZM149.372 239.51V247.349C149.372 247.678 149.433 247.908 149.554 248.038C149.675 248.159 149.87 248.22 150.139 248.22C150.312 248.22 150.455 248.207 150.568 248.181C150.681 248.155 150.832 248.107 151.023 248.038L150.854 248.948C150.715 249.009 150.564 249.052 150.399 249.078C150.234 249.113 150.065 249.13 149.892 249.13C149.363 249.13 148.969 248.987 148.709 248.701C148.458 248.415 148.332 247.977 148.332 247.388V239.51H149.372ZM152.878 241.252C152.644 241.252 152.453 241.183 152.306 241.044C152.167 240.897 152.098 240.706 152.098 240.472C152.098 240.238 152.167 240.052 152.306 239.913C152.453 239.766 152.644 239.692 152.878 239.692C153.112 239.692 153.298 239.766 153.437 239.913C153.584 240.052 153.658 240.238 153.658 240.472C153.658 240.706 153.584 240.897 153.437 241.044C153.298 241.183 153.112 241.252 152.878 241.252ZM153.398 242.5V249H152.358V242.5H153.398ZM161.284 241.304L161.518 242.227C161.509 242.227 161.496 242.227 161.479 242.227C161.461 242.227 161.444 242.227 161.427 242.227C161.002 242.227 160.673 242.314 160.439 242.487C160.213 242.652 160.101 242.92 160.101 243.293L159.464 242.968C159.464 242.63 159.542 242.335 159.698 242.084C159.854 241.833 160.066 241.642 160.335 241.512C160.603 241.373 160.898 241.304 161.219 241.304C161.227 241.304 161.236 241.304 161.245 241.304C161.262 241.304 161.275 241.304 161.284 241.304ZM159.308 248.168C159.923 248.168 160.404 248.311 160.751 248.597C161.097 248.874 161.271 249.247 161.271 249.715C161.271 250.14 161.128 250.508 160.842 250.82C160.564 251.132 160.187 251.37 159.711 251.535C159.243 251.708 158.714 251.795 158.125 251.795C157.102 251.795 156.335 251.622 155.824 251.275C155.321 250.928 155.07 250.512 155.07 250.027C155.07 249.68 155.182 249.368 155.408 249.091C155.642 248.822 156.032 248.671 156.578 248.636L156.487 248.831C156.192 248.753 155.941 248.623 155.733 248.441C155.533 248.25 155.434 247.977 155.434 247.622C155.434 247.267 155.564 246.963 155.824 246.712C156.092 246.452 156.487 246.292 157.007 246.231L157.696 246.582H157.566C157.141 246.625 156.838 246.734 156.656 246.907C156.482 247.072 156.396 247.254 156.396 247.453C156.396 247.696 156.482 247.878 156.656 247.999C156.838 248.112 157.089 248.168 157.41 248.168H159.308ZM158.112 250.924C158.614 250.924 159.026 250.872 159.347 250.768C159.676 250.664 159.919 250.53 160.075 250.365C160.231 250.2 160.309 250.023 160.309 249.832C160.309 249.598 160.213 249.412 160.023 249.273C159.841 249.134 159.507 249.065 159.022 249.065H157.02C156.742 249.065 156.508 249.134 156.318 249.273C156.127 249.42 156.032 249.62 156.032 249.871C156.032 250.192 156.214 250.447 156.578 250.638C156.95 250.829 157.462 250.924 158.112 250.924ZM158.021 242.37C158.541 242.37 159 242.465 159.399 242.656C159.806 242.838 160.122 243.094 160.348 243.423C160.573 243.752 160.686 244.134 160.686 244.567C160.686 244.992 160.573 245.373 160.348 245.711C160.122 246.04 159.806 246.3 159.399 246.491C159 246.673 158.541 246.764 158.021 246.764C157.163 246.764 156.504 246.56 156.045 246.153C155.585 245.737 155.356 245.208 155.356 244.567C155.356 244.134 155.468 243.752 155.694 243.423C155.928 243.094 156.244 242.838 156.643 242.656C157.041 242.465 157.501 242.37 158.021 242.37ZM158.021 243.215C157.57 243.215 157.193 243.341 156.89 243.592C156.586 243.835 156.435 244.16 156.435 244.567C156.435 244.966 156.586 245.291 156.89 245.542C157.193 245.793 157.57 245.919 158.021 245.919C158.471 245.919 158.848 245.793 159.152 245.542C159.455 245.291 159.607 244.966 159.607 244.567C159.607 244.16 159.455 243.835 159.152 243.592C158.848 243.341 158.471 243.215 158.021 243.215ZM165.447 249.13C164.831 249.13 164.281 248.996 163.796 248.727C163.319 248.458 162.946 248.073 162.678 247.57C162.409 247.059 162.275 246.452 162.275 245.75C162.275 245.048 162.409 244.446 162.678 243.943C162.946 243.432 163.315 243.042 163.783 242.773C164.251 242.504 164.784 242.37 165.382 242.37C165.988 242.37 166.504 242.5 166.929 242.76C167.362 243.02 167.691 243.375 167.917 243.826C168.142 244.268 168.255 244.766 168.255 245.321C168.255 245.468 168.25 245.603 168.242 245.724C168.233 245.845 168.22 245.954 168.203 246.049H162.951V245.126H167.748L167.215 245.23C167.215 244.606 167.041 244.125 166.695 243.787C166.357 243.449 165.91 243.28 165.356 243.28C164.931 243.28 164.563 243.38 164.251 243.579C163.947 243.77 163.709 244.051 163.536 244.424C163.371 244.788 163.289 245.23 163.289 245.75C163.289 246.261 163.375 246.703 163.549 247.076C163.722 247.449 163.965 247.735 164.277 247.934C164.597 248.125 164.979 248.22 165.421 248.22C165.897 248.22 166.283 248.129 166.578 247.947C166.881 247.765 167.124 247.518 167.306 247.206L168.125 247.687C167.96 247.982 167.748 248.237 167.488 248.454C167.236 248.671 166.937 248.84 166.591 248.961C166.253 249.074 165.871 249.13 165.447 249.13ZM170.233 249V242.5H171.143L171.234 243.956L171.065 243.813C171.203 243.466 171.39 243.189 171.624 242.981C171.858 242.764 172.126 242.608 172.43 242.513C172.742 242.418 173.062 242.37 173.392 242.37C173.86 242.37 174.284 242.461 174.666 242.643C175.047 242.816 175.35 243.085 175.576 243.449C175.81 243.813 175.927 244.277 175.927 244.84V249H174.887V245.204C174.887 244.485 174.731 243.986 174.419 243.709C174.115 243.423 173.738 243.28 173.288 243.28C172.976 243.28 172.664 243.354 172.352 243.501C172.04 243.648 171.78 243.887 171.572 244.216C171.372 244.545 171.273 244.987 171.273 245.542V249H170.233ZM180.972 242.37C181.423 242.37 181.817 242.439 182.155 242.578C182.502 242.717 182.801 242.916 183.052 243.176C183.304 243.436 183.507 243.744 183.663 244.099L182.675 244.567C182.537 244.151 182.324 243.835 182.038 243.618C181.761 243.393 181.397 243.28 180.946 243.28C180.513 243.28 180.14 243.38 179.828 243.579C179.516 243.77 179.278 244.051 179.113 244.424C178.949 244.788 178.866 245.23 178.866 245.75C178.866 246.261 178.949 246.703 179.113 247.076C179.278 247.449 179.516 247.735 179.828 247.934C180.14 248.125 180.513 248.22 180.946 248.22C181.284 248.22 181.575 248.168 181.817 248.064C182.069 247.96 182.272 247.808 182.428 247.609C182.593 247.41 182.706 247.167 182.766 246.881L183.728 247.219C183.581 247.618 183.377 247.96 183.117 248.246C182.866 248.532 182.558 248.753 182.194 248.909C181.839 249.056 181.432 249.13 180.972 249.13C180.366 249.13 179.824 248.996 179.347 248.727C178.871 248.458 178.498 248.073 178.229 247.57C177.961 247.059 177.826 246.452 177.826 245.75C177.826 245.048 177.961 244.446 178.229 243.943C178.498 243.432 178.871 243.042 179.347 242.773C179.824 242.504 180.366 242.37 180.972 242.37ZM188.273 249.13C187.657 249.13 187.107 248.996 186.622 248.727C186.145 248.458 185.772 248.073 185.504 247.57C185.235 247.059 185.101 246.452 185.101 245.75C185.101 245.048 185.235 244.446 185.504 243.943C185.772 243.432 186.141 243.042 186.609 242.773C187.077 242.504 187.61 242.37 188.208 242.37C188.814 242.37 189.33 242.5 189.755 242.76C190.188 243.02 190.517 243.375 190.743 243.826C190.968 244.268 191.081 244.766 191.081 245.321C191.081 245.468 191.076 245.603 191.068 245.724C191.059 245.845 191.046 245.954 191.029 246.049H185.777V245.126H190.574L190.041 245.23C190.041 244.606 189.867 244.125 189.521 243.787C189.183 243.449 188.736 243.28 188.182 243.28C187.757 243.28 187.389 243.38 187.077 243.579C186.773 243.77 186.535 244.051 186.362 244.424C186.197 244.788 186.115 245.23 186.115 245.75C186.115 246.261 186.201 246.703 186.375 247.076C186.548 247.449 186.791 247.735 187.103 247.934C187.423 248.125 187.805 248.22 188.247 248.22C188.723 248.22 189.109 248.129 189.404 247.947C189.707 247.765 189.95 247.518 190.132 247.206L190.951 247.687C190.786 247.982 190.574 248.237 190.314 248.454C190.062 248.671 189.763 248.84 189.417 248.961C189.079 249.074 188.697 249.13 188.273 249.13ZM201.285 244.801C201.285 244.316 201.155 243.943 200.895 243.683C200.635 243.414 200.267 243.28 199.79 243.28C199.34 243.28 198.958 243.38 198.646 243.579C198.334 243.77 198.105 244.082 197.957 244.515L197.112 243.995C197.286 243.51 197.606 243.12 198.074 242.825C198.542 242.522 199.123 242.37 199.816 242.37C200.284 242.37 200.709 242.452 201.09 242.617C201.472 242.773 201.771 243.016 201.987 243.345C202.213 243.666 202.325 244.082 202.325 244.593V247.739C202.325 248.051 202.49 248.207 202.819 248.207C202.984 248.207 203.144 248.185 203.3 248.142L203.248 248.961C203.075 249.048 202.85 249.091 202.572 249.091C202.321 249.091 202.096 249.043 201.896 248.948C201.697 248.853 201.541 248.71 201.428 248.519C201.316 248.32 201.259 248.073 201.259 247.778V247.648L201.519 247.687C201.415 248.025 201.238 248.302 200.986 248.519C200.735 248.727 200.453 248.883 200.141 248.987C199.829 249.082 199.522 249.13 199.218 249.13C198.837 249.13 198.482 249.065 198.152 248.935C197.823 248.805 197.559 248.61 197.359 248.35C197.169 248.081 197.073 247.752 197.073 247.362C197.073 246.877 197.234 246.478 197.554 246.166C197.884 245.845 198.339 245.629 198.919 245.516L201.493 245.009V245.867L199.4 246.296C198.976 246.383 198.659 246.504 198.451 246.66C198.243 246.816 198.139 247.033 198.139 247.31C198.139 247.579 198.243 247.8 198.451 247.973C198.668 248.138 198.971 248.22 199.361 248.22C199.613 248.22 199.851 248.19 200.076 248.129C200.31 248.06 200.518 247.96 200.7 247.83C200.882 247.691 201.025 247.522 201.129 247.323C201.233 247.115 201.285 246.872 201.285 246.595V244.801ZM205.841 239.51V247.349C205.841 247.678 205.901 247.908 206.023 248.038C206.144 248.159 206.339 248.22 206.608 248.22C206.781 248.22 206.924 248.207 207.037 248.181C207.149 248.155 207.301 248.107 207.492 248.038L207.323 248.948C207.184 249.009 207.032 249.052 206.868 249.078C206.703 249.113 206.534 249.13 206.361 249.13C205.832 249.13 205.438 248.987 205.178 248.701C204.926 248.415 204.801 247.977 204.801 247.388V239.51H205.841ZM214.299 241.304L214.533 242.227C214.525 242.227 214.512 242.227 214.494 242.227C214.477 242.227 214.46 242.227 214.442 242.227C214.018 242.227 213.688 242.314 213.454 242.487C213.229 242.652 213.116 242.92 213.116 243.293L212.479 242.968C212.479 242.63 212.557 242.335 212.713 242.084C212.869 241.833 213.082 241.642 213.35 241.512C213.619 241.373 213.914 241.304 214.234 241.304C214.243 241.304 214.252 241.304 214.26 241.304C214.278 241.304 214.291 241.304 214.299 241.304ZM212.323 248.168C212.939 248.168 213.42 248.311 213.766 248.597C214.113 248.874 214.286 249.247 214.286 249.715C214.286 250.14 214.143 250.508 213.857 250.82C213.58 251.132 213.203 251.37 212.726 251.535C212.258 251.708 211.73 251.795 211.14 251.795C210.118 251.795 209.351 251.622 208.839 251.275C208.337 250.928 208.085 250.512 208.085 250.027C208.085 249.68 208.198 249.368 208.423 249.091C208.657 248.822 209.047 248.671 209.593 248.636L209.502 248.831C209.208 248.753 208.956 248.623 208.748 248.441C208.549 248.25 208.449 247.977 208.449 247.622C208.449 247.267 208.579 246.963 208.839 246.712C209.108 246.452 209.502 246.292 210.022 246.231L210.711 246.582H210.581C210.157 246.625 209.853 246.734 209.671 246.907C209.498 247.072 209.411 247.254 209.411 247.453C209.411 247.696 209.498 247.878 209.671 247.999C209.853 248.112 210.105 248.168 210.425 248.168H212.323ZM211.127 250.924C211.63 250.924 212.042 250.872 212.362 250.768C212.692 250.664 212.934 250.53 213.09 250.365C213.246 250.2 213.324 250.023 213.324 249.832C213.324 249.598 213.229 249.412 213.038 249.273C212.856 249.134 212.523 249.065 212.037 249.065H210.035C209.758 249.065 209.524 249.134 209.333 249.273C209.143 249.42 209.047 249.62 209.047 249.871C209.047 250.192 209.229 250.447 209.593 250.638C209.966 250.829 210.477 250.924 211.127 250.924ZM211.036 242.37C211.556 242.37 212.016 242.465 212.414 242.656C212.822 242.838 213.138 243.094 213.363 243.423C213.589 243.752 213.701 244.134 213.701 244.567C213.701 244.992 213.589 245.373 213.363 245.711C213.138 246.04 212.822 246.3 212.414 246.491C212.016 246.673 211.556 246.764 211.036 246.764C210.178 246.764 209.52 246.56 209.06 246.153C208.601 245.737 208.371 245.208 208.371 244.567C208.371 244.134 208.484 243.752 208.709 243.423C208.943 243.094 209.26 242.838 209.658 242.656C210.057 242.465 210.516 242.37 211.036 242.37ZM211.036 243.215C210.586 243.215 210.209 243.341 209.905 243.592C209.602 243.835 209.45 244.16 209.45 244.567C209.45 244.966 209.602 245.291 209.905 245.542C210.209 245.793 210.586 245.919 211.036 245.919C211.487 245.919 211.864 245.793 212.167 245.542C212.471 245.291 212.622 244.966 212.622 244.567C212.622 244.16 212.471 243.835 212.167 243.592C211.864 243.341 211.487 243.215 211.036 243.215ZM218.436 242.37C219.052 242.37 219.593 242.504 220.061 242.773C220.538 243.042 220.911 243.432 221.179 243.943C221.448 244.446 221.582 245.048 221.582 245.75C221.582 246.452 221.448 247.059 221.179 247.57C220.911 248.073 220.538 248.458 220.061 248.727C219.593 248.996 219.052 249.13 218.436 249.13C217.83 249.13 217.288 248.996 216.811 248.727C216.335 248.458 215.962 248.073 215.693 247.57C215.425 247.059 215.29 246.452 215.29 245.75C215.29 245.048 215.425 244.446 215.693 243.943C215.962 243.432 216.335 243.042 216.811 242.773C217.288 242.504 217.83 242.37 218.436 242.37ZM218.436 243.267C217.994 243.267 217.617 243.367 217.305 243.566C216.993 243.765 216.751 244.051 216.577 244.424C216.413 244.788 216.33 245.23 216.33 245.75C216.33 246.261 216.413 246.703 216.577 247.076C216.751 247.449 216.993 247.735 217.305 247.934C217.617 248.133 217.994 248.233 218.436 248.233C218.878 248.233 219.255 248.133 219.567 247.934C219.879 247.735 220.118 247.449 220.282 247.076C220.456 246.703 220.542 246.261 220.542 245.75C220.542 245.23 220.456 244.788 220.282 244.424C220.118 244.051 219.879 243.765 219.567 243.566C219.255 243.367 218.878 243.267 218.436 243.267ZM223.54 249V242.5H224.385L224.528 243.566C224.71 243.167 224.975 242.868 225.321 242.669C225.677 242.47 226.106 242.37 226.608 242.37C226.721 242.37 226.842 242.379 226.972 242.396C227.111 242.413 227.228 242.448 227.323 242.5L227.141 243.449C227.046 243.414 226.942 243.388 226.829 243.371C226.717 243.354 226.556 243.345 226.348 243.345C226.08 243.345 225.807 243.423 225.529 243.579C225.261 243.735 225.035 243.973 224.853 244.294C224.671 244.606 224.58 245.005 224.58 245.49V249H223.54ZM229.367 241.252C229.133 241.252 228.942 241.183 228.795 241.044C228.656 240.897 228.587 240.706 228.587 240.472C228.587 240.238 228.656 240.052 228.795 239.913C228.942 239.766 229.133 239.692 229.367 239.692C229.601 239.692 229.787 239.766 229.926 239.913C230.073 240.052 230.147 240.238 230.147 240.472C230.147 240.706 230.073 240.897 229.926 241.044C229.787 241.183 229.601 241.252 229.367 241.252ZM229.887 242.5V249H228.847V242.5H229.887ZM233.834 240.654V247.206C233.834 247.527 233.925 247.765 234.107 247.921C234.289 248.077 234.523 248.155 234.809 248.155C235.06 248.155 235.277 248.112 235.459 248.025C235.641 247.938 235.806 247.821 235.953 247.674L236.317 248.545C236.118 248.727 235.879 248.87 235.602 248.974C235.333 249.078 235.021 249.13 234.666 249.13C234.337 249.13 234.029 249.074 233.743 248.961C233.457 248.84 233.227 248.653 233.054 248.402C232.889 248.142 232.803 247.804 232.794 247.388V240.94L233.834 240.654ZM236.2 242.5V243.397H231.494V242.5H236.2ZM237.746 249V239.51H238.786V243.475C239.012 243.085 239.311 242.803 239.683 242.63C240.056 242.457 240.463 242.37 240.905 242.37C241.373 242.37 241.798 242.461 242.179 242.643C242.561 242.816 242.864 243.085 243.089 243.449C243.323 243.813 243.44 244.277 243.44 244.84V249H242.4V245.204C242.4 244.485 242.244 243.986 241.932 243.709C241.629 243.423 241.252 243.28 240.801 243.28C240.489 243.28 240.177 243.354 239.865 243.501C239.553 243.648 239.293 243.891 239.085 244.229C238.886 244.558 238.786 245 238.786 245.555V249H237.746ZM245.795 249V242.5H246.705L246.77 243.514C247.004 243.115 247.307 242.825 247.68 242.643C248.061 242.461 248.451 242.37 248.85 242.37C249.309 242.37 249.743 242.474 250.15 242.682C250.557 242.89 250.869 243.211 251.086 243.644C251.225 243.349 251.42 243.111 251.671 242.929C251.922 242.738 252.195 242.6 252.49 242.513C252.793 242.418 253.079 242.37 253.348 242.37C253.764 242.37 254.158 242.457 254.531 242.63C254.912 242.803 255.224 243.072 255.467 243.436C255.71 243.8 255.831 244.268 255.831 244.84V249H254.791V244.944C254.791 244.355 254.644 243.93 254.349 243.67C254.054 243.41 253.69 243.28 253.257 243.28C252.919 243.28 252.603 243.362 252.308 243.527C252.013 243.692 251.775 243.934 251.593 244.255C251.42 244.576 251.333 244.97 251.333 245.438V249H250.293V244.944C250.293 244.355 250.146 243.93 249.851 243.67C249.556 243.41 249.192 243.28 248.759 243.28C248.473 243.28 248.178 243.358 247.875 243.514C247.58 243.661 247.333 243.9 247.134 244.229C246.935 244.558 246.835 244.992 246.835 245.529V249H245.795Z" fill="white"/>
<path d="M41.9735 266.801C41.9735 266.316 41.8435 265.943 41.5835 265.683C41.3235 265.414 40.9551 265.28 40.4785 265.28C40.0278 265.28 39.6465 265.38 39.3345 265.579C39.0225 265.77 38.7928 266.082 38.6455 266.515L37.8005 265.995C37.9738 265.51 38.2945 265.12 38.7625 264.825C39.2305 264.522 39.8111 264.37 40.5045 264.37C40.9725 264.37 41.3971 264.452 41.7785 264.617C42.1598 264.773 42.4588 265.016 42.6755 265.345C42.9008 265.666 43.0135 266.082 43.0135 266.593V269.739C43.0135 270.051 43.1782 270.207 43.5075 270.207C43.6721 270.207 43.8325 270.185 43.9885 270.142L43.9365 270.961C43.7631 271.048 43.5378 271.091 43.2605 271.091C43.0091 271.091 42.7838 271.043 42.5845 270.948C42.3851 270.853 42.2291 270.71 42.1165 270.519C42.0038 270.32 41.9475 270.073 41.9475 269.778V269.648L42.2075 269.687C42.1035 270.025 41.9258 270.302 41.6745 270.519C41.4231 270.727 41.1415 270.883 40.8295 270.987C40.5175 271.082 40.2098 271.13 39.9065 271.13C39.5251 271.13 39.1698 271.065 38.8405 270.935C38.5111 270.805 38.2468 270.61 38.0475 270.35C37.8568 270.081 37.7615 269.752 37.7615 269.362C37.7615 268.877 37.9218 268.478 38.2425 268.166C38.5718 267.845 39.0268 267.629 39.6075 267.516L42.1815 267.009V267.867L40.0885 268.296C39.6638 268.383 39.3475 268.504 39.1395 268.66C38.9315 268.816 38.8275 269.033 38.8275 269.31C38.8275 269.579 38.9315 269.8 39.1395 269.973C39.3561 270.138 39.6595 270.22 40.0495 270.22C40.3008 270.22 40.5391 270.19 40.7645 270.129C40.9985 270.06 41.2065 269.96 41.3885 269.83C41.5705 269.691 41.7135 269.522 41.8175 269.323C41.9215 269.115 41.9735 268.872 41.9735 268.595V266.801ZM45.5408 271V264.5H46.4508L46.5418 265.956L46.3728 265.813C46.5114 265.466 46.6978 265.189 46.9318 264.981C47.1658 264.764 47.4344 264.608 47.7378 264.513C48.0498 264.418 48.3704 264.37 48.6998 264.37C49.1678 264.37 49.5924 264.461 49.9738 264.643C50.3551 264.816 50.6584 265.085 50.8838 265.449C51.1178 265.813 51.2348 266.277 51.2348 266.84V271H50.1948V267.204C50.1948 266.485 50.0388 265.986 49.7268 265.709C49.4234 265.423 49.0464 265.28 48.5958 265.28C48.2838 265.28 47.9718 265.354 47.6598 265.501C47.3478 265.648 47.0878 265.887 46.8798 266.216C46.6804 266.545 46.5808 266.987 46.5808 267.542V271H45.5408ZM57.3856 266.801C57.3856 266.316 57.2556 265.943 56.9956 265.683C56.7356 265.414 56.3673 265.28 55.8906 265.28C55.4399 265.28 55.0586 265.38 54.7466 265.579C54.4346 265.77 54.2049 266.082 54.0576 266.515L53.2126 265.995C53.3859 265.51 53.7066 265.12 54.1746 264.825C54.6426 264.522 55.2233 264.37 55.9166 264.37C56.3846 264.37 56.8093 264.452 57.1906 264.617C57.5719 264.773 57.8709 265.016 58.0876 265.345C58.3129 265.666 58.4256 266.082 58.4256 266.593V269.739C58.4256 270.051 58.5903 270.207 58.9196 270.207C59.0843 270.207 59.2446 270.185 59.4006 270.142L59.3486 270.961C59.1753 271.048 58.9499 271.091 58.6726 271.091C58.4213 271.091 58.1959 271.043 57.9966 270.948C57.7973 270.853 57.6413 270.71 57.5286 270.519C57.4159 270.32 57.3596 270.073 57.3596 269.778V269.648L57.6196 269.687C57.5156 270.025 57.3379 270.302 57.0866 270.519C56.8353 270.727 56.5536 270.883 56.2416 270.987C55.9296 271.082 55.6219 271.13 55.3186 271.13C54.9373 271.13 54.5819 271.065 54.2526 270.935C53.9233 270.805 53.6589 270.61 53.4596 270.35C53.2689 270.081 53.1736 269.752 53.1736 269.362C53.1736 268.877 53.3339 268.478 53.6546 268.166C53.9839 267.845 54.4389 267.629 55.0196 267.516L57.5936 267.009V267.867L55.5006 268.296C55.0759 268.383 54.7596 268.504 54.5516 268.66C54.3436 268.816 54.2396 269.033 54.2396 269.31C54.2396 269.579 54.3436 269.8 54.5516 269.973C54.7683 270.138 55.0716 270.22 55.4616 270.22C55.7129 270.22 55.9513 270.19 56.1766 270.129C56.4106 270.06 56.6186 269.96 56.8006 269.83C56.9826 269.691 57.1256 269.522 57.2296 269.323C57.3336 269.115 57.3856 268.872 57.3856 268.595V266.801ZM61.9409 261.51V269.349C61.9409 269.678 62.0015 269.908 62.1229 270.038C62.2442 270.159 62.4392 270.22 62.7079 270.22C62.8812 270.22 63.0242 270.207 63.1369 270.181C63.2495 270.155 63.4012 270.107 63.5919 270.038L63.4229 270.948C63.2842 271.009 63.1325 271.052 62.9679 271.078C62.8032 271.113 62.6342 271.13 62.4609 271.13C61.9322 271.13 61.5379 270.987 61.2779 270.701C61.0265 270.415 60.9009 269.977 60.9009 269.388V261.51H61.9409ZM69.9394 264.5L66.8844 272.092C66.7198 272.517 66.5378 272.85 66.3384 273.093C66.1478 273.344 65.9311 273.522 65.6884 273.626C65.4544 273.739 65.1814 273.795 64.8694 273.795C64.5748 273.795 64.3018 273.752 64.0504 273.665C63.8078 273.587 63.5911 273.479 63.4004 273.34L63.6864 272.43C63.8598 272.586 64.0418 272.699 64.2324 272.768C64.4318 272.846 64.6268 272.885 64.8174 272.885C65.0428 272.885 65.2551 272.816 65.4544 272.677C65.6538 272.538 65.8358 272.257 66.0004 271.832L66.3384 270.987L65.6884 269.44L63.6214 264.5H64.8044L66.4294 268.738L66.8324 269.895L67.3004 268.608L68.8214 264.5H69.9394ZM73.4745 271.13C72.8418 271.13 72.2568 270.996 71.7195 270.727C71.1908 270.458 70.7835 270.077 70.4975 269.583L71.3815 268.946C71.5722 269.345 71.8495 269.657 72.2135 269.882C72.5862 270.107 73.0325 270.22 73.5525 270.22C74.0118 270.22 74.3715 270.133 74.6315 269.96C74.8915 269.778 75.0215 269.544 75.0215 269.258C75.0215 269.076 74.9608 268.911 74.8395 268.764C74.7268 268.608 74.5058 268.495 74.1765 268.426L72.6165 268.101C71.9838 267.971 71.5288 267.754 71.2515 267.451C70.9828 267.148 70.8485 266.771 70.8485 266.32C70.8485 265.965 70.9482 265.64 71.1475 265.345C71.3555 265.05 71.6458 264.816 72.0185 264.643C72.3998 264.461 72.8462 264.37 73.3575 264.37C73.9988 264.37 74.5405 264.496 74.9825 264.747C75.4245 264.998 75.7538 265.354 75.9705 265.813L75.0995 266.385C74.9522 266.004 74.7138 265.726 74.3845 265.553C74.0552 265.371 73.7128 265.28 73.3575 265.28C73.0455 265.28 72.7768 265.323 72.5515 265.41C72.3348 265.497 72.1658 265.618 72.0445 265.774C71.9318 265.921 71.8755 266.09 71.8755 266.281C71.8755 266.472 71.9405 266.649 72.0705 266.814C72.2005 266.97 72.4432 267.083 72.7985 267.152L74.4235 267.49C75.0302 267.611 75.4548 267.811 75.6975 268.088C75.9402 268.365 76.0615 268.703 76.0615 269.102C76.0615 269.509 75.9532 269.869 75.7365 270.181C75.5198 270.484 75.2165 270.718 74.8265 270.883C74.4365 271.048 73.9858 271.13 73.4745 271.13ZM80.707 271.13C80.0916 271.13 79.5413 270.996 79.056 270.727C78.5793 270.458 78.2066 270.073 77.938 269.57C77.6693 269.059 77.535 268.452 77.535 267.75C77.535 267.048 77.6693 266.446 77.938 265.943C78.2066 265.432 78.575 265.042 79.043 264.773C79.511 264.504 80.044 264.37 80.642 264.37C81.2486 264.37 81.7643 264.5 82.189 264.76C82.6223 265.02 82.9516 265.375 83.177 265.826C83.4023 266.268 83.515 266.766 83.515 267.321C83.515 267.468 83.5106 267.603 83.502 267.724C83.4933 267.845 83.4803 267.954 83.463 268.049H78.211V267.126H83.008L82.475 267.23C82.475 266.606 82.3016 266.125 81.955 265.787C81.617 265.449 81.1706 265.28 80.616 265.28C80.1913 265.28 79.823 265.38 79.511 265.579C79.2076 265.77 78.9693 266.051 78.796 266.424C78.6313 266.788 78.549 267.23 78.549 267.75C78.549 268.261 78.6356 268.703 78.809 269.076C78.9823 269.449 79.225 269.735 79.537 269.934C79.8576 270.125 80.239 270.22 80.681 270.22C81.1576 270.22 81.5433 270.129 81.838 269.947C82.1413 269.765 82.384 269.518 82.566 269.206L83.385 269.687C83.2203 269.982 83.008 270.237 82.748 270.454C82.4966 270.671 82.1976 270.84 81.851 270.961C81.513 271.074 81.1316 271.13 80.707 271.13ZM87.8329 271.13C87.2002 271.13 86.6152 270.996 86.0779 270.727C85.5492 270.458 85.1419 270.077 84.8559 269.583L85.7399 268.946C85.9306 269.345 86.2079 269.657 86.5719 269.882C86.9446 270.107 87.3909 270.22 87.9109 270.22C88.3702 270.22 88.7299 270.133 88.9899 269.96C89.2499 269.778 89.3799 269.544 89.3799 269.258C89.3799 269.076 89.3192 268.911 89.1979 268.764C89.0852 268.608 88.8642 268.495 88.5349 268.426L86.9749 268.101C86.3422 267.971 85.8872 267.754 85.6099 267.451C85.3412 267.148 85.2069 266.771 85.2069 266.32C85.2069 265.965 85.3066 265.64 85.5059 265.345C85.7139 265.05 86.0042 264.816 86.3769 264.643C86.7582 264.461 87.2046 264.37 87.7159 264.37C88.3572 264.37 88.8989 264.496 89.3409 264.747C89.7829 264.998 90.1122 265.354 90.3289 265.813L89.4579 266.385C89.3106 266.004 89.0722 265.726 88.7429 265.553C88.4136 265.371 88.0712 265.28 87.7159 265.28C87.4039 265.28 87.1352 265.323 86.9099 265.41C86.6932 265.497 86.5242 265.618 86.4029 265.774C86.2902 265.921 86.2339 266.09 86.2339 266.281C86.2339 266.472 86.2989 266.649 86.4289 266.814C86.5589 266.97 86.8016 267.083 87.1569 267.152L88.7819 267.49C89.3886 267.611 89.8132 267.811 90.0559 268.088C90.2986 268.365 90.4199 268.703 90.4199 269.102C90.4199 269.509 90.3116 269.869 90.0949 270.181C89.8782 270.484 89.5749 270.718 89.1849 270.883C88.7949 271.048 88.3442 271.13 87.8329 271.13ZM96.779 271V264.5H97.689L97.754 265.514C97.988 265.115 98.2914 264.825 98.664 264.643C99.0454 264.461 99.4354 264.37 99.834 264.37C100.293 264.37 100.727 264.474 101.134 264.682C101.541 264.89 101.853 265.211 102.07 265.644C102.209 265.349 102.404 265.111 102.655 264.929C102.906 264.738 103.179 264.6 103.474 264.513C103.777 264.418 104.063 264.37 104.332 264.37C104.748 264.37 105.142 264.457 105.515 264.63C105.896 264.803 106.208 265.072 106.451 265.436C106.694 265.8 106.815 266.268 106.815 266.84V271H105.775V266.944C105.775 266.355 105.628 265.93 105.333 265.67C105.038 265.41 104.674 265.28 104.241 265.28C103.903 265.28 103.587 265.362 103.292 265.527C102.997 265.692 102.759 265.934 102.577 266.255C102.404 266.576 102.317 266.97 102.317 267.438V271H101.277V266.944C101.277 266.355 101.13 265.93 100.835 265.67C100.54 265.41 100.176 265.28 99.743 265.28C99.457 265.28 99.1624 265.358 98.859 265.514C98.5644 265.661 98.3174 265.9 98.118 266.229C97.9187 266.558 97.819 266.992 97.819 267.529V271H96.779ZM109.69 263.252C109.456 263.252 109.265 263.183 109.118 263.044C108.979 262.897 108.91 262.706 108.91 262.472C108.91 262.238 108.979 262.052 109.118 261.913C109.265 261.766 109.456 261.692 109.69 261.692C109.924 261.692 110.11 261.766 110.249 261.913C110.396 262.052 110.47 262.238 110.47 262.472C110.47 262.706 110.396 262.897 110.249 263.044C110.11 263.183 109.924 263.252 109.69 263.252ZM110.21 264.5V271H109.17V264.5H110.21ZM113.611 261.51V269.349C113.611 269.678 113.671 269.908 113.793 270.038C113.914 270.159 114.109 270.22 114.378 270.22C114.551 270.22 114.694 270.207 114.807 270.181C114.919 270.155 115.071 270.107 115.262 270.038L115.093 270.948C114.954 271.009 114.802 271.052 114.638 271.078C114.473 271.113 114.304 271.13 114.131 271.13C113.602 271.13 113.208 270.987 112.948 270.701C112.696 270.415 112.571 269.977 112.571 269.388V261.51H113.611ZM117.584 261.51V269.349C117.584 269.678 117.645 269.908 117.766 270.038C117.888 270.159 118.083 270.22 118.351 270.22C118.525 270.22 118.668 270.207 118.78 270.181C118.893 270.155 119.045 270.107 119.235 270.038L119.066 270.948C118.928 271.009 118.776 271.052 118.611 271.078C118.447 271.113 118.278 271.13 118.104 271.13C117.576 271.13 117.181 270.987 116.921 270.701C116.67 270.415 116.544 269.977 116.544 269.388V261.51H117.584ZM121.09 263.252C120.856 263.252 120.665 263.183 120.518 263.044C120.379 262.897 120.31 262.706 120.31 262.472C120.31 262.238 120.379 262.052 120.518 261.913C120.665 261.766 120.856 261.692 121.09 261.692C121.324 261.692 121.51 261.766 121.649 261.913C121.796 262.052 121.87 262.238 121.87 262.472C121.87 262.706 121.796 262.897 121.649 263.044C121.51 263.183 121.324 263.252 121.09 263.252ZM121.61 264.5V271H120.57V264.5H121.61ZM126.714 264.37C127.33 264.37 127.871 264.504 128.339 264.773C128.816 265.042 129.189 265.432 129.457 265.943C129.726 266.446 129.86 267.048 129.86 267.75C129.86 268.452 129.726 269.059 129.457 269.57C129.189 270.073 128.816 270.458 128.339 270.727C127.871 270.996 127.33 271.13 126.714 271.13C126.108 271.13 125.566 270.996 125.089 270.727C124.613 270.458 124.24 270.073 123.971 269.57C123.703 269.059 123.568 268.452 123.568 267.75C123.568 267.048 123.703 266.446 123.971 265.943C124.24 265.432 124.613 265.042 125.089 264.773C125.566 264.504 126.108 264.37 126.714 264.37ZM126.714 265.267C126.272 265.267 125.895 265.367 125.583 265.566C125.271 265.765 125.029 266.051 124.855 266.424C124.691 266.788 124.608 267.23 124.608 267.75C124.608 268.261 124.691 268.703 124.855 269.076C125.029 269.449 125.271 269.735 125.583 269.934C125.895 270.133 126.272 270.233 126.714 270.233C127.156 270.233 127.533 270.133 127.845 269.934C128.157 269.735 128.396 269.449 128.56 269.076C128.734 268.703 128.82 268.261 128.82 267.75C128.82 267.23 128.734 266.788 128.56 266.424C128.396 266.051 128.157 265.765 127.845 265.566C127.533 265.367 127.156 265.267 126.714 265.267ZM131.818 271V264.5H132.728L132.819 265.956L132.65 265.813C132.789 265.466 132.975 265.189 133.209 264.981C133.443 264.764 133.712 264.608 134.015 264.513C134.327 264.418 134.648 264.37 134.977 264.37C135.445 264.37 135.87 264.461 136.251 264.643C136.632 264.816 136.936 265.085 137.161 265.449C137.395 265.813 137.512 266.277 137.512 266.84V271H136.472V267.204C136.472 266.485 136.316 265.986 136.004 265.709C135.701 265.423 135.324 265.28 134.873 265.28C134.561 265.28 134.249 265.354 133.937 265.501C133.625 265.648 133.365 265.887 133.157 266.216C132.958 266.545 132.858 266.987 132.858 267.542V271H131.818ZM142.207 271.13C141.574 271.13 140.989 270.996 140.452 270.727C139.923 270.458 139.516 270.077 139.23 269.583L140.114 268.946C140.305 269.345 140.582 269.657 140.946 269.882C141.319 270.107 141.765 270.22 142.285 270.22C142.744 270.22 143.104 270.133 143.364 269.96C143.624 269.778 143.754 269.544 143.754 269.258C143.754 269.076 143.693 268.911 143.572 268.764C143.459 268.608 143.238 268.495 142.909 268.426L141.349 268.101C140.716 267.971 140.261 267.754 139.984 267.451C139.715 267.148 139.581 266.771 139.581 266.32C139.581 265.965 139.681 265.64 139.88 265.345C140.088 265.05 140.378 264.816 140.751 264.643C141.132 264.461 141.579 264.37 142.09 264.37C142.731 264.37 143.273 264.496 143.715 264.747C144.157 264.998 144.486 265.354 144.703 265.813L143.832 266.385C143.685 266.004 143.446 265.726 143.117 265.553C142.788 265.371 142.445 265.28 142.09 265.28C141.778 265.28 141.509 265.323 141.284 265.41C141.067 265.497 140.898 265.618 140.777 265.774C140.664 265.921 140.608 266.09 140.608 266.281C140.608 266.472 140.673 266.649 140.803 266.814C140.933 266.97 141.176 267.083 141.531 267.152L143.156 267.49C143.763 267.611 144.187 267.811 144.43 268.088C144.673 268.365 144.794 268.703 144.794 269.102C144.794 269.509 144.686 269.869 144.469 270.181C144.252 270.484 143.949 270.718 143.559 270.883C143.169 271.048 142.718 271.13 142.207 271.13ZM153.844 264.37C154.459 264.37 155.001 264.504 155.469 264.773C155.946 265.042 156.318 265.432 156.587 265.943C156.856 266.446 156.99 267.048 156.99 267.75C156.99 268.452 156.856 269.059 156.587 269.57C156.318 270.073 155.946 270.458 155.469 270.727C155.001 270.996 154.459 271.13 153.844 271.13C153.237 271.13 152.696 270.996 152.219 270.727C151.742 270.458 151.37 270.073 151.101 269.57C150.832 269.059 150.698 268.452 150.698 267.75C150.698 267.048 150.832 266.446 151.101 265.943C151.37 265.432 151.742 265.042 152.219 264.773C152.696 264.504 153.237 264.37 153.844 264.37ZM153.844 265.267C153.402 265.267 153.025 265.367 152.713 265.566C152.401 265.765 152.158 266.051 151.985 266.424C151.82 266.788 151.738 267.23 151.738 267.75C151.738 268.261 151.82 268.703 151.985 269.076C152.158 269.449 152.401 269.735 152.713 269.934C153.025 270.133 153.402 270.233 153.844 270.233C154.286 270.233 154.663 270.133 154.975 269.934C155.287 269.735 155.525 269.449 155.69 269.076C155.863 268.703 155.95 268.261 155.95 267.75C155.95 267.23 155.863 266.788 155.69 266.424C155.525 266.051 155.287 265.765 154.975 265.566C154.663 265.367 154.286 265.267 153.844 265.267ZM161.473 261.445C161.698 261.445 161.91 261.471 162.11 261.523C162.309 261.575 162.465 261.649 162.578 261.744L162.305 262.589C162.201 262.52 162.088 262.472 161.967 262.446C161.845 262.411 161.711 262.394 161.564 262.394C161.191 262.394 160.901 262.485 160.693 262.667C160.485 262.84 160.381 263.122 160.381 263.512V264.5V264.838V271H159.341V263.408C159.341 263.122 159.384 262.858 159.471 262.615C159.557 262.372 159.687 262.164 159.861 261.991C160.043 261.818 160.268 261.683 160.537 261.588C160.805 261.493 161.117 261.445 161.473 261.445ZM162.552 264.5V265.397H158.041V264.5H162.552ZM170.382 271.13C169.845 271.13 169.351 270.996 168.9 270.727C168.45 270.458 168.09 270.073 167.821 269.57C167.553 269.059 167.418 268.452 167.418 267.75C167.418 267.031 167.561 266.42 167.847 265.917C168.133 265.414 168.51 265.033 168.978 264.773C169.446 264.504 169.949 264.37 170.486 264.37C171.024 264.37 171.487 264.509 171.877 264.786C172.276 265.063 172.54 265.432 172.67 265.891L172.54 265.982V261.51H173.58V271H172.67L172.579 269.427L172.722 269.349C172.662 269.73 172.514 270.055 172.28 270.324C172.055 270.584 171.773 270.783 171.435 270.922C171.106 271.061 170.755 271.13 170.382 271.13ZM170.486 270.22C170.902 270.22 171.262 270.116 171.565 269.908C171.877 269.7 172.116 269.405 172.28 269.024C172.454 268.634 172.54 268.179 172.54 267.659C172.54 267.165 172.454 266.74 172.28 266.385C172.116 266.03 171.882 265.757 171.578 265.566C171.284 265.375 170.937 265.28 170.538 265.28C169.88 265.28 169.368 265.505 169.004 265.956C168.64 266.407 168.458 267.005 168.458 267.75C168.458 268.495 168.636 269.093 168.991 269.544C169.347 269.995 169.845 270.22 170.486 270.22ZM179.794 266.801C179.794 266.316 179.664 265.943 179.404 265.683C179.144 265.414 178.775 265.28 178.299 265.28C177.848 265.28 177.467 265.38 177.155 265.579C176.843 265.77 176.613 266.082 176.466 266.515L175.621 265.995C175.794 265.51 176.115 265.12 176.583 264.825C177.051 264.522 177.631 264.37 178.325 264.37C178.793 264.37 179.217 264.452 179.599 264.617C179.98 264.773 180.279 265.016 180.496 265.345C180.721 265.666 180.834 266.082 180.834 266.593V269.739C180.834 270.051 180.998 270.207 181.328 270.207C181.492 270.207 181.653 270.185 181.809 270.142L181.757 270.961C181.583 271.048 181.358 271.091 181.081 271.091C180.829 271.091 180.604 271.043 180.405 270.948C180.205 270.853 180.049 270.71 179.937 270.519C179.824 270.32 179.768 270.073 179.768 269.778V269.648L180.028 269.687C179.924 270.025 179.746 270.302 179.495 270.519C179.243 270.727 178.962 270.883 178.65 270.987C178.338 271.082 178.03 271.13 177.727 271.13C177.345 271.13 176.99 271.065 176.661 270.935C176.331 270.805 176.067 270.61 175.868 270.35C175.677 270.081 175.582 269.752 175.582 269.362C175.582 268.877 175.742 268.478 176.063 268.166C176.392 267.845 176.847 267.629 177.428 267.516L180.002 267.009V267.867L177.909 268.296C177.484 268.383 177.168 268.504 176.96 268.66C176.752 268.816 176.648 269.033 176.648 269.31C176.648 269.579 176.752 269.8 176.96 269.973C177.176 270.138 177.48 270.22 177.87 270.22C178.121 270.22 178.359 270.19 178.585 270.129C178.819 270.06 179.027 269.96 179.209 269.83C179.391 269.691 179.534 269.522 179.638 269.323C179.742 269.115 179.794 268.872 179.794 268.595V266.801ZM184.641 262.654V269.206C184.641 269.527 184.732 269.765 184.914 269.921C185.096 270.077 185.33 270.155 185.616 270.155C185.867 270.155 186.084 270.112 186.266 270.025C186.448 269.938 186.613 269.821 186.76 269.674L187.124 270.545C186.925 270.727 186.686 270.87 186.409 270.974C186.14 271.078 185.828 271.13 185.473 271.13C185.144 271.13 184.836 271.074 184.55 270.961C184.264 270.84 184.034 270.653 183.861 270.402C183.696 270.142 183.61 269.804 183.601 269.388V262.94L184.641 262.654ZM187.007 264.5V265.397H182.301V264.5H187.007ZM192.349 266.801C192.349 266.316 192.219 265.943 191.959 265.683C191.699 265.414 191.331 265.28 190.854 265.28C190.404 265.28 190.022 265.38 189.71 265.579C189.398 265.77 189.169 266.082 189.021 266.515L188.176 265.995C188.35 265.51 188.67 265.12 189.138 264.825C189.606 264.522 190.187 264.37 190.88 264.37C191.348 264.37 191.773 264.452 192.154 264.617C192.536 264.773 192.835 265.016 193.051 265.345C193.277 265.666 193.389 266.082 193.389 266.593V269.739C193.389 270.051 193.554 270.207 193.883 270.207C194.048 270.207 194.208 270.185 194.364 270.142L194.312 270.961C194.139 271.048 193.914 271.091 193.636 271.091C193.385 271.091 193.16 271.043 192.96 270.948C192.761 270.853 192.605 270.71 192.492 270.519C192.38 270.32 192.323 270.073 192.323 269.778V269.648L192.583 269.687C192.479 270.025 192.302 270.302 192.05 270.519C191.799 270.727 191.517 270.883 191.205 270.987C190.893 271.082 190.586 271.13 190.282 271.13C189.901 271.13 189.546 271.065 189.216 270.935C188.887 270.805 188.623 270.61 188.423 270.35C188.233 270.081 188.137 269.752 188.137 269.362C188.137 268.877 188.298 268.478 188.618 268.166C188.948 267.845 189.403 267.629 189.983 267.516L192.557 267.009V267.867L190.464 268.296C190.04 268.383 189.723 268.504 189.515 268.66C189.307 268.816 189.203 269.033 189.203 269.31C189.203 269.579 189.307 269.8 189.515 269.973C189.732 270.138 190.035 270.22 190.425 270.22C190.677 270.22 190.915 270.19 191.14 270.129C191.374 270.06 191.582 269.96 191.764 269.83C191.946 269.691 192.089 269.522 192.193 269.323C192.297 269.115 192.349 268.872 192.349 268.595V266.801ZM200.043 273.73V264.5H200.953L201.044 266.086L200.901 265.904C201.013 265.601 201.182 265.336 201.408 265.111C201.633 264.877 201.906 264.695 202.227 264.565C202.547 264.435 202.894 264.37 203.267 264.37C203.795 264.37 204.281 264.504 204.723 264.773C205.173 265.042 205.533 265.427 205.802 265.93C206.07 266.433 206.205 267.039 206.205 267.75C206.205 268.452 206.066 269.059 205.789 269.57C205.52 270.073 205.16 270.458 204.71 270.727C204.259 270.996 203.765 271.13 203.228 271.13C202.69 271.13 202.218 271 201.811 270.74C201.412 270.471 201.126 270.133 200.953 269.726L201.083 269.531V273.73H200.043ZM203.124 270.22C203.765 270.22 204.263 269.995 204.619 269.544C204.983 269.093 205.165 268.495 205.165 267.75C205.165 267.005 204.987 266.407 204.632 265.956C204.285 265.505 203.795 265.28 203.163 265.28C202.747 265.28 202.383 265.384 202.071 265.592C201.759 265.791 201.516 266.077 201.343 266.45C201.169 266.814 201.083 267.247 201.083 267.75C201.083 268.244 201.165 268.677 201.33 269.05C201.503 269.423 201.741 269.713 202.045 269.921C202.357 270.12 202.716 270.22 203.124 270.22ZM210.884 264.37C211.499 264.37 212.041 264.504 212.509 264.773C212.986 265.042 213.358 265.432 213.627 265.943C213.896 266.446 214.03 267.048 214.03 267.75C214.03 268.452 213.896 269.059 213.627 269.57C213.358 270.073 212.986 270.458 212.509 270.727C212.041 270.996 211.499 271.13 210.884 271.13C210.277 271.13 209.736 270.996 209.259 270.727C208.782 270.458 208.41 270.073 208.141 269.57C207.872 269.059 207.738 268.452 207.738 267.75C207.738 267.048 207.872 266.446 208.141 265.943C208.41 265.432 208.782 265.042 209.259 264.773C209.736 264.504 210.277 264.37 210.884 264.37ZM210.884 265.267C210.442 265.267 210.065 265.367 209.753 265.566C209.441 265.765 209.198 266.051 209.025 266.424C208.86 266.788 208.778 267.23 208.778 267.75C208.778 268.261 208.86 268.703 209.025 269.076C209.198 269.449 209.441 269.735 209.753 269.934C210.065 270.133 210.442 270.233 210.884 270.233C211.326 270.233 211.703 270.133 212.015 269.934C212.327 269.735 212.565 269.449 212.73 269.076C212.903 268.703 212.99 268.261 212.99 267.75C212.99 267.23 212.903 266.788 212.73 266.424C212.565 266.051 212.327 265.765 212.015 265.566C211.703 265.367 211.326 265.267 210.884 265.267ZM216.508 263.252C216.274 263.252 216.083 263.183 215.936 263.044C215.797 262.897 215.728 262.706 215.728 262.472C215.728 262.238 215.797 262.052 215.936 261.913C216.083 261.766 216.274 261.692 216.508 261.692C216.742 261.692 216.928 261.766 217.067 261.913C217.214 262.052 217.288 262.238 217.288 262.472C217.288 262.706 217.214 262.897 217.067 263.044C216.928 263.183 216.742 263.252 216.508 263.252ZM217.028 264.5V271H215.988V264.5H217.028ZM219.441 271V264.5H220.351L220.442 265.956L220.273 265.813C220.412 265.466 220.598 265.189 220.832 264.981C221.066 264.764 221.335 264.608 221.638 264.513C221.95 264.418 222.271 264.37 222.6 264.37C223.068 264.37 223.493 264.461 223.874 264.643C224.255 264.816 224.559 265.085 224.784 265.449C225.018 265.813 225.135 266.277 225.135 266.84V271H224.095V267.204C224.095 266.485 223.939 265.986 223.627 265.709C223.324 265.423 222.947 265.28 222.496 265.28C222.184 265.28 221.872 265.354 221.56 265.501C221.248 265.648 220.988 265.887 220.78 266.216C220.581 266.545 220.481 266.987 220.481 267.542V271H219.441ZM228.935 262.654V269.206C228.935 269.527 229.026 269.765 229.208 269.921C229.39 270.077 229.624 270.155 229.91 270.155C230.161 270.155 230.378 270.112 230.56 270.025C230.742 269.938 230.907 269.821 231.054 269.674L231.418 270.545C231.219 270.727 230.98 270.87 230.703 270.974C230.434 271.078 230.122 271.13 229.767 271.13C229.438 271.13 229.13 271.074 228.844 270.961C228.558 270.84 228.328 270.653 228.155 270.402C227.99 270.142 227.904 269.804 227.895 269.388V262.94L228.935 262.654ZM231.301 264.5V265.397H226.595V264.5H231.301ZM235.187 271.13C234.555 271.13 233.97 270.996 233.432 270.727C232.904 270.458 232.496 270.077 232.21 269.583L233.094 268.946C233.285 269.345 233.562 269.657 233.926 269.882C234.299 270.107 234.745 270.22 235.265 270.22C235.725 270.22 236.084 270.133 236.344 269.96C236.604 269.778 236.734 269.544 236.734 269.258C236.734 269.076 236.674 268.911 236.552 268.764C236.44 268.608 236.219 268.495 235.889 268.426L234.329 268.101C233.697 267.971 233.242 267.754 232.964 267.451C232.696 267.148 232.561 266.771 232.561 266.32C232.561 265.965 232.661 265.64 232.86 265.345C233.068 265.05 233.359 264.816 233.731 264.643C234.113 264.461 234.559 264.37 235.07 264.37C235.712 264.37 236.253 264.496 236.695 264.747C237.137 264.998 237.467 265.354 237.683 265.813L236.812 266.385C236.665 266.004 236.427 265.726 236.097 265.553C235.768 265.371 235.426 265.28 235.07 265.28C234.758 265.28 234.49 265.323 234.264 265.41C234.048 265.497 233.879 265.618 233.757 265.774C233.645 265.921 233.588 266.09 233.588 266.281C233.588 266.472 233.653 266.649 233.783 266.814C233.913 266.97 234.156 267.083 234.511 267.152L236.136 267.49C236.743 267.611 237.168 267.811 237.41 268.088C237.653 268.365 237.774 268.703 237.774 269.102C237.774 269.509 237.666 269.869 237.449 270.181C237.233 270.484 236.929 270.718 236.539 270.883C236.149 271.048 235.699 271.13 235.187 271.13ZM245.414 262.654V269.206C245.414 269.527 245.505 269.765 245.687 269.921C245.869 270.077 246.103 270.155 246.389 270.155C246.64 270.155 246.857 270.112 247.039 270.025C247.221 269.938 247.385 269.821 247.533 269.674L247.897 270.545C247.697 270.727 247.459 270.87 247.182 270.974C246.913 271.078 246.601 271.13 246.246 271.13C245.916 271.13 245.609 271.074 245.323 270.961C245.037 270.84 244.807 270.653 244.634 270.402C244.469 270.142 244.382 269.804 244.374 269.388V262.94L245.414 262.654ZM247.78 264.5V265.397H243.074V264.5H247.78ZM252.017 264.37C252.632 264.37 253.174 264.504 253.642 264.773C254.119 265.042 254.491 265.432 254.76 265.943C255.029 266.446 255.163 267.048 255.163 267.75C255.163 268.452 255.029 269.059 254.76 269.57C254.491 270.073 254.119 270.458 253.642 270.727C253.174 270.996 252.632 271.13 252.017 271.13C251.41 271.13 250.869 270.996 250.392 270.727C249.915 270.458 249.543 270.073 249.274 269.57C249.005 269.059 248.871 268.452 248.871 267.75C248.871 267.048 249.005 266.446 249.274 265.943C249.543 265.432 249.915 265.042 250.392 264.773C250.869 264.504 251.41 264.37 252.017 264.37ZM252.017 265.267C251.575 265.267 251.198 265.367 250.886 265.566C250.574 265.765 250.331 266.051 250.158 266.424C249.993 266.788 249.911 267.23 249.911 267.75C249.911 268.261 249.993 268.703 250.158 269.076C250.331 269.449 250.574 269.735 250.886 269.934C251.198 270.133 251.575 270.233 252.017 270.233C252.459 270.233 252.836 270.133 253.148 269.934C253.46 269.735 253.698 269.449 253.863 269.076C254.036 268.703 254.123 268.261 254.123 267.75C254.123 267.23 254.036 266.788 253.863 266.424C253.698 266.051 253.46 265.765 253.148 265.566C252.836 265.367 252.459 265.267 252.017 265.267Z" fill="white"/>
<path d="M97.4804 293.13C96.8651 293.13 96.3147 292.996 95.8294 292.727C95.3527 292.458 94.9801 292.073 94.7114 291.57C94.4427 291.059 94.3084 290.452 94.3084 289.75C94.3084 289.048 94.4427 288.446 94.7114 287.943C94.9801 287.432 95.3484 287.042 95.8164 286.773C96.2844 286.504 96.8174 286.37 97.4154 286.37C98.0221 286.37 98.5377 286.5 98.9624 286.76C99.3957 287.02 99.7251 287.375 99.9504 287.826C100.176 288.268 100.288 288.766 100.288 289.321C100.288 289.468 100.284 289.603 100.275 289.724C100.267 289.845 100.254 289.954 100.236 290.049H94.9844V289.126H99.7814L99.2484 289.23C99.2484 288.606 99.0751 288.125 98.7284 287.787C98.3904 287.449 97.9441 287.28 97.3894 287.28C96.9647 287.28 96.5964 287.38 96.2844 287.579C95.9811 287.77 95.7427 288.051 95.5694 288.424C95.4047 288.788 95.3224 289.23 95.3224 289.75C95.3224 290.261 95.4091 290.703 95.5824 291.076C95.7557 291.449 95.9984 291.735 96.3104 291.934C96.6311 292.125 97.0124 292.22 97.4544 292.22C97.9311 292.22 98.3167 292.129 98.6114 291.947C98.9147 291.765 99.1574 291.518 99.3394 291.206L100.158 291.687C99.9937 291.982 99.7814 292.237 99.5214 292.454C99.2701 292.671 98.9711 292.84 98.6244 292.961C98.2864 293.074 97.9051 293.13 97.4804 293.13ZM102.649 286.5L104.586 289.217L104.651 289.308L107.316 293H106.042L104.027 290.179L103.91 290.036L101.349 286.5H102.649ZM107.277 286.5L104.703 289.971H104.638L102.402 293H101.193L104.027 289.269H104.105L106.055 286.5H107.277ZM110.491 284.654V291.206C110.491 291.527 110.582 291.765 110.764 291.921C110.946 292.077 111.18 292.155 111.466 292.155C111.717 292.155 111.934 292.112 112.116 292.025C112.298 291.938 112.462 291.821 112.61 291.674L112.974 292.545C112.774 292.727 112.536 292.87 112.259 292.974C111.99 293.078 111.678 293.13 111.323 293.13C110.993 293.13 110.686 293.074 110.4 292.961C110.114 292.84 109.884 292.653 109.711 292.402C109.546 292.142 109.459 291.804 109.451 291.388V284.94L110.491 284.654ZM112.857 286.5V287.397H108.151V286.5H112.857ZM114.403 293V286.5H115.248L115.391 287.566C115.573 287.167 115.837 286.868 116.184 286.669C116.539 286.47 116.968 286.37 117.471 286.37C117.584 286.37 117.705 286.379 117.835 286.396C117.974 286.413 118.091 286.448 118.186 286.5L118.004 287.449C117.909 287.414 117.805 287.388 117.692 287.371C117.579 287.354 117.419 287.345 117.211 287.345C116.942 287.345 116.669 287.423 116.392 287.579C116.123 287.735 115.898 287.973 115.716 288.294C115.534 288.606 115.443 289.005 115.443 289.49V293H114.403ZM123.328 288.801C123.328 288.316 123.198 287.943 122.938 287.683C122.678 287.414 122.31 287.28 121.833 287.28C121.382 287.28 121.001 287.38 120.689 287.579C120.377 287.77 120.147 288.082 120 288.515L119.155 287.995C119.328 287.51 119.649 287.12 120.117 286.825C120.585 286.522 121.166 286.37 121.859 286.37C122.327 286.37 122.752 286.452 123.133 286.617C123.514 286.773 123.813 287.016 124.03 287.345C124.255 287.666 124.368 288.082 124.368 288.593V291.739C124.368 292.051 124.533 292.207 124.862 292.207C125.027 292.207 125.187 292.185 125.343 292.142L125.291 292.961C125.118 293.048 124.892 293.091 124.615 293.091C124.364 293.091 124.138 293.043 123.939 292.948C123.74 292.853 123.584 292.71 123.471 292.519C123.358 292.32 123.302 292.073 123.302 291.778V291.648L123.562 291.687C123.458 292.025 123.28 292.302 123.029 292.519C122.778 292.727 122.496 292.883 122.184 292.987C121.872 293.082 121.564 293.13 121.261 293.13C120.88 293.13 120.524 293.065 120.195 292.935C119.866 292.805 119.601 292.61 119.402 292.35C119.211 292.081 119.116 291.752 119.116 291.362C119.116 290.877 119.276 290.478 119.597 290.166C119.926 289.845 120.381 289.629 120.962 289.516L123.536 289.009V289.867L121.443 290.296C121.018 290.383 120.702 290.504 120.494 290.66C120.286 290.816 120.182 291.033 120.182 291.31C120.182 291.579 120.286 291.8 120.494 291.973C120.711 292.138 121.014 292.22 121.404 292.22C121.655 292.22 121.894 292.19 122.119 292.129C122.353 292.06 122.561 291.96 122.743 291.83C122.925 291.691 123.068 291.522 123.172 291.323C123.276 291.115 123.328 290.872 123.328 290.595V288.801ZM129.586 286.37C130.037 286.37 130.431 286.439 130.769 286.578C131.116 286.717 131.415 286.916 131.666 287.176C131.918 287.436 132.121 287.744 132.277 288.099L131.289 288.567C131.151 288.151 130.938 287.835 130.652 287.618C130.375 287.393 130.011 287.28 129.56 287.28C129.127 287.28 128.754 287.38 128.442 287.579C128.13 287.77 127.892 288.051 127.727 288.424C127.563 288.788 127.48 289.23 127.48 289.75C127.48 290.261 127.563 290.703 127.727 291.076C127.892 291.449 128.13 291.735 128.442 291.934C128.754 292.125 129.127 292.22 129.56 292.22C129.898 292.22 130.189 292.168 130.431 292.064C130.683 291.96 130.886 291.808 131.042 291.609C131.207 291.41 131.32 291.167 131.38 290.881L132.342 291.219C132.195 291.618 131.991 291.96 131.731 292.246C131.48 292.532 131.172 292.753 130.808 292.909C130.453 293.056 130.046 293.13 129.586 293.13C128.98 293.13 128.438 292.996 127.961 292.727C127.485 292.458 127.112 292.073 126.843 291.57C126.575 291.059 126.44 290.452 126.44 289.75C126.44 289.048 126.575 288.446 126.843 287.943C127.112 287.432 127.485 287.042 127.961 286.773C128.438 286.504 128.98 286.37 129.586 286.37ZM135.704 284.654V291.206C135.704 291.527 135.795 291.765 135.977 291.921C136.159 292.077 136.393 292.155 136.679 292.155C136.93 292.155 137.147 292.112 137.329 292.025C137.511 291.938 137.675 291.821 137.823 291.674L138.187 292.545C137.987 292.727 137.749 292.87 137.472 292.974C137.203 293.078 136.891 293.13 136.536 293.13C136.206 293.13 135.899 293.074 135.613 292.961C135.327 292.84 135.097 292.653 134.924 292.402C134.759 292.142 134.672 291.804 134.664 291.388V284.94L135.704 284.654ZM138.07 286.5V287.397H133.364V286.5H138.07ZM144.047 295.73V286.5H144.957L145.048 288.086L144.905 287.904C145.017 287.601 145.186 287.336 145.412 287.111C145.637 286.877 145.91 286.695 146.231 286.565C146.551 286.435 146.898 286.37 147.271 286.37C147.799 286.37 148.285 286.504 148.727 286.773C149.177 287.042 149.537 287.427 149.806 287.93C150.074 288.433 150.209 289.039 150.209 289.75C150.209 290.452 150.07 291.059 149.793 291.57C149.524 292.073 149.164 292.458 148.714 292.727C148.263 292.996 147.769 293.13 147.232 293.13C146.694 293.13 146.222 293 145.815 292.74C145.416 292.471 145.13 292.133 144.957 291.726L145.087 291.531V295.73H144.047ZM147.128 292.22C147.769 292.22 148.267 291.995 148.623 291.544C148.987 291.093 149.169 290.495 149.169 289.75C149.169 289.005 148.991 288.407 148.636 287.956C148.289 287.505 147.799 287.28 147.167 287.28C146.751 287.28 146.387 287.384 146.075 287.592C145.763 287.791 145.52 288.077 145.347 288.45C145.173 288.814 145.087 289.247 145.087 289.75C145.087 290.244 145.169 290.677 145.334 291.05C145.507 291.423 145.745 291.713 146.049 291.921C146.361 292.12 146.72 292.22 147.128 292.22ZM155.993 288.801C155.993 288.316 155.863 287.943 155.603 287.683C155.343 287.414 154.975 287.28 154.498 287.28C154.047 287.28 153.666 287.38 153.354 287.579C153.042 287.77 152.812 288.082 152.665 288.515L151.82 287.995C151.993 287.51 152.314 287.12 152.782 286.825C153.25 286.522 153.831 286.37 154.524 286.37C154.992 286.37 155.417 286.452 155.798 286.617C156.179 286.773 156.478 287.016 156.695 287.345C156.92 287.666 157.033 288.082 157.033 288.593V291.739C157.033 292.051 157.198 292.207 157.527 292.207C157.692 292.207 157.852 292.185 158.008 292.142L157.956 292.961C157.783 293.048 157.557 293.091 157.28 293.091C157.029 293.091 156.803 293.043 156.604 292.948C156.405 292.853 156.249 292.71 156.136 292.519C156.023 292.32 155.967 292.073 155.967 291.778V291.648L156.227 291.687C156.123 292.025 155.945 292.302 155.694 292.519C155.443 292.727 155.161 292.883 154.849 292.987C154.537 293.082 154.229 293.13 153.926 293.13C153.545 293.13 153.189 293.065 152.86 292.935C152.531 292.805 152.266 292.61 152.067 292.35C151.876 292.081 151.781 291.752 151.781 291.362C151.781 290.877 151.941 290.478 152.262 290.166C152.591 289.845 153.046 289.629 153.627 289.516L156.201 289.009V289.867L154.108 290.296C153.683 290.383 153.367 290.504 153.159 290.66C152.951 290.816 152.847 291.033 152.847 291.31C152.847 291.579 152.951 291.8 153.159 291.973C153.376 292.138 153.679 292.22 154.069 292.22C154.32 292.22 154.559 292.19 154.784 292.129C155.018 292.06 155.226 291.96 155.408 291.83C155.59 291.691 155.733 291.522 155.837 291.323C155.941 291.115 155.993 290.872 155.993 290.595V288.801ZM160.84 284.654V291.206C160.84 291.527 160.931 291.765 161.113 291.921C161.295 292.077 161.529 292.155 161.815 292.155C162.067 292.155 162.283 292.112 162.465 292.025C162.647 291.938 162.812 291.821 162.959 291.674L163.323 292.545C163.124 292.727 162.886 292.87 162.608 292.974C162.34 293.078 162.028 293.13 161.672 293.13C161.343 293.13 161.035 293.074 160.749 292.961C160.463 292.84 160.234 292.653 160.06 292.402C159.896 292.142 159.809 291.804 159.8 291.388V284.94L160.84 284.654ZM163.206 286.5V287.397H158.5V286.5H163.206ZM165.449 284.654V291.206C165.449 291.527 165.54 291.765 165.722 291.921C165.904 292.077 166.138 292.155 166.424 292.155C166.675 292.155 166.892 292.112 167.074 292.025C167.256 291.938 167.42 291.821 167.568 291.674L167.932 292.545C167.732 292.727 167.494 292.87 167.217 292.974C166.948 293.078 166.636 293.13 166.281 293.13C165.951 293.13 165.644 293.074 165.358 292.961C165.072 292.84 164.842 292.653 164.669 292.402C164.504 292.142 164.417 291.804 164.409 291.388V284.94L165.449 284.654ZM167.815 286.5V287.397H163.109V286.5H167.815ZM172.078 293.13C171.463 293.13 170.912 292.996 170.427 292.727C169.95 292.458 169.578 292.073 169.309 291.57C169.04 291.059 168.906 290.452 168.906 289.75C168.906 289.048 169.04 288.446 169.309 287.943C169.578 287.432 169.946 287.042 170.414 286.773C170.882 286.504 171.415 286.37 172.013 286.37C172.62 286.37 173.135 286.5 173.56 286.76C173.993 287.02 174.323 287.375 174.548 287.826C174.773 288.268 174.886 288.766 174.886 289.321C174.886 289.468 174.882 289.603 174.873 289.724C174.864 289.845 174.851 289.954 174.834 290.049H169.582V289.126H174.379L173.846 289.23C173.846 288.606 173.673 288.125 173.326 287.787C172.988 287.449 172.542 287.28 171.987 287.28C171.562 287.28 171.194 287.38 170.882 287.579C170.579 287.77 170.34 288.051 170.167 288.424C170.002 288.788 169.92 289.23 169.92 289.75C169.92 290.261 170.007 290.703 170.18 291.076C170.353 291.449 170.596 291.735 170.908 291.934C171.229 292.125 171.61 292.22 172.052 292.22C172.529 292.22 172.914 292.129 173.209 291.947C173.512 291.765 173.755 291.518 173.937 291.206L174.756 291.687C174.591 291.982 174.379 292.237 174.119 292.454C173.868 292.671 173.569 292.84 173.222 292.961C172.884 293.074 172.503 293.13 172.078 293.13ZM176.864 293V286.5H177.709L177.852 287.566C178.034 287.167 178.298 286.868 178.645 286.669C179 286.47 179.429 286.37 179.932 286.37C180.045 286.37 180.166 286.379 180.296 286.396C180.435 286.413 180.552 286.448 180.647 286.5L180.465 287.449C180.37 287.414 180.266 287.388 180.153 287.371C180.04 287.354 179.88 287.345 179.672 287.345C179.403 287.345 179.13 287.423 178.853 287.579C178.584 287.735 178.359 287.973 178.177 288.294C177.995 288.606 177.904 289.005 177.904 289.49V293H176.864ZM182.171 293V286.5H183.081L183.172 287.956L183.003 287.813C183.141 287.466 183.328 287.189 183.562 286.981C183.796 286.764 184.064 286.608 184.368 286.513C184.68 286.418 185 286.37 185.33 286.37C185.798 286.37 186.222 286.461 186.604 286.643C186.985 286.816 187.288 287.085 187.514 287.449C187.748 287.813 187.865 288.277 187.865 288.84V293H186.825V289.204C186.825 288.485 186.669 287.986 186.357 287.709C186.053 287.423 185.676 287.28 185.226 287.28C184.914 287.28 184.602 287.354 184.29 287.501C183.978 287.648 183.718 287.887 183.51 288.216C183.31 288.545 183.211 288.987 183.211 289.542V293H182.171ZM192.559 293.13C191.927 293.13 191.342 292.996 190.804 292.727C190.276 292.458 189.868 292.077 189.582 291.583L190.466 290.946C190.657 291.345 190.934 291.657 191.298 291.882C191.671 292.107 192.117 292.22 192.637 292.22C193.097 292.22 193.456 292.133 193.716 291.96C193.976 291.778 194.106 291.544 194.106 291.258C194.106 291.076 194.046 290.911 193.924 290.764C193.812 290.608 193.591 290.495 193.261 290.426L191.701 290.101C191.069 289.971 190.614 289.754 190.336 289.451C190.068 289.148 189.933 288.771 189.933 288.32C189.933 287.965 190.033 287.64 190.232 287.345C190.44 287.05 190.731 286.816 191.103 286.643C191.485 286.461 191.931 286.37 192.442 286.37C193.084 286.37 193.625 286.496 194.067 286.747C194.509 286.998 194.839 287.354 195.055 287.813L194.184 288.385C194.037 288.004 193.799 287.726 193.469 287.553C193.14 287.371 192.798 287.28 192.442 287.28C192.13 287.28 191.862 287.323 191.636 287.41C191.42 287.497 191.251 287.618 191.129 287.774C191.017 287.921 190.96 288.09 190.96 288.281C190.96 288.472 191.025 288.649 191.155 288.814C191.285 288.97 191.528 289.083 191.883 289.152L193.508 289.49C194.115 289.611 194.54 289.811 194.782 290.088C195.025 290.365 195.146 290.703 195.146 291.102C195.146 291.509 195.038 291.869 194.821 292.181C194.605 292.484 194.301 292.718 193.911 292.883C193.521 293.048 193.071 293.13 192.559 293.13ZM197.595 291.44C197.846 291.44 198.05 291.518 198.206 291.674C198.362 291.83 198.44 292.034 198.44 292.285C198.44 292.536 198.362 292.74 198.206 292.896C198.05 293.052 197.846 293.13 197.595 293.13C197.344 293.13 197.14 293.052 196.984 292.896C196.828 292.74 196.75 292.536 196.75 292.285C196.75 292.034 196.828 291.83 196.984 291.674C197.14 291.518 197.344 291.44 197.595 291.44Z" fill="white"/>
</svg>
