<svg width="293" height="284" viewBox="0 0 293 284" fill="none" xmlns="http://www.w3.org/2000/svg">
<rect x="96" y="26" width="100" height="100" rx="50" fill="black" fill-opacity="0.6"/>
<path d="M163.653 61.7812V65.2969C163.653 68.5 155.763 71 146.153 71C136.466 71 128.653 68.5 128.653 65.2969V61.7812C128.653 58.5781 136.466 56 146.153 56C155.763 56 163.653 58.5781 163.653 61.7812ZM163.653 69.75V77.7969C163.653 81 155.763 83.5 146.153 83.5C136.466 83.5 128.653 81 128.653 77.7969V69.75C132.403 72.4062 139.278 73.5781 146.153 73.5781C152.95 73.5781 159.825 72.4062 163.653 69.75ZM163.653 82.25V90.2969C163.653 93.5 155.763 96 146.153 96C136.466 96 128.653 93.5 128.653 90.2969V82.25C132.403 84.9062 139.278 86.0781 146.153 86.0781C152.95 86.0781 159.825 84.9062 163.653 82.25Z" fill="white"/>
<path d="M128.084 177L134.324 163H137.524L143.784 177H140.384L135.264 164.64H136.544L131.404 177H128.084ZM131.204 174L132.064 171.54H139.264L140.144 174H131.204ZM145.237 177V163H151.297C152.55 163 153.63 163.207 154.537 163.62C155.443 164.02 156.143 164.6 156.637 165.36C157.13 166.12 157.377 167.027 157.377 168.08C157.377 169.12 157.13 170.02 156.637 170.78C156.143 171.54 155.443 172.127 154.537 172.54C153.63 172.94 152.55 173.14 151.297 173.14H147.037L148.477 171.68V177H145.237ZM148.477 172.04L147.037 170.5H151.117C152.117 170.5 152.863 170.287 153.357 169.86C153.85 169.433 154.097 168.84 154.097 168.08C154.097 167.307 153.85 166.707 153.357 166.28C152.863 165.853 152.117 165.64 151.117 165.64H147.037L148.477 164.1V172.04ZM159.69 177V163H162.93V177H159.69Z" fill="white"/>
<path d="M23.7881 206.29C24.6028 206.29 25.3048 206.472 25.8941 206.836C26.4921 207.191 26.9515 207.698 27.2721 208.357C27.6015 209.016 27.7661 209.8 27.7661 210.71C27.7661 211.62 27.6015 212.404 27.2721 213.063C26.9515 213.722 26.4921 214.233 25.8941 214.597C25.3048 214.952 24.6028 215.13 23.7881 215.13C22.9735 215.13 22.2671 214.952 21.6691 214.597C21.0798 214.233 20.6205 213.722 20.2911 213.063C19.9705 212.404 19.8101 211.62 19.8101 210.71C19.8101 209.8 19.9705 209.016 20.2911 208.357C20.6205 207.698 21.0798 207.191 21.6691 206.836C22.2671 206.472 22.9735 206.29 23.7881 206.29ZM23.7881 207.265C23.1988 207.265 22.6875 207.404 22.2541 207.681C21.8208 207.95 21.4871 208.344 21.2531 208.864C21.0191 209.375 20.9021 209.991 20.9021 210.71C20.9021 211.429 21.0191 212.049 21.2531 212.569C21.4871 213.08 21.8208 213.475 22.2541 213.752C22.6875 214.021 23.1988 214.155 23.7881 214.155C24.3861 214.155 24.8975 214.021 25.3221 213.752C25.7555 213.475 26.0891 213.08 26.3231 212.569C26.5571 212.049 26.6741 211.429 26.6741 210.71C26.6741 209.991 26.5571 209.375 26.3231 208.864C26.0891 208.344 25.7555 207.95 25.3221 207.681C24.8975 207.404 24.3861 207.265 23.7881 207.265ZM32.2127 215.13C31.7967 215.13 31.4024 215.052 31.0297 214.896C30.6657 214.74 30.3667 214.489 30.1327 214.142C29.9074 213.787 29.7947 213.327 29.7947 212.764V208.5H30.8347V212.491C30.8347 213.15 30.9777 213.605 31.2637 213.856C31.5497 214.099 31.9527 214.22 32.4727 214.22C32.7154 214.22 32.9537 214.181 33.1877 214.103C33.4217 214.016 33.6297 213.886 33.8117 213.713C34.0024 213.531 34.1497 213.301 34.2537 213.024C34.3664 212.747 34.4227 212.417 34.4227 212.036V208.5H35.4627V215H34.5527L34.4877 214.012C34.2624 214.402 33.9547 214.688 33.5647 214.87C33.1834 215.043 32.7327 215.13 32.2127 215.13ZM37.8832 215V208.5H38.7282L38.8712 209.566C39.0532 209.167 39.3175 208.868 39.6642 208.669C40.0195 208.47 40.4485 208.37 40.9512 208.37C41.0639 208.37 41.1852 208.379 41.3152 208.396C41.4539 208.413 41.5709 208.448 41.6662 208.5L41.4842 209.449C41.3889 209.414 41.2849 209.388 41.1722 209.371C41.0595 209.354 40.8992 209.345 40.6912 209.345C40.4225 209.345 40.1495 209.423 39.8722 209.579C39.6035 209.735 39.3782 209.973 39.1962 210.294C39.0142 210.606 38.9232 211.005 38.9232 211.49V215H37.8832ZM55.1748 208.5H56.3318L54.0698 215H53.0298L51.1968 209.826L49.4678 215H48.4278L46.1658 208.5H47.3228L48.9608 213.791L50.7288 208.5H51.7688L53.5368 213.791L55.1748 208.5ZM60.4049 215.13C59.7895 215.13 59.2392 214.996 58.7539 214.727C58.2772 214.458 57.9045 214.073 57.6359 213.57C57.3672 213.059 57.2329 212.452 57.2329 211.75C57.2329 211.048 57.3672 210.446 57.6359 209.943C57.9045 209.432 58.2729 209.042 58.7409 208.773C59.2089 208.504 59.7419 208.37 60.3399 208.37C60.9465 208.37 61.4622 208.5 61.8869 208.76C62.3202 209.02 62.6495 209.375 62.8749 209.826C63.1002 210.268 63.2129 210.766 63.2129 211.321C63.2129 211.468 63.2085 211.603 63.1999 211.724C63.1912 211.845 63.1782 211.954 63.1609 212.049H57.9089V211.126H62.7059L62.1729 211.23C62.1729 210.606 61.9995 210.125 61.6529 209.787C61.3149 209.449 60.8685 209.28 60.3139 209.28C59.8892 209.28 59.5209 209.38 59.2089 209.579C58.9055 209.77 58.6672 210.051 58.4939 210.424C58.3292 210.788 58.2469 211.23 58.2469 211.75C58.2469 212.261 58.3335 212.703 58.5069 213.076C58.6802 213.449 58.9229 213.735 59.2349 213.934C59.5555 214.125 59.9369 214.22 60.3789 214.22C60.8555 214.22 61.2412 214.129 61.5359 213.947C61.8392 213.765 62.0819 213.518 62.2639 213.206L63.0829 213.687C62.9182 213.982 62.7059 214.237 62.4459 214.454C62.1945 214.671 61.8955 214.84 61.5489 214.961C61.2109 215.074 60.8295 215.13 60.4049 215.13ZM68.3758 215.13C68.0118 215.13 67.6738 215.065 67.3618 214.935C67.0498 214.805 66.7811 214.623 66.5558 214.389C66.3305 214.155 66.1615 213.891 66.0488 213.596L66.1918 213.414L66.1008 215H65.1908V205.51H66.2308V209.969L66.1008 209.774C66.2741 209.367 66.5645 209.033 66.9718 208.773C67.3878 208.504 67.8601 208.37 68.3888 208.37C68.9261 208.37 69.4201 208.504 69.8708 208.773C70.3215 209.042 70.6811 209.427 70.9498 209.93C71.2185 210.433 71.3528 211.039 71.3528 211.75C71.3528 212.452 71.2141 213.059 70.9368 213.57C70.6681 214.073 70.3085 214.458 69.8578 214.727C69.4071 214.996 68.9131 215.13 68.3758 215.13ZM68.2718 214.22C68.9131 214.22 69.4115 213.995 69.7668 213.544C70.1308 213.093 70.3128 212.495 70.3128 211.75C70.3128 211.005 70.1351 210.407 69.7798 209.956C69.4245 209.505 68.9261 209.28 68.2848 209.28C67.8775 209.28 67.5178 209.384 67.2058 209.592C66.9025 209.8 66.6641 210.09 66.4908 210.463C66.3175 210.836 66.2308 211.273 66.2308 211.776C66.2308 212.27 66.3131 212.703 66.4778 213.076C66.6511 213.44 66.8895 213.722 67.1928 213.921C67.5048 214.12 67.8645 214.22 68.2718 214.22ZM80.1119 215.13C79.4792 215.13 78.8942 214.996 78.3569 214.727C77.8282 214.458 77.4209 214.077 77.1349 213.583L78.0189 212.946C78.2095 213.345 78.4869 213.657 78.8509 213.882C79.2235 214.107 79.6699 214.22 80.1899 214.22C80.6492 214.22 81.0089 214.133 81.2689 213.96C81.5289 213.778 81.6589 213.544 81.6589 213.258C81.6589 213.076 81.5982 212.911 81.4769 212.764C81.3642 212.608 81.1432 212.495 80.8139 212.426L79.2539 212.101C78.6212 211.971 78.1662 211.754 77.8889 211.451C77.6202 211.148 77.4859 210.771 77.4859 210.32C77.4859 209.965 77.5855 209.64 77.7849 209.345C77.9929 209.05 78.2832 208.816 78.6559 208.643C79.0372 208.461 79.4835 208.37 79.9949 208.37C80.6362 208.37 81.1779 208.496 81.6199 208.747C82.0619 208.998 82.3912 209.354 82.6079 209.813L81.7369 210.385C81.5895 210.004 81.3512 209.726 81.0219 209.553C80.6925 209.371 80.3502 209.28 79.9949 209.28C79.6829 209.28 79.4142 209.323 79.1889 209.41C78.9722 209.497 78.8032 209.618 78.6819 209.774C78.5692 209.921 78.5129 210.09 78.5129 210.281C78.5129 210.472 78.5779 210.649 78.7079 210.814C78.8379 210.97 79.0805 211.083 79.4359 211.152L81.0609 211.49C81.6675 211.611 82.0922 211.811 82.3349 212.088C82.5775 212.365 82.6989 212.703 82.6989 213.102C82.6989 213.509 82.5905 213.869 82.3739 214.181C82.1572 214.484 81.8539 214.718 81.4639 214.883C81.0739 215.048 80.6232 215.13 80.1119 215.13ZM87.3183 208.37C87.769 208.37 88.1633 208.439 88.5013 208.578C88.848 208.717 89.147 208.916 89.3983 209.176C89.6497 209.436 89.8533 209.744 90.0093 210.099L89.0213 210.567C88.8827 210.151 88.6703 209.835 88.3843 209.618C88.107 209.393 87.743 209.28 87.2923 209.28C86.859 209.28 86.4863 209.38 86.1743 209.579C85.8623 209.77 85.624 210.051 85.4593 210.424C85.2947 210.788 85.2123 211.23 85.2123 211.75C85.2123 212.261 85.2947 212.703 85.4593 213.076C85.624 213.449 85.8623 213.735 86.1743 213.934C86.4863 214.125 86.859 214.22 87.2923 214.22C87.6303 214.22 87.9207 214.168 88.1633 214.064C88.4147 213.96 88.6183 213.808 88.7743 213.609C88.939 213.41 89.0517 213.167 89.1123 212.881L90.0743 213.219C89.927 213.618 89.7233 213.96 89.4633 214.246C89.212 214.532 88.9043 214.753 88.5403 214.909C88.185 215.056 87.7777 215.13 87.3183 215.13C86.7117 215.13 86.17 214.996 85.6933 214.727C85.2167 214.458 84.844 214.073 84.5753 213.57C84.3067 213.059 84.1723 212.452 84.1723 211.75C84.1723 211.048 84.3067 210.446 84.5753 209.943C84.844 209.432 85.2167 209.042 85.6933 208.773C86.17 208.504 86.7117 208.37 87.3183 208.37ZM91.9017 215V208.5H92.7467L92.8897 209.566C93.0717 209.167 93.3361 208.868 93.6827 208.669C94.0381 208.47 94.4671 208.37 94.9697 208.37C95.0824 208.37 95.2037 208.379 95.3337 208.396C95.4724 208.413 95.5894 208.448 95.6847 208.5L95.5027 209.449C95.4074 209.414 95.3034 209.388 95.1907 209.371C95.0781 209.354 94.9177 209.345 94.7097 209.345C94.4411 209.345 94.1681 209.423 93.8907 209.579C93.6221 209.735 93.3967 209.973 93.2147 210.294C93.0327 210.606 92.9417 211.005 92.9417 211.49V215H91.9017ZM100.827 210.801C100.827 210.316 100.697 209.943 100.437 209.683C100.177 209.414 99.8083 209.28 99.3316 209.28C98.881 209.28 98.4996 209.38 98.1876 209.579C97.8756 209.77 97.646 210.082 97.4986 210.515L96.6536 209.995C96.827 209.51 97.1476 209.12 97.6156 208.825C98.0836 208.522 98.6643 208.37 99.3576 208.37C99.8256 208.37 100.25 208.452 100.632 208.617C101.013 208.773 101.312 209.016 101.529 209.345C101.754 209.666 101.867 210.082 101.867 210.593V213.739C101.867 214.051 102.031 214.207 102.361 214.207C102.525 214.207 102.686 214.185 102.842 214.142L102.79 214.961C102.616 215.048 102.391 215.091 102.114 215.091C101.862 215.091 101.637 215.043 101.438 214.948C101.238 214.853 101.082 214.71 100.97 214.519C100.857 214.32 100.801 214.073 100.801 213.778V213.648L101.061 213.687C100.957 214.025 100.779 214.302 100.528 214.519C100.276 214.727 99.9946 214.883 99.6826 214.987C99.3706 215.082 99.063 215.13 98.7596 215.13C98.3783 215.13 98.023 215.065 97.6936 214.935C97.3643 214.805 97.1 214.61 96.9006 214.35C96.71 214.081 96.6146 213.752 96.6146 213.362C96.6146 212.877 96.775 212.478 97.0956 212.166C97.425 211.845 97.88 211.629 98.4606 211.516L101.035 211.009V211.867L98.9416 212.296C98.517 212.383 98.2006 212.504 97.9926 212.66C97.7846 212.816 97.6806 213.033 97.6806 213.31C97.6806 213.579 97.7846 213.8 97.9926 213.973C98.2093 214.138 98.5126 214.22 98.9026 214.22C99.154 214.22 99.3923 214.19 99.6176 214.129C99.8516 214.06 100.06 213.96 100.242 213.83C100.424 213.691 100.567 213.522 100.671 213.323C100.775 213.115 100.827 212.872 100.827 212.595V210.801ZM104.394 217.73V208.5H105.304L105.395 210.086L105.252 209.904C105.365 209.601 105.534 209.336 105.759 209.111C105.984 208.877 106.257 208.695 106.578 208.565C106.899 208.435 107.245 208.37 107.618 208.37C108.147 208.37 108.632 208.504 109.074 208.773C109.525 209.042 109.884 209.427 110.153 209.93C110.422 210.433 110.556 211.039 110.556 211.75C110.556 212.452 110.417 213.059 110.14 213.57C109.871 214.073 109.512 214.458 109.061 214.727C108.61 214.996 108.116 215.13 107.579 215.13C107.042 215.13 106.569 215 106.162 214.74C105.763 214.471 105.477 214.133 105.304 213.726L105.434 213.531V217.73H104.394ZM107.475 214.22C108.116 214.22 108.615 213.995 108.97 213.544C109.334 213.093 109.516 212.495 109.516 211.75C109.516 211.005 109.338 210.407 108.983 209.956C108.636 209.505 108.147 209.28 107.514 209.28C107.098 209.28 106.734 209.384 106.422 209.592C106.11 209.791 105.867 210.077 105.694 210.45C105.521 210.814 105.434 211.247 105.434 211.75C105.434 212.244 105.516 212.677 105.681 213.05C105.854 213.423 106.093 213.713 106.396 213.921C106.708 214.12 107.068 214.22 107.475 214.22ZM112.544 217.73V208.5H113.454L113.545 210.086L113.402 209.904C113.515 209.601 113.684 209.336 113.909 209.111C114.135 208.877 114.408 208.695 114.728 208.565C115.049 208.435 115.396 208.37 115.768 208.37C116.297 208.37 116.782 208.504 117.224 208.773C117.675 209.042 118.035 209.427 118.303 209.93C118.572 210.433 118.706 211.039 118.706 211.75C118.706 212.452 118.568 213.059 118.29 213.57C118.022 214.073 117.662 214.458 117.211 214.727C116.761 214.996 116.267 215.13 115.729 215.13C115.192 215.13 114.72 215 114.312 214.74C113.914 214.471 113.628 214.133 113.454 213.726L113.584 213.531V217.73H112.544ZM115.625 214.22C116.267 214.22 116.765 213.995 117.12 213.544C117.484 213.093 117.666 212.495 117.666 211.75C117.666 211.005 117.489 210.407 117.133 209.956C116.787 209.505 116.297 209.28 115.664 209.28C115.248 209.28 114.884 209.384 114.572 209.592C114.26 209.791 114.018 210.077 113.844 210.45C113.671 210.814 113.584 211.247 113.584 211.75C113.584 212.244 113.667 212.677 113.831 213.05C114.005 213.423 114.243 213.713 114.546 213.921C114.858 214.12 115.218 214.22 115.625 214.22ZM121.215 207.252C120.981 207.252 120.79 207.183 120.643 207.044C120.504 206.897 120.435 206.706 120.435 206.472C120.435 206.238 120.504 206.052 120.643 205.913C120.79 205.766 120.981 205.692 121.215 205.692C121.449 205.692 121.635 205.766 121.774 205.913C121.921 206.052 121.995 206.238 121.995 206.472C121.995 206.706 121.921 206.897 121.774 207.044C121.635 207.183 121.449 207.252 121.215 207.252ZM121.735 208.5V215H120.695V208.5H121.735ZM124.148 215V208.5H125.058L125.149 209.956L124.98 209.813C125.119 209.466 125.305 209.189 125.539 208.981C125.773 208.764 126.042 208.608 126.345 208.513C126.657 208.418 126.978 208.37 127.307 208.37C127.775 208.37 128.2 208.461 128.581 208.643C128.962 208.816 129.266 209.085 129.491 209.449C129.725 209.813 129.842 210.277 129.842 210.84V215H128.802V211.204C128.802 210.485 128.646 209.986 128.334 209.709C128.031 209.423 127.654 209.28 127.203 209.28C126.891 209.28 126.579 209.354 126.267 209.501C125.955 209.648 125.695 209.887 125.487 210.216C125.288 210.545 125.188 210.987 125.188 211.542V215H124.148ZM137.67 207.304L137.904 208.227C137.895 208.227 137.882 208.227 137.865 208.227C137.847 208.227 137.83 208.227 137.813 208.227C137.388 208.227 137.059 208.314 136.825 208.487C136.599 208.652 136.487 208.92 136.487 209.293L135.85 208.968C135.85 208.63 135.928 208.335 136.084 208.084C136.24 207.833 136.452 207.642 136.721 207.512C136.989 207.373 137.284 207.304 137.605 207.304C137.613 207.304 137.622 207.304 137.631 207.304C137.648 207.304 137.661 207.304 137.67 207.304ZM135.694 214.168C136.309 214.168 136.79 214.311 137.137 214.597C137.483 214.874 137.657 215.247 137.657 215.715C137.657 216.14 137.514 216.508 137.228 216.82C136.95 217.132 136.573 217.37 136.097 217.535C135.629 217.708 135.1 217.795 134.511 217.795C133.488 217.795 132.721 217.622 132.21 217.275C131.707 216.928 131.456 216.512 131.456 216.027C131.456 215.68 131.568 215.368 131.794 215.091C132.028 214.822 132.418 214.671 132.964 214.636L132.873 214.831C132.578 214.753 132.327 214.623 132.119 214.441C131.919 214.25 131.82 213.977 131.82 213.622C131.82 213.267 131.95 212.963 132.21 212.712C132.478 212.452 132.873 212.292 133.393 212.231L134.082 212.582H133.952C133.527 212.625 133.224 212.734 133.042 212.907C132.868 213.072 132.782 213.254 132.782 213.453C132.782 213.696 132.868 213.878 133.042 213.999C133.224 214.112 133.475 214.168 133.796 214.168H135.694ZM134.498 216.924C135 216.924 135.412 216.872 135.733 216.768C136.062 216.664 136.305 216.53 136.461 216.365C136.617 216.2 136.695 216.023 136.695 215.832C136.695 215.598 136.599 215.412 136.409 215.273C136.227 215.134 135.893 215.065 135.408 215.065H133.406C133.128 215.065 132.894 215.134 132.704 215.273C132.513 215.42 132.418 215.62 132.418 215.871C132.418 216.192 132.6 216.447 132.964 216.638C133.336 216.829 133.848 216.924 134.498 216.924ZM134.407 208.37C134.927 208.37 135.386 208.465 135.785 208.656C136.192 208.838 136.508 209.094 136.734 209.423C136.959 209.752 137.072 210.134 137.072 210.567C137.072 210.992 136.959 211.373 136.734 211.711C136.508 212.04 136.192 212.3 135.785 212.491C135.386 212.673 134.927 212.764 134.407 212.764C133.549 212.764 132.89 212.56 132.431 212.153C131.971 211.737 131.742 211.208 131.742 210.567C131.742 210.134 131.854 209.752 132.08 209.423C132.314 209.094 132.63 208.838 133.029 208.656C133.427 208.465 133.887 208.37 134.407 208.37ZM134.407 209.215C133.956 209.215 133.579 209.341 133.276 209.592C132.972 209.835 132.821 210.16 132.821 210.567C132.821 210.966 132.972 211.291 133.276 211.542C133.579 211.793 133.956 211.919 134.407 211.919C134.857 211.919 135.234 211.793 135.538 211.542C135.841 211.291 135.993 210.966 135.993 210.567C135.993 210.16 135.841 209.835 135.538 209.592C135.234 209.341 134.857 209.215 134.407 209.215ZM147.342 210.801C147.342 210.316 147.212 209.943 146.952 209.683C146.692 209.414 146.324 209.28 145.847 209.28C145.397 209.28 145.015 209.38 144.703 209.579C144.391 209.77 144.162 210.082 144.014 210.515L143.169 209.995C143.343 209.51 143.663 209.12 144.131 208.825C144.599 208.522 145.18 208.37 145.873 208.37C146.341 208.37 146.766 208.452 147.147 208.617C147.529 208.773 147.828 209.016 148.044 209.345C148.27 209.666 148.382 210.082 148.382 210.593V213.739C148.382 214.051 148.547 214.207 148.876 214.207C149.041 214.207 149.201 214.185 149.357 214.142L149.305 214.961C149.132 215.048 148.907 215.091 148.629 215.091C148.378 215.091 148.153 215.043 147.953 214.948C147.754 214.853 147.598 214.71 147.485 214.519C147.373 214.32 147.316 214.073 147.316 213.778V213.648L147.576 213.687C147.472 214.025 147.295 214.302 147.043 214.519C146.792 214.727 146.51 214.883 146.198 214.987C145.886 215.082 145.579 215.13 145.275 215.13C144.894 215.13 144.539 215.065 144.209 214.935C143.88 214.805 143.616 214.61 143.416 214.35C143.226 214.081 143.13 213.752 143.13 213.362C143.13 212.877 143.291 212.478 143.611 212.166C143.941 211.845 144.396 211.629 144.976 211.516L147.55 211.009V211.867L145.457 212.296C145.033 212.383 144.716 212.504 144.508 212.66C144.3 212.816 144.196 213.033 144.196 213.31C144.196 213.579 144.3 213.8 144.508 213.973C144.725 214.138 145.028 214.22 145.418 214.22C145.67 214.22 145.908 214.19 146.133 214.129C146.367 214.06 146.575 213.96 146.757 213.83C146.939 213.691 147.082 213.522 147.186 213.323C147.29 213.115 147.342 212.872 147.342 212.595V210.801ZM151.898 205.51V213.349C151.898 213.678 151.958 213.908 152.08 214.038C152.201 214.159 152.396 214.22 152.665 214.22C152.838 214.22 152.981 214.207 153.094 214.181C153.206 214.155 153.358 214.107 153.549 214.038L153.38 214.948C153.241 215.009 153.089 215.052 152.925 215.078C152.76 215.113 152.591 215.13 152.418 215.13C151.889 215.13 151.495 214.987 151.235 214.701C150.983 214.415 150.858 213.977 150.858 213.388V205.51H151.898ZM160.356 207.304L160.59 208.227C160.582 208.227 160.569 208.227 160.551 208.227C160.534 208.227 160.517 208.227 160.499 208.227C160.075 208.227 159.745 208.314 159.511 208.487C159.286 208.652 159.173 208.92 159.173 209.293L158.536 208.968C158.536 208.63 158.614 208.335 158.77 208.084C158.926 207.833 159.139 207.642 159.407 207.512C159.676 207.373 159.971 207.304 160.291 207.304C160.3 207.304 160.309 207.304 160.317 207.304C160.335 207.304 160.348 207.304 160.356 207.304ZM158.38 214.168C158.996 214.168 159.477 214.311 159.823 214.597C160.17 214.874 160.343 215.247 160.343 215.715C160.343 216.14 160.2 216.508 159.914 216.82C159.637 217.132 159.26 217.37 158.783 217.535C158.315 217.708 157.787 217.795 157.197 217.795C156.175 217.795 155.408 217.622 154.896 217.275C154.394 216.928 154.142 216.512 154.142 216.027C154.142 215.68 154.255 215.368 154.48 215.091C154.714 214.822 155.104 214.671 155.65 214.636L155.559 214.831C155.265 214.753 155.013 214.623 154.805 214.441C154.606 214.25 154.506 213.977 154.506 213.622C154.506 213.267 154.636 212.963 154.896 212.712C155.165 212.452 155.559 212.292 156.079 212.231L156.768 212.582H156.638C156.214 212.625 155.91 212.734 155.728 212.907C155.555 213.072 155.468 213.254 155.468 213.453C155.468 213.696 155.555 213.878 155.728 213.999C155.91 214.112 156.162 214.168 156.482 214.168H158.38ZM157.184 216.924C157.687 216.924 158.099 216.872 158.419 216.768C158.749 216.664 158.991 216.53 159.147 216.365C159.303 216.2 159.381 216.023 159.381 215.832C159.381 215.598 159.286 215.412 159.095 215.273C158.913 215.134 158.58 215.065 158.094 215.065H156.092C155.815 215.065 155.581 215.134 155.39 215.273C155.2 215.42 155.104 215.62 155.104 215.871C155.104 216.192 155.286 216.447 155.65 216.638C156.023 216.829 156.534 216.924 157.184 216.924ZM157.093 208.37C157.613 208.37 158.073 208.465 158.471 208.656C158.879 208.838 159.195 209.094 159.42 209.423C159.646 209.752 159.758 210.134 159.758 210.567C159.758 210.992 159.646 211.373 159.42 211.711C159.195 212.04 158.879 212.3 158.471 212.491C158.073 212.673 157.613 212.764 157.093 212.764C156.235 212.764 155.577 212.56 155.117 212.153C154.658 211.737 154.428 211.208 154.428 210.567C154.428 210.134 154.541 209.752 154.766 209.423C155 209.094 155.317 208.838 155.715 208.656C156.114 208.465 156.573 208.37 157.093 208.37ZM157.093 209.215C156.643 209.215 156.266 209.341 155.962 209.592C155.659 209.835 155.507 210.16 155.507 210.567C155.507 210.966 155.659 211.291 155.962 211.542C156.266 211.793 156.643 211.919 157.093 211.919C157.544 211.919 157.921 211.793 158.224 211.542C158.528 211.291 158.679 210.966 158.679 210.567C158.679 210.16 158.528 209.835 158.224 209.592C157.921 209.341 157.544 209.215 157.093 209.215ZM164.493 208.37C165.108 208.37 165.65 208.504 166.118 208.773C166.595 209.042 166.967 209.432 167.236 209.943C167.505 210.446 167.639 211.048 167.639 211.75C167.639 212.452 167.505 213.059 167.236 213.57C166.967 214.073 166.595 214.458 166.118 214.727C165.65 214.996 165.108 215.13 164.493 215.13C163.886 215.13 163.345 214.996 162.868 214.727C162.391 214.458 162.019 214.073 161.75 213.57C161.481 213.059 161.347 212.452 161.347 211.75C161.347 211.048 161.481 210.446 161.75 209.943C162.019 209.432 162.391 209.042 162.868 208.773C163.345 208.504 163.886 208.37 164.493 208.37ZM164.493 209.267C164.051 209.267 163.674 209.367 163.362 209.566C163.05 209.765 162.807 210.051 162.634 210.424C162.469 210.788 162.387 211.23 162.387 211.75C162.387 212.261 162.469 212.703 162.634 213.076C162.807 213.449 163.05 213.735 163.362 213.934C163.674 214.133 164.051 214.233 164.493 214.233C164.935 214.233 165.312 214.133 165.624 213.934C165.936 213.735 166.174 213.449 166.339 213.076C166.512 212.703 166.599 212.261 166.599 211.75C166.599 211.23 166.512 210.788 166.339 210.424C166.174 210.051 165.936 209.765 165.624 209.566C165.312 209.367 164.935 209.267 164.493 209.267ZM169.597 215V208.5H170.442L170.585 209.566C170.767 209.167 171.031 208.868 171.378 208.669C171.733 208.47 172.162 208.37 172.665 208.37C172.778 208.37 172.899 208.379 173.029 208.396C173.168 208.413 173.285 208.448 173.38 208.5L173.198 209.449C173.103 209.414 172.999 209.388 172.886 209.371C172.773 209.354 172.613 209.345 172.405 209.345C172.136 209.345 171.863 209.423 171.586 209.579C171.317 209.735 171.092 209.973 170.91 210.294C170.728 210.606 170.637 211.005 170.637 211.49V215H169.597ZM175.424 207.252C175.19 207.252 174.999 207.183 174.852 207.044C174.713 206.897 174.644 206.706 174.644 206.472C174.644 206.238 174.713 206.052 174.852 205.913C174.999 205.766 175.19 205.692 175.424 205.692C175.658 205.692 175.844 205.766 175.983 205.913C176.13 206.052 176.204 206.238 176.204 206.472C176.204 206.706 176.13 206.897 175.983 207.044C175.844 207.183 175.658 207.252 175.424 207.252ZM175.944 208.5V215H174.904V208.5H175.944ZM179.891 206.654V213.206C179.891 213.527 179.982 213.765 180.164 213.921C180.346 214.077 180.58 214.155 180.866 214.155C181.117 214.155 181.334 214.112 181.516 214.025C181.698 213.938 181.862 213.821 182.01 213.674L182.374 214.545C182.174 214.727 181.936 214.87 181.659 214.974C181.39 215.078 181.078 215.13 180.723 215.13C180.393 215.13 180.086 215.074 179.8 214.961C179.514 214.84 179.284 214.653 179.111 214.402C178.946 214.142 178.859 213.804 178.851 213.388V206.94L179.891 206.654ZM182.257 208.5V209.397H177.551V208.5H182.257ZM183.803 215V205.51H184.843V209.475C185.068 209.085 185.367 208.803 185.74 208.63C186.113 208.457 186.52 208.37 186.962 208.37C187.43 208.37 187.855 208.461 188.236 208.643C188.617 208.816 188.921 209.085 189.146 209.449C189.38 209.813 189.497 210.277 189.497 210.84V215H188.457V211.204C188.457 210.485 188.301 209.986 187.989 209.709C187.686 209.423 187.309 209.28 186.858 209.28C186.546 209.28 186.234 209.354 185.922 209.501C185.61 209.648 185.35 209.891 185.142 210.229C184.943 210.558 184.843 211 184.843 211.555V215H183.803ZM191.852 215V208.5H192.762L192.827 209.514C193.061 209.115 193.364 208.825 193.737 208.643C194.118 208.461 194.508 208.37 194.907 208.37C195.366 208.37 195.8 208.474 196.207 208.682C196.614 208.89 196.926 209.211 197.143 209.644C197.282 209.349 197.477 209.111 197.728 208.929C197.979 208.738 198.252 208.6 198.547 208.513C198.85 208.418 199.136 208.37 199.405 208.37C199.821 208.37 200.215 208.457 200.588 208.63C200.969 208.803 201.281 209.072 201.524 209.436C201.767 209.8 201.888 210.268 201.888 210.84V215H200.848V210.944C200.848 210.355 200.701 209.93 200.406 209.67C200.111 209.41 199.747 209.28 199.314 209.28C198.976 209.28 198.66 209.362 198.365 209.527C198.07 209.692 197.832 209.934 197.65 210.255C197.477 210.576 197.39 210.97 197.39 211.438V215H196.35V210.944C196.35 210.355 196.203 209.93 195.908 209.67C195.613 209.41 195.249 209.28 194.816 209.28C194.53 209.28 194.235 209.358 193.932 209.514C193.637 209.661 193.39 209.9 193.191 210.229C192.992 210.558 192.892 210.992 192.892 211.529V215H191.852ZM211.364 208.37C211.815 208.37 212.209 208.439 212.547 208.578C212.894 208.717 213.193 208.916 213.444 209.176C213.696 209.436 213.899 209.744 214.055 210.099L213.067 210.567C212.929 210.151 212.716 209.835 212.43 209.618C212.153 209.393 211.789 209.28 211.338 209.28C210.905 209.28 210.532 209.38 210.22 209.579C209.908 209.77 209.67 210.051 209.505 210.424C209.341 210.788 209.258 211.23 209.258 211.75C209.258 212.261 209.341 212.703 209.505 213.076C209.67 213.449 209.908 213.735 210.22 213.934C210.532 214.125 210.905 214.22 211.338 214.22C211.676 214.22 211.967 214.168 212.209 214.064C212.461 213.96 212.664 213.808 212.82 213.609C212.985 213.41 213.098 213.167 213.158 212.881L214.12 213.219C213.973 213.618 213.769 213.96 213.509 214.246C213.258 214.532 212.95 214.753 212.586 214.909C212.231 215.056 211.824 215.13 211.364 215.13C210.758 215.13 210.216 214.996 209.739 214.727C209.263 214.458 208.89 214.073 208.621 213.57C208.353 213.059 208.218 212.452 208.218 211.75C208.218 211.048 208.353 210.446 208.621 209.943C208.89 209.432 209.263 209.042 209.739 208.773C210.216 208.504 210.758 208.37 211.364 208.37ZM215.948 215V208.5H216.793L216.936 209.566C217.118 209.167 217.382 208.868 217.729 208.669C218.084 208.47 218.513 208.37 219.016 208.37C219.128 208.37 219.25 208.379 219.38 208.396C219.518 208.413 219.635 208.448 219.731 208.5L219.549 209.449C219.453 209.414 219.349 209.388 219.237 209.371C219.124 209.354 218.964 209.345 218.756 209.345C218.487 209.345 218.214 209.423 217.937 209.579C217.668 209.735 217.443 209.973 217.261 210.294C217.079 210.606 216.988 211.005 216.988 211.49V215H215.948ZM224.873 210.801C224.873 210.316 224.743 209.943 224.483 209.683C224.223 209.414 223.854 209.28 223.378 209.28C222.927 209.28 222.546 209.38 222.234 209.579C221.922 209.77 221.692 210.082 221.545 210.515L220.7 209.995C220.873 209.51 221.194 209.12 221.662 208.825C222.13 208.522 222.71 208.37 223.404 208.37C223.872 208.37 224.296 208.452 224.678 208.617C225.059 208.773 225.358 209.016 225.575 209.345C225.8 209.666 225.913 210.082 225.913 210.593V213.739C225.913 214.051 226.077 214.207 226.407 214.207C226.571 214.207 226.732 214.185 226.888 214.142L226.836 214.961C226.662 215.048 226.437 215.091 226.16 215.091C225.908 215.091 225.683 215.043 225.484 214.948C225.284 214.853 225.128 214.71 225.016 214.519C224.903 214.32 224.847 214.073 224.847 213.778V213.648L225.107 213.687C225.003 214.025 224.825 214.302 224.574 214.519C224.322 214.727 224.041 214.883 223.729 214.987C223.417 215.082 223.109 215.13 222.806 215.13C222.424 215.13 222.069 215.065 221.74 214.935C221.41 214.805 221.146 214.61 220.947 214.35C220.756 214.081 220.661 213.752 220.661 213.362C220.661 212.877 220.821 212.478 221.142 212.166C221.471 211.845 221.926 211.629 222.507 211.516L225.081 211.009V211.867L222.988 212.296C222.563 212.383 222.247 212.504 222.039 212.66C221.831 212.816 221.727 213.033 221.727 213.31C221.727 213.579 221.831 213.8 222.039 213.973C222.255 214.138 222.559 214.22 222.949 214.22C223.2 214.22 223.438 214.19 223.664 214.129C223.898 214.06 224.106 213.96 224.288 213.83C224.47 213.691 224.613 213.522 224.717 213.323C224.821 213.115 224.873 212.872 224.873 212.595V210.801ZM236.451 208.5H237.608L235.346 215H234.306L232.473 209.826L230.744 215H229.704L227.442 208.5H228.599L230.237 213.791L232.005 208.5H233.045L234.813 213.791L236.451 208.5ZM240.155 205.51V213.349C240.155 213.678 240.216 213.908 240.337 214.038C240.459 214.159 240.654 214.22 240.922 214.22C241.096 214.22 241.239 214.207 241.351 214.181C241.464 214.155 241.616 214.107 241.806 214.038L241.637 214.948C241.499 215.009 241.347 215.052 241.182 215.078C241.018 215.113 240.849 215.13 240.675 215.13C240.147 215.13 239.752 214.987 239.492 214.701C239.241 214.415 239.115 213.977 239.115 213.388V205.51H240.155ZM245.481 215.13C244.848 215.13 244.263 214.996 243.726 214.727C243.197 214.458 242.79 214.077 242.504 213.583L243.388 212.946C243.579 213.345 243.856 213.657 244.22 213.882C244.593 214.107 245.039 214.22 245.559 214.22C246.018 214.22 246.378 214.133 246.638 213.96C246.898 213.778 247.028 213.544 247.028 213.258C247.028 213.076 246.967 212.911 246.846 212.764C246.733 212.608 246.512 212.495 246.183 212.426L244.623 212.101C243.99 211.971 243.535 211.754 243.258 211.451C242.989 211.148 242.855 210.771 242.855 210.32C242.855 209.965 242.955 209.64 243.154 209.345C243.362 209.05 243.652 208.816 244.025 208.643C244.406 208.461 244.853 208.37 245.364 208.37C246.005 208.37 246.547 208.496 246.989 208.747C247.431 208.998 247.76 209.354 247.977 209.813L247.106 210.385C246.959 210.004 246.72 209.726 246.391 209.553C246.062 209.371 245.719 209.28 245.364 209.28C245.052 209.28 244.783 209.323 244.558 209.41C244.341 209.497 244.172 209.618 244.051 209.774C243.938 209.921 243.882 210.09 243.882 210.281C243.882 210.472 243.947 210.649 244.077 210.814C244.207 210.97 244.45 211.083 244.805 211.152L246.43 211.49C247.037 211.611 247.461 211.811 247.704 212.088C247.947 212.365 248.068 212.703 248.068 213.102C248.068 213.509 247.96 213.869 247.743 214.181C247.526 214.484 247.223 214.718 246.833 214.883C246.443 215.048 245.992 215.13 245.481 215.13ZM255.707 206.654V213.206C255.707 213.527 255.798 213.765 255.98 213.921C256.162 214.077 256.396 214.155 256.682 214.155C256.934 214.155 257.15 214.112 257.332 214.025C257.514 213.938 257.679 213.821 257.826 213.674L258.19 214.545C257.991 214.727 257.753 214.87 257.475 214.974C257.207 215.078 256.895 215.13 256.539 215.13C256.21 215.13 255.902 215.074 255.616 214.961C255.33 214.84 255.101 214.653 254.927 214.402C254.763 214.142 254.676 213.804 254.667 213.388V206.94L255.707 206.654ZM258.073 208.5V209.397H253.367V208.5H258.073ZM259.62 215V205.51H260.66V209.475C260.885 209.085 261.184 208.803 261.557 208.63C261.929 208.457 262.337 208.37 262.779 208.37C263.247 208.37 263.671 208.461 264.053 208.643C264.434 208.816 264.737 209.085 264.963 209.449C265.197 209.813 265.314 210.277 265.314 210.84V215H264.274V211.204C264.274 210.485 264.118 209.986 263.806 209.709C263.502 209.423 263.125 209.28 262.675 209.28C262.363 209.28 262.051 209.354 261.739 209.501C261.427 209.648 261.167 209.891 260.959 210.229C260.759 210.558 260.66 211 260.66 211.555V215H259.62ZM270.385 215.13C269.77 215.13 269.22 214.996 268.734 214.727C268.258 214.458 267.885 214.073 267.616 213.57C267.348 213.059 267.213 212.452 267.213 211.75C267.213 211.048 267.348 210.446 267.616 209.943C267.885 209.432 268.253 209.042 268.721 208.773C269.189 208.504 269.722 208.37 270.32 208.37C270.927 208.37 271.443 208.5 271.867 208.76C272.301 209.02 272.63 209.375 272.855 209.826C273.081 210.268 273.193 210.766 273.193 211.321C273.193 211.468 273.189 211.603 273.18 211.724C273.172 211.845 273.159 211.954 273.141 212.049H267.889V211.126H272.686L272.153 211.23C272.153 210.606 271.98 210.125 271.633 209.787C271.295 209.449 270.849 209.28 270.294 209.28C269.87 209.28 269.501 209.38 269.189 209.579C268.886 209.77 268.648 210.051 268.474 210.424C268.31 210.788 268.227 211.23 268.227 211.75C268.227 212.261 268.314 212.703 268.487 213.076C268.661 213.449 268.903 213.735 269.215 213.934C269.536 214.125 269.917 214.22 270.359 214.22C270.836 214.22 271.222 214.129 271.516 213.947C271.82 213.765 272.062 213.518 272.244 213.206L273.063 213.687C272.899 213.982 272.686 214.237 272.426 214.454C272.175 214.671 271.876 214.84 271.529 214.961C271.191 215.074 270.81 215.13 270.385 215.13Z" fill="white"/>
<path d="M36.297 230.5H37.454L35.192 237H34.152L32.319 231.826L30.59 237H29.55L27.288 230.5H28.445L30.083 235.791L31.851 230.5H32.891L34.659 235.791L36.297 230.5ZM41.527 237.13C40.9117 237.13 40.3614 236.996 39.876 236.727C39.3994 236.458 39.0267 236.073 38.758 235.57C38.4894 235.059 38.355 234.452 38.355 233.75C38.355 233.048 38.4894 232.446 38.758 231.943C39.0267 231.432 39.395 231.042 39.863 230.773C40.331 230.504 40.864 230.37 41.462 230.37C42.0687 230.37 42.5844 230.5 43.009 230.76C43.4424 231.02 43.7717 231.375 43.997 231.826C44.2224 232.268 44.335 232.766 44.335 233.321C44.335 233.468 44.3307 233.603 44.322 233.724C44.3134 233.845 44.3004 233.954 44.283 234.049H39.031V233.126H43.828L43.295 233.23C43.295 232.606 43.1217 232.125 42.775 231.787C42.437 231.449 41.9907 231.28 41.436 231.28C41.0114 231.28 40.643 231.38 40.331 231.579C40.0277 231.77 39.7894 232.051 39.616 232.424C39.4514 232.788 39.369 233.23 39.369 233.75C39.369 234.261 39.4557 234.703 39.629 235.076C39.8024 235.449 40.045 235.735 40.357 235.934C40.6777 236.125 41.059 236.22 41.501 236.22C41.9777 236.22 42.3634 236.129 42.658 235.947C42.9614 235.765 43.204 235.518 43.386 235.206L44.205 235.687C44.0404 235.982 43.828 236.237 43.568 236.454C43.3167 236.671 43.0177 236.84 42.671 236.961C42.333 237.074 41.9517 237.13 41.527 237.13ZM49.498 237.13C49.134 237.13 48.796 237.065 48.484 236.935C48.172 236.805 47.9033 236.623 47.678 236.389C47.4526 236.155 47.2836 235.891 47.171 235.596L47.314 235.414L47.223 237H46.313V227.51H47.353V231.969L47.223 231.774C47.3963 231.367 47.6866 231.033 48.094 230.773C48.51 230.504 48.9823 230.37 49.511 230.37C50.0483 230.37 50.5423 230.504 50.993 230.773C51.4436 231.042 51.8033 231.427 52.072 231.93C52.3406 232.433 52.475 233.039 52.475 233.75C52.475 234.452 52.3363 235.059 52.059 235.57C51.7903 236.073 51.4306 236.458 50.98 236.727C50.5293 236.996 50.0353 237.13 49.498 237.13ZM49.394 236.22C50.0353 236.22 50.5336 235.995 50.889 235.544C51.253 235.093 51.435 234.495 51.435 233.75C51.435 233.005 51.2573 232.407 50.902 231.956C50.5466 231.505 50.0483 231.28 49.407 231.28C48.9996 231.28 48.64 231.384 48.328 231.592C48.0246 231.8 47.7863 232.09 47.613 232.463C47.4396 232.836 47.353 233.273 47.353 233.776C47.353 234.27 47.4353 234.703 47.6 235.076C47.7733 235.44 48.0116 235.722 48.315 235.921C48.627 236.12 48.9866 236.22 49.394 236.22ZM60.1741 228.654V235.206C60.1741 235.527 60.2651 235.765 60.4471 235.921C60.6291 236.077 60.8631 236.155 61.1491 236.155C61.4005 236.155 61.6171 236.112 61.7991 236.025C61.9811 235.938 62.1458 235.821 62.2931 235.674L62.6571 236.545C62.4578 236.727 62.2195 236.87 61.9421 236.974C61.6735 237.078 61.3615 237.13 61.0061 237.13C60.6768 237.13 60.3691 237.074 60.0831 236.961C59.7971 236.84 59.5675 236.653 59.3941 236.402C59.2295 236.142 59.1428 235.804 59.1341 235.388V228.94L60.1741 228.654ZM62.5401 230.5V231.397H57.8341V230.5H62.5401ZM66.7774 230.37C67.3927 230.37 67.9344 230.504 68.4024 230.773C68.8791 231.042 69.2517 231.432 69.5204 231.943C69.7891 232.446 69.9234 233.048 69.9234 233.75C69.9234 234.452 69.7891 235.059 69.5204 235.57C69.2517 236.073 68.8791 236.458 68.4024 236.727C67.9344 236.996 67.3927 237.13 66.7774 237.13C66.1707 237.13 65.6291 236.996 65.1524 236.727C64.6757 236.458 64.3031 236.073 64.0344 235.57C63.7657 235.059 63.6314 234.452 63.6314 233.75C63.6314 233.048 63.7657 232.446 64.0344 231.943C64.3031 231.432 64.6757 231.042 65.1524 230.773C65.6291 230.504 66.1707 230.37 66.7774 230.37ZM66.7774 231.267C66.3354 231.267 65.9584 231.367 65.6464 231.566C65.3344 231.765 65.0917 232.051 64.9184 232.424C64.7537 232.788 64.6714 233.23 64.6714 233.75C64.6714 234.261 64.7537 234.703 64.9184 235.076C65.0917 235.449 65.3344 235.735 65.6464 235.934C65.9584 236.133 66.3354 236.233 66.7774 236.233C67.2194 236.233 67.5964 236.133 67.9084 235.934C68.2204 235.735 68.4587 235.449 68.6234 235.076C68.7967 234.703 68.8834 234.261 68.8834 233.75C68.8834 233.23 68.7967 232.788 68.6234 232.424C68.4587 232.051 68.2204 231.765 67.9084 231.566C67.5964 231.367 67.2194 231.267 66.7774 231.267ZM81.785 229.304L82.019 230.227C82.0103 230.227 81.9973 230.227 81.98 230.227C81.9627 230.227 81.9453 230.227 81.928 230.227C81.5033 230.227 81.174 230.314 80.94 230.487C80.7147 230.652 80.602 230.92 80.602 231.293L79.965 230.968C79.965 230.63 80.043 230.335 80.199 230.084C80.355 229.833 80.5673 229.642 80.836 229.512C81.1047 229.373 81.3993 229.304 81.72 229.304C81.7287 229.304 81.7373 229.304 81.746 229.304C81.7633 229.304 81.7763 229.304 81.785 229.304ZM79.809 236.168C80.4243 236.168 80.9053 236.311 81.252 236.597C81.5987 236.874 81.772 237.247 81.772 237.715C81.772 238.14 81.629 238.508 81.343 238.82C81.0657 239.132 80.6887 239.37 80.212 239.535C79.744 239.708 79.2153 239.795 78.626 239.795C77.6033 239.795 76.8363 239.622 76.325 239.275C75.8223 238.928 75.571 238.512 75.571 238.027C75.571 237.68 75.6837 237.368 75.909 237.091C76.143 236.822 76.533 236.671 77.079 236.636L76.988 236.831C76.6933 236.753 76.442 236.623 76.234 236.441C76.0347 236.25 75.935 235.977 75.935 235.622C75.935 235.267 76.065 234.963 76.325 234.712C76.5937 234.452 76.988 234.292 77.508 234.231L78.197 234.582H78.067C77.6423 234.625 77.339 234.734 77.157 234.907C76.9837 235.072 76.897 235.254 76.897 235.453C76.897 235.696 76.9837 235.878 77.157 235.999C77.339 236.112 77.5903 236.168 77.911 236.168H79.809ZM78.613 238.924C79.1157 238.924 79.5273 238.872 79.848 238.768C80.1773 238.664 80.42 238.53 80.576 238.365C80.732 238.2 80.81 238.023 80.81 237.832C80.81 237.598 80.7147 237.412 80.524 237.273C80.342 237.134 80.0083 237.065 79.523 237.065H77.521C77.2437 237.065 77.0097 237.134 76.819 237.273C76.6283 237.42 76.533 237.62 76.533 237.871C76.533 238.192 76.715 238.447 77.079 238.638C77.4517 238.829 77.963 238.924 78.613 238.924ZM78.522 230.37C79.042 230.37 79.5013 230.465 79.9 230.656C80.3073 230.838 80.6237 231.094 80.849 231.423C81.0743 231.752 81.187 232.134 81.187 232.567C81.187 232.992 81.0743 233.373 80.849 233.711C80.6237 234.04 80.3073 234.3 79.9 234.491C79.5013 234.673 79.042 234.764 78.522 234.764C77.664 234.764 77.0053 234.56 76.546 234.153C76.0867 233.737 75.857 233.208 75.857 232.567C75.857 232.134 75.9697 231.752 76.195 231.423C76.429 231.094 76.7453 230.838 77.144 230.656C77.5427 230.465 78.002 230.37 78.522 230.37ZM78.522 231.215C78.0713 231.215 77.6943 231.341 77.391 231.592C77.0877 231.835 76.936 232.16 76.936 232.567C76.936 232.966 77.0877 233.291 77.391 233.542C77.6943 233.793 78.0713 233.919 78.522 233.919C78.9727 233.919 79.3497 233.793 79.653 233.542C79.9563 233.291 80.108 232.966 80.108 232.567C80.108 232.16 79.9563 231.835 79.653 231.592C79.3497 231.341 78.9727 231.215 78.522 231.215ZM87.0269 232.801C87.0269 232.316 86.8969 231.943 86.6369 231.683C86.3769 231.414 86.0086 231.28 85.5319 231.28C85.0813 231.28 84.6999 231.38 84.3879 231.579C84.0759 231.77 83.8463 232.082 83.6989 232.515L82.8539 231.995C83.0273 231.51 83.3479 231.12 83.8159 230.825C84.2839 230.522 84.8646 230.37 85.5579 230.37C86.0259 230.37 86.4506 230.452 86.8319 230.617C87.2133 230.773 87.5123 231.016 87.7289 231.345C87.9543 231.666 88.0669 232.082 88.0669 232.593V235.739C88.0669 236.051 88.2316 236.207 88.5609 236.207C88.7256 236.207 88.8859 236.185 89.0419 236.142L88.9899 236.961C88.8166 237.048 88.5913 237.091 88.3139 237.091C88.0626 237.091 87.8373 237.043 87.6379 236.948C87.4386 236.853 87.2826 236.71 87.1699 236.519C87.0573 236.32 87.0009 236.073 87.0009 235.778V235.648L87.2609 235.687C87.1569 236.025 86.9793 236.302 86.7279 236.519C86.4766 236.727 86.1949 236.883 85.8829 236.987C85.5709 237.082 85.2633 237.13 84.9599 237.13C84.5786 237.13 84.2233 237.065 83.8939 236.935C83.5646 236.805 83.3003 236.61 83.1009 236.35C82.9103 236.081 82.8149 235.752 82.8149 235.362C82.8149 234.877 82.9753 234.478 83.2959 234.166C83.6253 233.845 84.0803 233.629 84.6609 233.516L87.2349 233.009V233.867L85.1419 234.296C84.7173 234.383 84.4009 234.504 84.1929 234.66C83.9849 234.816 83.8809 235.033 83.8809 235.31C83.8809 235.579 83.9849 235.8 84.1929 235.973C84.4096 236.138 84.7129 236.22 85.1029 236.22C85.3543 236.22 85.5926 236.19 85.8179 236.129C86.0519 236.06 86.2599 235.96 86.4419 235.83C86.6239 235.691 86.7669 235.522 86.8709 235.323C86.9749 235.115 87.0269 234.872 87.0269 234.595V232.801ZM91.8743 228.654V235.206C91.8743 235.527 91.9653 235.765 92.1473 235.921C92.3293 236.077 92.5633 236.155 92.8493 236.155C93.1007 236.155 93.3173 236.112 93.4993 236.025C93.6813 235.938 93.846 235.821 93.9933 235.674L94.3573 236.545C94.158 236.727 93.9197 236.87 93.6423 236.974C93.3737 237.078 93.0617 237.13 92.7063 237.13C92.377 237.13 92.0693 237.074 91.7833 236.961C91.4973 236.84 91.2677 236.653 91.0943 236.402C90.9297 236.142 90.843 235.804 90.8343 235.388V228.94L91.8743 228.654ZM94.2403 230.5V231.397H89.5343V230.5H94.2403ZM95.7866 237V227.51H96.8266V231.475C97.0519 231.085 97.3509 230.803 97.7236 230.63C98.0963 230.457 98.5036 230.37 98.9456 230.37C99.4136 230.37 99.8383 230.461 100.22 230.643C100.601 230.816 100.904 231.085 101.13 231.449C101.364 231.813 101.481 232.277 101.481 232.84V237H100.441V233.204C100.441 232.485 100.285 231.986 99.9726 231.709C99.6693 231.423 99.2923 231.28 98.8416 231.28C98.5296 231.28 98.2176 231.354 97.9056 231.501C97.5936 231.648 97.3336 231.891 97.1256 232.229C96.9263 232.558 96.8266 233 96.8266 233.555V237H95.7866ZM106.552 237.13C105.937 237.13 105.387 236.996 104.901 236.727C104.425 236.458 104.052 236.073 103.783 235.57C103.515 235.059 103.38 234.452 103.38 233.75C103.38 233.048 103.515 232.446 103.783 231.943C104.052 231.432 104.42 231.042 104.888 230.773C105.356 230.504 105.889 230.37 106.487 230.37C107.094 230.37 107.61 230.5 108.034 230.76C108.468 231.02 108.797 231.375 109.022 231.826C109.248 232.268 109.36 232.766 109.36 233.321C109.36 233.468 109.356 233.603 109.347 233.724C109.339 233.845 109.326 233.954 109.308 234.049H104.056V233.126H108.853L108.32 233.23C108.32 232.606 108.147 232.125 107.8 231.787C107.462 231.449 107.016 231.28 106.461 231.28C106.037 231.28 105.668 231.38 105.356 231.579C105.053 231.77 104.815 232.051 104.641 232.424C104.477 232.788 104.394 233.23 104.394 233.75C104.394 234.261 104.481 234.703 104.654 235.076C104.828 235.449 105.07 235.735 105.382 235.934C105.703 236.125 106.084 236.22 106.526 236.22C107.003 236.22 107.389 236.129 107.683 235.947C107.987 235.765 108.229 235.518 108.411 235.206L109.23 235.687C109.066 235.982 108.853 236.237 108.593 236.454C108.342 236.671 108.043 236.84 107.696 236.961C107.358 237.074 106.977 237.13 106.552 237.13ZM111.338 237V230.5H112.183L112.326 231.566C112.508 231.167 112.773 230.868 113.119 230.669C113.475 230.47 113.904 230.37 114.406 230.37C114.519 230.37 114.64 230.379 114.77 230.396C114.909 230.413 115.026 230.448 115.121 230.5L114.939 231.449C114.844 231.414 114.74 231.388 114.627 231.371C114.515 231.354 114.354 231.345 114.146 231.345C113.878 231.345 113.605 231.423 113.327 231.579C113.059 231.735 112.833 231.973 112.651 232.294C112.469 232.606 112.378 233.005 112.378 233.49V237H111.338ZM120.771 237V230.5H121.681L121.746 231.514C121.98 231.115 122.283 230.825 122.656 230.643C123.037 230.461 123.427 230.37 123.826 230.37C124.285 230.37 124.719 230.474 125.126 230.682C125.533 230.89 125.845 231.211 126.062 231.644C126.201 231.349 126.396 231.111 126.647 230.929C126.898 230.738 127.171 230.6 127.466 230.513C127.769 230.418 128.055 230.37 128.324 230.37C128.74 230.37 129.134 230.457 129.507 230.63C129.888 230.803 130.2 231.072 130.443 231.436C130.686 231.8 130.807 232.268 130.807 232.84V237H129.767V232.944C129.767 232.355 129.62 231.93 129.325 231.67C129.03 231.41 128.666 231.28 128.233 231.28C127.895 231.28 127.579 231.362 127.284 231.527C126.989 231.692 126.751 231.934 126.569 232.255C126.396 232.576 126.309 232.97 126.309 233.438V237H125.269V232.944C125.269 232.355 125.122 231.93 124.827 231.67C124.532 231.41 124.168 231.28 123.735 231.28C123.449 231.28 123.154 231.358 122.851 231.514C122.556 231.661 122.309 231.9 122.11 232.229C121.911 232.558 121.811 232.992 121.811 233.529V237H120.771ZM133.682 229.252C133.448 229.252 133.257 229.183 133.11 229.044C132.971 228.897 132.902 228.706 132.902 228.472C132.902 228.238 132.971 228.052 133.11 227.913C133.257 227.766 133.448 227.692 133.682 227.692C133.916 227.692 134.102 227.766 134.241 227.913C134.388 228.052 134.462 228.238 134.462 228.472C134.462 228.706 134.388 228.897 134.241 229.044C134.102 229.183 133.916 229.252 133.682 229.252ZM134.202 230.5V237H133.162V230.5H134.202ZM137.603 227.51V235.349C137.603 235.678 137.663 235.908 137.785 236.038C137.906 236.159 138.101 236.22 138.37 236.22C138.543 236.22 138.686 236.207 138.799 236.181C138.911 236.155 139.063 236.107 139.254 236.038L139.085 236.948C138.946 237.009 138.794 237.052 138.63 237.078C138.465 237.113 138.296 237.13 138.123 237.13C137.594 237.13 137.2 236.987 136.94 236.701C136.688 236.415 136.563 235.977 136.563 235.388V227.51H137.603ZM141.576 227.51V235.349C141.576 235.678 141.637 235.908 141.758 236.038C141.88 236.159 142.075 236.22 142.343 236.22C142.517 236.22 142.66 236.207 142.772 236.181C142.885 236.155 143.037 236.107 143.227 236.038L143.058 236.948C142.92 237.009 142.768 237.052 142.603 237.078C142.439 237.113 142.27 237.13 142.096 237.13C141.568 237.13 141.173 236.987 140.913 236.701C140.662 236.415 140.536 235.977 140.536 235.388V227.51H141.576ZM145.082 229.252C144.848 229.252 144.657 229.183 144.51 229.044C144.371 228.897 144.302 228.706 144.302 228.472C144.302 228.238 144.371 228.052 144.51 227.913C144.657 227.766 144.848 227.692 145.082 227.692C145.316 227.692 145.502 227.766 145.641 227.913C145.788 228.052 145.862 228.238 145.862 228.472C145.862 228.706 145.788 228.897 145.641 229.044C145.502 229.183 145.316 229.252 145.082 229.252ZM145.602 230.5V237H144.562V230.5H145.602ZM150.706 230.37C151.321 230.37 151.863 230.504 152.331 230.773C152.808 231.042 153.18 231.432 153.449 231.943C153.718 232.446 153.852 233.048 153.852 233.75C153.852 234.452 153.718 235.059 153.449 235.57C153.18 236.073 152.808 236.458 152.331 236.727C151.863 236.996 151.321 237.13 150.706 237.13C150.099 237.13 149.558 236.996 149.081 236.727C148.604 236.458 148.232 236.073 147.963 235.57C147.694 235.059 147.56 234.452 147.56 233.75C147.56 233.048 147.694 232.446 147.963 231.943C148.232 231.432 148.604 231.042 149.081 230.773C149.558 230.504 150.099 230.37 150.706 230.37ZM150.706 231.267C150.264 231.267 149.887 231.367 149.575 231.566C149.263 231.765 149.02 232.051 148.847 232.424C148.682 232.788 148.6 233.23 148.6 233.75C148.6 234.261 148.682 234.703 148.847 235.076C149.02 235.449 149.263 235.735 149.575 235.934C149.887 236.133 150.264 236.233 150.706 236.233C151.148 236.233 151.525 236.133 151.837 235.934C152.149 235.735 152.387 235.449 152.552 235.076C152.725 234.703 152.812 234.261 152.812 233.75C152.812 233.23 152.725 232.788 152.552 232.424C152.387 232.051 152.149 231.765 151.837 231.566C151.525 231.367 151.148 231.267 150.706 231.267ZM155.81 237V230.5H156.72L156.811 231.956L156.642 231.813C156.781 231.466 156.967 231.189 157.201 230.981C157.435 230.764 157.704 230.608 158.007 230.513C158.319 230.418 158.64 230.37 158.969 230.37C159.437 230.37 159.862 230.461 160.243 230.643C160.624 230.816 160.928 231.085 161.153 231.449C161.387 231.813 161.504 232.277 161.504 232.84V237H160.464V233.204C160.464 232.485 160.308 231.986 159.996 231.709C159.693 231.423 159.316 231.28 158.865 231.28C158.553 231.28 158.241 231.354 157.929 231.501C157.617 231.648 157.357 231.887 157.149 232.216C156.95 232.545 156.85 232.987 156.85 233.542V237H155.81ZM166.199 237.13C165.566 237.13 164.981 236.996 164.444 236.727C163.915 236.458 163.508 236.077 163.222 235.583L164.106 234.946C164.297 235.345 164.574 235.657 164.938 235.882C165.311 236.107 165.757 236.22 166.277 236.22C166.736 236.22 167.096 236.133 167.356 235.96C167.616 235.778 167.746 235.544 167.746 235.258C167.746 235.076 167.685 234.911 167.564 234.764C167.451 234.608 167.23 234.495 166.901 234.426L165.341 234.101C164.708 233.971 164.253 233.754 163.976 233.451C163.707 233.148 163.573 232.771 163.573 232.32C163.573 231.965 163.673 231.64 163.872 231.345C164.08 231.05 164.37 230.816 164.743 230.643C165.124 230.461 165.571 230.37 166.082 230.37C166.723 230.37 167.265 230.496 167.707 230.747C168.149 230.998 168.478 231.354 168.695 231.813L167.824 232.385C167.677 232.004 167.438 231.726 167.109 231.553C166.78 231.371 166.437 231.28 166.082 231.28C165.77 231.28 165.501 231.323 165.276 231.41C165.059 231.497 164.89 231.618 164.769 231.774C164.656 231.921 164.6 232.09 164.6 232.281C164.6 232.472 164.665 232.649 164.795 232.814C164.925 232.97 165.168 233.083 165.523 233.152L167.148 233.49C167.755 233.611 168.179 233.811 168.422 234.088C168.665 234.365 168.786 234.703 168.786 235.102C168.786 235.509 168.678 235.869 168.461 236.181C168.244 236.484 167.941 236.718 167.551 236.883C167.161 237.048 166.71 237.13 166.199 237.13ZM177.836 230.37C178.451 230.37 178.993 230.504 179.461 230.773C179.938 231.042 180.31 231.432 180.579 231.943C180.848 232.446 180.982 233.048 180.982 233.75C180.982 234.452 180.848 235.059 180.579 235.57C180.31 236.073 179.938 236.458 179.461 236.727C178.993 236.996 178.451 237.13 177.836 237.13C177.229 237.13 176.688 236.996 176.211 236.727C175.734 236.458 175.362 236.073 175.093 235.57C174.824 235.059 174.69 234.452 174.69 233.75C174.69 233.048 174.824 232.446 175.093 231.943C175.362 231.432 175.734 231.042 176.211 230.773C176.688 230.504 177.229 230.37 177.836 230.37ZM177.836 231.267C177.394 231.267 177.017 231.367 176.705 231.566C176.393 231.765 176.15 232.051 175.977 232.424C175.812 232.788 175.73 233.23 175.73 233.75C175.73 234.261 175.812 234.703 175.977 235.076C176.15 235.449 176.393 235.735 176.705 235.934C177.017 236.133 177.394 236.233 177.836 236.233C178.278 236.233 178.655 236.133 178.967 235.934C179.279 235.735 179.517 235.449 179.682 235.076C179.855 234.703 179.942 234.261 179.942 233.75C179.942 233.23 179.855 232.788 179.682 232.424C179.517 232.051 179.279 231.765 178.967 231.566C178.655 231.367 178.278 231.267 177.836 231.267ZM185.465 227.445C185.69 227.445 185.902 227.471 186.102 227.523C186.301 227.575 186.457 227.649 186.57 227.744L186.297 228.589C186.193 228.52 186.08 228.472 185.959 228.446C185.837 228.411 185.703 228.394 185.556 228.394C185.183 228.394 184.893 228.485 184.685 228.667C184.477 228.84 184.373 229.122 184.373 229.512V230.5V230.838V237H183.333V229.408C183.333 229.122 183.376 228.858 183.463 228.615C183.549 228.372 183.679 228.164 183.853 227.991C184.035 227.818 184.26 227.683 184.529 227.588C184.797 227.493 185.109 227.445 185.465 227.445ZM186.544 230.5V231.397H182.033V230.5H186.544ZM194.374 237.13C193.837 237.13 193.343 236.996 192.892 236.727C192.442 236.458 192.082 236.073 191.813 235.57C191.545 235.059 191.41 234.452 191.41 233.75C191.41 233.031 191.553 232.42 191.839 231.917C192.125 231.414 192.502 231.033 192.97 230.773C193.438 230.504 193.941 230.37 194.478 230.37C195.016 230.37 195.479 230.509 195.869 230.786C196.268 231.063 196.532 231.432 196.662 231.891L196.532 231.982V227.51H197.572V237H196.662L196.571 235.427L196.714 235.349C196.654 235.73 196.506 236.055 196.272 236.324C196.047 236.584 195.765 236.783 195.427 236.922C195.098 237.061 194.747 237.13 194.374 237.13ZM194.478 236.22C194.894 236.22 195.254 236.116 195.557 235.908C195.869 235.7 196.108 235.405 196.272 235.024C196.446 234.634 196.532 234.179 196.532 233.659C196.532 233.165 196.446 232.74 196.272 232.385C196.108 232.03 195.874 231.757 195.57 231.566C195.276 231.375 194.929 231.28 194.53 231.28C193.872 231.28 193.36 231.505 192.996 231.956C192.632 232.407 192.45 233.005 192.45 233.75C192.45 234.495 192.628 235.093 192.983 235.544C193.339 235.995 193.837 236.22 194.478 236.22ZM203.786 232.801C203.786 232.316 203.656 231.943 203.396 231.683C203.136 231.414 202.767 231.28 202.291 231.28C201.84 231.28 201.459 231.38 201.147 231.579C200.835 231.77 200.605 232.082 200.458 232.515L199.613 231.995C199.786 231.51 200.107 231.12 200.575 230.825C201.043 230.522 201.623 230.37 202.317 230.37C202.785 230.37 203.209 230.452 203.591 230.617C203.972 230.773 204.271 231.016 204.488 231.345C204.713 231.666 204.826 232.082 204.826 232.593V235.739C204.826 236.051 204.99 236.207 205.32 236.207C205.484 236.207 205.645 236.185 205.801 236.142L205.749 236.961C205.575 237.048 205.35 237.091 205.073 237.091C204.821 237.091 204.596 237.043 204.397 236.948C204.197 236.853 204.041 236.71 203.929 236.519C203.816 236.32 203.76 236.073 203.76 235.778V235.648L204.02 235.687C203.916 236.025 203.738 236.302 203.487 236.519C203.235 236.727 202.954 236.883 202.642 236.987C202.33 237.082 202.022 237.13 201.719 237.13C201.337 237.13 200.982 237.065 200.653 236.935C200.323 236.805 200.059 236.61 199.86 236.35C199.669 236.081 199.574 235.752 199.574 235.362C199.574 234.877 199.734 234.478 200.055 234.166C200.384 233.845 200.839 233.629 201.42 233.516L203.994 233.009V233.867L201.901 234.296C201.476 234.383 201.16 234.504 200.952 234.66C200.744 234.816 200.64 235.033 200.64 235.31C200.64 235.579 200.744 235.8 200.952 235.973C201.168 236.138 201.472 236.22 201.862 236.22C202.113 236.22 202.351 236.19 202.577 236.129C202.811 236.06 203.019 235.96 203.201 235.83C203.383 235.691 203.526 235.522 203.63 235.323C203.734 235.115 203.786 234.872 203.786 234.595V232.801ZM208.633 228.654V235.206C208.633 235.527 208.724 235.765 208.906 235.921C209.088 236.077 209.322 236.155 209.608 236.155C209.859 236.155 210.076 236.112 210.258 236.025C210.44 235.938 210.605 235.821 210.752 235.674L211.116 236.545C210.917 236.727 210.678 236.87 210.401 236.974C210.132 237.078 209.82 237.13 209.465 237.13C209.136 237.13 208.828 237.074 208.542 236.961C208.256 236.84 208.026 236.653 207.853 236.402C207.688 236.142 207.602 235.804 207.593 235.388V228.94L208.633 228.654ZM210.999 230.5V231.397H206.293V230.5H210.999ZM216.341 232.801C216.341 232.316 216.211 231.943 215.951 231.683C215.691 231.414 215.323 231.28 214.846 231.28C214.396 231.28 214.014 231.38 213.702 231.579C213.39 231.77 213.161 232.082 213.013 232.515L212.168 231.995C212.342 231.51 212.662 231.12 213.13 230.825C213.598 230.522 214.179 230.37 214.872 230.37C215.34 230.37 215.765 230.452 216.146 230.617C216.528 230.773 216.827 231.016 217.043 231.345C217.269 231.666 217.381 232.082 217.381 232.593V235.739C217.381 236.051 217.546 236.207 217.875 236.207C218.04 236.207 218.2 236.185 218.356 236.142L218.304 236.961C218.131 237.048 217.906 237.091 217.628 237.091C217.377 237.091 217.152 237.043 216.952 236.948C216.753 236.853 216.597 236.71 216.484 236.519C216.372 236.32 216.315 236.073 216.315 235.778V235.648L216.575 235.687C216.471 236.025 216.294 236.302 216.042 236.519C215.791 236.727 215.509 236.883 215.197 236.987C214.885 237.082 214.578 237.13 214.274 237.13C213.893 237.13 213.538 237.065 213.208 236.935C212.879 236.805 212.615 236.61 212.415 236.35C212.225 236.081 212.129 235.752 212.129 235.362C212.129 234.877 212.29 234.478 212.61 234.166C212.94 233.845 213.395 233.629 213.975 233.516L216.549 233.009V233.867L214.456 234.296C214.032 234.383 213.715 234.504 213.507 234.66C213.299 234.816 213.195 235.033 213.195 235.31C213.195 235.579 213.299 235.8 213.507 235.973C213.724 236.138 214.027 236.22 214.417 236.22C214.669 236.22 214.907 236.19 215.132 236.129C215.366 236.06 215.574 235.96 215.756 235.83C215.938 235.691 216.081 235.522 216.185 235.323C216.289 235.115 216.341 234.872 216.341 234.595V232.801ZM224.035 239.73V230.5H224.945L225.036 232.086L224.893 231.904C225.005 231.601 225.174 231.336 225.4 231.111C225.625 230.877 225.898 230.695 226.219 230.565C226.539 230.435 226.886 230.37 227.259 230.37C227.787 230.37 228.273 230.504 228.715 230.773C229.165 231.042 229.525 231.427 229.794 231.93C230.062 232.433 230.197 233.039 230.197 233.75C230.197 234.452 230.058 235.059 229.781 235.57C229.512 236.073 229.152 236.458 228.702 236.727C228.251 236.996 227.757 237.13 227.22 237.13C226.682 237.13 226.21 237 225.803 236.74C225.404 236.471 225.118 236.133 224.945 235.726L225.075 235.531V239.73H224.035ZM227.116 236.22C227.757 236.22 228.255 235.995 228.611 235.544C228.975 235.093 229.157 234.495 229.157 233.75C229.157 233.005 228.979 232.407 228.624 231.956C228.277 231.505 227.787 231.28 227.155 231.28C226.739 231.28 226.375 231.384 226.063 231.592C225.751 231.791 225.508 232.077 225.335 232.45C225.161 232.814 225.075 233.247 225.075 233.75C225.075 234.244 225.157 234.677 225.322 235.05C225.495 235.423 225.733 235.713 226.037 235.921C226.349 236.12 226.708 236.22 227.116 236.22ZM234.876 230.37C235.491 230.37 236.033 230.504 236.501 230.773C236.978 231.042 237.35 231.432 237.619 231.943C237.888 232.446 238.022 233.048 238.022 233.75C238.022 234.452 237.888 235.059 237.619 235.57C237.35 236.073 236.978 236.458 236.501 236.727C236.033 236.996 235.491 237.13 234.876 237.13C234.269 237.13 233.728 236.996 233.251 236.727C232.774 236.458 232.402 236.073 232.133 235.57C231.864 235.059 231.73 234.452 231.73 233.75C231.73 233.048 231.864 232.446 232.133 231.943C232.402 231.432 232.774 231.042 233.251 230.773C233.728 230.504 234.269 230.37 234.876 230.37ZM234.876 231.267C234.434 231.267 234.057 231.367 233.745 231.566C233.433 231.765 233.19 232.051 233.017 232.424C232.852 232.788 232.77 233.23 232.77 233.75C232.77 234.261 232.852 234.703 233.017 235.076C233.19 235.449 233.433 235.735 233.745 235.934C234.057 236.133 234.434 236.233 234.876 236.233C235.318 236.233 235.695 236.133 236.007 235.934C236.319 235.735 236.557 235.449 236.722 235.076C236.895 234.703 236.982 234.261 236.982 233.75C236.982 233.23 236.895 232.788 236.722 232.424C236.557 232.051 236.319 231.765 236.007 231.566C235.695 231.367 235.318 231.267 234.876 231.267ZM240.5 229.252C240.266 229.252 240.075 229.183 239.928 229.044C239.789 228.897 239.72 228.706 239.72 228.472C239.72 228.238 239.789 228.052 239.928 227.913C240.075 227.766 240.266 227.692 240.5 227.692C240.734 227.692 240.92 227.766 241.059 227.913C241.206 228.052 241.28 228.238 241.28 228.472C241.28 228.706 241.206 228.897 241.059 229.044C240.92 229.183 240.734 229.252 240.5 229.252ZM241.02 230.5V237H239.98V230.5H241.02ZM243.433 237V230.5H244.343L244.434 231.956L244.265 231.813C244.404 231.466 244.59 231.189 244.824 230.981C245.058 230.764 245.327 230.608 245.63 230.513C245.942 230.418 246.263 230.37 246.592 230.37C247.06 230.37 247.485 230.461 247.866 230.643C248.247 230.816 248.551 231.085 248.776 231.449C249.01 231.813 249.127 232.277 249.127 232.84V237H248.087V233.204C248.087 232.485 247.931 231.986 247.619 231.709C247.316 231.423 246.939 231.28 246.488 231.28C246.176 231.28 245.864 231.354 245.552 231.501C245.24 231.648 244.98 231.887 244.772 232.216C244.573 232.545 244.473 232.987 244.473 233.542V237H243.433ZM252.927 228.654V235.206C252.927 235.527 253.018 235.765 253.2 235.921C253.382 236.077 253.616 236.155 253.902 236.155C254.153 236.155 254.37 236.112 254.552 236.025C254.734 235.938 254.899 235.821 255.046 235.674L255.41 236.545C255.211 236.727 254.972 236.87 254.695 236.974C254.426 237.078 254.114 237.13 253.759 237.13C253.43 237.13 253.122 237.074 252.836 236.961C252.55 236.84 252.32 236.653 252.147 236.402C251.982 236.142 251.896 235.804 251.887 235.388V228.94L252.927 228.654ZM255.293 230.5V231.397H250.587V230.5H255.293ZM259.179 237.13C258.547 237.13 257.962 236.996 257.424 236.727C256.896 236.458 256.488 236.077 256.202 235.583L257.086 234.946C257.277 235.345 257.554 235.657 257.918 235.882C258.291 236.107 258.737 236.22 259.257 236.22C259.717 236.22 260.076 236.133 260.336 235.96C260.596 235.778 260.726 235.544 260.726 235.258C260.726 235.076 260.666 234.911 260.544 234.764C260.432 234.608 260.211 234.495 259.881 234.426L258.321 234.101C257.689 233.971 257.234 233.754 256.956 233.451C256.688 233.148 256.553 232.771 256.553 232.32C256.553 231.965 256.653 231.64 256.852 231.345C257.06 231.05 257.351 230.816 257.723 230.643C258.105 230.461 258.551 230.37 259.062 230.37C259.704 230.37 260.245 230.496 260.687 230.747C261.129 230.998 261.459 231.354 261.675 231.813L260.804 232.385C260.657 232.004 260.419 231.726 260.089 231.553C259.76 231.371 259.418 231.28 259.062 231.28C258.75 231.28 258.482 231.323 258.256 231.41C258.04 231.497 257.871 231.618 257.749 231.774C257.637 231.921 257.58 232.09 257.58 232.281C257.58 232.472 257.645 232.649 257.775 232.814C257.905 232.97 258.148 233.083 258.503 233.152L260.128 233.49C260.735 233.611 261.16 233.811 261.402 234.088C261.645 234.365 261.766 234.703 261.766 235.102C261.766 235.509 261.658 235.869 261.441 236.181C261.225 236.484 260.921 236.718 260.531 236.883C260.141 237.048 259.691 237.13 259.179 237.13ZM264.215 235.44C264.466 235.44 264.67 235.518 264.826 235.674C264.982 235.83 265.06 236.034 265.06 236.285C265.06 236.536 264.982 236.74 264.826 236.896C264.67 237.052 264.466 237.13 264.215 237.13C263.963 237.13 263.76 237.052 263.604 236.896C263.448 236.74 263.37 236.536 263.37 236.285C263.37 236.034 263.448 235.83 263.604 235.674C263.76 235.518 263.963 235.44 264.215 235.44Z" fill="white"/>
</svg>
