<svg width="293" height="340" viewBox="0 0 293 340" fill="none" xmlns="http://www.w3.org/2000/svg">
<rect x="96.25" y="38" width="100" height="100" rx="50" fill="black" fill-opacity="0.6"/>
<path d="M136.411 105.5V74.25C136.411 72.2188 138.052 70.5 140.161 70.5H152.661C154.692 70.5 156.411 72.2188 156.411 74.25V105.5H136.411ZM141.411 75.5V78H151.411V75.5H141.411ZM166.411 81.75V101.75C166.411 103.859 164.692 105.5 162.661 105.5H158.911V78H162.661C164.692 78 166.411 79.7188 166.411 81.75ZM133.911 105.5H130.161C128.052 105.5 126.411 103.859 126.411 101.75V81.75C126.411 79.7188 128.052 78 130.161 78H133.911V105.5Z" fill="white"/>
<path d="M86.7519 163H89.9919V177H86.7519V163ZM80.3919 177H77.1519V163H80.3919V177ZM86.9919 171.26H80.1519V168.52H86.9919V171.26ZM96.2842 168.64H103.024V171.16H96.2842V168.64ZM96.5242 174.4H104.144V177H93.3042V163H103.884V165.6H96.5242V174.4ZM106.722 177V163H113.082C114.602 163 115.942 163.293 117.102 163.88C118.262 164.453 119.169 165.26 119.822 166.3C120.476 167.34 120.802 168.573 120.802 170C120.802 171.413 120.476 172.647 119.822 173.7C119.169 174.74 118.262 175.553 117.102 176.14C115.942 176.713 114.602 177 113.082 177H106.722ZM109.962 174.34H112.922C113.856 174.34 114.662 174.167 115.342 173.82C116.036 173.46 116.569 172.953 116.942 172.3C117.329 171.647 117.522 170.88 117.522 170C117.522 169.107 117.329 168.34 116.942 167.7C116.569 167.047 116.036 166.547 115.342 166.2C114.662 165.84 113.856 165.66 112.922 165.66H109.962V174.34ZM130.006 177.24C128.899 177.24 127.879 177.067 126.946 176.72C126.026 176.36 125.219 175.853 124.526 175.2C123.846 174.547 123.312 173.78 122.926 172.9C122.552 172.02 122.366 171.053 122.366 170C122.366 168.947 122.552 167.98 122.926 167.1C123.312 166.22 123.852 165.453 124.546 164.8C125.239 164.147 126.052 163.647 126.986 163.3C127.919 162.94 128.946 162.76 130.066 162.76C131.306 162.76 132.419 162.967 133.406 163.38C134.406 163.793 135.246 164.393 135.926 165.18L133.846 167.1C133.339 166.567 132.786 166.173 132.186 165.92C131.586 165.653 130.932 165.52 130.226 165.52C129.546 165.52 128.926 165.627 128.366 165.84C127.806 166.053 127.319 166.36 126.906 166.76C126.506 167.16 126.192 167.633 125.966 168.18C125.752 168.727 125.646 169.333 125.646 170C125.646 170.653 125.752 171.253 125.966 171.8C126.192 172.347 126.506 172.827 126.906 173.24C127.319 173.64 127.799 173.947 128.346 174.16C128.906 174.373 129.519 174.48 130.186 174.48C130.826 174.48 131.446 174.38 132.046 174.18C132.659 173.967 133.252 173.613 133.826 173.12L135.666 175.46C134.906 176.033 134.019 176.473 133.006 176.78C132.006 177.087 131.006 177.24 130.006 177.24ZM132.706 175.04V169.78H135.666V175.46L132.706 175.04ZM141.655 168.64H148.395V171.16H141.655V168.64ZM141.895 174.4H149.515V177H138.675V163H149.255V165.6H141.895V174.4ZM160.757 169.3H167.477V171.9H160.757V169.3ZM160.997 177H157.757V163H168.337V165.6H160.997V177ZM176.751 177.24C174.764 177.24 173.211 176.687 172.091 175.58C170.971 174.473 170.411 172.893 170.411 170.84V163H173.651V170.72C173.651 172.053 173.924 173.013 174.471 173.6C175.017 174.187 175.784 174.48 176.771 174.48C177.757 174.48 178.524 174.187 179.071 173.6C179.617 173.013 179.891 172.053 179.891 170.72V163H183.091V170.84C183.091 172.893 182.531 174.473 181.411 175.58C180.291 176.687 178.737 177.24 176.751 177.24ZM186.293 177V163H188.973L197.233 173.08H195.933V163H199.133V177H196.473L188.193 166.92H189.493V177H186.293ZM202.445 177V163H208.805C210.325 163 211.665 163.293 212.825 163.88C213.985 164.453 214.892 165.26 215.545 166.3C216.198 167.34 216.525 168.573 216.525 170C216.525 171.413 216.198 172.647 215.545 173.7C214.892 174.74 213.985 175.553 212.825 176.14C211.665 176.713 210.325 177 208.805 177H202.445ZM205.685 174.34H208.645C209.578 174.34 210.385 174.167 211.065 173.82C211.758 173.46 212.292 172.953 212.665 172.3C213.052 171.647 213.245 170.88 213.245 170C213.245 169.107 213.052 168.34 212.665 167.7C212.292 167.047 211.758 166.547 211.065 166.2C210.385 165.84 209.578 165.66 208.645 165.66H205.685V174.34Z" fill="white"/>
<path d="M68.8478 211V197H74.9078C76.1611 197 77.2411 197.207 78.1478 197.62C79.0544 198.02 79.7544 198.6 80.2478 199.36C80.7411 200.12 80.9878 201.027 80.9878 202.08C80.9878 203.12 80.7411 204.02 80.2478 204.78C79.7544 205.54 79.0544 206.127 78.1478 206.54C77.2411 206.94 76.1611 207.14 74.9078 207.14H70.6478L72.0878 205.68V211H68.8478ZM72.0878 206.04L70.6478 204.5H74.7278C75.7278 204.5 76.4744 204.287 76.9678 203.86C77.4611 203.433 77.7078 202.84 77.7078 202.08C77.7078 201.307 77.4611 200.707 76.9678 200.28C76.4744 199.853 75.7278 199.64 74.7278 199.64H70.6478L72.0878 198.1V206.04ZM83.3009 211V197H89.3609C90.6142 197 91.6942 197.207 92.6009 197.62C93.5076 198.02 94.2076 198.6 94.7009 199.36C95.1942 200.12 95.4409 201.027 95.4409 202.08C95.4409 203.12 95.1942 204.02 94.7009 204.78C94.2076 205.527 93.5076 206.1 92.6009 206.5C91.6942 206.9 90.6142 207.1 89.3609 207.1H85.1009L86.5409 205.68V211H83.3009ZM92.2009 211L88.7009 205.92H92.1609L95.7009 211H92.2009ZM86.5409 206.04L85.1009 204.52H89.1809C90.1809 204.52 90.9276 204.307 91.4209 203.88C91.9142 203.44 92.1609 202.84 92.1609 202.08C92.1609 201.307 91.9142 200.707 91.4209 200.28C90.9276 199.853 90.1809 199.64 89.1809 199.64H85.1009L86.5409 198.1V206.04ZM104.808 211.24C103.701 211.24 102.675 211.06 101.728 210.7C100.795 210.34 99.9813 209.833 99.2879 209.18C98.6079 208.527 98.0746 207.76 97.6879 206.88C97.3146 206 97.1279 205.04 97.1279 204C97.1279 202.96 97.3146 202 97.6879 201.12C98.0746 200.24 98.6146 199.473 99.3079 198.82C100.001 198.167 100.815 197.66 101.748 197.3C102.681 196.94 103.695 196.76 104.788 196.76C105.895 196.76 106.908 196.94 107.828 197.3C108.761 197.66 109.568 198.167 110.248 198.82C110.941 199.473 111.481 200.24 111.868 201.12C112.255 201.987 112.448 202.947 112.448 204C112.448 205.04 112.255 206.007 111.868 206.9C111.481 207.78 110.941 208.547 110.248 209.2C109.568 209.84 108.761 210.34 107.828 210.7C106.908 211.06 105.901 211.24 104.808 211.24ZM104.788 208.48C105.415 208.48 105.988 208.373 106.508 208.16C107.041 207.947 107.508 207.64 107.908 207.24C108.308 206.84 108.615 206.367 108.828 205.82C109.055 205.273 109.168 204.667 109.168 204C109.168 203.333 109.055 202.727 108.828 202.18C108.615 201.633 108.308 201.16 107.908 200.76C107.521 200.36 107.061 200.053 106.528 199.84C105.995 199.627 105.415 199.52 104.788 199.52C104.161 199.52 103.581 199.627 103.048 199.84C102.528 200.053 102.068 200.36 101.668 200.76C101.268 201.16 100.955 201.633 100.728 202.18C100.515 202.727 100.408 203.333 100.408 204C100.408 204.653 100.515 205.26 100.728 205.82C100.955 206.367 101.261 206.84 101.648 207.24C102.048 207.64 102.515 207.947 103.048 208.16C103.581 208.373 104.161 208.48 104.788 208.48ZM117.883 203.3H124.603V205.9H117.883V203.3ZM118.123 211H114.883V197H125.463V199.6H118.123V211ZM127.656 211V197H130.896V211H127.656ZM137.119 211V199.64H132.639V197H144.839V199.64H140.359V211H137.119ZM144.039 211L150.279 197H153.479L159.739 211H156.339L151.219 198.64H152.499L147.359 211H144.039ZM147.159 208L148.019 205.54H155.219L156.099 208H147.159ZM161.192 211V197H168.032C169.792 197 171.112 197.333 171.992 198C172.885 198.667 173.332 199.547 173.332 200.64C173.332 201.373 173.152 202.013 172.792 202.56C172.432 203.093 171.938 203.507 171.312 203.8C170.685 204.093 169.965 204.24 169.152 204.24L169.532 203.42C170.412 203.42 171.192 203.567 171.872 203.86C172.552 204.14 173.078 204.56 173.452 205.12C173.838 205.68 174.032 206.367 174.032 207.18C174.032 208.38 173.558 209.32 172.612 210C171.665 210.667 170.272 211 168.432 211H161.192ZM164.412 208.56H168.192C169.032 208.56 169.665 208.427 170.092 208.16C170.532 207.88 170.752 207.44 170.752 206.84C170.752 206.253 170.532 205.82 170.092 205.54C169.665 205.247 169.032 205.1 168.192 205.1H164.172V202.74H167.632C168.418 202.74 169.018 202.607 169.432 202.34C169.858 202.06 170.072 201.64 170.072 201.08C170.072 200.533 169.858 200.127 169.432 199.86C169.018 199.58 168.418 199.44 167.632 199.44H164.412V208.56ZM176.484 211V197H179.724V211H176.484ZM183.047 211V197H186.287V208.36H193.307V211H183.047ZM195.117 211V197H198.357V211H195.117ZM204.58 211V199.64H200.1V197H212.3V199.64H207.82V211H204.58ZM217.25 211V205.28L217.99 207.24L211.83 197H215.27L219.99 204.86H218.01L222.75 197H225.93L219.77 207.24L220.49 205.28V211H217.25Z" fill="white"/>
<path d="M28.2692 249L25.7342 240.42H26.8132L28.9322 248.051L30.9472 240.42H32.1302L34.1452 248.077L36.2642 240.42H37.2912L34.7692 249H33.4822L31.9612 243.436L31.5192 241.499H31.5062L31.0642 243.436L29.5562 249H28.2692ZM41.2401 249.13C40.6248 249.13 40.0744 248.996 39.5891 248.727C39.1124 248.458 38.7398 248.073 38.4711 247.57C38.2024 247.059 38.0681 246.452 38.0681 245.75C38.0681 245.048 38.2024 244.446 38.4711 243.943C38.7398 243.432 39.1081 243.042 39.5761 242.773C40.0441 242.504 40.5771 242.37 41.1751 242.37C41.7818 242.37 42.2974 242.5 42.7221 242.76C43.1554 243.02 43.4848 243.375 43.7101 243.826C43.9354 244.268 44.0481 244.766 44.0481 245.321C44.0481 245.468 44.0438 245.603 44.0351 245.724C44.0264 245.845 44.0134 245.954 43.9961 246.049H38.7441V245.126H43.5411L43.0081 245.23C43.0081 244.606 42.8348 244.125 42.4881 243.787C42.1501 243.449 41.7038 243.28 41.1491 243.28C40.7244 243.28 40.3561 243.38 40.0441 243.579C39.7408 243.77 39.5024 244.051 39.3291 244.424C39.1644 244.788 39.0821 245.23 39.0821 245.75C39.0821 246.261 39.1688 246.703 39.3421 247.076C39.5154 247.449 39.7581 247.735 40.0701 247.934C40.3908 248.125 40.7721 248.22 41.2141 248.22C41.6908 248.22 42.0764 248.129 42.3711 247.947C42.6744 247.765 42.9171 247.518 43.0991 247.206L43.9181 247.687C43.7534 247.982 43.5411 248.237 43.2811 248.454C43.0298 248.671 42.7308 248.84 42.3841 248.961C42.0461 249.074 41.6648 249.13 41.2401 249.13ZM50.4567 251.73V242.5H51.3667L51.4577 244.086L51.3147 243.904C51.4274 243.601 51.5964 243.336 51.8217 243.111C52.047 242.877 52.32 242.695 52.6407 242.565C52.9614 242.435 53.308 242.37 53.6807 242.37C54.2094 242.37 54.6947 242.504 55.1367 242.773C55.5874 243.042 55.947 243.427 56.2157 243.93C56.4844 244.433 56.6187 245.039 56.6187 245.75C56.6187 246.452 56.48 247.059 56.2027 247.57C55.934 248.073 55.5744 248.458 55.1237 248.727C54.673 248.996 54.179 249.13 53.6417 249.13C53.1044 249.13 52.632 249 52.2247 248.74C51.826 248.471 51.54 248.133 51.3667 247.726L51.4967 247.531V251.73H50.4567ZM53.5377 248.22C54.179 248.22 54.6774 247.995 55.0327 247.544C55.3967 247.093 55.5787 246.495 55.5787 245.75C55.5787 245.005 55.401 244.407 55.0457 243.956C54.699 243.505 54.2094 243.28 53.5767 243.28C53.1607 243.28 52.7967 243.384 52.4847 243.592C52.1727 243.791 51.93 244.077 51.7567 244.45C51.5834 244.814 51.4967 245.247 51.4967 245.75C51.4967 246.244 51.579 246.677 51.7437 247.05C51.917 247.423 52.1554 247.713 52.4587 247.921C52.7707 248.12 53.1304 248.22 53.5377 248.22ZM58.6071 249V242.5H59.4521L59.5951 243.566C59.7771 243.167 60.0414 242.868 60.3881 242.669C60.7434 242.47 61.1724 242.37 61.6751 242.37C61.7877 242.37 61.9091 242.379 62.0391 242.396C62.1777 242.413 62.2947 242.448 62.3901 242.5L62.2081 243.449C62.1127 243.414 62.0087 243.388 61.8961 243.371C61.7834 243.354 61.6231 243.345 61.4151 243.345C61.1464 243.345 60.8734 243.423 60.5961 243.579C60.3274 243.735 60.1021 243.973 59.9201 244.294C59.7381 244.606 59.6471 245.005 59.6471 245.49V249H58.6071ZM66.4016 242.37C67.0169 242.37 67.5586 242.504 68.0266 242.773C68.5033 243.042 68.8759 243.432 69.1446 243.943C69.4133 244.446 69.5476 245.048 69.5476 245.75C69.5476 246.452 69.4133 247.059 69.1446 247.57C68.8759 248.073 68.5033 248.458 68.0266 248.727C67.5586 248.996 67.0169 249.13 66.4016 249.13C65.7949 249.13 65.2533 248.996 64.7766 248.727C64.2999 248.458 63.9273 248.073 63.6586 247.57C63.3899 247.059 63.2556 246.452 63.2556 245.75C63.2556 245.048 63.3899 244.446 63.6586 243.943C63.9273 243.432 64.2999 243.042 64.7766 242.773C65.2533 242.504 65.7949 242.37 66.4016 242.37ZM66.4016 243.267C65.9596 243.267 65.5826 243.367 65.2706 243.566C64.9586 243.765 64.7159 244.051 64.5426 244.424C64.3779 244.788 64.2956 245.23 64.2956 245.75C64.2956 246.261 64.3779 246.703 64.5426 247.076C64.7159 247.449 64.9586 247.735 65.2706 247.934C65.5826 248.133 65.9596 248.233 66.4016 248.233C66.8436 248.233 67.2206 248.133 67.5326 247.934C67.8446 247.735 68.0829 247.449 68.2476 247.076C68.4209 246.703 68.5076 246.261 68.5076 245.75C68.5076 245.23 68.4209 244.788 68.2476 244.424C68.0829 244.051 67.8446 243.765 67.5326 243.566C67.2206 243.367 66.8436 243.267 66.4016 243.267ZM75.8085 242.5H76.9005L74.1965 249H73.1565L70.4525 242.5H71.6355L73.6895 247.947L75.8085 242.5ZM78.7794 241.252C78.5454 241.252 78.3548 241.183 78.2074 241.044C78.0688 240.897 77.9994 240.706 77.9994 240.472C77.9994 240.238 78.0688 240.052 78.2074 239.913C78.3548 239.766 78.5454 239.692 78.7794 239.692C79.0134 239.692 79.1998 239.766 79.3384 239.913C79.4858 240.052 79.5594 240.238 79.5594 240.472C79.5594 240.706 79.4858 240.897 79.3384 241.044C79.1998 241.183 79.0134 241.252 78.7794 241.252ZM79.2994 242.5V249H78.2594V242.5H79.2994ZM84.2475 249.13C83.7102 249.13 83.2162 248.996 82.7655 248.727C82.3149 248.458 81.9552 248.073 81.6865 247.57C81.4179 247.059 81.2835 246.452 81.2835 245.75C81.2835 245.031 81.4265 244.42 81.7125 243.917C81.9985 243.414 82.3755 243.033 82.8435 242.773C83.3115 242.504 83.8142 242.37 84.3515 242.37C84.8889 242.37 85.3525 242.509 85.7425 242.786C86.1412 243.063 86.4055 243.432 86.5355 243.891L86.4055 243.982V239.51H87.4455V249H86.5355L86.4445 247.427L86.5875 247.349C86.5269 247.73 86.3795 248.055 86.1455 248.324C85.9202 248.584 85.6385 248.783 85.3005 248.922C84.9712 249.061 84.6202 249.13 84.2475 249.13ZM84.3515 248.22C84.7675 248.22 85.1272 248.116 85.4305 247.908C85.7425 247.7 85.9809 247.405 86.1455 247.024C86.3189 246.634 86.4055 246.179 86.4055 245.659C86.4055 245.165 86.3189 244.74 86.1455 244.385C85.9809 244.03 85.7469 243.757 85.4435 243.566C85.1489 243.375 84.8022 243.28 84.4035 243.28C83.7449 243.28 83.2335 243.505 82.8695 243.956C82.5055 244.407 82.3235 245.005 82.3235 245.75C82.3235 246.495 82.5012 247.093 82.8565 247.544C83.2119 247.995 83.7102 248.22 84.3515 248.22ZM92.5799 249.13C91.9646 249.13 91.4143 248.996 90.9289 248.727C90.4523 248.458 90.0796 248.073 89.8109 247.57C89.5423 247.059 89.4079 246.452 89.4079 245.75C89.4079 245.048 89.5423 244.446 89.8109 243.943C90.0796 243.432 90.4479 243.042 90.9159 242.773C91.3839 242.504 91.9169 242.37 92.5149 242.37C93.1216 242.37 93.6373 242.5 94.0619 242.76C94.4953 243.02 94.8246 243.375 95.0499 243.826C95.2753 244.268 95.3879 244.766 95.3879 245.321C95.3879 245.468 95.3836 245.603 95.3749 245.724C95.3663 245.845 95.3533 245.954 95.3359 246.049H90.0839V245.126H94.8809L94.3479 245.23C94.3479 244.606 94.1746 244.125 93.8279 243.787C93.4899 243.449 93.0436 243.28 92.4889 243.28C92.0643 243.28 91.6959 243.38 91.3839 243.579C91.0806 243.77 90.8423 244.051 90.6689 244.424C90.5043 244.788 90.4219 245.23 90.4219 245.75C90.4219 246.261 90.5086 246.703 90.6819 247.076C90.8553 247.449 91.0979 247.735 91.4099 247.934C91.7306 248.125 92.1119 248.22 92.5539 248.22C93.0306 248.22 93.4163 248.129 93.7109 247.947C94.0143 247.765 94.2569 247.518 94.4389 247.206L95.2579 247.687C95.0933 247.982 94.8809 248.237 94.6209 248.454C94.3696 248.671 94.0706 248.84 93.7239 248.961C93.3859 249.074 93.0046 249.13 92.5799 249.13ZM101.797 251.73V242.5H102.707L102.798 244.086L102.655 243.904C102.767 243.601 102.936 243.336 103.162 243.111C103.387 242.877 103.66 242.695 103.981 242.565C104.301 242.435 104.648 242.37 105.021 242.37C105.549 242.37 106.035 242.504 106.477 242.773C106.927 243.042 107.287 243.427 107.556 243.93C107.824 244.433 107.959 245.039 107.959 245.75C107.959 246.452 107.82 247.059 107.543 247.57C107.274 248.073 106.914 248.458 106.464 248.727C106.013 248.996 105.519 249.13 104.982 249.13C104.444 249.13 103.972 249 103.565 248.74C103.166 248.471 102.88 248.133 102.707 247.726L102.837 247.531V251.73H101.797ZM104.878 248.22C105.519 248.22 106.017 247.995 106.373 247.544C106.737 247.093 106.919 246.495 106.919 245.75C106.919 245.005 106.741 244.407 106.386 243.956C106.039 243.505 105.549 243.28 104.917 243.28C104.501 243.28 104.137 243.384 103.825 243.592C103.513 243.791 103.27 244.077 103.097 244.45C102.923 244.814 102.837 245.247 102.837 245.75C102.837 246.244 102.919 246.677 103.084 247.05C103.257 247.423 103.495 247.713 103.799 247.921C104.111 248.12 104.47 248.22 104.878 248.22ZM109.947 249V242.5H110.792L110.935 243.566C111.117 243.167 111.381 242.868 111.728 242.669C112.083 242.47 112.512 242.37 113.015 242.37C113.128 242.37 113.249 242.379 113.379 242.396C113.518 242.413 113.635 242.448 113.73 242.5L113.548 243.449C113.453 243.414 113.349 243.388 113.236 243.371C113.123 243.354 112.963 243.345 112.755 243.345C112.486 243.345 112.213 243.423 111.936 243.579C111.667 243.735 111.442 243.973 111.26 244.294C111.078 244.606 110.987 245.005 110.987 245.49V249H109.947ZM117.767 249.13C117.152 249.13 116.602 248.996 116.116 248.727C115.64 248.458 115.267 248.073 114.998 247.57C114.73 247.059 114.595 246.452 114.595 245.75C114.595 245.048 114.73 244.446 114.998 243.943C115.267 243.432 115.635 243.042 116.103 242.773C116.571 242.504 117.104 242.37 117.702 242.37C118.309 242.37 118.825 242.5 119.249 242.76C119.683 243.02 120.012 243.375 120.237 243.826C120.463 244.268 120.575 244.766 120.575 245.321C120.575 245.468 120.571 245.603 120.562 245.724C120.554 245.845 120.541 245.954 120.523 246.049H115.271V245.126H120.068L119.535 245.23C119.535 244.606 119.362 244.125 119.015 243.787C118.677 243.449 118.231 243.28 117.676 243.28C117.252 243.28 116.883 243.38 116.571 243.579C116.268 243.77 116.03 244.051 115.856 244.424C115.692 244.788 115.609 245.23 115.609 245.75C115.609 246.261 115.696 246.703 115.869 247.076C116.043 247.449 116.285 247.735 116.597 247.934C116.918 248.125 117.299 248.22 117.741 248.22C118.218 248.22 118.604 248.129 118.898 247.947C119.202 247.765 119.444 247.518 119.626 247.206L120.445 247.687C120.281 247.982 120.068 248.237 119.808 248.454C119.557 248.671 119.258 248.84 118.911 248.961C118.573 249.074 118.192 249.13 117.767 249.13ZM125.088 249.13C124.551 249.13 124.057 248.996 123.606 248.727C123.156 248.458 122.796 248.073 122.527 247.57C122.259 247.059 122.124 246.452 122.124 245.75C122.124 245.031 122.267 244.42 122.553 243.917C122.839 243.414 123.216 243.033 123.684 242.773C124.152 242.504 124.655 242.37 125.192 242.37C125.73 242.37 126.193 242.509 126.583 242.786C126.982 243.063 127.246 243.432 127.376 243.891L127.246 243.982V239.51H128.286V249H127.376L127.285 247.427L127.428 247.349C127.368 247.73 127.22 248.055 126.986 248.324C126.761 248.584 126.479 248.783 126.141 248.922C125.812 249.061 125.461 249.13 125.088 249.13ZM125.192 248.22C125.608 248.22 125.968 248.116 126.271 247.908C126.583 247.7 126.822 247.405 126.986 247.024C127.16 246.634 127.246 246.179 127.246 245.659C127.246 245.165 127.16 244.74 126.986 244.385C126.822 244.03 126.588 243.757 126.284 243.566C125.99 243.375 125.643 243.28 125.244 243.28C124.586 243.28 124.074 243.505 123.71 243.956C123.346 244.407 123.164 245.005 123.164 245.75C123.164 246.495 123.342 247.093 123.697 247.544C124.053 247.995 124.551 248.22 125.192 248.22ZM131.224 241.252C130.99 241.252 130.799 241.183 130.652 241.044C130.513 240.897 130.444 240.706 130.444 240.472C130.444 240.238 130.513 240.052 130.652 239.913C130.799 239.766 130.99 239.692 131.224 239.692C131.458 239.692 131.644 239.766 131.783 239.913C131.93 240.052 132.004 240.238 132.004 240.472C132.004 240.706 131.93 240.897 131.783 241.044C131.644 241.183 131.458 241.252 131.224 241.252ZM131.744 242.5V249H130.704V242.5H131.744ZM136.848 242.37C137.299 242.37 137.693 242.439 138.031 242.578C138.378 242.717 138.677 242.916 138.928 243.176C139.179 243.436 139.383 243.744 139.539 244.099L138.551 244.567C138.412 244.151 138.2 243.835 137.914 243.618C137.637 243.393 137.273 243.28 136.822 243.28C136.389 243.28 136.016 243.38 135.704 243.579C135.392 243.77 135.154 244.051 134.989 244.424C134.824 244.788 134.742 245.23 134.742 245.75C134.742 246.261 134.824 246.703 134.989 247.076C135.154 247.449 135.392 247.735 135.704 247.934C136.016 248.125 136.389 248.22 136.822 248.22C137.16 248.22 137.45 248.168 137.693 248.064C137.944 247.96 138.148 247.808 138.304 247.609C138.469 247.41 138.581 247.167 138.642 246.881L139.604 247.219C139.457 247.618 139.253 247.96 138.993 248.246C138.742 248.532 138.434 248.753 138.07 248.909C137.715 249.056 137.307 249.13 136.848 249.13C136.241 249.13 135.7 248.996 135.223 248.727C134.746 248.458 134.374 248.073 134.105 247.57C133.836 247.059 133.702 246.452 133.702 245.75C133.702 245.048 133.836 244.446 134.105 243.943C134.374 243.432 134.746 243.042 135.223 242.773C135.7 242.504 136.241 242.37 136.848 242.37ZM142.965 240.654V247.206C142.965 247.527 143.056 247.765 143.238 247.921C143.42 248.077 143.654 248.155 143.94 248.155C144.192 248.155 144.408 248.112 144.59 248.025C144.772 247.938 144.937 247.821 145.084 247.674L145.448 248.545C145.249 248.727 145.011 248.87 144.733 248.974C144.465 249.078 144.153 249.13 143.797 249.13C143.468 249.13 143.16 249.074 142.874 248.961C142.588 248.84 142.359 248.653 142.185 248.402C142.021 248.142 141.934 247.804 141.925 247.388V240.94L142.965 240.654ZM145.331 242.5V243.397H140.625V242.5H145.331ZM147.398 241.252C147.164 241.252 146.973 241.183 146.826 241.044C146.687 240.897 146.618 240.706 146.618 240.472C146.618 240.238 146.687 240.052 146.826 239.913C146.973 239.766 147.164 239.692 147.398 239.692C147.632 239.692 147.818 239.766 147.957 239.913C148.104 240.052 148.178 240.238 148.178 240.472C148.178 240.706 148.104 240.897 147.957 241.044C147.818 241.183 147.632 241.252 147.398 241.252ZM147.918 242.5V249H146.878V242.5H147.918ZM154.634 242.5H155.726L153.022 249H151.982L149.278 242.5H150.461L152.515 247.947L154.634 242.5ZM159.802 249.13C159.186 249.13 158.636 248.996 158.151 248.727C157.674 248.458 157.301 248.073 157.033 247.57C156.764 247.059 156.63 246.452 156.63 245.75C156.63 245.048 156.764 244.446 157.033 243.943C157.301 243.432 157.67 243.042 158.138 242.773C158.606 242.504 159.139 242.37 159.737 242.37C160.343 242.37 160.859 242.5 161.284 242.76C161.717 243.02 162.046 243.375 162.272 243.826C162.497 244.268 162.61 244.766 162.61 245.321C162.61 245.468 162.605 245.603 162.597 245.724C162.588 245.845 162.575 245.954 162.558 246.049H157.306V245.126H162.103L161.57 245.23C161.57 244.606 161.396 244.125 161.05 243.787C160.712 243.449 160.265 243.28 159.711 243.28C159.286 243.28 158.918 243.38 158.606 243.579C158.302 243.77 158.064 244.051 157.891 244.424C157.726 244.788 157.644 245.23 157.644 245.75C157.644 246.261 157.73 246.703 157.904 247.076C158.077 247.449 158.32 247.735 158.632 247.934C158.952 248.125 159.334 248.22 159.776 248.22C160.252 248.22 160.638 248.129 160.933 247.947C161.236 247.765 161.479 247.518 161.661 247.206L162.48 247.687C162.315 247.982 162.103 248.237 161.843 248.454C161.591 248.671 161.292 248.84 160.946 248.961C160.608 249.074 160.226 249.13 159.802 249.13ZM171.358 249.13C170.726 249.13 170.141 248.996 169.603 248.727C169.075 248.458 168.667 248.077 168.381 247.583L169.265 246.946C169.456 247.345 169.733 247.657 170.097 247.882C170.47 248.107 170.916 248.22 171.436 248.22C171.896 248.22 172.255 248.133 172.515 247.96C172.775 247.778 172.905 247.544 172.905 247.258C172.905 247.076 172.845 246.911 172.723 246.764C172.611 246.608 172.39 246.495 172.06 246.426L170.5 246.101C169.868 245.971 169.413 245.754 169.135 245.451C168.867 245.148 168.732 244.771 168.732 244.32C168.732 243.965 168.832 243.64 169.031 243.345C169.239 243.05 169.53 242.816 169.902 242.643C170.284 242.461 170.73 242.37 171.241 242.37C171.883 242.37 172.424 242.496 172.866 242.747C173.308 242.998 173.638 243.354 173.854 243.813L172.983 244.385C172.836 244.004 172.598 243.726 172.268 243.553C171.939 243.371 171.597 243.28 171.241 243.28C170.929 243.28 170.661 243.323 170.435 243.41C170.219 243.497 170.05 243.618 169.928 243.774C169.816 243.921 169.759 244.09 169.759 244.281C169.759 244.472 169.824 244.649 169.954 244.814C170.084 244.97 170.327 245.083 170.682 245.152L172.307 245.49C172.914 245.611 173.339 245.811 173.581 246.088C173.824 246.365 173.945 246.703 173.945 247.102C173.945 247.509 173.837 247.869 173.62 248.181C173.404 248.484 173.1 248.718 172.71 248.883C172.32 249.048 171.87 249.13 171.358 249.13ZM178.591 249.13C177.975 249.13 177.425 248.996 176.94 248.727C176.463 248.458 176.09 248.073 175.822 247.57C175.553 247.059 175.419 246.452 175.419 245.75C175.419 245.048 175.553 244.446 175.822 243.943C176.09 243.432 176.459 243.042 176.927 242.773C177.395 242.504 177.928 242.37 178.526 242.37C179.132 242.37 179.648 242.5 180.073 242.76C180.506 243.02 180.835 243.375 181.061 243.826C181.286 244.268 181.399 244.766 181.399 245.321C181.399 245.468 181.394 245.603 181.386 245.724C181.377 245.845 181.364 245.954 181.347 246.049H176.095V245.126H180.892L180.359 245.23C180.359 244.606 180.185 244.125 179.839 243.787C179.501 243.449 179.054 243.28 178.5 243.28C178.075 243.28 177.707 243.38 177.395 243.579C177.091 243.77 176.853 244.051 176.68 244.424C176.515 244.788 176.433 245.23 176.433 245.75C176.433 246.261 176.519 246.703 176.693 247.076C176.866 247.449 177.109 247.735 177.421 247.934C177.741 248.125 178.123 248.22 178.565 248.22C179.041 248.22 179.427 248.129 179.722 247.947C180.025 247.765 180.268 247.518 180.45 247.206L181.269 247.687C181.104 247.982 180.892 248.237 180.632 248.454C180.38 248.671 180.081 248.84 179.735 248.961C179.397 249.074 179.015 249.13 178.591 249.13ZM183.377 249V242.5H184.222L184.365 243.566C184.547 243.167 184.811 242.868 185.158 242.669C185.513 242.47 185.942 242.37 186.445 242.37C186.557 242.37 186.679 242.379 186.809 242.396C186.947 242.413 187.064 242.448 187.16 242.5L186.978 243.449C186.882 243.414 186.778 243.388 186.666 243.371C186.553 243.354 186.393 243.345 186.185 243.345C185.916 243.345 185.643 243.423 185.366 243.579C185.097 243.735 184.872 243.973 184.69 244.294C184.508 244.606 184.417 245.005 184.417 245.49V249H183.377ZM192.986 242.5H194.078L191.374 249H190.334L187.63 242.5H188.813L190.867 247.947L192.986 242.5ZM195.957 241.252C195.723 241.252 195.532 241.183 195.385 241.044C195.246 240.897 195.177 240.706 195.177 240.472C195.177 240.238 195.246 240.052 195.385 239.913C195.532 239.766 195.723 239.692 195.957 239.692C196.191 239.692 196.377 239.766 196.516 239.913C196.663 240.052 196.737 240.238 196.737 240.472C196.737 240.706 196.663 240.897 196.516 241.044C196.377 241.183 196.191 241.252 195.957 241.252ZM196.477 242.5V249H195.437V242.5H196.477ZM201.581 242.37C202.032 242.37 202.426 242.439 202.764 242.578C203.111 242.717 203.41 242.916 203.661 243.176C203.913 243.436 204.116 243.744 204.272 244.099L203.284 244.567C203.146 244.151 202.933 243.835 202.647 243.618C202.37 243.393 202.006 243.28 201.555 243.28C201.122 243.28 200.749 243.38 200.437 243.579C200.125 243.77 199.887 244.051 199.722 244.424C199.558 244.788 199.475 245.23 199.475 245.75C199.475 246.261 199.558 246.703 199.722 247.076C199.887 247.449 200.125 247.735 200.437 247.934C200.749 248.125 201.122 248.22 201.555 248.22C201.893 248.22 202.184 248.168 202.426 248.064C202.678 247.96 202.881 247.808 203.037 247.609C203.202 247.41 203.315 247.167 203.375 246.881L204.337 247.219C204.19 247.618 203.986 247.96 203.726 248.246C203.475 248.532 203.167 248.753 202.803 248.909C202.448 249.056 202.041 249.13 201.581 249.13C200.975 249.13 200.433 248.996 199.956 248.727C199.48 248.458 199.107 248.073 198.838 247.57C198.57 247.059 198.435 246.452 198.435 245.75C198.435 245.048 198.57 244.446 198.838 243.943C199.107 243.432 199.48 243.042 199.956 242.773C200.433 242.504 200.975 242.37 201.581 242.37ZM208.882 249.13C208.266 249.13 207.716 248.996 207.231 248.727C206.754 248.458 206.381 248.073 206.113 247.57C205.844 247.059 205.71 246.452 205.71 245.75C205.71 245.048 205.844 244.446 206.113 243.943C206.381 243.432 206.75 243.042 207.218 242.773C207.686 242.504 208.219 242.37 208.817 242.37C209.423 242.37 209.939 242.5 210.364 242.76C210.797 243.02 211.126 243.375 211.352 243.826C211.577 244.268 211.69 244.766 211.69 245.321C211.69 245.468 211.685 245.603 211.677 245.724C211.668 245.845 211.655 245.954 211.638 246.049H206.386V245.126H211.183L210.65 245.23C210.65 244.606 210.476 244.125 210.13 243.787C209.792 243.449 209.345 243.28 208.791 243.28C208.366 243.28 207.998 243.38 207.686 243.579C207.382 243.77 207.144 244.051 206.971 244.424C206.806 244.788 206.724 245.23 206.724 245.75C206.724 246.261 206.81 246.703 206.984 247.076C207.157 247.449 207.4 247.735 207.712 247.934C208.032 248.125 208.414 248.22 208.856 248.22C209.332 248.22 209.718 248.129 210.013 247.947C210.316 247.765 210.559 247.518 210.741 247.206L211.56 247.687C211.395 247.982 211.183 248.237 210.923 248.454C210.671 248.671 210.372 248.84 210.026 248.961C209.688 249.074 209.306 249.13 208.882 249.13ZM216.008 249.13C215.375 249.13 214.79 248.996 214.253 248.727C213.724 248.458 213.317 248.077 213.031 247.583L213.915 246.946C214.105 247.345 214.383 247.657 214.747 247.882C215.119 248.107 215.566 248.22 216.086 248.22C216.545 248.22 216.905 248.133 217.165 247.96C217.425 247.778 217.555 247.544 217.555 247.258C217.555 247.076 217.494 246.911 217.373 246.764C217.26 246.608 217.039 246.495 216.71 246.426L215.15 246.101C214.517 245.971 214.062 245.754 213.785 245.451C213.516 245.148 213.382 244.771 213.382 244.32C213.382 243.965 213.481 243.64 213.681 243.345C213.889 243.05 214.179 242.816 214.552 242.643C214.933 242.461 215.379 242.37 215.891 242.37C216.532 242.37 217.074 242.496 217.516 242.747C217.958 242.998 218.287 243.354 218.504 243.813L217.633 244.385C217.485 244.004 217.247 243.726 216.918 243.553C216.588 243.371 216.246 243.28 215.891 243.28C215.579 243.28 215.31 243.323 215.085 243.41C214.868 243.497 214.699 243.618 214.578 243.774C214.465 243.921 214.409 244.09 214.409 244.281C214.409 244.472 214.474 244.649 214.604 244.814C214.734 244.97 214.976 245.083 215.332 245.152L216.957 245.49C217.563 245.611 217.988 245.811 218.231 246.088C218.473 246.365 218.595 246.703 218.595 247.102C218.595 247.509 218.486 247.869 218.27 248.181C218.053 248.484 217.75 248.718 217.36 248.883C216.97 249.048 216.519 249.13 216.008 249.13ZM226.234 240.654V247.206C226.234 247.527 226.325 247.765 226.507 247.921C226.689 248.077 226.923 248.155 227.209 248.155C227.46 248.155 227.677 248.112 227.859 248.025C228.041 247.938 228.206 247.821 228.353 247.674L228.717 248.545C228.518 248.727 228.279 248.87 228.002 248.974C227.733 249.078 227.421 249.13 227.066 249.13C226.737 249.13 226.429 249.074 226.143 248.961C225.857 248.84 225.627 248.653 225.454 248.402C225.289 248.142 225.203 247.804 225.194 247.388V240.94L226.234 240.654ZM228.6 242.5V243.397H223.894V242.5H228.6ZM232.837 242.37C233.452 242.37 233.994 242.504 234.462 242.773C234.939 243.042 235.311 243.432 235.58 243.943C235.849 244.446 235.983 245.048 235.983 245.75C235.983 246.452 235.849 247.059 235.58 247.57C235.311 248.073 234.939 248.458 234.462 248.727C233.994 248.996 233.452 249.13 232.837 249.13C232.23 249.13 231.689 248.996 231.212 248.727C230.735 248.458 230.363 248.073 230.094 247.57C229.825 247.059 229.691 246.452 229.691 245.75C229.691 245.048 229.825 244.446 230.094 243.943C230.363 243.432 230.735 243.042 231.212 242.773C231.689 242.504 232.23 242.37 232.837 242.37ZM232.837 243.267C232.395 243.267 232.018 243.367 231.706 243.566C231.394 243.765 231.151 244.051 230.978 244.424C230.813 244.788 230.731 245.23 230.731 245.75C230.731 246.261 230.813 246.703 230.978 247.076C231.151 247.449 231.394 247.735 231.706 247.934C232.018 248.133 232.395 248.233 232.837 248.233C233.279 248.233 233.656 248.133 233.968 247.934C234.28 247.735 234.518 247.449 234.683 247.076C234.856 246.703 234.943 246.261 234.943 245.75C234.943 245.23 234.856 244.788 234.683 244.424C234.518 244.051 234.28 243.765 233.968 243.566C233.656 243.367 233.279 243.267 232.837 243.267ZM242.372 249V239.51H243.412V243.475C243.637 243.085 243.936 242.803 244.309 242.63C244.681 242.457 245.089 242.37 245.531 242.37C245.999 242.37 246.423 242.461 246.805 242.643C247.186 242.816 247.489 243.085 247.715 243.449C247.949 243.813 248.066 244.277 248.066 244.84V249H247.026V245.204C247.026 244.485 246.87 243.986 246.558 243.709C246.254 243.423 245.877 243.28 245.427 243.28C245.115 243.28 244.803 243.354 244.491 243.501C244.179 243.648 243.919 243.891 243.711 244.229C243.511 244.558 243.412 245 243.412 245.555V249H242.372ZM250.941 241.252C250.707 241.252 250.516 241.183 250.369 241.044C250.23 240.897 250.161 240.706 250.161 240.472C250.161 240.238 250.23 240.052 250.369 239.913C250.516 239.766 250.707 239.692 250.941 239.692C251.175 239.692 251.361 239.766 251.5 239.913C251.647 240.052 251.721 240.238 251.721 240.472C251.721 240.706 251.647 240.897 251.5 241.044C251.361 241.183 251.175 241.252 250.941 241.252ZM251.461 242.5V249H250.421V242.5H251.461ZM259.347 241.304L259.581 242.227C259.572 242.227 259.559 242.227 259.542 242.227C259.524 242.227 259.507 242.227 259.49 242.227C259.065 242.227 258.736 242.314 258.502 242.487C258.276 242.652 258.164 242.92 258.164 243.293L257.527 242.968C257.527 242.63 257.605 242.335 257.761 242.084C257.917 241.833 258.129 241.642 258.398 241.512C258.666 241.373 258.961 241.304 259.282 241.304C259.29 241.304 259.299 241.304 259.308 241.304C259.325 241.304 259.338 241.304 259.347 241.304ZM257.371 248.168C257.986 248.168 258.467 248.311 258.814 248.597C259.16 248.874 259.334 249.247 259.334 249.715C259.334 250.14 259.191 250.508 258.905 250.82C258.627 251.132 258.25 251.37 257.774 251.535C257.306 251.708 256.777 251.795 256.188 251.795C255.165 251.795 254.398 251.622 253.887 251.275C253.384 250.928 253.133 250.512 253.133 250.027C253.133 249.68 253.245 249.368 253.471 249.091C253.705 248.822 254.095 248.671 254.641 248.636L254.55 248.831C254.255 248.753 254.004 248.623 253.796 248.441C253.596 248.25 253.497 247.977 253.497 247.622C253.497 247.267 253.627 246.963 253.887 246.712C254.155 246.452 254.55 246.292 255.07 246.231L255.759 246.582H255.629C255.204 246.625 254.901 246.734 254.719 246.907C254.545 247.072 254.459 247.254 254.459 247.453C254.459 247.696 254.545 247.878 254.719 247.999C254.901 248.112 255.152 248.168 255.473 248.168H257.371ZM256.175 250.924C256.677 250.924 257.089 250.872 257.41 250.768C257.739 250.664 257.982 250.53 258.138 250.365C258.294 250.2 258.372 250.023 258.372 249.832C258.372 249.598 258.276 249.412 258.086 249.273C257.904 249.134 257.57 249.065 257.085 249.065H255.083C254.805 249.065 254.571 249.134 254.381 249.273C254.19 249.42 254.095 249.62 254.095 249.871C254.095 250.192 254.277 250.447 254.641 250.638C255.013 250.829 255.525 250.924 256.175 250.924ZM256.084 242.37C256.604 242.37 257.063 242.465 257.462 242.656C257.869 242.838 258.185 243.094 258.411 243.423C258.636 243.752 258.749 244.134 258.749 244.567C258.749 244.992 258.636 245.373 258.411 245.711C258.185 246.04 257.869 246.3 257.462 246.491C257.063 246.673 256.604 246.764 256.084 246.764C255.226 246.764 254.567 246.56 254.108 246.153C253.648 245.737 253.419 245.208 253.419 244.567C253.419 244.134 253.531 243.752 253.757 243.423C253.991 243.094 254.307 242.838 254.706 242.656C255.104 242.465 255.564 242.37 256.084 242.37ZM256.084 243.215C255.633 243.215 255.256 243.341 254.953 243.592C254.649 243.835 254.498 244.16 254.498 244.567C254.498 244.966 254.649 245.291 254.953 245.542C255.256 245.793 255.633 245.919 256.084 245.919C256.534 245.919 256.911 245.793 257.215 245.542C257.518 245.291 257.67 244.966 257.67 244.567C257.67 244.16 257.518 243.835 257.215 243.592C256.911 243.341 256.534 243.215 256.084 243.215ZM260.793 249V239.51H261.833V243.475C262.058 243.085 262.357 242.803 262.73 242.63C263.102 242.457 263.51 242.37 263.952 242.37C264.42 242.37 264.844 242.461 265.226 242.643C265.607 242.816 265.91 243.085 266.136 243.449C266.37 243.813 266.487 244.277 266.487 244.84V249H265.447V245.204C265.447 244.485 265.291 243.986 264.979 243.709C264.675 243.423 264.298 243.28 263.848 243.28C263.536 243.28 263.224 243.354 262.912 243.501C262.6 243.648 262.34 243.891 262.132 244.229C261.932 244.558 261.833 245 261.833 245.555V249H260.793Z" fill="white"/>
<path d="M38.4212 271V264.5H39.3312L39.4222 265.956L39.2532 265.813C39.3918 265.466 39.5782 265.189 39.8122 264.981C40.0462 264.764 40.3148 264.608 40.6182 264.513C40.9302 264.418 41.2508 264.37 41.5802 264.37C42.0482 264.37 42.4728 264.461 42.8542 264.643C43.2355 264.816 43.5388 265.085 43.7642 265.449C43.9982 265.813 44.1152 266.277 44.1152 266.84V271H43.0752V267.204C43.0752 266.485 42.9192 265.986 42.6072 265.709C42.3038 265.423 41.9268 265.28 41.4762 265.28C41.1642 265.28 40.8522 265.354 40.5402 265.501C40.2282 265.648 39.9682 265.887 39.7602 266.216C39.5608 266.545 39.4612 266.987 39.4612 267.542V271H38.4212ZM49.187 271.13C48.5717 271.13 48.0213 270.996 47.536 270.727C47.0593 270.458 46.6867 270.073 46.418 269.57C46.1493 269.059 46.015 268.452 46.015 267.75C46.015 267.048 46.1493 266.446 46.418 265.943C46.6867 265.432 47.055 265.042 47.523 264.773C47.991 264.504 48.524 264.37 49.122 264.37C49.7287 264.37 50.2443 264.5 50.669 264.76C51.1023 265.02 51.4317 265.375 51.657 265.826C51.8823 266.268 51.995 266.766 51.995 267.321C51.995 267.468 51.9907 267.603 51.982 267.724C51.9733 267.845 51.9603 267.954 51.943 268.049H46.691V267.126H51.488L50.955 267.23C50.955 266.606 50.7817 266.125 50.435 265.787C50.097 265.449 49.6507 265.28 49.096 265.28C48.6713 265.28 48.303 265.38 47.991 265.579C47.6877 265.77 47.4493 266.051 47.276 266.424C47.1113 266.788 47.029 267.23 47.029 267.75C47.029 268.261 47.1157 268.703 47.289 269.076C47.4623 269.449 47.705 269.735 48.017 269.934C48.3377 270.125 48.719 270.22 49.161 270.22C49.6377 270.22 50.0233 270.129 50.318 269.947C50.6213 269.765 50.864 269.518 51.046 269.206L51.865 269.687C51.7003 269.982 51.488 270.237 51.228 270.454C50.9767 270.671 50.6777 270.84 50.331 270.961C49.993 271.074 49.6117 271.13 49.187 271.13ZM55.3165 262.654V269.206C55.3165 269.527 55.4075 269.765 55.5895 269.921C55.7715 270.077 56.0055 270.155 56.2915 270.155C56.5428 270.155 56.7595 270.112 56.9415 270.025C57.1235 269.938 57.2882 269.821 57.4355 269.674L57.7995 270.545C57.6002 270.727 57.3618 270.87 57.0845 270.974C56.8158 271.078 56.5038 271.13 56.1485 271.13C55.8192 271.13 55.5115 271.074 55.2255 270.961C54.9395 270.84 54.7098 270.653 54.5365 270.402C54.3718 270.142 54.2852 269.804 54.2765 269.388V262.94L55.3165 262.654ZM57.6825 264.5V265.397H52.9765V264.5H57.6825ZM71.5185 264.5H72.6755L70.4135 271H69.3735L67.5405 265.826L65.8115 271H64.7715L62.5095 264.5H63.6665L65.3045 269.791L67.0725 264.5H68.1125L69.8805 269.791L71.5185 264.5ZM76.7225 264.37C77.3379 264.37 77.8795 264.504 78.3475 264.773C78.8242 265.042 79.1969 265.432 79.4655 265.943C79.7342 266.446 79.8685 267.048 79.8685 267.75C79.8685 268.452 79.7342 269.059 79.4655 269.57C79.1969 270.073 78.8242 270.458 78.3475 270.727C77.8795 270.996 77.3379 271.13 76.7225 271.13C76.1159 271.13 75.5742 270.996 75.0975 270.727C74.6209 270.458 74.2482 270.073 73.9795 269.57C73.7109 269.059 73.5765 268.452 73.5765 267.75C73.5765 267.048 73.7109 266.446 73.9795 265.943C74.2482 265.432 74.6209 265.042 75.0975 264.773C75.5742 264.504 76.1159 264.37 76.7225 264.37ZM76.7225 265.267C76.2805 265.267 75.9035 265.367 75.5915 265.566C75.2795 265.765 75.0369 266.051 74.8635 266.424C74.6989 266.788 74.6165 267.23 74.6165 267.75C74.6165 268.261 74.6989 268.703 74.8635 269.076C75.0369 269.449 75.2795 269.735 75.5915 269.934C75.9035 270.133 76.2805 270.233 76.7225 270.233C77.1645 270.233 77.5415 270.133 77.8535 269.934C78.1655 269.735 78.4039 269.449 78.5685 269.076C78.7419 268.703 78.8285 268.261 78.8285 267.75C78.8285 267.23 78.7419 266.788 78.5685 266.424C78.4039 266.051 78.1655 265.765 77.8535 265.566C77.5415 265.367 77.1645 265.267 76.7225 265.267ZM81.8265 271V264.5H82.6715L82.8145 265.566C82.9965 265.167 83.2608 264.868 83.6075 264.669C83.9628 264.47 84.3918 264.37 84.8945 264.37C85.0071 264.37 85.1285 264.379 85.2585 264.396C85.3971 264.413 85.5141 264.448 85.6095 264.5L85.4275 265.449C85.3321 265.414 85.2281 265.388 85.1155 265.371C85.0028 265.354 84.8425 265.345 84.6345 265.345C84.3658 265.345 84.0928 265.423 83.8155 265.579C83.5468 265.735 83.3215 265.973 83.1395 266.294C82.9575 266.606 82.8665 267.005 82.8665 267.49V271H81.8265ZM88.2735 262.654V269.206C88.2735 269.527 88.3645 269.765 88.5465 269.921C88.7285 270.077 88.9625 270.155 89.2485 270.155C89.4999 270.155 89.7165 270.112 89.8985 270.025C90.0805 269.938 90.2452 269.821 90.3925 269.674L90.7565 270.545C90.5572 270.727 90.3189 270.87 90.0415 270.974C89.7729 271.078 89.4609 271.13 89.1055 271.13C88.7762 271.13 88.4685 271.074 88.1825 270.961C87.8965 270.84 87.6669 270.653 87.4935 270.402C87.3289 270.142 87.2422 269.804 87.2335 269.388V262.94L88.2735 262.654ZM90.6395 264.5V265.397H85.9335V264.5H90.6395ZM92.1858 271V261.51H93.2258V265.475C93.4512 265.085 93.7502 264.803 94.1228 264.63C94.4955 264.457 94.9028 264.37 95.3448 264.37C95.8128 264.37 96.2375 264.461 96.6188 264.643C97.0002 264.816 97.3035 265.085 97.5288 265.449C97.7628 265.813 97.8798 266.277 97.8798 266.84V271H96.8398V267.204C96.8398 266.485 96.6838 265.986 96.3718 265.709C96.0685 265.423 95.6915 265.28 95.2408 265.28C94.9288 265.28 94.6168 265.354 94.3048 265.501C93.9928 265.648 93.7328 265.891 93.5248 266.229C93.3255 266.558 93.2258 267 93.2258 267.555V271H92.1858ZM105.185 263.252C104.951 263.252 104.761 263.183 104.613 263.044C104.475 262.897 104.405 262.706 104.405 262.472C104.405 262.238 104.475 262.052 104.613 261.913C104.761 261.766 104.951 261.692 105.185 261.692C105.419 261.692 105.606 261.766 105.744 261.913C105.892 262.052 105.965 262.238 105.965 262.472C105.965 262.706 105.892 262.897 105.744 263.044C105.606 263.183 105.419 263.252 105.185 263.252ZM105.705 264.5V271H104.665V264.5H105.705ZM108.118 271V264.5H109.028L109.119 265.956L108.95 265.813C109.089 265.466 109.275 265.189 109.509 264.981C109.743 264.764 110.012 264.608 110.315 264.513C110.627 264.418 110.948 264.37 111.277 264.37C111.745 264.37 112.17 264.461 112.551 264.643C112.933 264.816 113.236 265.085 113.461 265.449C113.695 265.813 113.812 266.277 113.812 266.84V271H112.772V267.204C112.772 266.485 112.616 265.986 112.304 265.709C112.001 265.423 111.624 265.28 111.173 265.28C110.861 265.28 110.549 265.354 110.237 265.501C109.925 265.648 109.665 265.887 109.457 266.216C109.258 266.545 109.158 266.987 109.158 267.542V271H108.118ZM118.702 271.13C118.165 271.13 117.671 270.996 117.22 270.727C116.77 270.458 116.41 270.073 116.141 269.57C115.873 269.059 115.738 268.452 115.738 267.75C115.738 267.031 115.881 266.42 116.167 265.917C116.453 265.414 116.83 265.033 117.298 264.773C117.766 264.504 118.269 264.37 118.806 264.37C119.344 264.37 119.807 264.509 120.197 264.786C120.596 265.063 120.86 265.432 120.99 265.891L120.86 265.982V261.51H121.9V271H120.99L120.899 269.427L121.042 269.349C120.982 269.73 120.834 270.055 120.6 270.324C120.375 270.584 120.093 270.783 119.755 270.922C119.426 271.061 119.075 271.13 118.702 271.13ZM118.806 270.22C119.222 270.22 119.582 270.116 119.885 269.908C120.197 269.7 120.436 269.405 120.6 269.024C120.774 268.634 120.86 268.179 120.86 267.659C120.86 267.165 120.774 266.74 120.6 266.385C120.436 266.03 120.202 265.757 119.898 265.566C119.604 265.375 119.257 265.28 118.858 265.28C118.2 265.28 117.688 265.505 117.324 265.956C116.96 266.407 116.778 267.005 116.778 267.75C116.778 268.495 116.956 269.093 117.311 269.544C117.667 269.995 118.165 270.22 118.806 270.22ZM124.838 263.252C124.604 263.252 124.413 263.183 124.266 263.044C124.127 262.897 124.058 262.706 124.058 262.472C124.058 262.238 124.127 262.052 124.266 261.913C124.413 261.766 124.604 261.692 124.838 261.692C125.072 261.692 125.258 261.766 125.397 261.913C125.544 262.052 125.618 262.238 125.618 262.472C125.618 262.706 125.544 262.897 125.397 263.044C125.258 263.183 125.072 263.252 124.838 263.252ZM125.358 264.5V271H124.318V264.5H125.358ZM132.074 264.5H133.166L130.462 271H129.422L126.718 264.5H127.901L129.955 269.947L132.074 264.5ZM135.045 263.252C134.811 263.252 134.62 263.183 134.473 263.044C134.334 262.897 134.265 262.706 134.265 262.472C134.265 262.238 134.334 262.052 134.473 261.913C134.62 261.766 134.811 261.692 135.045 261.692C135.279 261.692 135.465 261.766 135.604 261.913C135.751 262.052 135.825 262.238 135.825 262.472C135.825 262.706 135.751 262.897 135.604 263.044C135.465 263.183 135.279 263.252 135.045 263.252ZM135.565 264.5V271H134.525V264.5H135.565ZM140.513 271.13C139.975 271.13 139.481 270.996 139.031 270.727C138.58 270.458 138.22 270.073 137.952 269.57C137.683 269.059 137.549 268.452 137.549 267.75C137.549 267.031 137.692 266.42 137.978 265.917C138.264 265.414 138.641 265.033 139.109 264.773C139.577 264.504 140.079 264.37 140.617 264.37C141.154 264.37 141.618 264.509 142.008 264.786C142.406 265.063 142.671 265.432 142.801 265.891L142.671 265.982V261.51H143.711V271H142.801L142.71 269.427L142.853 269.349C142.792 269.73 142.645 270.055 142.411 270.324C142.185 270.584 141.904 270.783 141.566 270.922C141.236 271.061 140.885 271.13 140.513 271.13ZM140.617 270.22C141.033 270.22 141.392 270.116 141.696 269.908C142.008 269.7 142.246 269.405 142.411 269.024C142.584 268.634 142.671 268.179 142.671 267.659C142.671 267.165 142.584 266.74 142.411 266.385C142.246 266.03 142.012 265.757 141.709 265.566C141.414 265.375 141.067 265.28 140.669 265.28C140.01 265.28 139.499 265.505 139.135 265.956C138.771 266.407 138.589 267.005 138.589 267.75C138.589 268.495 138.766 269.093 139.122 269.544C139.477 269.995 139.975 270.22 140.617 270.22ZM148.481 271.13C148.065 271.13 147.671 271.052 147.298 270.896C146.934 270.74 146.635 270.489 146.401 270.142C146.176 269.787 146.063 269.327 146.063 268.764V264.5H147.103V268.491C147.103 269.15 147.246 269.605 147.532 269.856C147.818 270.099 148.221 270.22 148.741 270.22C148.984 270.22 149.222 270.181 149.456 270.103C149.69 270.016 149.898 269.886 150.08 269.713C150.271 269.531 150.418 269.301 150.522 269.024C150.635 268.747 150.691 268.417 150.691 268.036V264.5H151.731V271H150.821L150.756 270.012C150.531 270.402 150.223 270.688 149.833 270.87C149.452 271.043 149.001 271.13 148.481 271.13ZM157.948 266.801C157.948 266.316 157.818 265.943 157.558 265.683C157.298 265.414 156.929 265.28 156.453 265.28C156.002 265.28 155.621 265.38 155.309 265.579C154.997 265.77 154.767 266.082 154.62 266.515L153.775 265.995C153.948 265.51 154.269 265.12 154.737 264.825C155.205 264.522 155.785 264.37 156.479 264.37C156.947 264.37 157.371 264.452 157.753 264.617C158.134 264.773 158.433 265.016 158.65 265.345C158.875 265.666 158.988 266.082 158.988 266.593V269.739C158.988 270.051 159.152 270.207 159.482 270.207C159.646 270.207 159.807 270.185 159.963 270.142L159.911 270.961C159.737 271.048 159.512 271.091 159.235 271.091C158.983 271.091 158.758 271.043 158.559 270.948C158.359 270.853 158.203 270.71 158.091 270.519C157.978 270.32 157.922 270.073 157.922 269.778V269.648L158.182 269.687C158.078 270.025 157.9 270.302 157.649 270.519C157.397 270.727 157.116 270.883 156.804 270.987C156.492 271.082 156.184 271.13 155.881 271.13C155.499 271.13 155.144 271.065 154.815 270.935C154.485 270.805 154.221 270.61 154.022 270.35C153.831 270.081 153.736 269.752 153.736 269.362C153.736 268.877 153.896 268.478 154.217 268.166C154.546 267.845 155.001 267.629 155.582 267.516L158.156 267.009V267.867L156.063 268.296C155.638 268.383 155.322 268.504 155.114 268.66C154.906 268.816 154.802 269.033 154.802 269.31C154.802 269.579 154.906 269.8 155.114 269.973C155.33 270.138 155.634 270.22 156.024 270.22C156.275 270.22 156.513 270.19 156.739 270.129C156.973 270.06 157.181 269.96 157.363 269.83C157.545 269.691 157.688 269.522 157.792 269.323C157.896 269.115 157.948 268.872 157.948 268.595V266.801ZM162.503 261.51V269.349C162.503 269.678 162.564 269.908 162.685 270.038C162.806 270.159 163.001 270.22 163.27 270.22C163.443 270.22 163.586 270.207 163.699 270.181C163.812 270.155 163.963 270.107 164.154 270.038L163.985 270.948C163.846 271.009 163.695 271.052 163.53 271.078C163.365 271.113 163.196 271.13 163.023 271.13C162.494 271.13 162.1 270.987 161.84 270.701C161.589 270.415 161.463 269.977 161.463 269.388V261.51H162.503ZM167.829 271.13C167.196 271.13 166.611 270.996 166.074 270.727C165.545 270.458 165.138 270.077 164.852 269.583L165.736 268.946C165.926 269.345 166.204 269.657 166.568 269.882C166.94 270.107 167.387 270.22 167.907 270.22C168.366 270.22 168.726 270.133 168.986 269.96C169.246 269.778 169.376 269.544 169.376 269.258C169.376 269.076 169.315 268.911 169.194 268.764C169.081 268.608 168.86 268.495 168.531 268.426L166.971 268.101C166.338 267.971 165.883 267.754 165.606 267.451C165.337 267.148 165.203 266.771 165.203 266.32C165.203 265.965 165.302 265.64 165.502 265.345C165.71 265.05 166 264.816 166.373 264.643C166.754 264.461 167.2 264.37 167.712 264.37C168.353 264.37 168.895 264.496 169.337 264.747C169.779 264.998 170.108 265.354 170.325 265.813L169.454 266.385C169.306 266.004 169.068 265.726 168.739 265.553C168.409 265.371 168.067 265.28 167.712 265.28C167.4 265.28 167.131 265.323 166.906 265.41C166.689 265.497 166.52 265.618 166.399 265.774C166.286 265.921 166.23 266.09 166.23 266.281C166.23 266.472 166.295 266.649 166.425 266.814C166.555 266.97 166.797 267.083 167.153 267.152L168.778 267.49C169.384 267.611 169.809 267.811 170.052 268.088C170.294 268.365 170.416 268.703 170.416 269.102C170.416 269.509 170.307 269.869 170.091 270.181C169.874 270.484 169.571 270.718 169.181 270.883C168.791 271.048 168.34 271.13 167.829 271.13ZM180.571 266.801C180.571 266.316 180.441 265.943 180.181 265.683C179.921 265.414 179.552 265.28 179.076 265.28C178.625 265.28 178.244 265.38 177.932 265.579C177.62 265.77 177.39 266.082 177.243 266.515L176.398 265.995C176.571 265.51 176.892 265.12 177.36 264.825C177.828 264.522 178.408 264.37 179.102 264.37C179.57 264.37 179.994 264.452 180.376 264.617C180.757 264.773 181.056 265.016 181.273 265.345C181.498 265.666 181.611 266.082 181.611 266.593V269.739C181.611 270.051 181.775 270.207 182.105 270.207C182.269 270.207 182.43 270.185 182.586 270.142L182.534 270.961C182.36 271.048 182.135 271.091 181.858 271.091C181.606 271.091 181.381 271.043 181.182 270.948C180.982 270.853 180.826 270.71 180.714 270.519C180.601 270.32 180.545 270.073 180.545 269.778V269.648L180.805 269.687C180.701 270.025 180.523 270.302 180.272 270.519C180.02 270.727 179.739 270.883 179.427 270.987C179.115 271.082 178.807 271.13 178.504 271.13C178.122 271.13 177.767 271.065 177.438 270.935C177.108 270.805 176.844 270.61 176.645 270.35C176.454 270.081 176.359 269.752 176.359 269.362C176.359 268.877 176.519 268.478 176.84 268.166C177.169 267.845 177.624 267.629 178.205 267.516L180.779 267.009V267.867L178.686 268.296C178.261 268.383 177.945 268.504 177.737 268.66C177.529 268.816 177.425 269.033 177.425 269.31C177.425 269.579 177.529 269.8 177.737 269.973C177.953 270.138 178.257 270.22 178.647 270.22C178.898 270.22 179.136 270.19 179.362 270.129C179.596 270.06 179.804 269.96 179.986 269.83C180.168 269.691 180.311 269.522 180.415 269.323C180.519 269.115 180.571 268.872 180.571 268.595V266.801ZM186.478 271.13C185.845 271.13 185.26 270.996 184.723 270.727C184.194 270.458 183.787 270.077 183.501 269.583L184.385 268.946C184.576 269.345 184.853 269.657 185.217 269.882C185.59 270.107 186.036 270.22 186.556 270.22C187.015 270.22 187.375 270.133 187.635 269.96C187.895 269.778 188.025 269.544 188.025 269.258C188.025 269.076 187.964 268.911 187.843 268.764C187.73 268.608 187.509 268.495 187.18 268.426L185.62 268.101C184.987 267.971 184.532 267.754 184.255 267.451C183.986 267.148 183.852 266.771 183.852 266.32C183.852 265.965 183.952 265.64 184.151 265.345C184.359 265.05 184.649 264.816 185.022 264.643C185.403 264.461 185.85 264.37 186.361 264.37C187.002 264.37 187.544 264.496 187.986 264.747C188.428 264.998 188.757 265.354 188.974 265.813L188.103 266.385C187.956 266.004 187.717 265.726 187.388 265.553C187.059 265.371 186.716 265.28 186.361 265.28C186.049 265.28 185.78 265.323 185.555 265.41C185.338 265.497 185.169 265.618 185.048 265.774C184.935 265.921 184.879 266.09 184.879 266.281C184.879 266.472 184.944 266.649 185.074 266.814C185.204 266.97 185.447 267.083 185.802 267.152L187.427 267.49C188.034 267.611 188.458 267.811 188.701 268.088C188.944 268.365 189.065 268.703 189.065 269.102C189.065 269.509 188.957 269.869 188.74 270.181C188.523 270.484 188.22 270.718 187.83 270.883C187.44 271.048 186.989 271.13 186.478 271.13ZM203.283 264.5H204.44L202.178 271H201.138L199.305 265.826L197.576 271H196.536L194.274 264.5H195.431L197.069 269.791L198.837 264.5H199.877L201.645 269.791L203.283 264.5ZM208.513 271.13C207.898 271.13 207.348 270.996 206.862 270.727C206.386 270.458 206.013 270.073 205.744 269.57C205.476 269.059 205.341 268.452 205.341 267.75C205.341 267.048 205.476 266.446 205.744 265.943C206.013 265.432 206.381 265.042 206.849 264.773C207.317 264.504 207.85 264.37 208.448 264.37C209.055 264.37 209.571 264.5 209.995 264.76C210.429 265.02 210.758 265.375 210.983 265.826C211.209 266.268 211.321 266.766 211.321 267.321C211.321 267.468 211.317 267.603 211.308 267.724C211.3 267.845 211.287 267.954 211.269 268.049H206.017V267.126H210.814L210.281 267.23C210.281 266.606 210.108 266.125 209.761 265.787C209.423 265.449 208.977 265.28 208.422 265.28C207.998 265.28 207.629 265.38 207.317 265.579C207.014 265.77 206.776 266.051 206.602 266.424C206.438 266.788 206.355 267.23 206.355 267.75C206.355 268.261 206.442 268.703 206.615 269.076C206.789 269.449 207.031 269.735 207.343 269.934C207.664 270.125 208.045 270.22 208.487 270.22C208.964 270.22 209.35 270.129 209.644 269.947C209.948 269.765 210.19 269.518 210.372 269.206L211.191 269.687C211.027 269.982 210.814 270.237 210.554 270.454C210.303 270.671 210.004 270.84 209.657 270.961C209.319 271.074 208.938 271.13 208.513 271.13ZM214.287 261.51V269.349C214.287 269.678 214.348 269.908 214.469 270.038C214.59 270.159 214.785 270.22 215.054 270.22C215.227 270.22 215.37 270.207 215.483 270.181C215.596 270.155 215.747 270.107 215.938 270.038L215.769 270.948C215.63 271.009 215.479 271.052 215.314 271.078C215.149 271.113 214.98 271.13 214.807 271.13C214.278 271.13 213.884 270.987 213.624 270.701C213.373 270.415 213.247 269.977 213.247 269.388V261.51H214.287ZM218.261 261.51V269.349C218.261 269.678 218.321 269.908 218.443 270.038C218.564 270.159 218.759 270.22 219.028 270.22C219.201 270.22 219.344 270.207 219.457 270.181C219.569 270.155 219.721 270.107 219.912 270.038L219.743 270.948C219.604 271.009 219.452 271.052 219.288 271.078C219.123 271.113 218.954 271.13 218.781 271.13C218.252 271.13 217.858 270.987 217.598 270.701C217.346 270.415 217.221 269.977 217.221 269.388V261.51H218.261ZM229.016 266.801C229.016 266.316 228.886 265.943 228.626 265.683C228.366 265.414 227.998 265.28 227.521 265.28C227.07 265.28 226.689 265.38 226.377 265.579C226.065 265.77 225.835 266.082 225.688 266.515L224.843 265.995C225.016 265.51 225.337 265.12 225.805 264.825C226.273 264.522 226.854 264.37 227.547 264.37C228.015 264.37 228.44 264.452 228.821 264.617C229.202 264.773 229.501 265.016 229.718 265.345C229.943 265.666 230.056 266.082 230.056 266.593V269.739C230.056 270.051 230.221 270.207 230.55 270.207C230.715 270.207 230.875 270.185 231.031 270.142L230.979 270.961C230.806 271.048 230.58 271.091 230.303 271.091C230.052 271.091 229.826 271.043 229.627 270.948C229.428 270.853 229.272 270.71 229.159 270.519C229.046 270.32 228.99 270.073 228.99 269.778V269.648L229.25 269.687C229.146 270.025 228.968 270.302 228.717 270.519C228.466 270.727 228.184 270.883 227.872 270.987C227.56 271.082 227.252 271.13 226.949 271.13C226.568 271.13 226.212 271.065 225.883 270.935C225.554 270.805 225.289 270.61 225.09 270.35C224.899 270.081 224.804 269.752 224.804 269.362C224.804 268.877 224.964 268.478 225.285 268.166C225.614 267.845 226.069 267.629 226.65 267.516L229.224 267.009V267.867L227.131 268.296C226.706 268.383 226.39 268.504 226.182 268.66C225.974 268.816 225.87 269.033 225.87 269.31C225.87 269.579 225.974 269.8 226.182 269.973C226.399 270.138 226.702 270.22 227.092 270.22C227.343 270.22 227.582 270.19 227.807 270.129C228.041 270.06 228.249 269.96 228.431 269.83C228.613 269.691 228.756 269.522 228.86 269.323C228.964 269.115 229.016 268.872 229.016 268.595V266.801ZM234.923 271.13C234.291 271.13 233.706 270.996 233.168 270.727C232.64 270.458 232.232 270.077 231.946 269.583L232.83 268.946C233.021 269.345 233.298 269.657 233.662 269.882C234.035 270.107 234.481 270.22 235.001 270.22C235.461 270.22 235.82 270.133 236.08 269.96C236.34 269.778 236.47 269.544 236.47 269.258C236.47 269.076 236.41 268.911 236.288 268.764C236.176 268.608 235.955 268.495 235.625 268.426L234.065 268.101C233.433 267.971 232.978 267.754 232.7 267.451C232.432 267.148 232.297 266.771 232.297 266.32C232.297 265.965 232.397 265.64 232.596 265.345C232.804 265.05 233.095 264.816 233.467 264.643C233.849 264.461 234.295 264.37 234.806 264.37C235.448 264.37 235.989 264.496 236.431 264.747C236.873 264.998 237.203 265.354 237.419 265.813L236.548 266.385C236.401 266.004 236.163 265.726 235.833 265.553C235.504 265.371 235.162 265.28 234.806 265.28C234.494 265.28 234.226 265.323 234 265.41C233.784 265.497 233.615 265.618 233.493 265.774C233.381 265.921 233.324 266.09 233.324 266.281C233.324 266.472 233.389 266.649 233.519 266.814C233.649 266.97 233.892 267.083 234.247 267.152L235.872 267.49C236.479 267.611 236.904 267.811 237.146 268.088C237.389 268.365 237.51 268.703 237.51 269.102C237.51 269.509 237.402 269.869 237.185 270.181C236.969 270.484 236.665 270.718 236.275 270.883C235.885 271.048 235.435 271.13 234.923 271.13ZM245.15 262.654V269.206C245.15 269.527 245.241 269.765 245.423 269.921C245.605 270.077 245.839 270.155 246.125 270.155C246.376 270.155 246.593 270.112 246.775 270.025C246.957 269.938 247.121 269.821 247.269 269.674L247.633 270.545C247.433 270.727 247.195 270.87 246.918 270.974C246.649 271.078 246.337 271.13 245.982 271.13C245.652 271.13 245.345 271.074 245.059 270.961C244.773 270.84 244.543 270.653 244.37 270.402C244.205 270.142 244.118 269.804 244.11 269.388V262.94L245.15 262.654ZM247.516 264.5V265.397H242.81V264.5H247.516ZM251.753 264.37C252.368 264.37 252.91 264.504 253.378 264.773C253.854 265.042 254.227 265.432 254.496 265.943C254.764 266.446 254.899 267.048 254.899 267.75C254.899 268.452 254.764 269.059 254.496 269.57C254.227 270.073 253.854 270.458 253.378 270.727C252.91 270.996 252.368 271.13 251.753 271.13C251.146 271.13 250.604 270.996 250.128 270.727C249.651 270.458 249.278 270.073 249.01 269.57C248.741 269.059 248.607 268.452 248.607 267.75C248.607 267.048 248.741 266.446 249.01 265.943C249.278 265.432 249.651 265.042 250.128 264.773C250.604 264.504 251.146 264.37 251.753 264.37ZM251.753 265.267C251.311 265.267 250.934 265.367 250.622 265.566C250.31 265.765 250.067 266.051 249.894 266.424C249.729 266.788 249.647 267.23 249.647 267.75C249.647 268.261 249.729 268.703 249.894 269.076C250.067 269.449 250.31 269.735 250.622 269.934C250.934 270.133 251.311 270.233 251.753 270.233C252.195 270.233 252.572 270.133 252.884 269.934C253.196 269.735 253.434 269.449 253.599 269.076C253.772 268.703 253.859 268.261 253.859 267.75C253.859 267.23 253.772 266.788 253.599 266.424C253.434 266.051 253.196 265.765 252.884 265.566C252.572 265.367 252.195 265.267 251.753 265.267Z" fill="white"/>
<path d="M106.643 293V283.51H107.683V287.475C107.908 287.085 108.207 286.803 108.58 286.63C108.953 286.457 109.36 286.37 109.802 286.37C110.27 286.37 110.695 286.461 111.076 286.643C111.457 286.816 111.761 287.085 111.986 287.449C112.22 287.813 112.337 288.277 112.337 288.84V293H111.297V289.204C111.297 288.485 111.141 287.986 110.829 287.709C110.526 287.423 110.149 287.28 109.698 287.28C109.386 287.28 109.074 287.354 108.762 287.501C108.45 287.648 108.19 287.891 107.982 288.229C107.783 288.558 107.683 289 107.683 289.555V293H106.643ZM117.409 293.13C116.794 293.13 116.243 292.996 115.758 292.727C115.281 292.458 114.909 292.073 114.64 291.57C114.371 291.059 114.237 290.452 114.237 289.75C114.237 289.048 114.371 288.446 114.64 287.943C114.909 287.432 115.277 287.042 115.745 286.773C116.213 286.504 116.746 286.37 117.344 286.37C117.951 286.37 118.466 286.5 118.891 286.76C119.324 287.02 119.654 287.375 119.879 287.826C120.104 288.268 120.217 288.766 120.217 289.321C120.217 289.468 120.213 289.603 120.204 289.724C120.195 289.845 120.182 289.954 120.165 290.049H114.913V289.126H119.71L119.177 289.23C119.177 288.606 119.004 288.125 118.657 287.787C118.319 287.449 117.873 287.28 117.318 287.28C116.893 287.28 116.525 287.38 116.213 287.579C115.91 287.77 115.671 288.051 115.498 288.424C115.333 288.788 115.251 289.23 115.251 289.75C115.251 290.261 115.338 290.703 115.511 291.076C115.684 291.449 115.927 291.735 116.239 291.934C116.56 292.125 116.941 292.22 117.383 292.22C117.86 292.22 118.245 292.129 118.54 291.947C118.843 291.765 119.086 291.518 119.268 291.206L120.087 291.687C119.922 291.982 119.71 292.237 119.45 292.454C119.199 292.671 118.9 292.84 118.553 292.961C118.215 293.074 117.834 293.13 117.409 293.13ZM124.73 293.13C124.193 293.13 123.699 292.996 123.248 292.727C122.797 292.458 122.438 292.073 122.169 291.57C121.9 291.059 121.766 290.452 121.766 289.75C121.766 289.031 121.909 288.42 122.195 287.917C122.481 287.414 122.858 287.033 123.326 286.773C123.794 286.504 124.297 286.37 124.834 286.37C125.371 286.37 125.835 286.509 126.225 286.786C126.624 287.063 126.888 287.432 127.018 287.891L126.888 287.982V283.51H127.928V293H127.018L126.927 291.427L127.07 291.349C127.009 291.73 126.862 292.055 126.628 292.324C126.403 292.584 126.121 292.783 125.783 292.922C125.454 293.061 125.103 293.13 124.73 293.13ZM124.834 292.22C125.25 292.22 125.61 292.116 125.913 291.908C126.225 291.7 126.463 291.405 126.628 291.024C126.801 290.634 126.888 290.179 126.888 289.659C126.888 289.165 126.801 288.74 126.628 288.385C126.463 288.03 126.229 287.757 125.926 287.566C125.631 287.375 125.285 287.28 124.886 287.28C124.227 287.28 123.716 287.505 123.352 287.956C122.988 288.407 122.806 289.005 122.806 289.75C122.806 290.495 122.984 291.093 123.339 291.544C123.694 291.995 124.193 292.22 124.834 292.22ZM135.818 285.304L136.052 286.227C136.044 286.227 136.031 286.227 136.013 286.227C135.996 286.227 135.979 286.227 135.961 286.227C135.537 286.227 135.207 286.314 134.973 286.487C134.748 286.652 134.635 286.92 134.635 287.293L133.998 286.968C133.998 286.63 134.076 286.335 134.232 286.084C134.388 285.833 134.601 285.642 134.869 285.512C135.138 285.373 135.433 285.304 135.753 285.304C135.762 285.304 135.771 285.304 135.779 285.304C135.797 285.304 135.81 285.304 135.818 285.304ZM133.842 292.168C134.458 292.168 134.939 292.311 135.285 292.597C135.632 292.874 135.805 293.247 135.805 293.715C135.805 294.14 135.662 294.508 135.376 294.82C135.099 295.132 134.722 295.37 134.245 295.535C133.777 295.708 133.249 295.795 132.659 295.795C131.637 295.795 130.87 295.622 130.358 295.275C129.856 294.928 129.604 294.512 129.604 294.027C129.604 293.68 129.717 293.368 129.942 293.091C130.176 292.822 130.566 292.671 131.112 292.636L131.021 292.831C130.727 292.753 130.475 292.623 130.267 292.441C130.068 292.25 129.968 291.977 129.968 291.622C129.968 291.267 130.098 290.963 130.358 290.712C130.627 290.452 131.021 290.292 131.541 290.231L132.23 290.582H132.1C131.676 290.625 131.372 290.734 131.19 290.907C131.017 291.072 130.93 291.254 130.93 291.453C130.93 291.696 131.017 291.878 131.19 291.999C131.372 292.112 131.624 292.168 131.944 292.168H133.842ZM132.646 294.924C133.149 294.924 133.561 294.872 133.881 294.768C134.211 294.664 134.453 294.53 134.609 294.365C134.765 294.2 134.843 294.023 134.843 293.832C134.843 293.598 134.748 293.412 134.557 293.273C134.375 293.134 134.042 293.065 133.556 293.065H131.554C131.277 293.065 131.043 293.134 130.852 293.273C130.662 293.42 130.566 293.62 130.566 293.871C130.566 294.192 130.748 294.447 131.112 294.638C131.485 294.829 131.996 294.924 132.646 294.924ZM132.555 286.37C133.075 286.37 133.535 286.465 133.933 286.656C134.341 286.838 134.657 287.094 134.882 287.423C135.108 287.752 135.22 288.134 135.22 288.567C135.22 288.992 135.108 289.373 134.882 289.711C134.657 290.04 134.341 290.3 133.933 290.491C133.535 290.673 133.075 290.764 132.555 290.764C131.697 290.764 131.039 290.56 130.579 290.153C130.12 289.737 129.89 289.208 129.89 288.567C129.89 288.134 130.003 287.752 130.228 287.423C130.462 287.094 130.779 286.838 131.177 286.656C131.576 286.465 132.035 286.37 132.555 286.37ZM132.555 287.215C132.105 287.215 131.728 287.341 131.424 287.592C131.121 287.835 130.969 288.16 130.969 288.567C130.969 288.966 131.121 289.291 131.424 289.542C131.728 289.793 132.105 289.919 132.555 289.919C133.006 289.919 133.383 289.793 133.686 289.542C133.99 289.291 134.141 288.966 134.141 288.567C134.141 288.16 133.99 287.835 133.686 287.592C133.383 287.341 133.006 287.215 132.555 287.215ZM139.981 293.13C139.366 293.13 138.816 292.996 138.33 292.727C137.854 292.458 137.481 292.073 137.212 291.57C136.944 291.059 136.809 290.452 136.809 289.75C136.809 289.048 136.944 288.446 137.212 287.943C137.481 287.432 137.849 287.042 138.317 286.773C138.785 286.504 139.318 286.37 139.916 286.37C140.523 286.37 141.039 286.5 141.463 286.76C141.897 287.02 142.226 287.375 142.451 287.826C142.677 288.268 142.789 288.766 142.789 289.321C142.789 289.468 142.785 289.603 142.776 289.724C142.768 289.845 142.755 289.954 142.737 290.049H137.485V289.126H142.282L141.749 289.23C141.749 288.606 141.576 288.125 141.229 287.787C140.891 287.449 140.445 287.28 139.89 287.28C139.466 287.28 139.097 287.38 138.785 287.579C138.482 287.77 138.244 288.051 138.07 288.424C137.906 288.788 137.823 289.23 137.823 289.75C137.823 290.261 137.91 290.703 138.083 291.076C138.257 291.449 138.499 291.735 138.811 291.934C139.132 292.125 139.513 292.22 139.955 292.22C140.432 292.22 140.818 292.129 141.112 291.947C141.416 291.765 141.658 291.518 141.84 291.206L142.659 291.687C142.495 291.982 142.282 292.237 142.022 292.454C141.771 292.671 141.472 292.84 141.125 292.961C140.787 293.074 140.406 293.13 139.981 293.13ZM151.596 283.445C151.821 283.445 152.033 283.471 152.233 283.523C152.432 283.575 152.588 283.649 152.701 283.744L152.428 284.589C152.324 284.52 152.211 284.472 152.09 284.446C151.968 284.411 151.834 284.394 151.687 284.394C151.314 284.394 151.024 284.485 150.816 284.667C150.608 284.84 150.504 285.122 150.504 285.512V286.5V286.838V293H149.464V285.408C149.464 285.122 149.507 284.858 149.594 284.615C149.68 284.372 149.81 284.164 149.984 283.991C150.166 283.818 150.391 283.683 150.66 283.588C150.928 283.493 151.24 283.445 151.596 283.445ZM152.675 286.5V287.397H148.164V286.5H152.675ZM156.413 293.13C155.997 293.13 155.603 293.052 155.23 292.896C154.866 292.74 154.567 292.489 154.333 292.142C154.108 291.787 153.995 291.327 153.995 290.764V286.5H155.035V290.491C155.035 291.15 155.178 291.605 155.464 291.856C155.75 292.099 156.153 292.22 156.673 292.22C156.916 292.22 157.154 292.181 157.388 292.103C157.622 292.016 157.83 291.886 158.012 291.713C158.203 291.531 158.35 291.301 158.454 291.024C158.567 290.747 158.623 290.417 158.623 290.036V286.5H159.663V293H158.753L158.688 292.012C158.463 292.402 158.155 292.688 157.765 292.87C157.384 293.043 156.933 293.13 156.413 293.13ZM162.084 293V286.5H162.994L163.085 287.956L162.916 287.813C163.054 287.466 163.241 287.189 163.475 286.981C163.709 286.764 163.977 286.608 164.281 286.513C164.593 286.418 164.913 286.37 165.243 286.37C165.711 286.37 166.135 286.461 166.517 286.643C166.898 286.816 167.201 287.085 167.427 287.449C167.661 287.813 167.778 288.277 167.778 288.84V293H166.738V289.204C166.738 288.485 166.582 287.986 166.27 287.709C165.966 287.423 165.589 287.28 165.139 287.28C164.827 287.28 164.515 287.354 164.203 287.501C163.891 287.648 163.631 287.887 163.423 288.216C163.223 288.545 163.124 288.987 163.124 289.542V293H162.084ZM172.667 293.13C172.13 293.13 171.636 292.996 171.185 292.727C170.735 292.458 170.375 292.073 170.106 291.57C169.838 291.059 169.703 290.452 169.703 289.75C169.703 289.031 169.846 288.42 170.132 287.917C170.418 287.414 170.795 287.033 171.263 286.773C171.731 286.504 172.234 286.37 172.771 286.37C173.309 286.37 173.772 286.509 174.162 286.786C174.561 287.063 174.825 287.432 174.955 287.891L174.825 287.982V283.51H175.865V293H174.955L174.864 291.427L175.007 291.349C174.947 291.73 174.799 292.055 174.565 292.324C174.34 292.584 174.058 292.783 173.72 292.922C173.391 293.061 173.04 293.13 172.667 293.13ZM172.771 292.22C173.187 292.22 173.547 292.116 173.85 291.908C174.162 291.7 174.401 291.405 174.565 291.024C174.739 290.634 174.825 290.179 174.825 289.659C174.825 289.165 174.739 288.74 174.565 288.385C174.401 288.03 174.167 287.757 173.863 287.566C173.569 287.375 173.222 287.28 172.823 287.28C172.165 287.28 171.653 287.505 171.289 287.956C170.925 288.407 170.743 289.005 170.743 289.75C170.743 290.495 170.921 291.093 171.276 291.544C171.632 291.995 172.13 292.22 172.771 292.22ZM180.623 293.13C179.99 293.13 179.405 292.996 178.868 292.727C178.339 292.458 177.932 292.077 177.646 291.583L178.53 290.946C178.72 291.345 178.998 291.657 179.362 291.882C179.734 292.107 180.181 292.22 180.701 292.22C181.16 292.22 181.52 292.133 181.78 291.96C182.04 291.778 182.17 291.544 182.17 291.258C182.17 291.076 182.109 290.911 181.988 290.764C181.875 290.608 181.654 290.495 181.325 290.426L179.765 290.101C179.132 289.971 178.677 289.754 178.4 289.451C178.131 289.148 177.997 288.771 177.997 288.32C177.997 287.965 178.096 287.64 178.296 287.345C178.504 287.05 178.794 286.816 179.167 286.643C179.548 286.461 179.994 286.37 180.506 286.37C181.147 286.37 181.689 286.496 182.131 286.747C182.573 286.998 182.902 287.354 183.119 287.813L182.248 288.385C182.1 288.004 181.862 287.726 181.533 287.553C181.203 287.371 180.861 287.28 180.506 287.28C180.194 287.28 179.925 287.323 179.7 287.41C179.483 287.497 179.314 287.618 179.193 287.774C179.08 287.921 179.024 288.09 179.024 288.281C179.024 288.472 179.089 288.649 179.219 288.814C179.349 288.97 179.591 289.083 179.947 289.152L181.572 289.49C182.178 289.611 182.603 289.811 182.846 290.088C183.088 290.365 183.21 290.703 183.21 291.102C183.21 291.509 183.101 291.869 182.885 292.181C182.668 292.484 182.365 292.718 181.975 292.883C181.585 293.048 181.134 293.13 180.623 293.13ZM185.658 291.44C185.91 291.44 186.113 291.518 186.269 291.674C186.425 291.83 186.503 292.034 186.503 292.285C186.503 292.536 186.425 292.74 186.269 292.896C186.113 293.052 185.91 293.13 185.658 293.13C185.407 293.13 185.203 293.052 185.047 292.896C184.891 292.74 184.813 292.536 184.813 292.285C184.813 292.034 184.891 291.83 185.047 291.674C185.203 291.518 185.407 291.44 185.658 291.44Z" fill="white"/>
</svg>
