<svg width="293" height="318" viewBox="0 0 293 318" fill="none" xmlns="http://www.w3.org/2000/svg">
<rect x="96.25" y="38" width="100" height="100" rx="50" fill="black" fill-opacity="0.6"/>
<path d="M165.161 98C165.786 98 166.411 98.625 166.411 99.25V101.75C166.411 102.453 165.786 103 165.161 103H128.911C127.505 103 126.411 101.906 126.411 100.5V74.25C126.411 73.625 126.958 73 127.661 73H130.161C130.786 73 131.411 73.625 131.411 74.25V98H165.161ZM162.661 75.5C163.286 75.5 163.911 76.125 163.833 76.75V86.0469C163.833 87.6875 161.88 88.5469 160.708 87.375L158.13 84.7969L150.63 92.2969C149.692 93.3125 148.052 93.3125 147.114 92.2969L141.411 86.5938L137.739 90.1875C137.27 90.6562 136.489 90.6562 136.02 90.1875L134.223 88.3906C133.755 87.9219 133.755 87.1406 134.223 86.6719L139.614 81.2812C140.552 80.2656 142.192 80.2656 143.13 81.2812L148.911 86.9844L154.614 81.2812L152.036 78.7031C150.864 77.5312 151.723 75.5 153.364 75.5H162.661Z" fill="white"/>
<path d="M117.127 177.24C116.007 177.24 114.934 177.093 113.907 176.8C112.881 176.493 112.054 176.1 111.427 175.62L112.527 173.18C113.127 173.607 113.834 173.96 114.647 174.24C115.474 174.507 116.307 174.64 117.147 174.64C117.787 174.64 118.301 174.58 118.687 174.46C119.087 174.327 119.381 174.147 119.567 173.92C119.754 173.693 119.847 173.433 119.847 173.14C119.847 172.767 119.701 172.473 119.407 172.26C119.114 172.033 118.727 171.853 118.247 171.72C117.767 171.573 117.234 171.44 116.647 171.32C116.074 171.187 115.494 171.027 114.907 170.84C114.334 170.653 113.807 170.413 113.327 170.12C112.847 169.827 112.454 169.44 112.147 168.96C111.854 168.48 111.707 167.867 111.707 167.12C111.707 166.32 111.921 165.593 112.347 164.94C112.787 164.273 113.441 163.747 114.307 163.36C115.187 162.96 116.287 162.76 117.607 162.76C118.487 162.76 119.354 162.867 120.207 163.08C121.061 163.28 121.814 163.587 122.467 164L121.467 166.46C120.814 166.087 120.161 165.813 119.507 165.64C118.854 165.453 118.214 165.36 117.587 165.36C116.961 165.36 116.447 165.433 116.047 165.58C115.647 165.727 115.361 165.92 115.187 166.16C115.014 166.387 114.927 166.653 114.927 166.96C114.927 167.32 115.074 167.613 115.367 167.84C115.661 168.053 116.047 168.227 116.527 168.36C117.007 168.493 117.534 168.627 118.107 168.76C118.694 168.893 119.274 169.047 119.847 169.22C120.434 169.393 120.967 169.627 121.447 169.92C121.927 170.213 122.314 170.6 122.607 171.08C122.914 171.56 123.067 172.167 123.067 172.9C123.067 173.687 122.847 174.407 122.407 175.06C121.967 175.713 121.307 176.24 120.427 176.64C119.561 177.04 118.461 177.24 117.127 177.24ZM127.986 177V165.64H123.506V163H135.706V165.64H131.226V177H127.986ZM144.054 177.24C142.947 177.24 141.921 177.06 140.974 176.7C140.041 176.34 139.227 175.833 138.534 175.18C137.854 174.527 137.321 173.76 136.934 172.88C136.561 172 136.374 171.04 136.374 170C136.374 168.96 136.561 168 136.934 167.12C137.321 166.24 137.861 165.473 138.554 164.82C139.247 164.167 140.061 163.66 140.994 163.3C141.927 162.94 142.941 162.76 144.034 162.76C145.141 162.76 146.154 162.94 147.074 163.3C148.007 163.66 148.814 164.167 149.494 164.82C150.187 165.473 150.727 166.24 151.114 167.12C151.501 167.987 151.694 168.947 151.694 170C151.694 171.04 151.501 172.007 151.114 172.9C150.727 173.78 150.187 174.547 149.494 175.2C148.814 175.84 148.007 176.34 147.074 176.7C146.154 177.06 145.147 177.24 144.054 177.24ZM144.034 174.48C144.661 174.48 145.234 174.373 145.754 174.16C146.287 173.947 146.754 173.64 147.154 173.24C147.554 172.84 147.861 172.367 148.074 171.82C148.301 171.273 148.414 170.667 148.414 170C148.414 169.333 148.301 168.727 148.074 168.18C147.861 167.633 147.554 167.16 147.154 166.76C146.767 166.36 146.307 166.053 145.774 165.84C145.241 165.627 144.661 165.52 144.034 165.52C143.407 165.52 142.827 165.627 142.294 165.84C141.774 166.053 141.314 166.36 140.914 166.76C140.514 167.16 140.201 167.633 139.974 168.18C139.761 168.727 139.654 169.333 139.654 170C139.654 170.653 139.761 171.26 139.974 171.82C140.201 172.367 140.507 172.84 140.894 173.24C141.294 173.64 141.761 173.947 142.294 174.16C142.827 174.373 143.407 174.48 144.034 174.48ZM160.829 177.24C159.749 177.24 158.742 177.067 157.809 176.72C156.889 176.36 156.089 175.853 155.409 175.2C154.729 174.547 154.196 173.78 153.809 172.9C153.436 172.02 153.249 171.053 153.249 170C153.249 168.947 153.436 167.98 153.809 167.1C154.196 166.22 154.729 165.453 155.409 164.8C156.102 164.147 156.909 163.647 157.829 163.3C158.749 162.94 159.756 162.76 160.849 162.76C162.062 162.76 163.156 162.973 164.129 163.4C165.116 163.813 165.942 164.427 166.609 165.24L164.529 167.16C164.049 166.613 163.516 166.207 162.929 165.94C162.342 165.66 161.702 165.52 161.009 165.52C160.356 165.52 159.756 165.627 159.209 165.84C158.662 166.053 158.189 166.36 157.789 166.76C157.389 167.16 157.076 167.633 156.849 168.18C156.636 168.727 156.529 169.333 156.529 170C156.529 170.667 156.636 171.273 156.849 171.82C157.076 172.367 157.389 172.84 157.789 173.24C158.189 173.64 158.662 173.947 159.209 174.16C159.756 174.373 160.356 174.48 161.009 174.48C161.702 174.48 162.342 174.347 162.929 174.08C163.516 173.8 164.049 173.38 164.529 172.82L166.609 174.74C165.942 175.553 165.116 176.173 164.129 176.6C163.156 177.027 162.056 177.24 160.829 177.24ZM171.697 173.8L171.517 170.06L178.217 163H181.817L175.777 169.5L173.977 171.42L171.697 173.8ZM168.797 177V163H172.017V177H168.797ZM178.377 177L173.397 170.9L175.517 168.6L182.157 177H178.377Z" fill="white"/>
<path d="M81.9842 211V197H88.0442C89.2975 197 90.3775 197.207 91.2842 197.62C92.1908 198.02 92.8908 198.6 93.3842 199.36C93.8775 200.12 94.1242 201.027 94.1242 202.08C94.1242 203.12 93.8775 204.02 93.3842 204.78C92.8908 205.54 92.1908 206.127 91.2842 206.54C90.3775 206.94 89.2975 207.14 88.0442 207.14H83.7842L85.2242 205.68V211H81.9842ZM85.2242 206.04L83.7842 204.5H87.8642C88.8642 204.5 89.6108 204.287 90.1042 203.86C90.5975 203.433 90.8442 202.84 90.8442 202.08C90.8442 201.307 90.5975 200.707 90.1042 200.28C89.6108 199.853 88.8642 199.64 87.8642 199.64H83.7842L85.2242 198.1V206.04ZM96.4373 211V197H102.497C103.751 197 104.831 197.207 105.737 197.62C106.644 198.02 107.344 198.6 107.837 199.36C108.331 200.12 108.577 201.027 108.577 202.08C108.577 203.12 108.331 204.02 107.837 204.78C107.344 205.527 106.644 206.1 105.737 206.5C104.831 206.9 103.751 207.1 102.497 207.1H98.2373L99.6773 205.68V211H96.4373ZM105.337 211L101.837 205.92H105.297L108.837 211H105.337ZM99.6773 206.04L98.2373 204.52H102.317C103.317 204.52 104.064 204.307 104.557 203.88C105.051 203.44 105.297 202.84 105.297 202.08C105.297 201.307 105.051 200.707 104.557 200.28C104.064 199.853 103.317 199.64 102.317 199.64H98.2373L99.6773 198.1V206.04ZM114.124 202.64H120.864V205.16H114.124V202.64ZM114.364 208.4H121.984V211H111.144V197H121.724V199.6H114.364V208.4ZM124.562 211V197H130.922C132.442 197 133.782 197.293 134.942 197.88C136.102 198.453 137.009 199.26 137.662 200.3C138.316 201.34 138.642 202.573 138.642 204C138.642 205.413 138.316 206.647 137.662 207.7C137.009 208.74 136.102 209.553 134.942 210.14C133.782 210.713 132.442 211 130.922 211H124.562ZM127.802 208.34H130.762C131.696 208.34 132.502 208.167 133.182 207.82C133.876 207.46 134.409 206.953 134.782 206.3C135.169 205.647 135.362 204.88 135.362 204C135.362 203.107 135.169 202.34 134.782 201.7C134.409 201.047 133.876 200.547 133.182 200.2C132.502 199.84 131.696 199.66 130.762 199.66H127.802V208.34ZM141.086 211V197H144.326V211H141.086ZM154.348 211.24C153.268 211.24 152.262 211.067 151.328 210.72C150.408 210.36 149.608 209.853 148.928 209.2C148.248 208.547 147.715 207.78 147.328 206.9C146.955 206.02 146.768 205.053 146.768 204C146.768 202.947 146.955 201.98 147.328 201.1C147.715 200.22 148.248 199.453 148.928 198.8C149.622 198.147 150.428 197.647 151.348 197.3C152.268 196.94 153.275 196.76 154.368 196.76C155.582 196.76 156.675 196.973 157.648 197.4C158.635 197.813 159.462 198.427 160.128 199.24L158.048 201.16C157.568 200.613 157.035 200.207 156.448 199.94C155.862 199.66 155.222 199.52 154.528 199.52C153.875 199.52 153.275 199.627 152.728 199.84C152.182 200.053 151.708 200.36 151.308 200.76C150.908 201.16 150.595 201.633 150.368 202.18C150.155 202.727 150.048 203.333 150.048 204C150.048 204.667 150.155 205.273 150.368 205.82C150.595 206.367 150.908 206.84 151.308 207.24C151.708 207.64 152.182 207.947 152.728 208.16C153.275 208.373 153.875 208.48 154.528 208.48C155.222 208.48 155.862 208.347 156.448 208.08C157.035 207.8 157.568 207.38 158.048 206.82L160.128 208.74C159.462 209.553 158.635 210.173 157.648 210.6C156.675 211.027 155.575 211.24 154.348 211.24ZM165.079 211V199.64H160.599V197H172.799V199.64H168.319V211H165.079ZM174.543 211V197H177.783V211H174.543ZM187.905 211.24C186.799 211.24 185.772 211.06 184.825 210.7C183.892 210.34 183.079 209.833 182.385 209.18C181.705 208.527 181.172 207.76 180.785 206.88C180.412 206 180.225 205.04 180.225 204C180.225 202.96 180.412 202 180.785 201.12C181.172 200.24 181.712 199.473 182.405 198.82C183.099 198.167 183.912 197.66 184.845 197.3C185.779 196.94 186.792 196.76 187.885 196.76C188.992 196.76 190.005 196.94 190.925 197.3C191.859 197.66 192.665 198.167 193.345 198.82C194.039 199.473 194.579 200.24 194.965 201.12C195.352 201.987 195.545 202.947 195.545 204C195.545 205.04 195.352 206.007 194.965 206.9C194.579 207.78 194.039 208.547 193.345 209.2C192.665 209.84 191.859 210.34 190.925 210.7C190.005 211.06 188.999 211.24 187.905 211.24ZM187.885 208.48C188.512 208.48 189.085 208.373 189.605 208.16C190.139 207.947 190.605 207.64 191.005 207.24C191.405 206.84 191.712 206.367 191.925 205.82C192.152 205.273 192.265 204.667 192.265 204C192.265 203.333 192.152 202.727 191.925 202.18C191.712 201.633 191.405 201.16 191.005 200.76C190.619 200.36 190.159 200.053 189.625 199.84C189.092 199.627 188.512 199.52 187.885 199.52C187.259 199.52 186.679 199.627 186.145 199.84C185.625 200.053 185.165 200.36 184.765 200.76C184.365 201.16 184.052 201.633 183.825 202.18C183.612 202.727 183.505 203.333 183.505 204C183.505 204.653 183.612 205.26 183.825 205.82C184.052 206.367 184.359 206.84 184.745 207.24C185.145 207.64 185.612 207.947 186.145 208.16C186.679 208.373 187.259 208.48 187.885 208.48ZM197.98 211V197H200.66L208.92 207.08H207.62V197H210.82V211H208.16L199.88 200.92H201.18V211H197.98Z" fill="white"/>
<path d="M28.8879 240.42V241.395H25.8979V249H24.8579V241.395H21.8679V240.42H28.8879ZM30.2527 249V239.51H31.2927V243.475C31.518 243.085 31.817 242.803 32.1897 242.63C32.5624 242.457 32.9697 242.37 33.4117 242.37C33.8797 242.37 34.3044 242.461 34.6857 242.643C35.067 242.816 35.3704 243.085 35.5957 243.449C35.8297 243.813 35.9467 244.277 35.9467 244.84V249H34.9067V245.204C34.9067 244.485 34.7507 243.986 34.4387 243.709C34.1354 243.423 33.7584 243.28 33.3077 243.28C32.9957 243.28 32.6837 243.354 32.3717 243.501C32.0597 243.648 31.7997 243.891 31.5917 244.229C31.3924 244.558 31.2927 245 31.2927 245.555V249H30.2527ZM41.0185 249.13C40.4032 249.13 39.8529 248.996 39.3675 248.727C38.8909 248.458 38.5182 248.073 38.2495 247.57C37.9809 247.059 37.8465 246.452 37.8465 245.75C37.8465 245.048 37.9809 244.446 38.2495 243.943C38.5182 243.432 38.8865 243.042 39.3545 242.773C39.8225 242.504 40.3555 242.37 40.9535 242.37C41.5602 242.37 42.0759 242.5 42.5005 242.76C42.9339 243.02 43.2632 243.375 43.4885 243.826C43.7139 244.268 43.8265 244.766 43.8265 245.321C43.8265 245.468 43.8222 245.603 43.8135 245.724C43.8049 245.845 43.7919 245.954 43.7745 246.049H38.5225V245.126H43.3195L42.7865 245.23C42.7865 244.606 42.6132 244.125 42.2665 243.787C41.9285 243.449 41.4822 243.28 40.9275 243.28C40.5029 243.28 40.1345 243.38 39.8225 243.579C39.5192 243.77 39.2809 244.051 39.1075 244.424C38.9429 244.788 38.8605 245.23 38.8605 245.75C38.8605 246.261 38.9472 246.703 39.1205 247.076C39.2939 247.449 39.5365 247.735 39.8485 247.934C40.1692 248.125 40.5505 248.22 40.9925 248.22C41.4692 248.22 41.8549 248.129 42.1495 247.947C42.4529 247.765 42.6955 247.518 42.8775 247.206L43.6965 247.687C43.5319 247.982 43.3195 248.237 43.0595 248.454C42.8082 248.671 42.5092 248.84 42.1625 248.961C41.8245 249.074 41.4432 249.13 41.0185 249.13ZM52.9261 242.37C53.3768 242.37 53.7711 242.439 54.1091 242.578C54.4558 242.717 54.7548 242.916 55.0061 243.176C55.2575 243.436 55.4611 243.744 55.6171 244.099L54.6291 244.567C54.4905 244.151 54.2781 243.835 53.9921 243.618C53.7148 243.393 53.3508 243.28 52.9001 243.28C52.4668 243.28 52.0941 243.38 51.7821 243.579C51.4701 243.77 51.2318 244.051 51.0671 244.424C50.9025 244.788 50.8201 245.23 50.8201 245.75C50.8201 246.261 50.9025 246.703 51.0671 247.076C51.2318 247.449 51.4701 247.735 51.7821 247.934C52.0941 248.125 52.4668 248.22 52.9001 248.22C53.2381 248.22 53.5285 248.168 53.7711 248.064C54.0225 247.96 54.2261 247.808 54.3821 247.609C54.5468 247.41 54.6595 247.167 54.7201 246.881L55.6821 247.219C55.5348 247.618 55.3311 247.96 55.0711 248.246C54.8198 248.532 54.5121 248.753 54.1481 248.909C53.7928 249.056 53.3855 249.13 52.9261 249.13C52.3195 249.13 51.7778 248.996 51.3011 248.727C50.8245 248.458 50.4518 248.073 50.1831 247.57C49.9145 247.059 49.7801 246.452 49.7801 245.75C49.7801 245.048 49.9145 244.446 50.1831 243.943C50.4518 243.432 50.8245 243.042 51.3011 242.773C51.7778 242.504 52.3195 242.37 52.9261 242.37ZM57.5095 249V242.5H58.3545L58.4975 243.566C58.6795 243.167 58.9439 242.868 59.2905 242.669C59.6459 242.47 60.0749 242.37 60.5775 242.37C60.6902 242.37 60.8115 242.379 60.9415 242.396C61.0802 242.413 61.1972 242.448 61.2925 242.5L61.1105 243.449C61.0152 243.414 60.9112 243.388 60.7985 243.371C60.6859 243.354 60.5255 243.345 60.3175 243.345C60.0489 243.345 59.7759 243.423 59.4985 243.579C59.2299 243.735 59.0045 243.973 58.8225 244.294C58.6405 244.606 58.5495 245.005 58.5495 245.49V249H57.5095ZM65.3301 249.13C64.7147 249.13 64.1644 248.996 63.6791 248.727C63.2024 248.458 62.8297 248.073 62.5611 247.57C62.2924 247.059 62.1581 246.452 62.1581 245.75C62.1581 245.048 62.2924 244.446 62.5611 243.943C62.8297 243.432 63.1981 243.042 63.6661 242.773C64.1341 242.504 64.6671 242.37 65.2651 242.37C65.8717 242.37 66.3874 242.5 66.8121 242.76C67.2454 243.02 67.5747 243.375 67.8001 243.826C68.0254 244.268 68.1381 244.766 68.1381 245.321C68.1381 245.468 68.1337 245.603 68.1251 245.724C68.1164 245.845 68.1034 245.954 68.0861 246.049H62.8341V245.126H67.6311L67.0981 245.23C67.0981 244.606 66.9247 244.125 66.5781 243.787C66.2401 243.449 65.7937 243.28 65.2391 243.28C64.8144 243.28 64.4461 243.38 64.1341 243.579C63.8307 243.77 63.5924 244.051 63.4191 244.424C63.2544 244.788 63.1721 245.23 63.1721 245.75C63.1721 246.261 63.2587 246.703 63.4321 247.076C63.6054 247.449 63.8481 247.735 64.1601 247.934C64.4807 248.125 64.8621 248.22 65.3041 248.22C65.7807 248.22 66.1664 248.129 66.4611 247.947C66.7644 247.765 67.0071 247.518 67.1891 247.206L68.0081 247.687C67.8434 247.982 67.6311 248.237 67.3711 248.454C67.1197 248.671 66.8207 248.84 66.4741 248.961C66.1361 249.074 65.7547 249.13 65.3301 249.13ZM73.912 244.801C73.912 244.316 73.782 243.943 73.522 243.683C73.262 243.414 72.8936 243.28 72.417 243.28C71.9663 243.28 71.585 243.38 71.273 243.579C70.961 243.77 70.7313 244.082 70.584 244.515L69.739 243.995C69.9123 243.51 70.233 243.12 70.701 242.825C71.169 242.522 71.7496 242.37 72.443 242.37C72.911 242.37 73.3356 242.452 73.717 242.617C74.0983 242.773 74.3973 243.016 74.614 243.345C74.8393 243.666 74.952 244.082 74.952 244.593V247.739C74.952 248.051 75.1166 248.207 75.446 248.207C75.6106 248.207 75.771 248.185 75.927 248.142L75.875 248.961C75.7016 249.048 75.4763 249.091 75.199 249.091C74.9476 249.091 74.7223 249.043 74.523 248.948C74.3236 248.853 74.1676 248.71 74.055 248.519C73.9423 248.32 73.886 248.073 73.886 247.778V247.648L74.146 247.687C74.042 248.025 73.8643 248.302 73.613 248.519C73.3616 248.727 73.08 248.883 72.768 248.987C72.456 249.082 72.1483 249.13 71.845 249.13C71.4636 249.13 71.1083 249.065 70.779 248.935C70.4496 248.805 70.1853 248.61 69.986 248.35C69.7953 248.081 69.7 247.752 69.7 247.362C69.7 246.877 69.8603 246.478 70.181 246.166C70.5103 245.845 70.9653 245.629 71.546 245.516L74.12 245.009V245.867L72.027 246.296C71.6023 246.383 71.286 246.504 71.078 246.66C70.87 246.816 70.766 247.033 70.766 247.31C70.766 247.579 70.87 247.8 71.078 247.973C71.2946 248.138 71.598 248.22 71.988 248.22C72.2393 248.22 72.4776 248.19 72.703 248.129C72.937 248.06 73.145 247.96 73.327 247.83C73.509 247.691 73.652 247.522 73.756 247.323C73.86 247.115 73.912 246.872 73.912 246.595V244.801ZM78.7594 240.654V247.206C78.7594 247.527 78.8504 247.765 79.0324 247.921C79.2144 248.077 79.4484 248.155 79.7344 248.155C79.9857 248.155 80.2024 248.112 80.3844 248.025C80.5664 247.938 80.731 247.821 80.8784 247.674L81.2424 248.545C81.043 248.727 80.8047 248.87 80.5274 248.974C80.2587 249.078 79.9467 249.13 79.5914 249.13C79.262 249.13 78.9544 249.074 78.6684 248.961C78.3824 248.84 78.1527 248.653 77.9794 248.402C77.8147 248.142 77.728 247.804 77.7194 247.388V240.94L78.7594 240.654ZM81.1254 242.5V243.397H76.4194V242.5H81.1254ZM83.1916 241.252C82.9576 241.252 82.767 241.183 82.6196 241.044C82.481 240.897 82.4116 240.706 82.4116 240.472C82.4116 240.238 82.481 240.052 82.6196 239.913C82.767 239.766 82.9576 239.692 83.1916 239.692C83.4256 239.692 83.612 239.766 83.7506 239.913C83.898 240.052 83.9716 240.238 83.9716 240.472C83.9716 240.706 83.898 240.897 83.7506 241.044C83.612 241.183 83.4256 241.252 83.1916 241.252ZM83.7116 242.5V249H82.6716V242.5H83.7116ZM88.8158 242.37C89.4311 242.37 89.9728 242.504 90.4408 242.773C90.9174 243.042 91.2901 243.432 91.5588 243.943C91.8274 244.446 91.9618 245.048 91.9618 245.75C91.9618 246.452 91.8274 247.059 91.5588 247.57C91.2901 248.073 90.9174 248.458 90.4408 248.727C89.9728 248.996 89.4311 249.13 88.8158 249.13C88.2091 249.13 87.6674 248.996 87.1908 248.727C86.7141 248.458 86.3414 248.073 86.0728 247.57C85.8041 247.059 85.6698 246.452 85.6698 245.75C85.6698 245.048 85.8041 244.446 86.0728 243.943C86.3414 243.432 86.7141 243.042 87.1908 242.773C87.6674 242.504 88.2091 242.37 88.8158 242.37ZM88.8158 243.267C88.3738 243.267 87.9968 243.367 87.6848 243.566C87.3728 243.765 87.1301 244.051 86.9568 244.424C86.7921 244.788 86.7098 245.23 86.7098 245.75C86.7098 246.261 86.7921 246.703 86.9568 247.076C87.1301 247.449 87.3728 247.735 87.6848 247.934C87.9968 248.133 88.3738 248.233 88.8158 248.233C89.2578 248.233 89.6348 248.133 89.9468 247.934C90.2588 247.735 90.4971 247.449 90.6618 247.076C90.8351 246.703 90.9218 246.261 90.9218 245.75C90.9218 245.23 90.8351 244.788 90.6618 244.424C90.4971 244.051 90.2588 243.765 89.9468 243.566C89.6348 243.367 89.2578 243.267 88.8158 243.267ZM93.9197 249V242.5H94.8297L94.9207 243.956L94.7517 243.813C94.8904 243.466 95.0767 243.189 95.3107 242.981C95.5447 242.764 95.8134 242.608 96.1167 242.513C96.4287 242.418 96.7494 242.37 97.0787 242.37C97.5467 242.37 97.9714 242.461 98.3527 242.643C98.734 242.816 99.0374 243.085 99.2627 243.449C99.4967 243.813 99.6137 244.277 99.6137 244.84V249H98.5737V245.204C98.5737 244.485 98.4177 243.986 98.1057 243.709C97.8024 243.423 97.4254 243.28 96.9747 243.28C96.6627 243.28 96.3507 243.354 96.0387 243.501C95.7267 243.648 95.4667 243.887 95.2587 244.216C95.0594 244.545 94.9597 244.987 94.9597 245.542V249H93.9197ZM109.09 242.37C109.706 242.37 110.247 242.504 110.715 242.773C111.192 243.042 111.565 243.432 111.833 243.943C112.102 244.446 112.236 245.048 112.236 245.75C112.236 246.452 112.102 247.059 111.833 247.57C111.565 248.073 111.192 248.458 110.715 248.727C110.247 248.996 109.706 249.13 109.09 249.13C108.484 249.13 107.942 248.996 107.465 248.727C106.989 248.458 106.616 248.073 106.347 247.57C106.079 247.059 105.944 246.452 105.944 245.75C105.944 245.048 106.079 244.446 106.347 243.943C106.616 243.432 106.989 243.042 107.465 242.773C107.942 242.504 108.484 242.37 109.09 242.37ZM109.09 243.267C108.648 243.267 108.271 243.367 107.959 243.566C107.647 243.765 107.405 244.051 107.231 244.424C107.067 244.788 106.984 245.23 106.984 245.75C106.984 246.261 107.067 246.703 107.231 247.076C107.405 247.449 107.647 247.735 107.959 247.934C108.271 248.133 108.648 248.233 109.09 248.233C109.532 248.233 109.909 248.133 110.221 247.934C110.533 247.735 110.772 247.449 110.936 247.076C111.11 246.703 111.196 246.261 111.196 245.75C111.196 245.23 111.11 244.788 110.936 244.424C110.772 244.051 110.533 243.765 110.221 243.566C109.909 243.367 109.532 243.267 109.09 243.267ZM116.719 239.445C116.944 239.445 117.157 239.471 117.356 239.523C117.555 239.575 117.711 239.649 117.824 239.744L117.551 240.589C117.447 240.52 117.334 240.472 117.213 240.446C117.092 240.411 116.957 240.394 116.81 240.394C116.437 240.394 116.147 240.485 115.939 240.667C115.731 240.84 115.627 241.122 115.627 241.512V242.5V242.838V249H114.587V241.408C114.587 241.122 114.63 240.858 114.717 240.615C114.804 240.372 114.934 240.164 115.107 239.991C115.289 239.818 115.514 239.683 115.783 239.588C116.052 239.493 116.364 239.445 116.719 239.445ZM117.798 242.5V243.397H113.287V242.5H117.798ZM125.785 242.37C126.235 242.37 126.63 242.439 126.968 242.578C127.314 242.717 127.613 242.916 127.865 243.176C128.116 243.436 128.32 243.744 128.476 244.099L127.488 244.567C127.349 244.151 127.137 243.835 126.851 243.618C126.573 243.393 126.209 243.28 125.759 243.28C125.325 243.28 124.953 243.38 124.641 243.579C124.329 243.77 124.09 244.051 123.926 244.424C123.761 244.788 123.679 245.23 123.679 245.75C123.679 246.261 123.761 246.703 123.926 247.076C124.09 247.449 124.329 247.735 124.641 247.934C124.953 248.125 125.325 248.22 125.759 248.22C126.097 248.22 126.387 248.168 126.63 248.064C126.881 247.96 127.085 247.808 127.241 247.609C127.405 247.41 127.518 247.167 127.579 246.881L128.541 247.219C128.393 247.618 128.19 247.96 127.93 248.246C127.678 248.532 127.371 248.753 127.007 248.909C126.651 249.056 126.244 249.13 125.785 249.13C125.178 249.13 124.636 248.996 124.16 248.727C123.683 248.458 123.31 248.073 123.042 247.57C122.773 247.059 122.639 246.452 122.639 245.75C122.639 245.048 122.773 244.446 123.042 243.943C123.31 243.432 123.683 243.042 124.16 242.773C124.636 242.504 125.178 242.37 125.785 242.37ZM133.059 242.37C133.674 242.37 134.216 242.504 134.684 242.773C135.161 243.042 135.533 243.432 135.802 243.943C136.071 244.446 136.205 245.048 136.205 245.75C136.205 246.452 136.071 247.059 135.802 247.57C135.533 248.073 135.161 248.458 134.684 248.727C134.216 248.996 133.674 249.13 133.059 249.13C132.452 249.13 131.911 248.996 131.434 248.727C130.957 248.458 130.585 248.073 130.316 247.57C130.047 247.059 129.913 246.452 129.913 245.75C129.913 245.048 130.047 244.446 130.316 243.943C130.585 243.432 130.957 243.042 131.434 242.773C131.911 242.504 132.452 242.37 133.059 242.37ZM133.059 243.267C132.617 243.267 132.24 243.367 131.928 243.566C131.616 243.765 131.373 244.051 131.2 244.424C131.035 244.788 130.953 245.23 130.953 245.75C130.953 246.261 131.035 246.703 131.2 247.076C131.373 247.449 131.616 247.735 131.928 247.934C132.24 248.133 132.617 248.233 133.059 248.233C133.501 248.233 133.878 248.133 134.19 247.934C134.502 247.735 134.74 247.449 134.905 247.076C135.078 246.703 135.165 246.261 135.165 245.75C135.165 245.23 135.078 244.788 134.905 244.424C134.74 244.051 134.502 243.765 134.19 243.566C133.878 243.367 133.501 243.267 133.059 243.267ZM138.163 249V242.5H139.073L139.138 243.514C139.372 243.115 139.675 242.825 140.048 242.643C140.429 242.461 140.819 242.37 141.218 242.37C141.677 242.37 142.111 242.474 142.518 242.682C142.925 242.89 143.237 243.211 143.454 243.644C143.593 243.349 143.788 243.111 144.039 242.929C144.29 242.738 144.563 242.6 144.858 242.513C145.161 242.418 145.447 242.37 145.716 242.37C146.132 242.37 146.526 242.457 146.899 242.63C147.28 242.803 147.592 243.072 147.835 243.436C148.078 243.8 148.199 244.268 148.199 244.84V249H147.159V244.944C147.159 244.355 147.012 243.93 146.717 243.67C146.422 243.41 146.058 243.28 145.625 243.28C145.287 243.28 144.971 243.362 144.676 243.527C144.381 243.692 144.143 243.934 143.961 244.255C143.788 244.576 143.701 244.97 143.701 245.438V249H142.661V244.944C142.661 244.355 142.514 243.93 142.219 243.67C141.924 243.41 141.56 243.28 141.127 243.28C140.841 243.28 140.546 243.358 140.243 243.514C139.948 243.661 139.701 243.9 139.502 244.229C139.303 244.558 139.203 244.992 139.203 245.529V249H138.163ZM150.553 251.73V242.5H151.463L151.554 244.086L151.411 243.904C151.524 243.601 151.693 243.336 151.918 243.111C152.144 242.877 152.417 242.695 152.737 242.565C153.058 242.435 153.405 242.37 153.777 242.37C154.306 242.37 154.791 242.504 155.233 242.773C155.684 243.042 156.044 243.427 156.312 243.93C156.581 244.433 156.715 245.039 156.715 245.75C156.715 246.452 156.577 247.059 156.299 247.57C156.031 248.073 155.671 248.458 155.22 248.727C154.77 248.996 154.276 249.13 153.738 249.13C153.201 249.13 152.729 249 152.321 248.74C151.923 248.471 151.637 248.133 151.463 247.726L151.593 247.531V251.73H150.553ZM153.634 248.22C154.276 248.22 154.774 247.995 155.129 247.544C155.493 247.093 155.675 246.495 155.675 245.75C155.675 245.005 155.498 244.407 155.142 243.956C154.796 243.505 154.306 243.28 153.673 243.28C153.257 243.28 152.893 243.384 152.581 243.592C152.269 243.791 152.027 244.077 151.853 244.45C151.68 244.814 151.593 245.247 151.593 245.75C151.593 246.244 151.676 246.677 151.84 247.05C152.014 247.423 152.252 247.713 152.555 247.921C152.867 248.12 153.227 248.22 153.634 248.22ZM159.692 239.51V247.349C159.692 247.678 159.753 247.908 159.874 248.038C159.995 248.159 160.19 248.22 160.459 248.22C160.632 248.22 160.775 248.207 160.888 248.181C161.001 248.155 161.152 248.107 161.343 248.038L161.174 248.948C161.035 249.009 160.884 249.052 160.719 249.078C160.554 249.113 160.385 249.13 160.212 249.13C159.683 249.13 159.289 248.987 159.029 248.701C158.778 248.415 158.652 247.977 158.652 247.388V239.51H159.692ZM165.395 249.13C164.779 249.13 164.229 248.996 163.744 248.727C163.267 248.458 162.894 248.073 162.626 247.57C162.357 247.059 162.223 246.452 162.223 245.75C162.223 245.048 162.357 244.446 162.626 243.943C162.894 243.432 163.263 243.042 163.731 242.773C164.199 242.504 164.732 242.37 165.33 242.37C165.936 242.37 166.452 242.5 166.877 242.76C167.31 243.02 167.639 243.375 167.865 243.826C168.09 244.268 168.203 244.766 168.203 245.321C168.203 245.468 168.198 245.603 168.19 245.724C168.181 245.845 168.168 245.954 168.151 246.049H162.899V245.126H167.696L167.163 245.23C167.163 244.606 166.989 244.125 166.643 243.787C166.305 243.449 165.858 243.28 165.304 243.28C164.879 243.28 164.511 243.38 164.199 243.579C163.895 243.77 163.657 244.051 163.484 244.424C163.319 244.788 163.237 245.23 163.237 245.75C163.237 246.261 163.323 246.703 163.497 247.076C163.67 247.449 163.913 247.735 164.225 247.934C164.545 248.125 164.927 248.22 165.369 248.22C165.845 248.22 166.231 248.129 166.526 247.947C166.829 247.765 167.072 247.518 167.254 247.206L168.073 247.687C167.908 247.982 167.696 248.237 167.436 248.454C167.184 248.671 166.885 248.84 166.539 248.961C166.201 249.074 165.819 249.13 165.395 249.13ZM170.563 242.5L172.5 245.217L172.565 245.308L175.23 249H173.956L171.941 246.179L171.824 246.036L169.263 242.5H170.563ZM175.191 242.5L172.617 245.971H172.552L170.316 249H169.107L171.941 245.269H172.019L173.969 242.5H175.191ZM181.048 249V242.5H181.958L182.023 243.514C182.257 243.115 182.56 242.825 182.933 242.643C183.314 242.461 183.704 242.37 184.103 242.37C184.562 242.37 184.995 242.474 185.403 242.682C185.81 242.89 186.122 243.211 186.339 243.644C186.477 243.349 186.672 243.111 186.924 242.929C187.175 242.738 187.448 242.6 187.743 242.513C188.046 242.418 188.332 242.37 188.601 242.37C189.017 242.37 189.411 242.457 189.784 242.63C190.165 242.803 190.477 243.072 190.72 243.436C190.962 243.8 191.084 244.268 191.084 244.84V249H190.044V244.944C190.044 244.355 189.896 243.93 189.602 243.67C189.307 243.41 188.943 243.28 188.51 243.28C188.172 243.28 187.855 243.362 187.561 243.527C187.266 243.692 187.028 243.934 186.846 244.255C186.672 244.576 186.586 244.97 186.586 245.438V249H185.546V244.944C185.546 244.355 185.398 243.93 185.104 243.67C184.809 243.41 184.445 243.28 184.012 243.28C183.726 243.28 183.431 243.358 183.128 243.514C182.833 243.661 182.586 243.9 182.387 244.229C182.187 244.558 182.088 244.992 182.088 245.529V249H181.048ZM196.129 242.37C196.745 242.37 197.286 242.504 197.754 242.773C198.231 243.042 198.604 243.432 198.872 243.943C199.141 244.446 199.275 245.048 199.275 245.75C199.275 246.452 199.141 247.059 198.872 247.57C198.604 248.073 198.231 248.458 197.754 248.727C197.286 248.996 196.745 249.13 196.129 249.13C195.523 249.13 194.981 248.996 194.504 248.727C194.028 248.458 193.655 248.073 193.386 247.57C193.118 247.059 192.983 246.452 192.983 245.75C192.983 245.048 193.118 244.446 193.386 243.943C193.655 243.432 194.028 243.042 194.504 242.773C194.981 242.504 195.523 242.37 196.129 242.37ZM196.129 243.267C195.687 243.267 195.31 243.367 194.998 243.566C194.686 243.765 194.444 244.051 194.27 244.424C194.106 244.788 194.023 245.23 194.023 245.75C194.023 246.261 194.106 246.703 194.27 247.076C194.444 247.449 194.686 247.735 194.998 247.934C195.31 248.133 195.687 248.233 196.129 248.233C196.571 248.233 196.948 248.133 197.26 247.934C197.572 247.735 197.811 247.449 197.975 247.076C198.149 246.703 198.235 246.261 198.235 245.75C198.235 245.23 198.149 244.788 197.975 244.424C197.811 244.051 197.572 243.765 197.26 243.566C196.948 243.367 196.571 243.267 196.129 243.267ZM203.768 249.13C203.231 249.13 202.737 248.996 202.286 248.727C201.836 248.458 201.476 248.073 201.207 247.57C200.939 247.059 200.804 246.452 200.804 245.75C200.804 245.031 200.947 244.42 201.233 243.917C201.519 243.414 201.896 243.033 202.364 242.773C202.832 242.504 203.335 242.37 203.872 242.37C204.41 242.37 204.873 242.509 205.263 242.786C205.662 243.063 205.926 243.432 206.056 243.891L205.926 243.982V239.51H206.966V249H206.056L205.965 247.427L206.108 247.349C206.048 247.73 205.9 248.055 205.666 248.324C205.441 248.584 205.159 248.783 204.821 248.922C204.492 249.061 204.141 249.13 203.768 249.13ZM203.872 248.22C204.288 248.22 204.648 248.116 204.951 247.908C205.263 247.7 205.502 247.405 205.666 247.024C205.84 246.634 205.926 246.179 205.926 245.659C205.926 245.165 205.84 244.74 205.666 244.385C205.502 244.03 205.268 243.757 204.964 243.566C204.67 243.375 204.323 243.28 203.924 243.28C203.266 243.28 202.754 243.505 202.39 243.956C202.026 244.407 201.844 245.005 201.844 245.75C201.844 246.495 202.022 247.093 202.377 247.544C202.733 247.995 203.231 248.22 203.872 248.22ZM212.101 249.13C211.485 249.13 210.935 248.996 210.45 248.727C209.973 248.458 209.6 248.073 209.332 247.57C209.063 247.059 208.929 246.452 208.929 245.75C208.929 245.048 209.063 244.446 209.332 243.943C209.6 243.432 209.969 243.042 210.437 242.773C210.905 242.504 211.438 242.37 212.036 242.37C212.642 242.37 213.158 242.5 213.583 242.76C214.016 243.02 214.345 243.375 214.571 243.826C214.796 244.268 214.909 244.766 214.909 245.321C214.909 245.468 214.904 245.603 214.896 245.724C214.887 245.845 214.874 245.954 214.857 246.049H209.605V245.126H214.402L213.869 245.23C213.869 244.606 213.695 244.125 213.349 243.787C213.011 243.449 212.564 243.28 212.01 243.28C211.585 243.28 211.217 243.38 210.905 243.579C210.601 243.77 210.363 244.051 210.19 244.424C210.025 244.788 209.943 245.23 209.943 245.75C209.943 246.261 210.029 246.703 210.203 247.076C210.376 247.449 210.619 247.735 210.931 247.934C211.251 248.125 211.633 248.22 212.075 248.22C212.551 248.22 212.937 248.129 213.232 247.947C213.535 247.765 213.778 247.518 213.96 247.206L214.779 247.687C214.614 247.982 214.402 248.237 214.142 248.454C213.89 248.671 213.591 248.84 213.245 248.961C212.907 249.074 212.525 249.13 212.101 249.13ZM217.874 239.51V247.349C217.874 247.678 217.935 247.908 218.056 248.038C218.178 248.159 218.373 248.22 218.641 248.22C218.815 248.22 218.958 248.207 219.07 248.181C219.183 248.155 219.335 248.107 219.525 248.038L219.356 248.948C219.218 249.009 219.066 249.052 218.901 249.078C218.737 249.113 218.568 249.13 218.394 249.13C217.866 249.13 217.471 248.987 217.211 248.701C216.96 248.415 216.834 247.977 216.834 247.388V239.51H217.874ZM223.2 249.13C222.567 249.13 221.982 248.996 221.445 248.727C220.916 248.458 220.509 248.077 220.223 247.583L221.107 246.946C221.298 247.345 221.575 247.657 221.939 247.882C222.312 248.107 222.758 248.22 223.278 248.22C223.737 248.22 224.097 248.133 224.357 247.96C224.617 247.778 224.747 247.544 224.747 247.258C224.747 247.076 224.686 246.911 224.565 246.764C224.452 246.608 224.231 246.495 223.902 246.426L222.342 246.101C221.709 245.971 221.254 245.754 220.977 245.451C220.708 245.148 220.574 244.771 220.574 244.32C220.574 243.965 220.674 243.64 220.873 243.345C221.081 243.05 221.371 242.816 221.744 242.643C222.125 242.461 222.572 242.37 223.083 242.37C223.724 242.37 224.266 242.496 224.708 242.747C225.15 242.998 225.479 243.354 225.696 243.813L224.825 244.385C224.678 244.004 224.439 243.726 224.11 243.553C223.781 243.371 223.438 243.28 223.083 243.28C222.771 243.28 222.502 243.323 222.277 243.41C222.06 243.497 221.891 243.618 221.77 243.774C221.657 243.921 221.601 244.09 221.601 244.281C221.601 244.472 221.666 244.649 221.796 244.814C221.926 244.97 222.169 245.083 222.524 245.152L224.149 245.49C224.756 245.611 225.18 245.811 225.423 246.088C225.666 246.365 225.787 246.703 225.787 247.102C225.787 247.509 225.679 247.869 225.462 248.181C225.245 248.484 224.942 248.718 224.552 248.883C224.162 249.048 223.711 249.13 223.2 249.13ZM235.942 244.801C235.942 244.316 235.812 243.943 235.552 243.683C235.292 243.414 234.924 243.28 234.447 243.28C233.997 243.28 233.615 243.38 233.303 243.579C232.991 243.77 232.762 244.082 232.614 244.515L231.769 243.995C231.943 243.51 232.263 243.12 232.731 242.825C233.199 242.522 233.78 242.37 234.473 242.37C234.941 242.37 235.366 242.452 235.747 242.617C236.129 242.773 236.428 243.016 236.644 243.345C236.87 243.666 236.982 244.082 236.982 244.593V247.739C236.982 248.051 237.147 248.207 237.476 248.207C237.641 248.207 237.801 248.185 237.957 248.142L237.905 248.961C237.732 249.048 237.507 249.091 237.229 249.091C236.978 249.091 236.753 249.043 236.553 248.948C236.354 248.853 236.198 248.71 236.085 248.519C235.973 248.32 235.916 248.073 235.916 247.778V247.648L236.176 247.687C236.072 248.025 235.895 248.302 235.643 248.519C235.392 248.727 235.11 248.883 234.798 248.987C234.486 249.082 234.179 249.13 233.875 249.13C233.494 249.13 233.139 249.065 232.809 248.935C232.48 248.805 232.216 248.61 232.016 248.35C231.826 248.081 231.73 247.752 231.73 247.362C231.73 246.877 231.891 246.478 232.211 246.166C232.541 245.845 232.996 245.629 233.576 245.516L236.15 245.009V245.867L234.057 246.296C233.633 246.383 233.316 246.504 233.108 246.66C232.9 246.816 232.796 247.033 232.796 247.31C232.796 247.579 232.9 247.8 233.108 247.973C233.325 248.138 233.628 248.22 234.018 248.22C234.27 248.22 234.508 248.19 234.733 248.129C234.967 248.06 235.175 247.96 235.357 247.83C235.539 247.691 235.682 247.522 235.786 247.323C235.89 247.115 235.942 246.872 235.942 246.595V244.801ZM240.498 239.51V247.349C240.498 247.678 240.558 247.908 240.68 248.038C240.801 248.159 240.996 248.22 241.265 248.22C241.438 248.22 241.581 248.207 241.694 248.181C241.806 248.155 241.958 248.107 242.149 248.038L241.98 248.948C241.841 249.009 241.689 249.052 241.525 249.078C241.36 249.113 241.191 249.13 241.018 249.13C240.489 249.13 240.095 248.987 239.835 248.701C239.583 248.415 239.458 247.977 239.458 247.388V239.51H240.498ZM244.471 239.51V247.349C244.471 247.678 244.532 247.908 244.653 248.038C244.775 248.159 244.97 248.22 245.238 248.22C245.412 248.22 245.555 248.207 245.667 248.181C245.78 248.155 245.932 248.107 246.122 248.038L245.953 248.948C245.815 249.009 245.663 249.052 245.498 249.078C245.334 249.113 245.165 249.13 244.991 249.13C244.463 249.13 244.068 248.987 243.808 248.701C243.557 248.415 243.431 247.977 243.431 247.388V239.51H244.471ZM250.148 242.37C250.763 242.37 251.305 242.504 251.773 242.773C252.249 243.042 252.622 243.432 252.891 243.943C253.159 244.446 253.294 245.048 253.294 245.75C253.294 246.452 253.159 247.059 252.891 247.57C252.622 248.073 252.249 248.458 251.773 248.727C251.305 248.996 250.763 249.13 250.148 249.13C249.541 249.13 248.999 248.996 248.523 248.727C248.046 248.458 247.673 248.073 247.405 247.57C247.136 247.059 247.002 246.452 247.002 245.75C247.002 245.048 247.136 244.446 247.405 243.943C247.673 243.432 248.046 243.042 248.523 242.773C248.999 242.504 249.541 242.37 250.148 242.37ZM250.148 243.267C249.706 243.267 249.329 243.367 249.017 243.566C248.705 243.765 248.462 244.051 248.289 244.424C248.124 244.788 248.042 245.23 248.042 245.75C248.042 246.261 248.124 246.703 248.289 247.076C248.462 247.449 248.705 247.735 249.017 247.934C249.329 248.133 249.706 248.233 250.148 248.233C250.59 248.233 250.967 248.133 251.279 247.934C251.591 247.735 251.829 247.449 251.994 247.076C252.167 246.703 252.254 246.261 252.254 245.75C252.254 245.23 252.167 244.788 251.994 244.424C251.829 244.051 251.591 243.765 251.279 243.566C250.967 243.367 250.59 243.267 250.148 243.267ZM263.2 242.5H264.357L262.095 249H261.055L259.222 243.826L257.493 249H256.453L254.191 242.5H255.348L256.986 247.791L258.754 242.5H259.794L261.562 247.791L263.2 242.5ZM268.116 249.13C267.483 249.13 266.898 248.996 266.361 248.727C265.832 248.458 265.425 248.077 265.139 247.583L266.023 246.946C266.214 247.345 266.491 247.657 266.855 247.882C267.228 248.107 267.674 248.22 268.194 248.22C268.653 248.22 269.013 248.133 269.273 247.96C269.533 247.778 269.663 247.544 269.663 247.258C269.663 247.076 269.602 246.911 269.481 246.764C269.368 246.608 269.147 246.495 268.818 246.426L267.258 246.101C266.625 245.971 266.17 245.754 265.893 245.451C265.624 245.148 265.49 244.771 265.49 244.32C265.49 243.965 265.59 243.64 265.789 243.345C265.997 243.05 266.287 242.816 266.66 242.643C267.041 242.461 267.488 242.37 267.999 242.37C268.64 242.37 269.182 242.496 269.624 242.747C270.066 242.998 270.395 243.354 270.612 243.813L269.741 244.385C269.594 244.004 269.355 243.726 269.026 243.553C268.697 243.371 268.354 243.28 267.999 243.28C267.687 243.28 267.418 243.323 267.193 243.41C266.976 243.497 266.807 243.618 266.686 243.774C266.573 243.921 266.517 244.09 266.517 244.281C266.517 244.472 266.582 244.649 266.712 244.814C266.842 244.97 267.085 245.083 267.44 245.152L269.065 245.49C269.672 245.611 270.096 245.811 270.339 246.088C270.582 246.365 270.703 246.703 270.703 247.102C270.703 247.509 270.595 247.869 270.378 248.181C270.161 248.484 269.858 248.718 269.468 248.883C269.078 249.048 268.627 249.13 268.116 249.13Z" fill="white"/>
<path d="M28.1888 271.13C27.7728 271.13 27.3785 271.052 27.0058 270.896C26.6418 270.74 26.3428 270.489 26.1088 270.142C25.8835 269.787 25.7708 269.327 25.7708 268.764V264.5H26.8108V268.491C26.8108 269.15 26.9538 269.605 27.2398 269.856C27.5258 270.099 27.9288 270.22 28.4488 270.22C28.6915 270.22 28.9298 270.181 29.1638 270.103C29.3978 270.016 29.6058 269.886 29.7878 269.713C29.9785 269.531 30.1258 269.301 30.2298 269.024C30.3425 268.747 30.3988 268.417 30.3988 268.036V264.5H31.4388V271H30.5288L30.4638 270.012C30.2385 270.402 29.9308 270.688 29.5408 270.87C29.1595 271.043 28.7088 271.13 28.1888 271.13ZM36.1993 271.13C35.5666 271.13 34.9816 270.996 34.4443 270.727C33.9156 270.458 33.5083 270.077 33.2223 269.583L34.1063 268.946C34.2969 269.345 34.5743 269.657 34.9383 269.882C35.3109 270.107 35.7573 270.22 36.2773 270.22C36.7366 270.22 37.0963 270.133 37.3563 269.96C37.6163 269.778 37.7463 269.544 37.7463 269.258C37.7463 269.076 37.6856 268.911 37.5643 268.764C37.4516 268.608 37.2306 268.495 36.9013 268.426L35.3413 268.101C34.7086 267.971 34.2536 267.754 33.9763 267.451C33.7076 267.148 33.5733 266.771 33.5733 266.32C33.5733 265.965 33.6729 265.64 33.8723 265.345C34.0803 265.05 34.3706 264.816 34.7433 264.643C35.1246 264.461 35.5709 264.37 36.0823 264.37C36.7236 264.37 37.2653 264.496 37.7073 264.747C38.1493 264.998 38.4786 265.354 38.6953 265.813L37.8243 266.385C37.6769 266.004 37.4386 265.726 37.1093 265.553C36.7799 265.371 36.4376 265.28 36.0823 265.28C35.7703 265.28 35.5016 265.323 35.2763 265.41C35.0596 265.497 34.8906 265.618 34.7693 265.774C34.6566 265.921 34.6003 266.09 34.6003 266.281C34.6003 266.472 34.6653 266.649 34.7953 266.814C34.9253 266.97 35.1679 267.083 35.5233 267.152L37.1483 267.49C37.7549 267.611 38.1796 267.811 38.4223 268.088C38.6649 268.365 38.7863 268.703 38.7863 269.102C38.7863 269.509 38.6779 269.869 38.4613 270.181C38.2446 270.484 37.9413 270.718 37.5513 270.883C37.1613 271.048 36.7106 271.13 36.1993 271.13ZM46.4255 262.654V269.206C46.4255 269.527 46.5165 269.765 46.6985 269.921C46.8805 270.077 47.1145 270.155 47.4005 270.155C47.6518 270.155 47.8685 270.112 48.0505 270.025C48.2325 269.938 48.3972 269.821 48.5445 269.674L48.9085 270.545C48.7092 270.727 48.4708 270.87 48.1935 270.974C47.9248 271.078 47.6128 271.13 47.2575 271.13C46.9282 271.13 46.6205 271.074 46.3345 270.961C46.0485 270.84 45.8188 270.653 45.6455 270.402C45.4808 270.142 45.3942 269.804 45.3855 269.388V262.94L46.4255 262.654ZM48.7915 264.5V265.397H44.0855V264.5H48.7915ZM53.0288 264.37C53.6441 264.37 54.1858 264.504 54.6538 264.773C55.1305 265.042 55.5031 265.432 55.7718 265.943C56.0405 266.446 56.1748 267.048 56.1748 267.75C56.1748 268.452 56.0405 269.059 55.7718 269.57C55.5031 270.073 55.1305 270.458 54.6538 270.727C54.1858 270.996 53.6441 271.13 53.0288 271.13C52.4221 271.13 51.8805 270.996 51.4038 270.727C50.9271 270.458 50.5545 270.073 50.2858 269.57C50.0171 269.059 49.8828 268.452 49.8828 267.75C49.8828 267.048 50.0171 266.446 50.2858 265.943C50.5545 265.432 50.9271 265.042 51.4038 264.773C51.8805 264.504 52.4221 264.37 53.0288 264.37ZM53.0288 265.267C52.5868 265.267 52.2098 265.367 51.8978 265.566C51.5858 265.765 51.3431 266.051 51.1698 266.424C51.0051 266.788 50.9228 267.23 50.9228 267.75C50.9228 268.261 51.0051 268.703 51.1698 269.076C51.3431 269.449 51.5858 269.735 51.8978 269.934C52.2098 270.133 52.5868 270.233 53.0288 270.233C53.4708 270.233 53.8478 270.133 54.1598 269.934C54.4718 269.735 54.7101 269.449 54.8748 269.076C55.0481 268.703 55.1348 268.261 55.1348 267.75C55.1348 267.23 55.0481 266.788 54.8748 266.424C54.7101 266.051 54.4718 265.765 54.1598 265.566C53.8478 265.367 53.4708 265.267 53.0288 265.267ZM66.3594 266.801C66.3594 266.316 66.2294 265.943 65.9694 265.683C65.7094 265.414 65.341 265.28 64.8644 265.28C64.4137 265.28 64.0324 265.38 63.7204 265.579C63.4084 265.77 63.1787 266.082 63.0314 266.515L62.1864 265.995C62.3597 265.51 62.6804 265.12 63.1484 264.825C63.6164 264.522 64.197 264.37 64.8904 264.37C65.3584 264.37 65.783 264.452 66.1644 264.617C66.5457 264.773 66.8447 265.016 67.0614 265.345C67.2867 265.666 67.3994 266.082 67.3994 266.593V269.739C67.3994 270.051 67.564 270.207 67.8934 270.207C68.058 270.207 68.2184 270.185 68.3744 270.142L68.3224 270.961C68.149 271.048 67.9237 271.091 67.6464 271.091C67.395 271.091 67.1697 271.043 66.9704 270.948C66.771 270.853 66.615 270.71 66.5024 270.519C66.3897 270.32 66.3334 270.073 66.3334 269.778V269.648L66.5934 269.687C66.4894 270.025 66.3117 270.302 66.0604 270.519C65.809 270.727 65.5274 270.883 65.2154 270.987C64.9034 271.082 64.5957 271.13 64.2924 271.13C63.911 271.13 63.5557 271.065 63.2264 270.935C62.897 270.805 62.6327 270.61 62.4334 270.35C62.2427 270.081 62.1474 269.752 62.1474 269.362C62.1474 268.877 62.3077 268.478 62.6284 268.166C62.9577 267.845 63.4127 267.629 63.9934 267.516L66.5674 267.009V267.867L64.4744 268.296C64.0497 268.383 63.7334 268.504 63.5254 268.66C63.3174 268.816 63.2134 269.033 63.2134 269.31C63.2134 269.579 63.3174 269.8 63.5254 269.973C63.742 270.138 64.0454 270.22 64.4354 270.22C64.6867 270.22 64.925 270.19 65.1504 270.129C65.3844 270.06 65.5924 269.96 65.7744 269.83C65.9564 269.691 66.0994 269.522 66.2034 269.323C66.3074 269.115 66.3594 268.872 66.3594 268.595V266.801ZM72.6177 264.37C73.0683 264.37 73.4627 264.439 73.8007 264.578C74.1473 264.717 74.4463 264.916 74.6977 265.176C74.949 265.436 75.1527 265.744 75.3087 266.099L74.3207 266.567C74.182 266.151 73.9697 265.835 73.6837 265.618C73.4063 265.393 73.0423 265.28 72.5917 265.28C72.1583 265.28 71.7857 265.38 71.4737 265.579C71.1617 265.77 70.9233 266.051 70.7587 266.424C70.594 266.788 70.5117 267.23 70.5117 267.75C70.5117 268.261 70.594 268.703 70.7587 269.076C70.9233 269.449 71.1617 269.735 71.4737 269.934C71.7857 270.125 72.1583 270.22 72.5917 270.22C72.9297 270.22 73.22 270.168 73.4627 270.064C73.714 269.96 73.9177 269.808 74.0737 269.609C74.2383 269.41 74.351 269.167 74.4117 268.881L75.3737 269.219C75.2263 269.618 75.0227 269.96 74.7627 270.246C74.5113 270.532 74.2037 270.753 73.8397 270.909C73.4843 271.056 73.077 271.13 72.6177 271.13C72.011 271.13 71.4693 270.996 70.9927 270.727C70.516 270.458 70.1433 270.073 69.8747 269.57C69.606 269.059 69.4717 268.452 69.4717 267.75C69.4717 267.048 69.606 266.446 69.8747 265.943C70.1433 265.432 70.516 265.042 70.9927 264.773C71.4693 264.504 72.011 264.37 72.6177 264.37ZM79.8921 264.37C80.3427 264.37 80.7371 264.439 81.0751 264.578C81.4217 264.717 81.7207 264.916 81.9721 265.176C82.2234 265.436 82.4271 265.744 82.5831 266.099L81.5951 266.567C81.4564 266.151 81.2441 265.835 80.9581 265.618C80.6807 265.393 80.3167 265.28 79.8661 265.28C79.4327 265.28 79.0601 265.38 78.7481 265.579C78.4361 265.77 78.1977 266.051 78.0331 266.424C77.8684 266.788 77.7861 267.23 77.7861 267.75C77.7861 268.261 77.8684 268.703 78.0331 269.076C78.1977 269.449 78.4361 269.735 78.7481 269.934C79.0601 270.125 79.4327 270.22 79.8661 270.22C80.2041 270.22 80.4944 270.168 80.7371 270.064C80.9884 269.96 81.1921 269.808 81.3481 269.609C81.5127 269.41 81.6254 269.167 81.6861 268.881L82.6481 269.219C82.5007 269.618 82.2971 269.96 82.0371 270.246C81.7857 270.532 81.4781 270.753 81.1141 270.909C80.7587 271.056 80.3514 271.13 79.8921 271.13C79.2854 271.13 78.7437 270.996 78.2671 270.727C77.7904 270.458 77.4177 270.073 77.1491 269.57C76.8804 269.059 76.7461 268.452 76.7461 267.75C76.7461 267.048 76.8804 266.446 77.1491 265.943C77.4177 265.432 77.7904 265.042 78.2671 264.773C78.7437 264.504 79.2854 264.37 79.8921 264.37ZM86.8285 271.13C86.4125 271.13 86.0182 271.052 85.6455 270.896C85.2815 270.74 84.9825 270.489 84.7485 270.142C84.5232 269.787 84.4105 269.327 84.4105 268.764V264.5H85.4505V268.491C85.4505 269.15 85.5935 269.605 85.8795 269.856C86.1655 270.099 86.5685 270.22 87.0885 270.22C87.3312 270.22 87.5695 270.181 87.8035 270.103C88.0375 270.016 88.2455 269.886 88.4275 269.713C88.6182 269.531 88.7655 269.301 88.8695 269.024C88.9822 268.747 89.0385 268.417 89.0385 268.036V264.5H90.0785V271H89.1685L89.1035 270.012C88.8782 270.402 88.5705 270.688 88.1805 270.87C87.7992 271.043 87.3485 271.13 86.8285 271.13ZM92.4989 271V264.5H93.3439L93.4869 265.566C93.6689 265.167 93.9333 264.868 94.2799 264.669C94.6353 264.47 95.0643 264.37 95.5669 264.37C95.6796 264.37 95.8009 264.379 95.9309 264.396C96.0696 264.413 96.1866 264.448 96.2819 264.5L96.0999 265.449C96.0046 265.414 95.9006 265.388 95.7879 265.371C95.6753 265.354 95.5149 265.345 95.3069 265.345C95.0383 265.345 94.7653 265.423 94.4879 265.579C94.2193 265.735 93.9939 265.973 93.8119 266.294C93.6299 266.606 93.5389 267.005 93.5389 267.49V271H92.4989ZM101.424 266.801C101.424 266.316 101.294 265.943 101.034 265.683C100.774 265.414 100.405 265.28 99.9288 265.28C99.4782 265.28 99.0968 265.38 98.7848 265.579C98.4728 265.77 98.2432 266.082 98.0958 266.515L97.2508 265.995C97.4242 265.51 97.7448 265.12 98.2128 264.825C98.6808 264.522 99.2615 264.37 99.9548 264.37C100.423 264.37 100.847 264.452 101.229 264.617C101.61 264.773 101.909 265.016 102.126 265.345C102.351 265.666 102.464 266.082 102.464 266.593V269.739C102.464 270.051 102.628 270.207 102.958 270.207C103.122 270.207 103.283 270.185 103.439 270.142L103.387 270.961C103.213 271.048 102.988 271.091 102.711 271.091C102.459 271.091 102.234 271.043 102.035 270.948C101.835 270.853 101.679 270.71 101.567 270.519C101.454 270.32 101.398 270.073 101.398 269.778V269.648L101.658 269.687C101.554 270.025 101.376 270.302 101.125 270.519C100.873 270.727 100.592 270.883 100.28 270.987C99.9678 271.082 99.6602 271.13 99.3568 271.13C98.9755 271.13 98.6202 271.065 98.2908 270.935C97.9615 270.805 97.6972 270.61 97.4978 270.35C97.3072 270.081 97.2118 269.752 97.2118 269.362C97.2118 268.877 97.3722 268.478 97.6928 268.166C98.0222 267.845 98.4772 267.629 99.0578 267.516L101.632 267.009V267.867L99.5388 268.296C99.1142 268.383 98.7978 268.504 98.5898 268.66C98.3818 268.816 98.2778 269.033 98.2778 269.31C98.2778 269.579 98.3818 269.8 98.5898 269.973C98.8065 270.138 99.1098 270.22 99.4998 270.22C99.7512 270.22 99.9895 270.19 100.215 270.129C100.449 270.06 100.657 269.96 100.839 269.83C101.021 269.691 101.164 269.522 101.268 269.323C101.372 269.115 101.424 268.872 101.424 268.595V266.801ZM106.271 262.654V269.206C106.271 269.527 106.362 269.765 106.544 269.921C106.726 270.077 106.96 270.155 107.246 270.155C107.498 270.155 107.714 270.112 107.896 270.025C108.078 269.938 108.243 269.821 108.39 269.674L108.754 270.545C108.555 270.727 108.317 270.87 108.039 270.974C107.771 271.078 107.459 271.13 107.103 271.13C106.774 271.13 106.466 271.074 106.18 270.961C105.894 270.84 105.665 270.653 105.491 270.402C105.327 270.142 105.24 269.804 105.231 269.388V262.94L106.271 262.654ZM108.637 264.5V265.397H103.931V264.5H108.637ZM112.9 271.13C112.285 271.13 111.735 270.996 111.249 270.727C110.773 270.458 110.4 270.073 110.131 269.57C109.863 269.059 109.728 268.452 109.728 267.75C109.728 267.048 109.863 266.446 110.131 265.943C110.4 265.432 110.768 265.042 111.236 264.773C111.704 264.504 112.237 264.37 112.835 264.37C113.442 264.37 113.958 264.5 114.382 264.76C114.816 265.02 115.145 265.375 115.37 265.826C115.596 266.268 115.708 266.766 115.708 267.321C115.708 267.468 115.704 267.603 115.695 267.724C115.687 267.845 115.674 267.954 115.656 268.049H110.404V267.126H115.201L114.668 267.23C114.668 266.606 114.495 266.125 114.148 265.787C113.81 265.449 113.364 265.28 112.809 265.28C112.385 265.28 112.016 265.38 111.704 265.579C111.401 265.77 111.163 266.051 110.989 266.424C110.825 266.788 110.742 267.23 110.742 267.75C110.742 268.261 110.829 268.703 111.002 269.076C111.176 269.449 111.418 269.735 111.73 269.934C112.051 270.125 112.432 270.22 112.874 270.22C113.351 270.22 113.737 270.129 114.031 269.947C114.335 269.765 114.577 269.518 114.759 269.206L115.578 269.687C115.414 269.982 115.201 270.237 114.941 270.454C114.69 270.671 114.391 270.84 114.044 270.961C113.706 271.074 113.325 271.13 112.9 271.13ZM118.674 261.51V269.349C118.674 269.678 118.735 269.908 118.856 270.038C118.978 270.159 119.173 270.22 119.441 270.22C119.615 270.22 119.758 270.207 119.87 270.181C119.983 270.155 120.135 270.107 120.325 270.038L120.156 270.948C120.018 271.009 119.866 271.052 119.701 271.078C119.537 271.113 119.368 271.13 119.194 271.13C118.666 271.13 118.271 270.987 118.011 270.701C117.76 270.415 117.634 269.977 117.634 269.388V261.51H118.674ZM126.673 264.5L123.618 272.092C123.453 272.517 123.271 272.85 123.072 273.093C122.881 273.344 122.665 273.522 122.422 273.626C122.188 273.739 121.915 273.795 121.603 273.795C121.308 273.795 121.035 273.752 120.784 273.665C120.541 273.587 120.325 273.479 120.134 273.34L120.42 272.43C120.593 272.586 120.775 272.699 120.966 272.768C121.165 272.846 121.36 272.885 121.551 272.885C121.776 272.885 121.989 272.816 122.188 272.677C122.387 272.538 122.569 272.257 122.734 271.832L123.072 270.987L122.422 269.44L120.355 264.5H121.538L123.163 268.738L123.566 269.895L124.034 268.608L125.555 264.5H126.673ZM134.531 261.445C134.757 261.445 134.969 261.471 135.168 261.523C135.368 261.575 135.524 261.649 135.636 261.744L135.363 262.589C135.259 262.52 135.147 262.472 135.025 262.446C134.904 262.411 134.77 262.394 134.622 262.394C134.25 262.394 133.959 262.485 133.751 262.667C133.543 262.84 133.439 263.122 133.439 263.512V264.5V264.838V271H132.399V263.408C132.399 263.122 132.443 262.858 132.529 262.615C132.616 262.372 132.746 262.164 132.919 261.991C133.101 261.818 133.327 261.683 133.595 261.588C133.864 261.493 134.176 261.445 134.531 261.445ZM135.61 264.5V265.397H131.099V264.5H135.61ZM139.509 264.37C140.125 264.37 140.666 264.504 141.134 264.773C141.611 265.042 141.984 265.432 142.252 265.943C142.521 266.446 142.655 267.048 142.655 267.75C142.655 268.452 142.521 269.059 142.252 269.57C141.984 270.073 141.611 270.458 141.134 270.727C140.666 270.996 140.125 271.13 139.509 271.13C138.903 271.13 138.361 270.996 137.884 270.727C137.408 270.458 137.035 270.073 136.766 269.57C136.498 269.059 136.363 268.452 136.363 267.75C136.363 267.048 136.498 266.446 136.766 265.943C137.035 265.432 137.408 265.042 137.884 264.773C138.361 264.504 138.903 264.37 139.509 264.37ZM139.509 265.267C139.067 265.267 138.69 265.367 138.378 265.566C138.066 265.765 137.824 266.051 137.65 266.424C137.486 266.788 137.403 267.23 137.403 267.75C137.403 268.261 137.486 268.703 137.65 269.076C137.824 269.449 138.066 269.735 138.378 269.934C138.69 270.133 139.067 270.233 139.509 270.233C139.951 270.233 140.328 270.133 140.64 269.934C140.952 269.735 141.191 269.449 141.355 269.076C141.529 268.703 141.615 268.261 141.615 267.75C141.615 267.23 141.529 266.788 141.355 266.424C141.191 266.051 140.952 265.765 140.64 265.566C140.328 265.367 139.951 265.267 139.509 265.267ZM144.613 271V264.5H145.458L145.601 265.566C145.783 265.167 146.048 264.868 146.394 264.669C146.75 264.47 147.179 264.37 147.681 264.37C147.794 264.37 147.915 264.379 148.045 264.396C148.184 264.413 148.301 264.448 148.396 264.5L148.214 265.449C148.119 265.414 148.015 265.388 147.902 265.371C147.79 265.354 147.629 265.345 147.421 265.345C147.153 265.345 146.88 265.423 146.602 265.579C146.334 265.735 146.108 265.973 145.926 266.294C145.744 266.606 145.653 267.005 145.653 267.49V271H144.613ZM152.434 271.13C151.818 271.13 151.268 270.996 150.783 270.727C150.306 270.458 149.933 270.073 149.665 269.57C149.396 269.059 149.262 268.452 149.262 267.75C149.262 267.048 149.396 266.446 149.665 265.943C149.933 265.432 150.302 265.042 150.77 264.773C151.238 264.504 151.771 264.37 152.369 264.37C152.975 264.37 153.491 264.5 153.916 264.76C154.349 265.02 154.678 265.375 154.904 265.826C155.129 266.268 155.242 266.766 155.242 267.321C155.242 267.468 155.237 267.603 155.229 267.724C155.22 267.845 155.207 267.954 155.19 268.049H149.938V267.126H154.735L154.202 267.23C154.202 266.606 154.028 266.125 153.682 265.787C153.344 265.449 152.897 265.28 152.343 265.28C151.918 265.28 151.55 265.38 151.238 265.579C150.934 265.77 150.696 266.051 150.523 266.424C150.358 266.788 150.276 267.23 150.276 267.75C150.276 268.261 150.362 268.703 150.536 269.076C150.709 269.449 150.952 269.735 151.264 269.934C151.584 270.125 151.966 270.22 152.408 270.22C152.884 270.22 153.27 270.129 153.565 269.947C153.868 269.765 154.111 269.518 154.293 269.206L155.112 269.687C154.947 269.982 154.735 270.237 154.475 270.454C154.223 270.671 153.924 270.84 153.578 270.961C153.24 271.074 152.858 271.13 152.434 271.13ZM159.911 264.37C160.361 264.37 160.756 264.439 161.094 264.578C161.44 264.717 161.739 264.916 161.991 265.176C162.242 265.436 162.446 265.744 162.602 266.099L161.614 266.567C161.475 266.151 161.263 265.835 160.977 265.618C160.699 265.393 160.335 265.28 159.885 265.28C159.451 265.28 159.079 265.38 158.767 265.579C158.455 265.77 158.216 266.051 158.052 266.424C157.887 266.788 157.805 267.23 157.805 267.75C157.805 268.261 157.887 268.703 158.052 269.076C158.216 269.449 158.455 269.735 158.767 269.934C159.079 270.125 159.451 270.22 159.885 270.22C160.223 270.22 160.513 270.168 160.756 270.064C161.007 269.96 161.211 269.808 161.367 269.609C161.531 269.41 161.644 269.167 161.705 268.881L162.667 269.219C162.519 269.618 162.316 269.96 162.056 270.246C161.804 270.532 161.497 270.753 161.133 270.909C160.777 271.056 160.37 271.13 159.911 271.13C159.304 271.13 158.762 270.996 158.286 270.727C157.809 270.458 157.436 270.073 157.168 269.57C156.899 269.059 156.765 268.452 156.765 267.75C156.765 267.048 156.899 266.446 157.168 265.943C157.436 265.432 157.809 265.042 158.286 264.773C158.762 264.504 159.304 264.37 159.911 264.37ZM168.29 266.801C168.29 266.316 168.16 265.943 167.9 265.683C167.64 265.414 167.272 265.28 166.795 265.28C166.344 265.28 165.963 265.38 165.651 265.579C165.339 265.77 165.109 266.082 164.962 266.515L164.117 265.995C164.29 265.51 164.611 265.12 165.079 264.825C165.547 264.522 166.128 264.37 166.821 264.37C167.289 264.37 167.714 264.452 168.095 264.617C168.476 264.773 168.775 265.016 168.992 265.345C169.217 265.666 169.33 266.082 169.33 266.593V269.739C169.33 270.051 169.495 270.207 169.824 270.207C169.989 270.207 170.149 270.185 170.305 270.142L170.253 270.961C170.08 271.048 169.854 271.091 169.577 271.091C169.326 271.091 169.1 271.043 168.901 270.948C168.702 270.853 168.546 270.71 168.433 270.519C168.32 270.32 168.264 270.073 168.264 269.778V269.648L168.524 269.687C168.42 270.025 168.242 270.302 167.991 270.519C167.74 270.727 167.458 270.883 167.146 270.987C166.834 271.082 166.526 271.13 166.223 271.13C165.842 271.13 165.486 271.065 165.157 270.935C164.828 270.805 164.563 270.61 164.364 270.35C164.173 270.081 164.078 269.752 164.078 269.362C164.078 268.877 164.238 268.478 164.559 268.166C164.888 267.845 165.343 267.629 165.924 267.516L168.498 267.009V267.867L166.405 268.296C165.98 268.383 165.664 268.504 165.456 268.66C165.248 268.816 165.144 269.033 165.144 269.31C165.144 269.579 165.248 269.8 165.456 269.973C165.673 270.138 165.976 270.22 166.366 270.22C166.617 270.22 166.856 270.19 167.081 270.129C167.315 270.06 167.523 269.96 167.705 269.83C167.887 269.691 168.03 269.522 168.134 269.323C168.238 269.115 168.29 268.872 168.29 268.595V266.801ZM174.197 271.13C173.565 271.13 172.98 270.996 172.442 270.727C171.914 270.458 171.506 270.077 171.22 269.583L172.104 268.946C172.295 269.345 172.572 269.657 172.936 269.882C173.309 270.107 173.755 270.22 174.275 270.22C174.735 270.22 175.094 270.133 175.354 269.96C175.614 269.778 175.744 269.544 175.744 269.258C175.744 269.076 175.684 268.911 175.562 268.764C175.45 268.608 175.229 268.495 174.899 268.426L173.339 268.101C172.707 267.971 172.252 267.754 171.974 267.451C171.706 267.148 171.571 266.771 171.571 266.32C171.571 265.965 171.671 265.64 171.87 265.345C172.078 265.05 172.369 264.816 172.741 264.643C173.123 264.461 173.569 264.37 174.08 264.37C174.722 264.37 175.263 264.496 175.705 264.747C176.147 264.998 176.477 265.354 176.693 265.813L175.822 266.385C175.675 266.004 175.437 265.726 175.107 265.553C174.778 265.371 174.436 265.28 174.08 265.28C173.768 265.28 173.5 265.323 173.274 265.41C173.058 265.497 172.889 265.618 172.767 265.774C172.655 265.921 172.598 266.09 172.598 266.281C172.598 266.472 172.663 266.649 172.793 266.814C172.923 266.97 173.166 267.083 173.521 267.152L175.146 267.49C175.753 267.611 176.178 267.811 176.42 268.088C176.663 268.365 176.784 268.703 176.784 269.102C176.784 269.509 176.676 269.869 176.459 270.181C176.243 270.484 175.939 270.718 175.549 270.883C175.159 271.048 174.709 271.13 174.197 271.13ZM180.247 262.654V269.206C180.247 269.527 180.338 269.765 180.52 269.921C180.702 270.077 180.936 270.155 181.222 270.155C181.473 270.155 181.69 270.112 181.872 270.025C182.054 269.938 182.218 269.821 182.366 269.674L182.73 270.545C182.53 270.727 182.292 270.87 182.015 270.974C181.746 271.078 181.434 271.13 181.079 271.13C180.749 271.13 180.442 271.074 180.156 270.961C179.87 270.84 179.64 270.653 179.467 270.402C179.302 270.142 179.215 269.804 179.207 269.388V262.94L180.247 262.654ZM182.613 264.5V265.397H177.907V264.5H182.613ZM190.93 271.13C190.297 271.13 189.712 270.996 189.175 270.727C188.646 270.458 188.239 270.077 187.953 269.583L188.837 268.946C189.027 269.345 189.305 269.657 189.669 269.882C190.041 270.107 190.488 270.22 191.008 270.22C191.467 270.22 191.827 270.133 192.087 269.96C192.347 269.778 192.477 269.544 192.477 269.258C192.477 269.076 192.416 268.911 192.295 268.764C192.182 268.608 191.961 268.495 191.632 268.426L190.072 268.101C189.439 267.971 188.984 267.754 188.707 267.451C188.438 267.148 188.304 266.771 188.304 266.32C188.304 265.965 188.403 265.64 188.603 265.345C188.811 265.05 189.101 264.816 189.474 264.643C189.855 264.461 190.301 264.37 190.813 264.37C191.454 264.37 191.996 264.496 192.438 264.747C192.88 264.998 193.209 265.354 193.426 265.813L192.555 266.385C192.407 266.004 192.169 265.726 191.84 265.553C191.51 265.371 191.168 265.28 190.813 265.28C190.501 265.28 190.232 265.323 190.007 265.41C189.79 265.497 189.621 265.618 189.5 265.774C189.387 265.921 189.331 266.09 189.331 266.281C189.331 266.472 189.396 266.649 189.526 266.814C189.656 266.97 189.898 267.083 190.254 267.152L191.879 267.49C192.485 267.611 192.91 267.811 193.153 268.088C193.395 268.365 193.517 268.703 193.517 269.102C193.517 269.509 193.408 269.869 193.192 270.181C192.975 270.484 192.672 270.718 192.282 270.883C191.892 271.048 191.441 271.13 190.93 271.13ZM196.979 262.654V269.206C196.979 269.527 197.07 269.765 197.252 269.921C197.434 270.077 197.668 270.155 197.954 270.155C198.206 270.155 198.422 270.112 198.604 270.025C198.786 269.938 198.951 269.821 199.098 269.674L199.462 270.545C199.263 270.727 199.025 270.87 198.747 270.974C198.479 271.078 198.167 271.13 197.811 271.13C197.482 271.13 197.174 271.074 196.888 270.961C196.602 270.84 196.373 270.653 196.199 270.402C196.035 270.142 195.948 269.804 195.939 269.388V262.94L196.979 262.654ZM199.345 264.5V265.397H194.639V264.5H199.345ZM203.582 264.37C204.198 264.37 204.739 264.504 205.207 264.773C205.684 265.042 206.057 265.432 206.325 265.943C206.594 266.446 206.728 267.048 206.728 267.75C206.728 268.452 206.594 269.059 206.325 269.57C206.057 270.073 205.684 270.458 205.207 270.727C204.739 270.996 204.198 271.13 203.582 271.13C202.976 271.13 202.434 270.996 201.957 270.727C201.481 270.458 201.108 270.073 200.839 269.57C200.571 269.059 200.436 268.452 200.436 267.75C200.436 267.048 200.571 266.446 200.839 265.943C201.108 265.432 201.481 265.042 201.957 264.773C202.434 264.504 202.976 264.37 203.582 264.37ZM203.582 265.267C203.14 265.267 202.763 265.367 202.451 265.566C202.139 265.765 201.897 266.051 201.723 266.424C201.559 266.788 201.476 267.23 201.476 267.75C201.476 268.261 201.559 268.703 201.723 269.076C201.897 269.449 202.139 269.735 202.451 269.934C202.763 270.133 203.14 270.233 203.582 270.233C204.024 270.233 204.401 270.133 204.713 269.934C205.025 269.735 205.264 269.449 205.428 269.076C205.602 268.703 205.688 268.261 205.688 267.75C205.688 267.23 205.602 266.788 205.428 266.424C205.264 266.051 205.025 265.765 204.713 265.566C204.401 265.367 204.024 265.267 203.582 265.267ZM211.377 264.37C211.828 264.37 212.222 264.439 212.56 264.578C212.907 264.717 213.206 264.916 213.457 265.176C213.709 265.436 213.912 265.744 214.068 266.099L213.08 266.567C212.942 266.151 212.729 265.835 212.443 265.618C212.166 265.393 211.802 265.28 211.351 265.28C210.918 265.28 210.545 265.38 210.233 265.579C209.921 265.77 209.683 266.051 209.518 266.424C209.354 266.788 209.271 267.23 209.271 267.75C209.271 268.261 209.354 268.703 209.518 269.076C209.683 269.449 209.921 269.735 210.233 269.934C210.545 270.125 210.918 270.22 211.351 270.22C211.689 270.22 211.98 270.168 212.222 270.064C212.474 269.96 212.677 269.808 212.833 269.609C212.998 269.41 213.111 269.167 213.171 268.881L214.133 269.219C213.986 269.618 213.782 269.96 213.522 270.246C213.271 270.532 212.963 270.753 212.599 270.909C212.244 271.056 211.837 271.13 211.377 271.13C210.771 271.13 210.229 270.996 209.752 270.727C209.276 270.458 208.903 270.073 208.634 269.57C208.366 269.059 208.231 268.452 208.231 267.75C208.231 267.048 208.366 266.446 208.634 265.943C208.903 265.432 209.276 265.042 209.752 264.773C210.229 264.504 210.771 264.37 211.377 264.37ZM221.668 264.5L218.86 267.308L218.613 267.555L216.481 269.687V268.387L220.355 264.5H221.668ZM217.001 261.51V271H215.961V261.51H217.001ZM218.951 266.775L221.824 271H220.563L218.08 267.36L218.951 266.775ZM227.475 273.73V264.5H228.385L228.476 266.086L228.333 265.904C228.446 265.601 228.615 265.336 228.84 265.111C229.066 264.877 229.339 264.695 229.659 264.565C229.98 264.435 230.327 264.37 230.699 264.37C231.228 264.37 231.713 264.504 232.155 264.773C232.606 265.042 232.966 265.427 233.234 265.93C233.503 266.433 233.637 267.039 233.637 267.75C233.637 268.452 233.499 269.059 233.221 269.57C232.953 270.073 232.593 270.458 232.142 270.727C231.692 270.996 231.198 271.13 230.66 271.13C230.123 271.13 229.651 271 229.243 270.74C228.845 270.471 228.559 270.133 228.385 269.726L228.515 269.531V273.73H227.475ZM230.556 270.22C231.198 270.22 231.696 269.995 232.051 269.544C232.415 269.093 232.597 268.495 232.597 267.75C232.597 267.005 232.42 266.407 232.064 265.956C231.718 265.505 231.228 265.28 230.595 265.28C230.179 265.28 229.815 265.384 229.503 265.592C229.191 265.791 228.949 266.077 228.775 266.45C228.602 266.814 228.515 267.247 228.515 267.75C228.515 268.244 228.598 268.677 228.762 269.05C228.936 269.423 229.174 269.713 229.477 269.921C229.789 270.12 230.149 270.22 230.556 270.22ZM235.626 271V264.5H236.471L236.614 265.566C236.796 265.167 237.06 264.868 237.407 264.669C237.762 264.47 238.191 264.37 238.694 264.37C238.807 264.37 238.928 264.379 239.058 264.396C239.197 264.413 239.314 264.448 239.409 264.5L239.227 265.449C239.132 265.414 239.028 265.388 238.915 265.371C238.802 265.354 238.642 265.345 238.434 265.345C238.165 265.345 237.892 265.423 237.615 265.579C237.346 265.735 237.121 265.973 236.939 266.294C236.757 266.606 236.666 267.005 236.666 267.49V271H235.626ZM241.453 263.252C241.219 263.252 241.028 263.183 240.881 263.044C240.742 262.897 240.673 262.706 240.673 262.472C240.673 262.238 240.742 262.052 240.881 261.913C241.028 261.766 241.219 261.692 241.453 261.692C241.687 261.692 241.873 261.766 242.012 261.913C242.159 262.052 242.233 262.238 242.233 262.472C242.233 262.706 242.159 262.897 242.012 263.044C241.873 263.183 241.687 263.252 241.453 263.252ZM241.973 264.5V271H240.933V264.5H241.973ZM247.077 264.37C247.527 264.37 247.922 264.439 248.26 264.578C248.606 264.717 248.905 264.916 249.157 265.176C249.408 265.436 249.612 265.744 249.768 266.099L248.78 266.567C248.641 266.151 248.429 265.835 248.143 265.618C247.865 265.393 247.501 265.28 247.051 265.28C246.617 265.28 246.245 265.38 245.933 265.579C245.621 265.77 245.382 266.051 245.218 266.424C245.053 266.788 244.971 267.23 244.971 267.75C244.971 268.261 245.053 268.703 245.218 269.076C245.382 269.449 245.621 269.735 245.933 269.934C246.245 270.125 246.617 270.22 247.051 270.22C247.389 270.22 247.679 270.168 247.922 270.064C248.173 269.96 248.377 269.808 248.533 269.609C248.697 269.41 248.81 269.167 248.871 268.881L249.833 269.219C249.685 269.618 249.482 269.96 249.222 270.246C248.97 270.532 248.663 270.753 248.299 270.909C247.943 271.056 247.536 271.13 247.077 271.13C246.47 271.13 245.928 270.996 245.452 270.727C244.975 270.458 244.602 270.073 244.334 269.57C244.065 269.059 243.931 268.452 243.931 267.75C243.931 267.048 244.065 266.446 244.334 265.943C244.602 265.432 244.975 265.042 245.452 264.773C245.928 264.504 246.47 264.37 247.077 264.37ZM254.377 271.13C253.762 271.13 253.211 270.996 252.726 270.727C252.249 270.458 251.877 270.073 251.608 269.57C251.339 269.059 251.205 268.452 251.205 267.75C251.205 267.048 251.339 266.446 251.608 265.943C251.877 265.432 252.245 265.042 252.713 264.773C253.181 264.504 253.714 264.37 254.312 264.37C254.919 264.37 255.434 264.5 255.859 264.76C256.292 265.02 256.622 265.375 256.847 265.826C257.072 266.268 257.185 266.766 257.185 267.321C257.185 267.468 257.181 267.603 257.172 267.724C257.163 267.845 257.15 267.954 257.133 268.049H251.881V267.126H256.678L256.145 267.23C256.145 266.606 255.972 266.125 255.625 265.787C255.287 265.449 254.841 265.28 254.286 265.28C253.861 265.28 253.493 265.38 253.181 265.579C252.878 265.77 252.639 266.051 252.466 266.424C252.301 266.788 252.219 267.23 252.219 267.75C252.219 268.261 252.306 268.703 252.479 269.076C252.652 269.449 252.895 269.735 253.207 269.934C253.528 270.125 253.909 270.22 254.351 270.22C254.828 270.22 255.213 270.129 255.508 269.947C255.811 269.765 256.054 269.518 256.236 269.206L257.055 269.687C256.89 269.982 256.678 270.237 256.418 270.454C256.167 270.671 255.868 270.84 255.521 270.961C255.183 271.074 254.802 271.13 254.377 271.13ZM261.503 271.13C260.87 271.13 260.285 270.996 259.748 270.727C259.219 270.458 258.812 270.077 258.526 269.583L259.41 268.946C259.601 269.345 259.878 269.657 260.242 269.882C260.615 270.107 261.061 270.22 261.581 270.22C262.04 270.22 262.4 270.133 262.66 269.96C262.92 269.778 263.05 269.544 263.05 269.258C263.05 269.076 262.989 268.911 262.868 268.764C262.755 268.608 262.534 268.495 262.205 268.426L260.645 268.101C260.012 267.971 259.557 267.754 259.28 267.451C259.011 267.148 258.877 266.771 258.877 266.32C258.877 265.965 258.977 265.64 259.176 265.345C259.384 265.05 259.674 264.816 260.047 264.643C260.428 264.461 260.875 264.37 261.386 264.37C262.027 264.37 262.569 264.496 263.011 264.747C263.453 264.998 263.782 265.354 263.999 265.813L263.128 266.385C262.981 266.004 262.742 265.726 262.413 265.553C262.084 265.371 261.741 265.28 261.386 265.28C261.074 265.28 260.805 265.323 260.58 265.41C260.363 265.497 260.194 265.618 260.073 265.774C259.96 265.921 259.904 266.09 259.904 266.281C259.904 266.472 259.969 266.649 260.099 266.814C260.229 266.97 260.472 267.083 260.827 267.152L262.452 267.49C263.059 267.611 263.483 267.811 263.726 268.088C263.969 268.365 264.09 268.703 264.09 269.102C264.09 269.509 263.982 269.869 263.765 270.181C263.548 270.484 263.245 270.718 262.855 270.883C262.465 271.048 262.014 271.13 261.503 271.13ZM266.538 269.44C266.79 269.44 266.993 269.518 267.149 269.674C267.305 269.83 267.383 270.034 267.383 270.285C267.383 270.536 267.305 270.74 267.149 270.896C266.993 271.052 266.79 271.13 266.538 271.13C266.287 271.13 266.083 271.052 265.927 270.896C265.771 270.74 265.693 270.536 265.693 270.285C265.693 270.034 265.771 269.83 265.927 269.674C266.083 269.518 266.287 269.44 266.538 269.44Z" fill="white"/>
</svg>
